<?xml version="1.0" standalone="no"?>
 <!DOCTYPE svg PUBLIC "-//W3C//DTD SVG 1.1//EN" 
 "http://www.w3.org/Graphics/SVG/1.1/DTD/svg11.dtd"> 
<svg
  xmlns:svg="http://www.w3.org/2000/svg"
  xmlns="http://www.w3.org/2000/svg"
  xmlns:xlink="http://www.w3.org/1999/xlink"
  version="1.1"
  width="23.002240cm" height="10.449560cm" viewBox="0 0 230022400 104495600">
<title>SVG Picture created as TipperTF-brd.svg date 2021/12/05 20:09:24 </title>
  <desc>Picture generated by PCBNEW </desc>
<g style="fill:#000000; fill-opacity:1.000000;stroke:#000000; stroke-opacity:1.000000;
stroke-linecap:round; stroke-linejoin:round;"
 transform="translate(0 0) scale(1 1)">
</g>
<g style="fill:#000000; fill-opacity:0.0; 
stroke:#000000; stroke-width:0.000000; stroke-opacity:1; 
stroke-linecap:round; stroke-linejoin:round;">
</g>
<g style="fill:#000000; fill-opacity:0.0; 
stroke:#000000; stroke-width:50000.000000; stroke-opacity:1; 
stroke-linecap:round; stroke-linejoin:round;">
<path d="M112737321 78508183
L112737321 81007020
" />
</g>
<g style="fill:#000000; fill-opacity:0.0; 
stroke:#000000; stroke-width:20000.000000; stroke-opacity:1; 
stroke-linecap:round; stroke-linejoin:round;">
<path d="M224571222.000000,3807420.000000 C224363840.000000,1653728.000000 222554225.000000,10000.000000 220400573.000000,91856.000000" />
<path d="M5463295.000000,3850766.000000 C5670678.000000,1697074.000000 7480294.000000,53346.000000 9633946.000000,135204.000000" />
<path d="M107827261 8208184
L110327262 8208184
" />
</g>
<g style="fill:#000000; fill-opacity:0.0; 
stroke:#000000; stroke-width:50000.000000; stroke-opacity:1; 
stroke-linecap:round; stroke-linejoin:round;">
<path d="M99747259 47978183
L99747261 37961128
" />
</g>
<g style="fill:#000000; fill-opacity:0.0; 
stroke:#000000; stroke-width:20000.000000; stroke-opacity:1; 
stroke-linecap:round; stroke-linejoin:round;">
<path d="M107827261 8208184
L107827262 9958184
" />
<path d="M130215173 53468185
L132735171 53468183
" />
<path d="M148578787 77925
L134962921 9958184
" />
<path d="M3410478 61889385
L81225348 91761678
" />
<path d="M122127258 9958186
L134962921 9958184
" />
</g>
<g style="fill:#000000; fill-opacity:0.0; 
stroke:#000000; stroke-width:50000.000000; stroke-opacity:1; 
stroke-linecap:round; stroke-linejoin:round;">
<path d="M126737258 78508187
L126737262 80958186
" />
<path d="M111725170 35459194
L118237258 35459192
" />
</g>
<g style="fill:#000000; fill-opacity:0.0; 
stroke:#000000; stroke-width:20000.000000; stroke-opacity:1; 
stroke-linecap:round; stroke-linejoin:round;">
<path d="M110327262 14738893
L119627267 14738896
" />
</g>
<g style="fill:#000000; fill-opacity:0.0; 
stroke:#000000; stroke-width:50000.000000; stroke-opacity:1; 
stroke-linecap:round; stroke-linejoin:round;">
<path d="M97247255 64508185
L99747259 64508185
" />
<path d="M111725171 37961129
L111725170 35459194
" />
</g>
<g style="fill:#000000; fill-opacity:0.0; 
stroke:#000000; stroke-width:20000.000000; stroke-opacity:1; 
stroke-linecap:round; stroke-linejoin:round;">
<path d="M229809170.000000,56698331.000000 C230024519.000000,58934793.000000 228721617.000000,61040246.000000 226624039.000000,61846037.000000" />
<path d="M229809170 56698331
L224571222 3807420
" />
</g>
<g style="fill:#000000; fill-opacity:0.0; 
stroke:#000000; stroke-width:50000.000000; stroke-opacity:1; 
stroke-linecap:round; stroke-linejoin:round;">
<path d="M117037321 81007020
L117037321 78508183
" />
<path d="M137312608 71231755
L134837736 73706629
" />
<path d="M130215172 47968186
L130215170 37961131
" />
<path d="M134837736 73706629
L132716412 71585308
" />
</g>
<g style="fill:#000000; fill-opacity:0.0; 
stroke:#000000; stroke-width:20000.000000; stroke-opacity:1; 
stroke-linecap:round; stroke-linejoin:round;">
<path d="M226624039 61846037
L148809171 91718331
" />
<path d="M122127258 8208186
L119627259 8208184
" />
</g>
<g style="fill:#000000; fill-opacity:0.0; 
stroke:#000000; stroke-width:50000.000000; stroke-opacity:1; 
stroke-linecap:round; stroke-linejoin:round;">
<path d="M112737321 78508183
L103247258 78508183
" />
</g>
<g style="fill:#000000; fill-opacity:0.0; 
stroke:#000000; stroke-width:20000.000000; stroke-opacity:1; 
stroke-linecap:round; stroke-linejoin:round;">
<path d="M119627267 14738896
L119627259 8208184
" />
<path d="M110327262 8208184
L110327262 14738893
" />
<circle cx="133617321.000000" cy="57607020.000000" r="2000000.000000" /> 
</g>
<g style="fill:#000000; fill-opacity:0.0; 
stroke:#000000; stroke-width:50000.000000; stroke-opacity:1; 
stroke-linecap:round; stroke-linejoin:round;">
<path d="M97247255 64508185
L97247257 81008182
" />
<path d="M118237258 35459192
L118237258 37961128
" />
<path d="M132716412 71585308
L135191288 69110434
" />
<path d="M132737262 80958183
L126737262 80958186
" />
</g>
<g style="fill:#000000; fill-opacity:0.0; 
stroke:#000000; stroke-width:20000.000000; stroke-opacity:1; 
stroke-linecap:round; stroke-linejoin:round;">
<path d="M225347.000000,56741679.000000 C10000.000000,58978141.000000 1312902.000000,61083594.000000 3410478.000000,61889385.000000" />
</g>
<g style="fill:#000000; fill-opacity:0.0; 
stroke:#000000; stroke-width:50000.000000; stroke-opacity:1; 
stroke-linecap:round; stroke-linejoin:round;">
<path d="M135191288 69110434
L137312608 71231755
" />
<path d="M130215170 37961131
L118237258 37961128
" />
<path d="M97235174 53429194
L97235169 47978182
" />
</g>
<g style="fill:#000000; fill-opacity:0.0; 
stroke:#000000; stroke-width:20000.000000; stroke-opacity:1; 
stroke-linecap:round; stroke-linejoin:round;">
<path d="M129717258 97628183
L129717257 104451727
" />
<path d="M100317261.000000,104495074.000000 C99262245.000000,104496302.000000 98233462.000000,104162029.000000 97379226.000000,103541396.000000" />
<path d="M122127258 8208186
L122127258 9958186
" />
</g>
<g style="fill:#000000; fill-opacity:0.0; 
stroke:#000000; stroke-width:50000.000000; stroke-opacity:1; 
stroke-linecap:round; stroke-linejoin:round;">
<path d="M132737257 74458184
L132737262 80958183
" />
</g>
<g style="fill:#000000; fill-opacity:0.0; 
stroke:#000000; stroke-width:20000.000000; stroke-opacity:1; 
stroke-linecap:round; stroke-linejoin:round;">
<path d="M220400573 91856
L148578787 77925
" />
</g>
<g style="fill:#000000; fill-opacity:0.0; 
stroke:#000000; stroke-width:50000.000000; stroke-opacity:1; 
stroke-linecap:round; stroke-linejoin:round;">
<path d="M99747259 47978183
L97235169 47978182
" />
</g>
<g style="fill:#000000; fill-opacity:0.0; 
stroke:#000000; stroke-width:20000.000000; stroke-opacity:1; 
stroke-linecap:round; stroke-linejoin:round;">
<path d="M129717257.000000,104451727.000000 C130772274.000000,104452956.000000 131801056.000000,104118681.000000 132655292.000000,103498049.000000" />
<path d="M225347 56741679
L5463295 3850766
" />
</g>
<g style="fill:#000000; fill-opacity:0.0; 
stroke:#000000; stroke-width:50000.000000; stroke-opacity:1; 
stroke-linecap:round; stroke-linejoin:round;">
<path d="M112737321 81007020
L117037321 81007020
" />
</g>
<g style="fill:#000000; fill-opacity:0.0; 
stroke:#000000; stroke-width:20000.000000; stroke-opacity:1; 
stroke-linecap:round; stroke-linejoin:round;">
<circle cx="96057321.000000" cy="57597020.000000" r="2000000.000000" /> 
<path d="M100317256 97628183
L129717258 97628183
" />
<path d="M132735171 47968183
L132735171 53468183
" />
</g>
<g style="fill:#000000; fill-opacity:0.0; 
stroke:#000000; stroke-width:50000.000000; stroke-opacity:1; 
stroke-linecap:round; stroke-linejoin:round;">
<path d="M111725171 37961129
L99747261 37961128
" />
</g>
<g style="fill:#000000; fill-opacity:0.0; 
stroke:#000000; stroke-width:20000.000000; stroke-opacity:1; 
stroke-linecap:round; stroke-linejoin:round;">
<path d="M132735171 47968183
L130215172 47968186
" />
<path d="M9633946 135204
L81455731 121273
" />
</g>
<g style="fill:#000000; fill-opacity:0.0; 
stroke:#000000; stroke-width:50000.000000; stroke-opacity:1; 
stroke-linecap:round; stroke-linejoin:round;">
<path d="M97247257 81008182
L103247260 81008185
" />
</g>
<g style="fill:#000000; fill-opacity:0.0; 
stroke:#000000; stroke-width:20000.000000; stroke-opacity:1; 
stroke-linecap:round; stroke-linejoin:round;">
<path d="M107827262 9958184
L94991595 9958186
" />
<path d="M81455731 121273
L94991595 9958186
" />
</g>
<g style="fill:#000000; fill-opacity:0.0; 
stroke:#000000; stroke-width:50000.000000; stroke-opacity:1; 
stroke-linecap:round; stroke-linejoin:round;">
<path d="M97235174 53429194
L99747260 53429195
" />
<path d="M130215169 74458183
L130215173 53468185
" />
<path d="M99747260 53429195
L99747259 64508185
" />
</g>
<g style="fill:#000000; fill-opacity:0.0; 
stroke:#000000; stroke-width:20000.000000; stroke-opacity:1; 
stroke-linecap:round; stroke-linejoin:round;">
<path d="M100317261 104495074
L100317256 97628183
" />
</g>
<g style="fill:#000000; fill-opacity:0.0; 
stroke:#000000; stroke-width:50000.000000; stroke-opacity:1; 
stroke-linecap:round; stroke-linejoin:round;">
<path d="M117037321 78508183
L126737258 78508187
" />
<path d="M132737257 74458184
L130215169 74458183
" />
</g>
<g style="fill:#000000; fill-opacity:0.0; 
stroke:#000000; stroke-width:20000.000000; stroke-opacity:1; 
stroke-linecap:round; stroke-linejoin:round;">
<path d="M132655292 103498049
L148809171 91718331
" />
<path d="M97379226 103541396
L81225348 91761678
" />
</g>
<g style="fill:#000000; fill-opacity:0.0; 
stroke:#000000; stroke-width:50000.000000; stroke-opacity:1; 
stroke-linecap:round; stroke-linejoin:round;">
<path d="M103247258 78508183
L103247260 81008185
" />
<path d="M74171752 86849943
L79188904 73779817
" />
<path d="M79188904 73779817
L66118778 68762665
" />
<path d="M61101626 81832791
L74171752 86849943
" />
<path d="M66118778 68762665
L61101626 81832791
" />
<path d="M168808905 81872791
L163791753 68802665
" />
<path d="M163791753 68802665
L150721627 73819817
" />
<path d="M155738779 86889943
L168808905 81872791
" />
<path d="M150721627 73819817
L155738779 86889943
" />
<path d="M7327165 8575873
L5985324 22511420
" />
<path d="M5985324 22511420
L19920871 23853261
" />
<path d="M19920871 23853261
L21262712 9917714
" />
<path d="M21262712 9917714
L7327165 8575873
" />
<path d="M5697789 25497610
L4355948 39433157
" />
<path d="M4355948 39433157
L18291495 40774998
" />
<path d="M18291495 40774998
L19633336 26839451
" />
<path d="M19633336 26839451
L5697789 25497610
" />
<path d="M4068411 42419344
L2726570 56354891
" />
<path d="M2726570 56354891
L16662117 57696732
" />
<path d="M16662117 57696732
L18003958 43761185
" />
<path d="M18003958 43761185
L4068411 42419344
" />
<path d="M35668373 2001206
L31575169 15389472
" />
<path d="M31575169 15389472
L44963435 19482676
" />
<path d="M44963435 19482676
L49056639 6094410
" />
<path d="M49056639 6094410
L35668373 2001206
" />
<path d="M30698055 18258390
L26604851 31646656
" />
<path d="M26604851 31646656
L39993117 35739860
" />
<path d="M39993117 35739860
L44086321 22351594
" />
<path d="M44086321 22351594
L30698055 18258390
" />
<path d="M25727735 34515568
L21634531 47903834
" />
<path d="M21634531 47903834
L35022797 51997038
" />
<path d="M35022797 51997038
L39116001 38608772
" />
<path d="M39116001 38608772
L25727735 34515568
" />
<path d="M57478778 3352665
L52461626 16422791
" />
<path d="M52461626 16422791
L65531752 21439943
" />
<path d="M65531752 21439943
L70548904 8369817
" />
<path d="M70548904 8369817
L57478778 3352665
" />
<path d="M51386521 19223534
L46369369 32293660
" />
<path d="M46369369 32293660
L59439495 37310812
" />
<path d="M59439495 37310812
L64456647 24240686
" />
<path d="M64456647 24240686
L51386521 19223534
" />
<path d="M45294267 35094397
L40277115 48164523
" />
<path d="M40277115 48164523
L53347241 53181675
" />
<path d="M53347241 53181675
L58364393 40111549
" />
<path d="M58364393 40111549
L45294267 35094397
" />
<path d="M72854329 13512046
L67837177 26582172
" />
<path d="M67837177 26582172
L80907303 31599324
" />
<path d="M80907303 31599324
L85924455 18529198
" />
<path d="M85924455 18529198
L72854329 13512046
" />
<path d="M66762074 29382909
L61744922 42453035
" />
<path d="M61744922 42453035
L74815048 47470187
" />
<path d="M74815048 47470187
L79832200 34400061
" />
<path d="M79832200 34400061
L66762074 29382909
" />
<path d="M60669818 45253775
L55652666 58323901
" />
<path d="M55652666 58323901
L68722792 63341053
" />
<path d="M68722792 63341053
L73739944 50270927
" />
<path d="M73739944 50270927
L60669818 45253775
" />
<path d="M89658775 19962664
L84641623 33032790
" />
<path d="M84641623 33032790
L97711749 38049942
" />
<path d="M97711749 38049942
L102728901 24979816
" />
<path d="M102728901 24979816
L89658775 19962664
" />
<path d="M83566523 35833533
L78549371 48903659
" />
<path d="M78549371 48903659
L91619497 53920811
" />
<path d="M91619497 53920811
L96636649 40850685
" />
<path d="M96636649 40850685
L83566523 35833533
" />
<path d="M77474270 51704400
L72457118 64774526
" />
<path d="M72457118 64774526
L85527244 69791678
" />
<path d="M85527244 69791678
L90544396 56721552
" />
<path d="M90544396 56721552
L77474270 51704400
" />
<path d="M92806640 80488687
L84577646 91814925
" />
<path d="M84577646 91814925
L95903884 100043919
" />
<path d="M95903884 100043919
L104132878 88717681
" />
<path d="M104132878 88717681
L92806640 80488687
" />
<path d="M127152663 24978705
L132169815 38048831
" />
<path d="M132169815 38048831
L145239941 33031679
" />
<path d="M145239941 33031679
L140222789 19961553
" />
<path d="M140222789 19961553
L127152663 24978705
" />
<path d="M133244921 40849576
L138262073 53919702
" />
<path d="M138262073 53919702
L151332199 48902550
" />
<path d="M151332199 48902550
L146315047 35832424
" />
<path d="M146315047 35832424
L133244921 40849576
" />
<path d="M139337176 56720443
L144354328 69790569
" />
<path d="M144354328 69790569
L157424454 64773417
" />
<path d="M157424454 64773417
L152407302 51703291
" />
<path d="M152407302 51703291
L139337176 56720443
" />
<path d="M125787646 88697682
L134016640 100023920
" />
<path d="M134016640 100023920
L145342878 91794926
" />
<path d="M145342878 91794926
L137113884 80468688
" />
<path d="M137113884 80468688
L125787646 88697682
" />
<path d="M143957112 18528084
L148974264 31598210
" />
<path d="M148974264 31598210
L162044390 26581058
" />
<path d="M162044390 26581058
L157027238 13510932
" />
<path d="M157027238 13510932
L143957112 18528084
" />
<path d="M150049366 34398948
L155066518 47469074
" />
<path d="M155066518 47469074
L168136644 42451922
" />
<path d="M168136644 42451922
L163119492 29381796
" />
<path d="M163119492 29381796
L150049366 34398948
" />
<path d="M156141624 50269819
L161158776 63339945
" />
<path d="M161158776 63339945
L174228902 58322793
" />
<path d="M174228902 58322793
L169211750 45252667
" />
<path d="M169211750 45252667
L156141624 50269819
" />
<path d="M159401625 8319816
L164418777 21389942
" />
<path d="M164418777 21389942
L177488903 16372790
" />
<path d="M177488903 16372790
L172471751 3302664
" />
<path d="M172471751 3302664
L159401625 8319816
" />
<path d="M165493879 24190685
L170511031 37260811
" />
<path d="M170511031 37260811
L183581157 32243659
" />
<path d="M183581157 32243659
L178564005 19173533
" />
<path d="M178564005 19173533
L165493879 24190685
" />
<path d="M171586135 40061554
L176603287 53131680
" />
<path d="M176603287 53131680
L189673413 48114528
" />
<path d="M189673413 48114528
L184656261 35044402
" />
<path d="M184656261 35044402
L171586135 40061554
" />
<path d="M180854530 6138772
L184947734 19527038
" />
<path d="M184947734 19527038
L198336000 15433834
" />
<path d="M198336000 15433834
L194242796 2045568
" />
<path d="M194242796 2045568
L180854530 6138772
" />
<path d="M185824844 22395949
L189918048 35784215
" />
<path d="M189918048 35784215
L203306314 31691011
" />
<path d="M203306314 31691011
L199213110 18302745
" />
<path d="M199213110 18302745
L185824844 22395949
" />
<path d="M190795165 38653131
L194888369 52041397
" />
<path d="M194888369 52041397
L208276635 47948193
" />
<path d="M208276635 47948193
L204183431 34559927
" />
<path d="M204183431 34559927
L190795165 38653131
" />
<path d="M208646569 9929450
L209988410 23864997
" />
<path d="M209988410 23864997
L223923957 22523156
" />
<path d="M223923957 22523156
L222582116 8587609
" />
<path d="M222582116 8587609
L208646569 9929450
" />
<path d="M210275942 26851186
L211617783 40786733
" />
<path d="M211617783 40786733
L225553330 39444892
" />
<path d="M225553330 39444892
L224211489 25509345
" />
<path d="M224211489 25509345
L210275942 26851186
" />
<path d="M211905326 43772921
L213247167 57708468
" />
<path d="M213247167 57708468
L227182714 56366627
" />
<path d="M227182714 56366627
L225840873 42431080
" />
<path d="M225840873 42431080
L211905326 43772921
" />
<g >
</g>
<g >
</g>
<g >
</g>
<g >
</g>
<g >
</g>
<g >
</g>
<g >
</g>
<g >
</g>
<g >
</g>
<g >
</g>
<g >
</g>
<g >
</g>
<g >
</g>
<g >
</g>
<g >
</g>
<g >
</g>
<g >
</g>
<g >
</g>
<g >
</g>
<g >
</g>
<g >
</g>
<g >
</g>
<g >
</g>
<g >
</g>
<g >
</g>
<g >
</g>
<g >
</g>
<g >
</g>
<g >
</g>
<g >
</g>
<g >
</g>
<g >
</g>
<g >
</g>
<g >
</g>
<g >
</g>
<g >
</g>
<g >
</g>
<g >
</g>
<g >
</g>
<g >
</g>
<g >
</g>
<g >
</g>
<g >
</g>
<g >
</g>
<g >
</g>
<g >
</g>
<g >
</g>
<g >
</g>
<g >
</g>
<g >
</g>
<g >
</g>
<g >
</g>
<g >
</g>
<g >
</g>
<g >
</g>
<g >
</g>
<g >
</g>
<g >
</g>
<g >
</g>
<g >
</g>
<g >
</g>
<g >
</g>
<g >
</g>
<g >
</g>
<g >
</g>
<g >
</g>
<g >
</g>
<g >
</g>
<g >
</g>
<g >
</g>
<g >
</g>
<g >
</g>
<g >
</g>
<g >
</g>
<g >
</g>
<g >
</g>
<g >
</g>
<g >
</g>
<g >
</g>
<g >
</g>
<g >
</g>
<g >
</g>
<g >
</g>
<g >
</g>
<g >
</g>
<g >
</g>
<g >
</g>
<g >
</g>
<g >
</g>
<g >
</g>
<g >
</g>
<g >
</g>
<g >
</g>
<g >
</g>
<g >
</g>
<g >
</g>
<g >
</g>
<g >
</g>
<g >
</g>
<g >
</g>
<g >
</g>
<g >
</g>
<g >
</g>
<g >
</g>
<g >
</g>
<g >
</g>
<g >
</g>
<g >
</g>
<g >
</g>
<g >
</g>
<g >
</g>
<g >
</g>
<g >
</g>
<g >
</g>
<g >
</g>
<g >
</g>
<g >
</g>
<g >
</g>
<g >
</g>
<g >
</g>
<g >
</g>
<g >
</g>
<g >
</g>
<g >
</g>
</g> 
</svg>
