  0
SECTION
  2
HEADER
  9
$ACADVER
  1
AC1014
  9
$HANDSEED
  5
FFFF
  9
$MEASUREMENT
 70
     1
  0
ENDSEC
  0
SECTION
  2
TABLES
  0
TABLE
  2
VPORT
  5
8
330
0
100
AcDbSymbolTable
 70
     4
  0
VPORT
  5
2E
330
8
100
AcDbSymbolTableRecord
100
AcDbViewportTableRecord
  2
*ACTIVE
 70
     0
 10
0.0
 20
0.0
 11
1.0
 21
1.0
 12
210.0
 22
148.5
 13
0.0
 23
0.0
 14
10.0
 24
10.0
 15
10.0
 25
10.0
 16
0.0
 26
0.0
 36
1.0
 17
0.0
 27
0.0
 37
0.0
 40
341.0
 41
1.24
 42
50.0
 43
0.0
 44
0.0
 50
0.0
 51
0.0
 71
     0
 72
   100
 73
     1
 74
     3
 75
     0
 76
     0
 77
     0
 78
     0
  0
ENDTAB
  0
TABLE
  2
LTYPE
  5
5
330
0
100
AcDbSymbolTable
 70
     1
  0
LTYPE
  5
14
330
5
100
AcDbSymbolTableRecord
100
AcDbLinetypeTableRecord
  2
BYBLOCK
 70
     0
  3

 72
    65
 73
     0
 40
0.0
  0
LTYPE
  5
15
330
5
100
AcDbSymbolTableRecord
100
AcDbLinetypeTableRecord
  2
BYLAYER
 70
     0
  3

 72
    65
 73
     0
 40
0.0
  0
LTYPE
  5
16
330
5
100
AcDbSymbolTableRecord
100
AcDbLinetypeTableRecord
  2
CONTINUOUS
 70
     0
  3
Solid line
 72
    65
 73
     0
 40
0.0
  0
ENDTAB
  0
TABLE
  2
LAYER
  5
2
100
AcDbSymbolTable
 70
2
  0
LAYER
  5
50
100
AcDbSymbolTableRecord
100
AcDbLayerTableRecord
  2
0
 70
0
  6
CONTINUOUS
  0
LAYER
  5
51
100
AcDbSymbolTableRecord
100
AcDbLayerTableRecord
  2
Layer_1
 70
0
  6
CONTINUOUS
  0
ENDTAB
  0
TABLE
  2
STYLE
  5
3
330
0
100
AcDbSymbolTable
 70
     1
  0
STYLE
  5
11
330
3
100
AcDbSymbolTableRecord
100
AcDbTextStyleTableRecord
  2
STANDARD
 70
     0
 40
0.0
 41
1.0
 50
0.0
 71
     0
 42
2.5
  3
txt
  4

  0
ENDTAB
  0
TABLE
  2
VIEW
  5
6
330
0
100
AcDbSymbolTable
 70
     0
  0
ENDTAB
  0
TABLE
  2
UCS
  5
7
330
0
100
AcDbSymbolTable
 70
     0
  0
ENDTAB
  0
TABLE
  2
APPID
  5
9
330
0
100
AcDbSymbolTable
 70
     2
  0
APPID
  5
12
330
9
100
AcDbSymbolTableRecord
100
AcDbRegAppTableRecord
  2
ACAD
 70
     0
  0
ENDTAB
  0
TABLE
  2
DIMSTYLE
  5
A
330
0
100
AcDbSymbolTable
 70
     1
  0
DIMSTYLE
105
27
330
A
100
AcDbSymbolTableRecord
100
AcDbDimStyleTableRecord
  2
ISO-25
 70
     0
  3

  4

  5

  6

  7

 40
1.0
 41
2.5
 42
0.625
 43
3.75
 44
1.25
 45
0.0
 46
0.0
 47
0.0
 48
0.0
140
2.5
141
2.5
142
0.0
143
0.03937007874016
144
1.0
145
0.0
146
1.0
147
0.625
 71
     0
 72
     0
 73
     0
 74
     0
 75
     0
 76
     0
 77
     1
 78
     8
170
     0
171
     3
172
     1
173
     0
174
     0
175
     0
176
     0
177
     0
178
     0
270
     2
271
     2
272
     2
273
     2
274
     3
340
11
275
     0
280
     0
281
     0
282
     0
283
     0
284
     8
285
     0
286
     0
287
     3
288
     0
  0
ENDTAB
  0
TABLE
  2
BLOCK_RECORD
  5
1
330
0
100
AcDbSymbolTable
 70
     1
  0
BLOCK_RECORD
  5
1F
330
1
100
AcDbSymbolTableRecord
100
AcDbBlockTableRecord
  2
*MODEL_SPACE
  0
BLOCK_RECORD
  5
1B
330
1
100
AcDbSymbolTableRecord
100
AcDbBlockTableRecord
  2
*PAPER_SPACE
  0
ENDTAB
  0
ENDSEC
  0
SECTION
  2
BLOCKS
  0
BLOCK
  5
20
330
1F
100
AcDbEntity
  8
0
100
AcDbBlockBegin
  2
*MODEL_SPACE
 70
     0
 10
0.0
 20
0.0
 30
0.0
  3
*MODEL_SPACE
  1

  0
ENDBLK
  5
21
330
1F
100
AcDbEntity
  8
0
100
AcDbBlockEnd
  0
BLOCK
  5
1C
330
1B
100
AcDbEntity
 67
     1
  8
0
100
AcDbBlockBegin
  2
*PAPER_SPACE
  1

  0
ENDBLK
  5
1D
330
1B
100
AcDbEntity
 67
     1
  8
0
100
AcDbBlockEnd
  0
ENDSEC
  0
SECTION
  2
ENTITIES
  0
SPLINE
  5
100
100
AcDbEntity
  8
Layer_1
 62
7
100
AcDbSpline
 70
8
 71
3
 72
8
 73
4
 74
0
 40
0
 40
0
 40
0
 40
0
 40
1
 40
1
 40
1
 40
1
 10
141.842305
 20
5.132505
 30
0.0
 10
142.898195
 20
5.132503
 30
0.0
 10
143.926982
 20
5.466773
 30
0.0
 10
144.781217
 20
6.087408
 30
0.0
  0
LWPOLYLINE
  5
101
100
AcDbEntity
  8
Layer_1
 62
7
100
AcDbPolyline
 90
1
 70
1
 10
141.842306
 20
5.133616
 30
0.0
  0
LWPOLYLINE
  5
102
100
AcDbEntity
  8
Layer_1
 62
7
100
AcDbPolyline
 90
1
 70
1
 10
144.781204
 20
6.086112
 30
0.0
  0
LWPOLYLINE
  5
103
100
AcDbEntity
  8
Layer_1
 62
7
100
AcDbPolyline
 90
3
 70
0
 10
141.842306
 20
5.133616
 30
0.0
 10
140.842317
 20
5.133616
 30
0.0
 10
140.842317
 20
5.133616
 30
0.0
  0
LWPOLYLINE
  5
104
100
AcDbEntity
  8
Layer_1
 62
7
100
AcDbPolyline
 90
2
 70
0
 10
158.842342
 20
16.304273
 30
0.0
 10
144.781204
 20
6.086112
 30
0.0
  0
LWPOLYLINE
  5
105
100
AcDbEntity
  8
Layer_1
 62
7
100
AcDbPolyline
 90
2
 70
0
 10
210.204609
 20
36.018286
 30
0.0
 10
158.842342
 20
16.304273
 30
0.0
  0
LWPOLYLINE
  5
106
100
AcDbEntity
  8
Layer_1
 62
7
100
AcDbPolyline
 90
4
 70
0
 10
210.204609
 20
36.018286
 30
0.0
 10
212.533990
 20
44.712455
 30
0.0
 10
217.202013
 20
46.503676
 30
0.0
 10
224.750011
 20
41.603615
 30
0.0
  0
SPLINE
  5
107
100
AcDbEntity
  8
Layer_1
 62
7
100
AcDbSpline
 70
8
 71
3
 72
8
 73
4
 74
0
 40
0
 40
0
 40
0
 40
0
 40
1
 40
1
 40
1
 40
1
 10
238.753567
 20
46.978468
 30
0.0
 10
240.851143
 20
47.783652
 30
0.0
 10
242.154038
 20
49.889106
 30
0.0
 10
241.938694
 20
52.125569
 30
0.0
  0
LWPOLYLINE
  5
108
100
AcDbEntity
  8
Layer_1
 62
7
100
AcDbPolyline
 90
2
 70
0
 10
238.753549
 20
46.977278
 30
0.0
 10
224.750011
 20
41.603615
 30
0.0
  0
SPLINE
  5
109
100
AcDbEntity
  8
Layer_1
 62
7
100
AcDbSpline
 70
8
 71
3
 72
8
 73
4
 74
0
 40
0
 40
0
 40
0
 40
0
 40
1
 40
1
 40
1
 40
1
 10
236.646970
 20
107.082228
 30
0.0
 10
236.400092
 20
109.646152
 30
0.0
 10
234.245796
 20
111.602977
 30
0.0
 10
231.670014
 20
111.602978
 30
0.0
  0
LWPOLYLINE
  5
10a
100
AcDbEntity
  8
Layer_1
 62
7
100
AcDbPolyline
 90
2
 70
0
 10
241.938588
 20
52.126046
 30
0.0
 10
236.646946
 20
107.082132
 30
0.0
  0
LWPOLYLINE
  5
10b
100
AcDbEntity
  8
Layer_1
 62
7
100
AcDbPolyline
 90
7
 70
0
 10
231.669892
 20
111.603047
 30
0.0
 10
221.670011
 20
111.603047
 30
0.0
 10
216.379956
 20
104.321747
 30
0.0
 10
211.380148
 20
104.321747
 30
0.0
 10
206.090093
 20
111.603047
 30
0.0
 10
170.745362
 20
111.603047
 30
0.0
 10
158.466900
 20
102.682132
 30
0.0
  0
LWPOLYLINE
  5
10c
100
AcDbEntity
  8
Layer_1
 62
7
100
AcDbPolyline
 90
2
 70
0
 10
135.992501
 20
102.682132
 30
0.0
 10
158.466900
 20
102.682132
 30
0.0
  0
LWPOLYLINE
  5
10d
100
AcDbEntity
  8
Layer_1
 62
7
100
AcDbPolyline
 90
2
 70
0
 10
131.047064
 20
104.482084
 30
0.0
 10
135.992501
 20
102.682132
 30
0.0
  0
LWPOLYLINE
  5
10e
100
AcDbEntity
  8
Layer_1
 62
7
100
AcDbPolyline
 90
2
 70
0
 10
116.047110
 20
104.482084
 30
0.0
 10
131.047064
 20
104.482084
 30
0.0
  0
LWPOLYLINE
  5
10f
100
AcDbEntity
  8
Layer_1
 62
7
100
AcDbPolyline
 90
2
 70
0
 10
116.047110
 20
104.482084
 30
0.0
 10
111.101674
 20
102.682132
 30
0.0
  0
LWPOLYLINE
  5
110
100
AcDbEntity
  8
Layer_1
 62
7
100
AcDbPolyline
 90
2
 70
0
 10
88.627275
 20
102.682132
 30
0.0
 10
111.101674
 20
102.682132
 30
0.0
  0
LWPOLYLINE
  5
111
100
AcDbEntity
  8
Layer_1
 62
7
100
AcDbPolyline
 90
2
 70
0
 10
88.627275
 20
102.682132
 30
0.0
 10
76.348813
 20
111.603047
 30
0.0
  0
LWPOLYLINE
  5
112
100
AcDbEntity
  8
Layer_1
 62
7
100
AcDbPolyline
 90
2
 70
0
 10
41.004082
 20
111.603047
 30
0.0
 10
76.348813
 20
111.603047
 30
0.0
  0
LWPOLYLINE
  5
113
100
AcDbEntity
  8
Layer_1
 62
7
100
AcDbPolyline
 90
4
 70
0
 10
41.004082
 20
111.603047
 30
0.0
 10
35.714027
 20
104.321747
 30
0.0
 10
30.714219
 20
104.321747
 30
0.0
 10
25.424164
 20
111.603047
 30
0.0
  0
SPLINE
  5
114
100
AcDbEntity
  8
Layer_1
 62
7
100
AcDbSpline
 70
8
 71
3
 72
8
 73
4
 74
0
 40
0
 40
0
 40
0
 40
0
 40
1
 40
1
 40
1
 40
1
 10
15.424161
 20
111.602978
 30
0.0
 10
12.848378
 20
111.602977
 30
0.0
 10
10.694082
 20
109.646152
 30
0.0
 10
10.447205
 20
107.082228
 30
0.0
  0
LWPOLYLINE
  5
115
100
AcDbEntity
  8
Layer_1
 62
7
100
AcDbPolyline
 90
2
 70
0
 10
15.424283
 20
111.603047
 30
0.0
 10
25.424164
 20
111.603047
 30
0.0
  0
SPLINE
  5
116
100
AcDbEntity
  8
Layer_1
 62
7
100
AcDbSpline
 70
8
 71
3
 72
8
 73
4
 74
0
 40
0
 40
0
 40
0
 40
0
 40
1
 40
1
 40
1
 40
1
 10
5.155480
 20
52.125569
 30
0.0
 10
4.940136
 20
49.889106
 30
0.0
 10
6.243032
 20
47.783652
 30
0.0
 10
8.340607
 20
46.978468
 30
0.0
  0
LWPOLYLINE
  5
117
100
AcDbEntity
  8
Layer_1
 62
7
100
AcDbPolyline
 90
2
 70
0
 10
5.155586
 20
52.126046
 30
0.0
 10
10.447228
 20
107.082132
 30
0.0
  0
LWPOLYLINE
  5
118
100
AcDbEntity
  8
Layer_1
 62
7
100
AcDbPolyline
 90
2
 70
0
 10
22.344163
 20
41.603615
 30
0.0
 10
8.340626
 20
46.977278
 30
0.0
  0
LWPOLYLINE
  5
119
100
AcDbEntity
  8
Layer_1
 62
7
100
AcDbPolyline
 90
4
 70
0
 10
22.344163
 20
41.603615
 30
0.0
 10
29.892162
 20
46.503676
 30
0.0
 10
34.560184
 20
44.712455
 30
0.0
 10
36.889565
 20
36.018286
 30
0.0
  0
LWPOLYLINE
  5
11a
100
AcDbEntity
  8
Layer_1
 62
7
100
AcDbPolyline
 90
2
 70
0
 10
88.251833
 20
16.304273
 30
0.0
 10
36.889565
 20
36.018286
 30
0.0
  0
SPLINE
  5
11b
100
AcDbEntity
  8
Layer_1
 62
7
100
AcDbSpline
 70
8
 71
3
 72
8
 73
4
 74
0
 40
0
 40
0
 40
0
 40
0
 40
1
 40
1
 40
1
 40
1
 10
102.312957
 20
6.087408
 30
0.0
 10
103.167192
 20
5.466773
 30
0.0
 10
104.195979
 20
5.132503
 30
0.0
 10
105.251870
 20
5.132505
 30
0.0
  0
LWPOLYLINE
  5
11c
100
AcDbEntity
  8
Layer_1
 62
7
100
AcDbPolyline
 90
2
 70
0
 10
102.312970
 20
6.086112
 30
0.0
 10
88.251833
 20
16.304273
 30
0.0
  0
LWPOLYLINE
  5
11d
100
AcDbEntity
  8
Layer_1
 62
7
100
AcDbPolyline
 90
2
 70
0
 10
106.251857
 20
5.133616
 30
0.0
 10
105.251869
 20
5.133616
 30
0.0
  0
LWPOLYLINE
  5
11e
100
AcDbEntity
  8
Layer_1
 62
7
100
AcDbPolyline
 90
4
 70
0
 10
106.251857
 20
5.133616
 30
0.0
 10
111.541912
 20
12.414916
 30
0.0
 10
116.541879
 20
12.414916
 30
0.0
 10
121.831928
 20
5.133616
 30
0.0
  0
LWPOLYLINE
  5
11f
100
AcDbEntity
  8
Layer_1
 62
7
100
AcDbPolyline
 90
2
 70
0
 10
125.262246
 20
5.133616
 30
0.0
 10
121.831928
 20
5.133616
 30
0.0
  0
LWPOLYLINE
  5
120
100
AcDbEntity
  8
Layer_1
 62
7
100
AcDbPolyline
 90
4
 70
0
 10
125.262246
 20
5.133616
 30
0.0
 10
130.552296
 20
12.414916
 30
0.0
 10
135.552263
 20
12.414916
 30
0.0
 10
140.842317
 20
5.133616
 30
0.0
  0
LWPOLYLINE
  5
121
100
AcDbEntity
  8
Layer_1
 62
7
100
AcDbPolyline
 90
4
 70
1
 10
104.318185
 20
9.533617
 30
0.0
 10
92.992086
 20
17.762120
 30
0.0
 10
101.220960
 20
29.088881
 30
0.0
 10
112.547139
 20
20.857731
 30
0.0
  0
SPLINE
  5
122
100
AcDbEntity
  8
Layer_1
 62
7
100
AcDbSpline
 70
8
 71
3
 72
8
 73
4
 74
0
 40
0
 40
0
 40
0
 40
0
 40
1
 40
1
 40
1
 40
1
 10
103.041947
 20
37.181337
 30
0.0
 10
103.041947
 20
37.574327
 30
0.0
 10
102.832289
 20
37.937465
 30
0.0
 10
102.491950
 20
38.133960
 30
0.0
  0
SPLINE
  5
123
100
AcDbEntity
  8
Layer_1
 62
7
100
AcDbSpline
 70
8
 71
3
 72
8
 73
4
 74
0
 40
0
 40
0
 40
0
 40
0
 40
1
 40
1
 40
1
 40
1
 10
102.491950
 20
38.133960
 30
0.0
 10
102.151610
 20
38.330455
 30
0.0
 10
101.732294
 20
38.330455
 30
0.0
 10
101.391955
 20
38.133960
 30
0.0
  0
SPLINE
  5
124
100
AcDbEntity
  8
Layer_1
 62
7
100
AcDbSpline
 70
8
 71
3
 72
8
 73
4
 74
0
 40
0
 40
0
 40
0
 40
0
 40
1
 40
1
 40
1
 40
1
 10
101.391955
 20
38.133960
 30
0.0
 10
101.051615
 20
37.937465
 30
0.0
 10
100.841957
 20
37.574327
 30
0.0
 10
100.841957
 20
37.181337
 30
0.0
  0
SPLINE
  5
125
100
AcDbEntity
  8
Layer_1
 62
7
100
AcDbSpline
 70
8
 71
3
 72
8
 73
4
 74
0
 40
0
 40
0
 40
0
 40
0
 40
1
 40
1
 40
1
 40
1
 10
100.841957
 20
37.181337
 30
0.0
 10
100.841957
 20
36.788346
 30
0.0
 10
101.051615
 20
36.425208
 30
0.0
 10
101.391955
 20
36.228713
 30
0.0
  0
SPLINE
  5
126
100
AcDbEntity
  8
Layer_1
 62
7
100
AcDbSpline
 70
8
 71
3
 72
8
 73
4
 74
0
 40
0
 40
0
 40
0
 40
0
 40
1
 40
1
 40
1
 40
1
 10
101.391955
 20
36.228713
 30
0.0
 10
101.732294
 20
36.032218
 30
0.0
 10
102.151610
 20
36.032218
 30
0.0
 10
102.491950
 20
36.228713
 30
0.0
  0
SPLINE
  5
127
100
AcDbEntity
  8
Layer_1
 62
7
100
AcDbSpline
 70
8
 71
3
 72
8
 73
4
 74
0
 40
0
 40
0
 40
0
 40
0
 40
1
 40
1
 40
1
 40
1
 10
102.491950
 20
36.228713
 30
0.0
 10
102.832289
 20
36.425208
 30
0.0
 10
103.041947
 20
36.788346
 30
0.0
 10
103.041947
 20
37.181337
 30
0.0
  0
LWPOLYLINE
  5
128
100
AcDbEntity
  8
Layer_1
 62
7
100
AcDbPolyline
 90
4
 70
1
 10
82.691904
 20
22.685994
 30
0.0
 10
69.621812
 20
27.702471
 30
0.0
 10
74.638819
 20
40.772827
 30
0.0
 10
87.708910
 20
35.756350
 30
0.0
  0
SPLINE
  5
129
100
AcDbEntity
  8
Layer_1
 62
7
100
AcDbSpline
 70
8
 71
3
 72
8
 73
4
 74
0
 40
0
 40
0
 40
0
 40
0
 40
1
 40
1
 40
1
 40
1
 10
139.547014
 20
43.908072
 30
0.0
 10
139.547014
 20
49.624295
 30
0.0
 10
136.497445
 20
54.906303
 30
0.0
 10
131.547050
 20
57.764415
 30
0.0
  0
SPLINE
  5
12a
100
AcDbEntity
  8
Layer_1
 62
7
100
AcDbSpline
 70
8
 71
3
 72
8
 73
4
 74
0
 40
0
 40
0
 40
0
 40
0
 40
1
 40
1
 40
1
 40
1
 10
131.547050
 20
57.764415
 30
0.0
 10
126.596656
 20
60.622527
 30
0.0
 10
120.497518
 20
60.622527
 30
0.0
 10
115.547124
 20
57.764415
 30
0.0
  0
SPLINE
  5
12b
100
AcDbEntity
  8
Layer_1
 62
7
100
AcDbSpline
 70
8
 71
3
 72
8
 73
4
 74
0
 40
0
 40
0
 40
0
 40
0
 40
1
 40
1
 40
1
 40
1
 10
115.547124
 20
57.764415
 30
0.0
 10
110.596730
 20
54.906303
 30
0.0
 10
107.547161
 20
49.624295
 30
0.0
 10
107.547161
 20
43.908072
 30
0.0
  0
SPLINE
  5
12c
100
AcDbEntity
  8
Layer_1
 62
7
100
AcDbSpline
 70
8
 71
3
 72
8
 73
4
 74
0
 40
0
 40
0
 40
0
 40
0
 40
1
 40
1
 40
1
 40
1
 10
107.547161
 20
43.908072
 30
0.0
 10
107.547161
 20
38.191849
 30
0.0
 10
110.596730
 20
32.909841
 30
0.0
 10
115.547124
 20
30.051730
 30
0.0
  0
SPLINE
  5
12d
100
AcDbEntity
  8
Layer_1
 62
7
100
AcDbSpline
 70
8
 71
3
 72
8
 73
4
 74
0
 40
0
 40
0
 40
0
 40
0
 40
1
 40
1
 40
1
 40
1
 10
115.547124
 20
30.051730
 30
0.0
 10
120.497518
 20
27.193618
 30
0.0
 10
126.596656
 20
27.193618
 30
0.0
 10
131.547050
 20
30.051730
 30
0.0
  0
SPLINE
  5
12e
100
AcDbEntity
  8
Layer_1
 62
7
100
AcDbSpline
 70
8
 71
3
 72
8
 73
4
 74
0
 40
0
 40
0
 40
0
 40
0
 40
1
 40
1
 40
1
 40
1
 10
131.547050
 20
30.051730
 30
0.0
 10
136.497445
 20
32.909841
 30
0.0
 10
139.547014
 20
38.191849
 30
0.0
 10
139.547014
 20
43.908072
 30
0.0
  0
LWPOLYLINE
  5
12f
100
AcDbEntity
  8
Layer_1
 62
7
100
AcDbPolyline
 90
1
 70
1
 10
103.041947
 20
37.181337
 30
0.0
  0
LWPOLYLINE
  5
130
100
AcDbEntity
  8
Layer_1
 62
7
100
AcDbPolyline
 90
1
 70
1
 10
139.547014
 20
43.908072
 30
0.0
  0
LWPOLYLINE
  5
131
100
AcDbEntity
  8
Layer_1
 62
7
100
AcDbPolyline
 90
4
 70
1
 10
93.986386
 20
39.820331
 30
0.0
 10
80.916294
 20
44.836808
 30
0.0
 10
85.933300
 20
57.907165
 30
0.0
 10
99.003445
 20
52.890688
 30
0.0
  0
LWPOLYLINE
  5
132
100
AcDbEntity
  8
Layer_1
 62
7
100
AcDbPolyline
 90
2
 70
0
 10
154.102088
 20
17.762120
 30
0.0
 10
145.873214
 20
29.088881
 30
0.0
  0
LWPOLYLINE
  5
133
100
AcDbEntity
  8
Layer_1
 62
7
100
AcDbPolyline
 90
2
 70
0
 10
142.775989
 20
9.533617
 30
0.0
 10
154.102088
 20
17.762120
 30
0.0
  0
LWPOLYLINE
  5
134
100
AcDbEntity
  8
Layer_1
 62
7
100
AcDbPolyline
 90
2
 70
0
 10
134.547036
 20
20.857731
 30
0.0
 10
142.775989
 20
9.533617
 30
0.0
  0
LWPOLYLINE
  5
135
100
AcDbEntity
  8
Layer_1
 62
7
100
AcDbPolyline
 90
2
 70
0
 10
145.873214
 20
29.088881
 30
0.0
 10
134.547036
 20
20.857731
 30
0.0
  0
LWPOLYLINE
  5
136
100
AcDbEntity
  8
Layer_1
 62
7
100
AcDbPolyline
 90
2
 70
0
 10
177.472362
 20
27.702471
 30
0.0
 10
172.455356
 20
40.772827
 30
0.0
  0
LWPOLYLINE
  5
137
100
AcDbEntity
  8
Layer_1
 62
7
100
AcDbPolyline
 90
2
 70
0
 10
164.402270
 20
22.685994
 30
0.0
 10
177.472362
 20
27.702471
 30
0.0
  0
LWPOLYLINE
  5
138
100
AcDbEntity
  8
Layer_1
 62
7
100
AcDbPolyline
 90
2
 70
0
 10
159.385264
 20
35.756350
 30
0.0
 10
164.402270
 20
22.685994
 30
0.0
  0
SPLINE
  5
139
100
AcDbEntity
  8
Layer_1
 62
7
100
AcDbSpline
 70
8
 71
3
 72
8
 73
4
 74
0
 40
0
 40
0
 40
0
 40
0
 40
1
 40
1
 40
1
 40
1
 10
146.252217
 20
37.181337
 30
0.0
 10
146.252217
 20
37.574327
 30
0.0
 10
146.042559
 20
37.937465
 30
0.0
 10
145.702220
 20
38.133960
 30
0.0
  0
SPLINE
  5
13a
100
AcDbEntity
  8
Layer_1
 62
7
100
AcDbSpline
 70
8
 71
3
 72
8
 73
4
 74
0
 40
0
 40
0
 40
0
 40
0
 40
1
 40
1
 40
1
 40
1
 10
145.702220
 20
38.133960
 30
0.0
 10
145.361880
 20
38.330455
 30
0.0
 10
144.942564
 20
38.330455
 30
0.0
 10
144.602225
 20
38.133960
 30
0.0
  0
SPLINE
  5
13b
100
AcDbEntity
  8
Layer_1
 62
7
100
AcDbSpline
 70
8
 71
3
 72
8
 73
4
 74
0
 40
0
 40
0
 40
0
 40
0
 40
1
 40
1
 40
1
 40
1
 10
144.602225
 20
38.133960
 30
0.0
 10
144.261885
 20
37.937465
 30
0.0
 10
144.052227
 20
37.574327
 30
0.0
 10
144.052227
 20
37.181337
 30
0.0
  0
SPLINE
  5
13c
100
AcDbEntity
  8
Layer_1
 62
7
100
AcDbSpline
 70
8
 71
3
 72
8
 73
4
 74
0
 40
0
 40
0
 40
0
 40
0
 40
1
 40
1
 40
1
 40
1
 10
144.052227
 20
37.181337
 30
0.0
 10
144.052227
 20
36.788346
 30
0.0
 10
144.261885
 20
36.425208
 30
0.0
 10
144.602225
 20
36.228713
 30
0.0
  0
SPLINE
  5
13d
100
AcDbEntity
  8
Layer_1
 62
7
100
AcDbSpline
 70
8
 71
3
 72
8
 73
4
 74
0
 40
0
 40
0
 40
0
 40
0
 40
1
 40
1
 40
1
 40
1
 10
144.602225
 20
36.228713
 30
0.0
 10
144.942564
 20
36.032218
 30
0.0
 10
145.361880
 20
36.032218
 30
0.0
 10
145.702220
 20
36.228713
 30
0.0
  0
SPLINE
  5
13e
100
AcDbEntity
  8
Layer_1
 62
7
100
AcDbSpline
 70
8
 71
3
 72
8
 73
4
 74
0
 40
0
 40
0
 40
0
 40
0
 40
1
 40
1
 40
1
 40
1
 10
145.702220
 20
36.228713
 30
0.0
 10
146.042559
 20
36.425208
 30
0.0
 10
146.252217
 20
36.788346
 30
0.0
 10
146.252217
 20
37.181337
 30
0.0
  0
LWPOLYLINE
  5
13f
100
AcDbEntity
  8
Layer_1
 62
7
100
AcDbPolyline
 90
2
 70
0
 10
172.455356
 20
40.772827
 30
0.0
 10
159.385264
 20
35.756350
 30
0.0
  0
LWPOLYLINE
  5
140
100
AcDbEntity
  8
Layer_1
 62
7
100
AcDbPolyline
 90
1
 70
1
 10
146.252217
 20
37.181337
 30
0.0
  0
LWPOLYLINE
  5
141
100
AcDbEntity
  8
Layer_1
 62
7
100
AcDbPolyline
 90
2
 70
0
 10
166.177881
 20
44.836808
 30
0.0
 10
161.160875
 20
57.907165
 30
0.0
  0
LWPOLYLINE
  5
142
100
AcDbEntity
  8
Layer_1
 62
7
100
AcDbPolyline
 90
2
 70
0
 10
153.107789
 20
39.820331
 30
0.0
 10
166.177881
 20
44.836808
 30
0.0
  0
LWPOLYLINE
  5
143
100
AcDbEntity
  8
Layer_1
 62
7
100
AcDbPolyline
 90
2
 70
0
 10
148.090730
 20
52.890688
 30
0.0
 10
153.107789
 20
39.820331
 30
0.0
  0
LWPOLYLINE
  5
144
100
AcDbEntity
  8
Layer_1
 62
7
100
AcDbPolyline
 90
2
 70
0
 10
161.160875
 20
57.907165
 30
0.0
 10
148.090730
 20
52.890688
 30
0.0
  0
LWPOLYLINE
  5
145
100
AcDbEntity
  8
Layer_1
 62
7
100
AcDbPolyline
 90
2
 70
0
 10
182.982285
 20
51.287320
 30
0.0
 10
177.965279
 20
64.357677
 30
0.0
  0
LWPOLYLINE
  5
146
100
AcDbEntity
  8
Layer_1
 62
7
100
AcDbPolyline
 90
2
 70
0
 10
169.912193
 20
46.270843
 30
0.0
 10
182.982285
 20
51.287320
 30
0.0
  0
LWPOLYLINE
  5
147
100
AcDbEntity
  8
Layer_1
 62
7
100
AcDbPolyline
 90
2
 70
0
 10
164.895187
 20
59.341200
 30
0.0
 10
169.912193
 20
46.270843
 30
0.0
  0
SPLINE
  5
148
100
AcDbEntity
  8
Layer_1
 62
7
100
AcDbSpline
 70
8
 71
3
 72
8
 73
4
 74
0
 40
0
 40
0
 40
0
 40
0
 40
1
 40
1
 40
1
 40
1
 10
213.773076
 20
51.603814
 30
0.0
 10
213.773269
 20
51.996932
 30
0.0
 10
213.563653
 20
52.360272
 30
0.0
 10
213.223234
 20
52.556887
 30
0.0
  0
SPLINE
  5
149
100
AcDbEntity
  8
Layer_1
 62
7
100
AcDbSpline
 70
8
 71
3
 72
8
 73
4
 74
0
 40
0
 40
0
 40
0
 40
0
 40
1
 40
1
 40
1
 40
1
 10
213.223234
 20
52.556887
 30
0.0
 10
212.882816
 20
52.753502
 30
0.0
 10
212.463347
 20
52.753502
 30
0.0
 10
212.122928
 20
52.556887
 30
0.0
  0
SPLINE
  5
14a
100
AcDbEntity
  8
Layer_1
 62
7
100
AcDbSpline
 70
8
 71
3
 72
8
 73
4
 74
0
 40
0
 40
0
 40
0
 40
0
 40
1
 40
1
 40
1
 40
1
 10
212.122928
 20
52.556887
 30
0.0
 10
211.782509
 20
52.360272
 30
0.0
 10
211.572894
 20
51.996932
 30
0.0
 10
211.573086
 20
51.603814
 30
0.0
  0
SPLINE
  5
14b
100
AcDbEntity
  8
Layer_1
 62
7
100
AcDbSpline
 70
8
 71
3
 72
8
 73
4
 74
0
 40
0
 40
0
 40
0
 40
0
 40
1
 40
1
 40
1
 40
1
 10
211.573086
 20
51.603814
 30
0.0
 10
211.572894
 20
51.210695
 30
0.0
 10
211.782509
 20
50.847355
 30
0.0
 10
212.122928
 20
50.650740
 30
0.0
  0
SPLINE
  5
14c
100
AcDbEntity
  8
Layer_1
 62
7
100
AcDbSpline
 70
8
 71
3
 72
8
 73
4
 74
0
 40
0
 40
0
 40
0
 40
0
 40
1
 40
1
 40
1
 40
1
 10
212.122928
 20
50.650740
 30
0.0
 10
212.463347
 20
50.454125
 30
0.0
 10
212.882816
 20
50.454125
 30
0.0
 10
213.223234
 20
50.650740
 30
0.0
  0
SPLINE
  5
14d
100
AcDbEntity
  8
Layer_1
 62
7
100
AcDbSpline
 70
8
 71
3
 72
8
 73
4
 74
0
 40
0
 40
0
 40
0
 40
0
 40
1
 40
1
 40
1
 40
1
 10
213.223234
 20
50.650740
 30
0.0
 10
213.563653
 20
50.847355
 30
0.0
 10
213.773269
 20
51.210695
 30
0.0
 10
213.773076
 20
51.603814
 30
0.0
  0
LWPOLYLINE
  5
14e
100
AcDbEntity
  8
Layer_1
 62
7
100
AcDbPolyline
 90
2
 70
0
 10
177.965279
 20
64.357677
 30
0.0
 10
164.895187
 20
59.341200
 30
0.0
  0
LWPOLYLINE
  5
14f
100
AcDbEntity
  8
Layer_1
 62
7
100
AcDbPolyline
 90
1
 70
1
 10
213.773076
 20
51.603814
 30
0.0
  0
LWPOLYLINE
  5
150
100
AcDbEntity
  8
Layer_1
 62
7
100
AcDbPolyline
 90
2
 70
0
 10
235.911408
 20
53.271686
 30
0.0
 10
234.569447
 20
67.207226
 30
0.0
  0
LWPOLYLINE
  5
151
100
AcDbEntity
  8
Layer_1
 62
7
100
AcDbPolyline
 90
2
 70
0
 10
221.975868
 20
51.930255
 30
0.0
 10
235.911408
 20
53.271686
 30
0.0
  0
LWPOLYLINE
  5
152
100
AcDbEntity
  8
Layer_1
 62
7
100
AcDbPolyline
 90
2
 70
0
 10
220.634172
 20
65.865795
 30
0.0
 10
221.975868
 20
51.930255
 30
0.0
  0
LWPOLYLINE
  5
153
100
AcDbEntity
  8
Layer_1
 62
7
100
AcDbPolyline
 90
2
 70
0
 10
234.569447
 20
67.207226
 30
0.0
 10
220.634172
 20
65.865795
 30
0.0
  0
LWPOLYLINE
  5
154
100
AcDbEntity
  8
Layer_1
 62
7
100
AcDbPolyline
 90
2
 70
0
 10
217.004899
 20
61.701272
 30
0.0
 10
212.911549
 20
75.089128
 30
0.0
  0
LWPOLYLINE
  5
155
100
AcDbEntity
  8
Layer_1
 62
7
100
AcDbPolyline
 90
2
 70
0
 10
203.616779
 20
57.608187
 30
0.0
 10
217.004899
 20
61.701272
 30
0.0
  0
LWPOLYLINE
  5
156
100
AcDbEntity
  8
Layer_1
 62
7
100
AcDbPolyline
 90
2
 70
0
 10
199.523429
 20
70.996042
 30
0.0
 10
203.616779
 20
57.608187
 30
0.0
  0
LWPOLYLINE
  5
157
100
AcDbEntity
  8
Layer_1
 62
7
100
AcDbPolyline
 90
2
 70
0
 10
212.911549
 20
75.089128
 30
0.0
 10
199.523429
 20
70.996042
 30
0.0
  0
LWPOLYLINE
  5
158
100
AcDbEntity
  8
Layer_1
 62
7
100
AcDbPolyline
 90
2
 70
0
 10
234.282111
 20
70.194358
 30
0.0
 10
232.940151
 20
84.129898
 30
0.0
  0
LWPOLYLINE
  5
159
100
AcDbEntity
  8
Layer_1
 62
7
100
AcDbPolyline
 90
2
 70
0
 10
220.346571
 20
68.850281
 30
0.0
 10
234.282111
 20
70.194358
 30
0.0
  0
LWPOLYLINE
  5
15a
100
AcDbEntity
  8
Layer_1
 62
7
100
AcDbPolyline
 90
2
 70
0
 10
219.004611
 20
82.785821
 30
0.0
 10
220.346571
 20
68.850281
 30
0.0
  0
LWPOLYLINE
  5
15b
100
AcDbEntity
  8
Layer_1
 62
7
100
AcDbPolyline
 90
2
 70
0
 10
232.940151
 20
84.129898
 30
0.0
 10
219.004611
 20
82.785821
 30
0.0
  0
LWPOLYLINE
  5
15c
100
AcDbEntity
  8
Layer_1
 62
7
100
AcDbPolyline
 90
2
 70
0
 10
160.085613
 20
60.709090
 30
0.0
 10
155.068607
 20
73.776800
 30
0.0
  0
LWPOLYLINE
  5
15d
100
AcDbEntity
  8
Layer_1
 62
7
100
AcDbPolyline
 90
2
 70
0
 10
147.015627
 20
55.689967
 30
0.0
 10
160.085613
 20
60.709090
 30
0.0
  0
LWPOLYLINE
  5
15e
100
AcDbEntity
  8
Layer_1
 62
7
100
AcDbPolyline
 90
2
 70
0
 10
141.998488
 20
68.760323
 30
0.0
 10
147.015627
 20
55.689967
 30
0.0
  0
LWPOLYLINE
  5
15f
100
AcDbEntity
  8
Layer_1
 62
7
100
AcDbPolyline
 90
2
 70
0
 10
155.068607
 20
73.776800
 30
0.0
 10
141.998488
 20
68.760323
 30
0.0
  0
LWPOLYLINE
  5
160
100
AcDbEntity
  8
Layer_1
 62
7
100
AcDbPolyline
 90
2
 70
0
 10
176.890017
 20
67.159602
 30
0.0
 10
171.873011
 20
80.227312
 30
0.0
  0
LWPOLYLINE
  5
161
100
AcDbEntity
  8
Layer_1
 62
7
100
AcDbPolyline
 90
2
 70
0
 10
163.819925
 20
62.140479
 30
0.0
 10
176.890017
 20
67.159602
 30
0.0
  0
LWPOLYLINE
  5
162
100
AcDbEntity
  8
Layer_1
 62
7
100
AcDbPolyline
 90
2
 70
0
 10
158.802919
 20
75.210835
 30
0.0
 10
163.819925
 20
62.140479
 30
0.0
  0
LWPOLYLINE
  5
163
100
AcDbEntity
  8
Layer_1
 62
7
100
AcDbPolyline
 90
2
 70
0
 10
171.873011
 20
80.227312
 30
0.0
 10
158.802919
 20
75.210835
 30
0.0
  0
LWPOLYLINE
  5
164
100
AcDbEntity
  8
Layer_1
 62
7
100
AcDbPolyline
 90
2
 70
0
 10
198.353183
 20
61.473732
 30
0.0
 10
193.336177
 20
74.541443
 30
0.0
  0
LWPOLYLINE
  5
165
100
AcDbEntity
  8
Layer_1
 62
7
100
AcDbPolyline
 90
2
 70
0
 10
185.283091
 20
56.454609
 30
0.0
 10
198.353183
 20
61.473732
 30
0.0
  0
LWPOLYLINE
  5
166
100
AcDbEntity
  8
Layer_1
 62
7
100
AcDbPolyline
 90
2
 70
0
 10
180.266085
 20
69.524966
 30
0.0
 10
185.283091
 20
56.454609
 30
0.0
  0
LWPOLYLINE
  5
167
100
AcDbEntity
  8
Layer_1
 62
7
100
AcDbPolyline
 90
2
 70
0
 10
193.336177
 20
74.541443
 30
0.0
 10
180.266085
 20
69.524966
 30
0.0
  0
LWPOLYLINE
  5
168
100
AcDbEntity
  8
Layer_1
 62
7
100
AcDbPolyline
 90
2
 70
0
 10
212.034459
 20
77.957198
 30
0.0
 10
207.941374
 20
91.345053
 30
0.0
  0
LWPOLYLINE
  5
169
100
AcDbEntity
  8
Layer_1
 62
7
100
AcDbPolyline
 90
2
 70
0
 10
198.646340
 20
73.864112
 30
0.0
 10
212.034459
 20
77.957198
 30
0.0
  0
LWPOLYLINE
  5
16a
100
AcDbEntity
  8
Layer_1
 62
7
100
AcDbPolyline
 90
2
 70
0
 10
194.553254
 20
87.251967
 30
0.0
 10
198.646340
 20
73.864112
 30
0.0
  0
LWPOLYLINE
  5
16b
100
AcDbEntity
  8
Layer_1
 62
7
100
AcDbPolyline
 90
2
 70
0
 10
207.941374
 20
91.345053
 30
0.0
 10
194.553254
 20
87.251967
 30
0.0
  0
LWPOLYLINE
  5
16c
100
AcDbEntity
  8
Layer_1
 62
7
100
AcDbPolyline
 90
2
 70
0
 10
232.652550
 20
87.114385
 30
0.0
 10
231.310854
 20
101.050189
 30
0.0
  0
LWPOLYLINE
  5
16d
100
AcDbEntity
  8
Layer_1
 62
7
100
AcDbPolyline
 90
2
 70
0
 10
218.717274
 20
85.772953
 30
0.0
 10
232.652550
 20
87.114385
 30
0.0
  0
LWPOLYLINE
  5
16e
100
AcDbEntity
  8
Layer_1
 62
7
100
AcDbPolyline
 90
2
 70
0
 10
217.375314
 20
99.708493
 30
0.0
 10
218.717274
 20
85.772953
 30
0.0
  0
LWPOLYLINE
  5
16f
100
AcDbEntity
  8
Layer_1
 62
7
100
AcDbPolyline
 90
2
 70
0
 10
231.310854
 20
101.050189
 30
0.0
 10
217.375314
 20
99.708493
 30
0.0
  0
LWPOLYLINE
  5
170
100
AcDbEntity
  8
Layer_1
 62
7
100
AcDbPolyline
 90
2
 70
0
 10
192.260915
 20
77.343367
 30
0.0
 10
187.243909
 20
90.413724
 30
0.0
  0
LWPOLYLINE
  5
171
100
AcDbEntity
  8
Layer_1
 62
7
100
AcDbPolyline
 90
2
 70
0
 10
179.190823
 20
72.326890
 30
0.0
 10
192.260915
 20
77.343367
 30
0.0
  0
LWPOLYLINE
  5
172
100
AcDbEntity
  8
Layer_1
 62
7
100
AcDbPolyline
 90
2
 70
0
 10
174.173817
 20
85.397247
 30
0.0
 10
179.190823
 20
72.326890
 30
0.0
  0
LWPOLYLINE
  5
173
100
AcDbEntity
  8
Layer_1
 62
7
100
AcDbPolyline
 90
2
 70
0
 10
187.243909
 20
90.413724
 30
0.0
 10
174.173817
 20
85.397247
 30
0.0
  0
LWPOLYLINE
  5
174
100
AcDbEntity
  8
Layer_1
 62
7
100
AcDbPolyline
 90
2
 70
0
 10
207.064284
 20
94.215769
 30
0.0
 10
202.971199
 20
107.603095
 30
0.0
  0
LWPOLYLINE
  5
175
100
AcDbEntity
  8
Layer_1
 62
7
100
AcDbPolyline
 90
2
 70
0
 10
193.676165
 20
90.122683
 30
0.0
 10
207.064284
 20
94.215769
 30
0.0
  0
LWPOLYLINE
  5
176
100
AcDbEntity
  8
Layer_1
 62
7
100
AcDbPolyline
 90
2
 70
0
 10
189.582815
 20
103.509745
 30
0.0
 10
193.676165
 20
90.122683
 30
0.0
  0
SPLINE
  5
177
100
AcDbEntity
  8
Layer_1
 62
7
100
AcDbSpline
 70
8
 71
3
 72
8
 73
4
 74
0
 40
0
 40
0
 40
0
 40
0
 40
1
 40
1
 40
1
 40
1
 10
212.980031
 20
99.254060
 30
0.0
 10
212.980224
 20
99.647179
 30
0.0
 10
212.770608
 20
100.010519
 30
0.0
 10
212.430189
 20
100.207134
 30
0.0
  0
SPLINE
  5
178
100
AcDbEntity
  8
Layer_1
 62
7
100
AcDbSpline
 70
8
 71
3
 72
8
 73
4
 74
0
 40
0
 40
0
 40
0
 40
0
 40
1
 40
1
 40
1
 40
1
 10
212.430189
 20
100.207134
 30
0.0
 10
212.089770
 20
100.403749
 30
0.0
 10
211.670302
 20
100.403749
 30
0.0
 10
211.329883
 20
100.207134
 30
0.0
  0
SPLINE
  5
179
100
AcDbEntity
  8
Layer_1
 62
7
100
AcDbSpline
 70
8
 71
3
 72
8
 73
4
 74
0
 40
0
 40
0
 40
0
 40
0
 40
1
 40
1
 40
1
 40
1
 10
211.329883
 20
100.207134
 30
0.0
 10
210.989464
 20
100.010519
 30
0.0
 10
210.779848
 20
99.647179
 30
0.0
 10
210.780041
 20
99.254060
 30
0.0
  0
SPLINE
  5
17a
100
AcDbEntity
  8
Layer_1
 62
7
100
AcDbSpline
 70
8
 71
3
 72
8
 73
4
 74
0
 40
0
 40
0
 40
0
 40
0
 40
1
 40
1
 40
1
 40
1
 10
210.780041
 20
99.254060
 30
0.0
 10
210.779848
 20
98.860942
 30
0.0
 10
210.989464
 20
98.497602
 30
0.0
 10
211.329883
 20
98.300987
 30
0.0
  0
SPLINE
  5
17b
100
AcDbEntity
  8
Layer_1
 62
7
100
AcDbSpline
 70
8
 71
3
 72
8
 73
4
 74
0
 40
0
 40
0
 40
0
 40
0
 40
1
 40
1
 40
1
 40
1
 10
211.329883
 20
98.300987
 30
0.0
 10
211.670302
 20
98.104372
 30
0.0
 10
212.089770
 20
98.104372
 30
0.0
 10
212.430189
 20
98.300987
 30
0.0
  0
SPLINE
  5
17c
100
AcDbEntity
  8
Layer_1
 62
7
100
AcDbSpline
 70
8
 71
3
 72
8
 73
4
 74
0
 40
0
 40
0
 40
0
 40
0
 40
1
 40
1
 40
1
 40
1
 10
212.430189
 20
98.300987
 30
0.0
 10
212.770608
 20
98.497602
 30
0.0
 10
212.980224
 20
98.860942
 30
0.0
 10
212.980031
 20
99.254060
 30
0.0
  0
LWPOLYLINE
  5
17d
100
AcDbEntity
  8
Layer_1
 62
7
100
AcDbPolyline
 90
2
 70
0
 10
202.971199
 20
107.603095
 30
0.0
 10
189.582815
 20
103.509745
 30
0.0
  0
SPLINE
  5
17e
100
AcDbEntity
  8
Layer_1
 62
7
100
AcDbSpline
 70
8
 71
3
 72
8
 73
4
 74
0
 40
0
 40
0
 40
0
 40
0
 40
1
 40
1
 40
1
 40
1
 10
35.521088
 20
51.603814
 30
0.0
 10
35.521281
 20
51.996932
 30
0.0
 10
35.311665
 20
52.360272
 30
0.0
 10
34.971247
 20
52.556887
 30
0.0
  0
SPLINE
  5
17f
100
AcDbEntity
  8
Layer_1
 62
7
100
AcDbSpline
 70
8
 71
3
 72
8
 73
4
 74
0
 40
0
 40
0
 40
0
 40
0
 40
1
 40
1
 40
1
 40
1
 10
34.971247
 20
52.556887
 30
0.0
 10
34.630828
 20
52.753502
 30
0.0
 10
34.211359
 20
52.753502
 30
0.0
 10
33.870940
 20
52.556887
 30
0.0
  0
SPLINE
  5
180
100
AcDbEntity
  8
Layer_1
 62
7
100
AcDbSpline
 70
8
 71
3
 72
8
 73
4
 74
0
 40
0
 40
0
 40
0
 40
0
 40
1
 40
1
 40
1
 40
1
 10
33.870940
 20
52.556887
 30
0.0
 10
33.530521
 20
52.360272
 30
0.0
 10
33.320906
 20
51.996932
 30
0.0
 10
33.321098
 20
51.603814
 30
0.0
  0
SPLINE
  5
181
100
AcDbEntity
  8
Layer_1
 62
7
100
AcDbSpline
 70
8
 71
3
 72
8
 73
4
 74
0
 40
0
 40
0
 40
0
 40
0
 40
1
 40
1
 40
1
 40
1
 10
33.321098
 20
51.603814
 30
0.0
 10
33.320906
 20
51.210695
 30
0.0
 10
33.530521
 20
50.847355
 30
0.0
 10
33.870940
 20
50.650740
 30
0.0
  0
SPLINE
  5
182
100
AcDbEntity
  8
Layer_1
 62
7
100
AcDbSpline
 70
8
 71
3
 72
8
 73
4
 74
0
 40
0
 40
0
 40
0
 40
0
 40
1
 40
1
 40
1
 40
1
 10
33.870940
 20
50.650740
 30
0.0
 10
34.211359
 20
50.454125
 30
0.0
 10
34.630828
 20
50.454125
 30
0.0
 10
34.971247
 20
50.650740
 30
0.0
  0
SPLINE
  5
183
100
AcDbEntity
  8
Layer_1
 62
7
100
AcDbSpline
 70
8
 71
3
 72
8
 73
4
 74
0
 40
0
 40
0
 40
0
 40
0
 40
1
 40
1
 40
1
 40
1
 10
34.971247
 20
50.650740
 30
0.0
 10
35.311665
 20
50.847355
 30
0.0
 10
35.521281
 20
51.210695
 30
0.0
 10
35.521088
 20
51.603814
 30
0.0
  0
LWPOLYLINE
  5
184
100
AcDbEntity
  8
Layer_1
 62
7
100
AcDbPolyline
 90
1
 70
1
 10
212.980031
 20
99.254060
 30
0.0
  0
LWPOLYLINE
  5
185
100
AcDbEntity
  8
Layer_1
 62
7
100
AcDbPolyline
 90
1
 70
1
 10
35.521088
 20
51.603814
 30
0.0
  0
LWPOLYLINE
  5
186
100
AcDbEntity
  8
Layer_1
 62
7
100
AcDbPolyline
 90
4
 70
1
 10
25.118307
 20
51.930255
 30
0.0
 10
11.182767
 20
53.271686
 30
0.0
 10
12.524727
 20
67.207226
 30
0.0
 10
26.460003
 20
65.865795
 30
0.0
  0
LWPOLYLINE
  5
187
100
AcDbEntity
  8
Layer_1
 62
7
100
AcDbPolyline
 90
4
 70
1
 10
61.811084
 20
56.454609
 30
0.0
 10
48.740992
 20
61.473732
 30
0.0
 10
53.757998
 20
74.541443
 30
0.0
 10
66.828090
 20
69.524966
 30
0.0
  0
LWPOLYLINE
  5
188
100
AcDbEntity
  8
Layer_1
 62
7
100
AcDbPolyline
 90
4
 70
1
 10
43.477395
 20
57.608187
 30
0.0
 10
30.089276
 20
61.701272
 30
0.0
 10
34.182625
 20
75.089128
 30
0.0
 10
47.570745
 20
70.996042
 30
0.0
  0
LWPOLYLINE
  5
189
100
AcDbEntity
  8
Layer_1
 62
7
100
AcDbPolyline
 90
4
 70
1
 10
77.181982
 20
46.270843
 30
0.0
 10
64.111890
 20
51.287320
 30
0.0
 10
69.128896
 20
64.357677
 30
0.0
 10
82.198988
 20
59.341200
 30
0.0
  0
LWPOLYLINE
  5
18a
100
AcDbEntity
  8
Layer_1
 62
7
100
AcDbPolyline
 90
4
 70
1
 10
100.078548
 20
55.689967
 30
0.0
 10
87.008562
 20
60.709090
 30
0.0
 10
92.025568
 20
73.776800
 30
0.0
 10
105.095686
 20
68.760323
 30
0.0
  0
LWPOLYLINE
  5
18b
100
AcDbEntity
  8
Layer_1
 62
7
100
AcDbPolyline
 90
4
 70
1
 10
83.274250
 20
62.140479
 30
0.0
 10
70.204158
 20
67.159602
 30
0.0
 10
75.221164
 20
80.227312
 30
0.0
 10
88.291256
 20
75.210835
 30
0.0
  0
LWPOLYLINE
  5
18c
100
AcDbEntity
  8
Layer_1
 62
7
100
AcDbPolyline
 90
4
 70
1
 10
106.170763
 20
71.562248
 30
0.0
 10
93.100829
 20
76.578725
 30
0.0
 10
98.117835
 20
89.649081
 30
0.0
 10
111.187901
 20
84.632604
 30
0.0
  0
LWPOLYLINE
  5
18d
100
AcDbEntity
  8
Layer_1
 62
7
100
AcDbPolyline
 90
4
 70
1
 10
67.903352
 20
72.326890
 30
0.0
 10
54.833260
 20
77.343367
 30
0.0
 10
59.850266
 20
90.413724
 30
0.0
 10
72.920358
 20
85.397247
 30
0.0
  0
SPLINE
  5
18e
100
AcDbEntity
  8
Layer_1
 62
7
100
AcDbSpline
 70
8
 71
3
 72
8
 73
4
 74
0
 40
0
 40
0
 40
0
 40
0
 40
1
 40
1
 40
1
 40
1
 10
102.228349
 20
96.627414
 30
0.0
 10
102.228349
 20
97.020404
 30
0.0
 10
102.018691
 20
97.383542
 30
0.0
 10
101.678351
 20
97.580037
 30
0.0
  0
SPLINE
  5
18f
100
AcDbEntity
  8
Layer_1
 62
7
100
AcDbSpline
 70
8
 71
3
 72
8
 73
4
 74
0
 40
0
 40
0
 40
0
 40
0
 40
1
 40
1
 40
1
 40
1
 10
101.678351
 20
97.580037
 30
0.0
 10
101.338012
 20
97.776532
 30
0.0
 10
100.918696
 20
97.776532
 30
0.0
 10
100.578356
 20
97.580037
 30
0.0
  0
SPLINE
  5
190
100
AcDbEntity
  8
Layer_1
 62
7
100
AcDbSpline
 70
8
 71
3
 72
8
 73
4
 74
0
 40
0
 40
0
 40
0
 40
0
 40
1
 40
1
 40
1
 40
1
 10
100.578356
 20
97.580037
 30
0.0
 10
100.238017
 20
97.383542
 30
0.0
 10
100.028359
 20
97.020404
 30
0.0
 10
100.028359
 20
96.627414
 30
0.0
  0
SPLINE
  5
191
100
AcDbEntity
  8
Layer_1
 62
7
100
AcDbSpline
 70
8
 71
3
 72
8
 73
4
 74
0
 40
0
 40
0
 40
0
 40
0
 40
1
 40
1
 40
1
 40
1
 10
100.028359
 20
96.627414
 30
0.0
 10
100.028359
 20
96.234423
 30
0.0
 10
100.238017
 20
95.871285
 30
0.0
 10
100.578356
 20
95.674790
 30
0.0
  0
SPLINE
  5
192
100
AcDbEntity
  8
Layer_1
 62
7
100
AcDbSpline
 70
8
 71
3
 72
8
 73
4
 74
0
 40
0
 40
0
 40
0
 40
0
 40
1
 40
1
 40
1
 40
1
 10
100.578356
 20
95.674790
 30
0.0
 10
100.918696
 20
95.478295
 30
0.0
 10
101.338012
 20
95.478295
 30
0.0
 10
101.678351
 20
95.674790
 30
0.0
  0
SPLINE
  5
193
100
AcDbEntity
  8
Layer_1
 62
7
100
AcDbSpline
 70
8
 71
3
 72
8
 73
4
 74
0
 40
0
 40
0
 40
0
 40
0
 40
1
 40
1
 40
1
 40
1
 10
101.678351
 20
95.674790
 30
0.0
 10
102.018691
 20
95.871285
 30
0.0
 10
102.228349
 20
96.234423
 30
0.0
 10
102.228349
 20
96.627414
 30
0.0
  0
LWPOLYLINE
  5
194
100
AcDbEntity
  8
Layer_1
 62
7
100
AcDbPolyline
 90
4
 70
1
 10
89.366517
 20
78.012760
 30
0.0
 10
76.296425
 20
83.029237
 30
0.0
 10
81.313432
 20
96.099593
 30
0.0
 10
94.383524
 20
91.083116
 30
0.0
  0
LWPOLYLINE
  5
195
100
AcDbEntity
  8
Layer_1
 62
7
100
AcDbPolyline
 90
1
 70
1
 10
102.228349
 20
96.627414
 30
0.0
  0
LWPOLYLINE
  5
196
100
AcDbEntity
  8
Layer_1
 62
7
100
AcDbPolyline
 90
4
 70
1
 10
26.747603
 20
68.850281
 30
0.0
 10
12.812063
 20
70.194358
 30
0.0
 10
14.154024
 20
84.129898
 30
0.0
 10
28.089564
 20
82.785821
 30
0.0
  0
LWPOLYLINE
  5
197
100
AcDbEntity
  8
Layer_1
 62
7
100
AcDbPolyline
 90
4
 70
1
 10
48.447835
 20
73.864112
 30
0.0
 10
35.059715
 20
77.957198
 30
0.0
 10
39.152801
 20
91.345053
 30
0.0
 10
52.540920
 20
87.251967
 30
0.0
  0
SPLINE
  5
198
100
AcDbEntity
  8
Layer_1
 62
7
100
AcDbSpline
 70
8
 71
3
 72
8
 73
4
 74
0
 40
0
 40
0
 40
0
 40
0
 40
1
 40
1
 40
1
 40
1
 10
36.314133
 20
99.254060
 30
0.0
 10
36.314326
 20
99.647179
 30
0.0
 10
36.104711
 20
100.010519
 30
0.0
 10
35.764292
 20
100.207134
 30
0.0
  0
SPLINE
  5
199
100
AcDbEntity
  8
Layer_1
 62
7
100
AcDbSpline
 70
8
 71
3
 72
8
 73
4
 74
0
 40
0
 40
0
 40
0
 40
0
 40
1
 40
1
 40
1
 40
1
 10
35.764292
 20
100.207134
 30
0.0
 10
35.423873
 20
100.403749
 30
0.0
 10
35.004404
 20
100.403749
 30
0.0
 10
34.663985
 20
100.207134
 30
0.0
  0
SPLINE
  5
19a
100
AcDbEntity
  8
Layer_1
 62
7
100
AcDbSpline
 70
8
 71
3
 72
8
 73
4
 74
0
 40
0
 40
0
 40
0
 40
0
 40
1
 40
1
 40
1
 40
1
 10
34.663985
 20
100.207134
 30
0.0
 10
34.323567
 20
100.010519
 30
0.0
 10
34.113951
 20
99.647179
 30
0.0
 10
34.114144
 20
99.254060
 30
0.0
  0
SPLINE
  5
19b
100
AcDbEntity
  8
Layer_1
 62
7
100
AcDbSpline
 70
8
 71
3
 72
8
 73
4
 74
0
 40
0
 40
0
 40
0
 40
0
 40
1
 40
1
 40
1
 40
1
 10
34.114144
 20
99.254060
 30
0.0
 10
34.113951
 20
98.860942
 30
0.0
 10
34.323567
 20
98.497602
 30
0.0
 10
34.663985
 20
98.300987
 30
0.0
  0
SPLINE
  5
19c
100
AcDbEntity
  8
Layer_1
 62
7
100
AcDbSpline
 70
8
 71
3
 72
8
 73
4
 74
0
 40
0
 40
0
 40
0
 40
0
 40
1
 40
1
 40
1
 40
1
 10
34.663985
 20
98.300987
 30
0.0
 10
35.004404
 20
98.104372
 30
0.0
 10
35.423873
 20
98.104372
 30
0.0
 10
35.764292
 20
98.300987
 30
0.0
  0
SPLINE
  5
19d
100
AcDbEntity
  8
Layer_1
 62
7
100
AcDbSpline
 70
8
 71
3
 72
8
 73
4
 74
0
 40
0
 40
0
 40
0
 40
0
 40
1
 40
1
 40
1
 40
1
 10
35.764292
 20
98.300987
 30
0.0
 10
36.104711
 20
98.497602
 30
0.0
 10
36.314326
 20
98.860942
 30
0.0
 10
36.314133
 20
99.254060
 30
0.0
  0
LWPOLYLINE
  5
19e
100
AcDbEntity
  8
Layer_1
 62
7
100
AcDbPolyline
 90
4
 70
1
 10
28.376900
 20
85.772953
 30
0.0
 10
14.441625
 20
87.114385
 30
0.0
 10
15.783321
 20
101.050189
 30
0.0
 10
29.718861
 20
99.708493
 30
0.0
  0
LWPOLYLINE
  5
19f
100
AcDbEntity
  8
Layer_1
 62
7
100
AcDbPolyline
 90
1
 70
1
 10
36.314133
 20
99.254060
 30
0.0
  0
LWPOLYLINE
  5
1a0
100
AcDbEntity
  8
Layer_1
 62
7
100
AcDbPolyline
 90
4
 70
1
 10
53.418010
 20
90.122683
 30
0.0
 10
40.029890
 20
94.215769
 30
0.0
 10
44.122976
 20
107.603095
 30
0.0
 10
57.511360
 20
103.509745
 30
0.0
  0
LWPOLYLINE
  5
1a1
100
AcDbEntity
  8
Layer_1
 62
7
100
AcDbPolyline
 90
4
 70
1
 10
65.942534
 20
106.284153
 30
0.0
 10
79.012625
 20
101.266882
 30
0.0
 10
73.995619
 20
88.196526
 30
0.0
 10
60.925527
 20
93.213003
 30
0.0
  0
LWPOLYLINE
  5
1a2
100
AcDbEntity
  8
Layer_1
 62
7
100
AcDbPolyline
 90
2
 70
0
 10
153.993345
 20
76.578725
 30
0.0
 10
148.976339
 20
89.649081
 30
0.0
  0
LWPOLYLINE
  5
1a3
100
AcDbEntity
  8
Layer_1
 62
7
100
AcDbPolyline
 90
2
 70
0
 10
140.923412
 20
71.562248
 30
0.0
 10
153.993345
 20
76.578725
 30
0.0
  0
LWPOLYLINE
  5
1a4
100
AcDbEntity
  8
Layer_1
 62
7
100
AcDbPolyline
 90
2
 70
0
 10
135.906274
 20
84.632604
 30
0.0
 10
140.923412
 20
71.562248
 30
0.0
  0
LWPOLYLINE
  5
1a5
100
AcDbEntity
  8
Layer_1
 62
7
100
AcDbPolyline
 90
2
 70
0
 10
148.976339
 20
89.649081
 30
0.0
 10
135.906274
 20
84.632604
 30
0.0
  0
LWPOLYLINE
  5
1a6
100
AcDbEntity
  8
Layer_1
 62
7
100
AcDbPolyline
 90
2
 70
0
 10
170.797749
 20
83.029237
 30
0.0
 10
165.780743
 20
96.099593
 30
0.0
  0
LWPOLYLINE
  5
1a7
100
AcDbEntity
  8
Layer_1
 62
7
100
AcDbPolyline
 90
2
 70
0
 10
157.727657
 20
78.012760
 30
0.0
 10
170.797749
 20
83.029237
 30
0.0
  0
LWPOLYLINE
  5
1a8
100
AcDbEntity
  8
Layer_1
 62
7
100
AcDbPolyline
 90
2
 70
0
 10
152.710651
 20
91.083116
 30
0.0
 10
157.727657
 20
78.012760
 30
0.0
  0
SPLINE
  5
1a9
100
AcDbEntity
  8
Layer_1
 62
7
100
AcDbSpline
 70
8
 71
3
 72
8
 73
4
 74
0
 40
0
 40
0
 40
0
 40
0
 40
1
 40
1
 40
1
 40
1
 10
147.065816
 20
96.627414
 30
0.0
 10
147.065816
 20
97.020404
 30
0.0
 10
146.856158
 20
97.383542
 30
0.0
 10
146.515818
 20
97.580037
 30
0.0
  0
SPLINE
  5
1aa
100
AcDbEntity
  8
Layer_1
 62
7
100
AcDbSpline
 70
8
 71
3
 72
8
 73
4
 74
0
 40
0
 40
0
 40
0
 40
0
 40
1
 40
1
 40
1
 40
1
 10
146.515818
 20
97.580037
 30
0.0
 10
146.175478
 20
97.776532
 30
0.0
 10
145.756163
 20
97.776532
 30
0.0
 10
145.415823
 20
97.580037
 30
0.0
  0
SPLINE
  5
1ab
100
AcDbEntity
  8
Layer_1
 62
7
100
AcDbSpline
 70
8
 71
3
 72
8
 73
4
 74
0
 40
0
 40
0
 40
0
 40
0
 40
1
 40
1
 40
1
 40
1
 10
145.415823
 20
97.580037
 30
0.0
 10
145.075484
 20
97.383542
 30
0.0
 10
144.865826
 20
97.020404
 30
0.0
 10
144.865826
 20
96.627414
 30
0.0
  0
SPLINE
  5
1ac
100
AcDbEntity
  8
Layer_1
 62
7
100
AcDbSpline
 70
8
 71
3
 72
8
 73
4
 74
0
 40
0
 40
0
 40
0
 40
0
 40
1
 40
1
 40
1
 40
1
 10
144.865826
 20
96.627414
 30
0.0
 10
144.865826
 20
96.234423
 30
0.0
 10
145.075484
 20
95.871285
 30
0.0
 10
145.415823
 20
95.674790
 30
0.0
  0
SPLINE
  5
1ad
100
AcDbEntity
  8
Layer_1
 62
7
100
AcDbSpline
 70
8
 71
3
 72
8
 73
4
 74
0
 40
0
 40
0
 40
0
 40
0
 40
1
 40
1
 40
1
 40
1
 10
145.415823
 20
95.674790
 30
0.0
 10
145.756163
 20
95.478295
 30
0.0
 10
146.175478
 20
95.478295
 30
0.0
 10
146.515818
 20
95.674790
 30
0.0
  0
SPLINE
  5
1ae
100
AcDbEntity
  8
Layer_1
 62
7
100
AcDbSpline
 70
8
 71
3
 72
8
 73
4
 74
0
 40
0
 40
0
 40
0
 40
0
 40
1
 40
1
 40
1
 40
1
 10
146.515818
 20
95.674790
 30
0.0
 10
146.856158
 20
95.871285
 30
0.0
 10
147.065816
 20
96.234423
 30
0.0
 10
147.065816
 20
96.627414
 30
0.0
  0
LWPOLYLINE
  5
1af
100
AcDbEntity
  8
Layer_1
 62
7
100
AcDbPolyline
 90
2
 70
0
 10
165.780743
 20
96.099593
 30
0.0
 10
152.710651
 20
91.083116
 30
0.0
  0
LWPOLYLINE
  5
1b0
100
AcDbEntity
  8
Layer_1
 62
7
100
AcDbPolyline
 90
1
 70
1
 10
147.065816
 20
96.627414
 30
0.0
  0
LWPOLYLINE
  5
1b1
100
AcDbEntity
  8
Layer_1
 62
7
100
AcDbPolyline
 90
2
 70
0
 10
186.168647
 20
93.213003
 30
0.0
 10
181.151641
 20
106.284153
 30
0.0
  0
LWPOLYLINE
  5
1b2
100
AcDbEntity
  8
Layer_1
 62
7
100
AcDbPolyline
 90
2
 70
0
 10
173.098555
 20
88.196526
 30
0.0
 10
186.168647
 20
93.213003
 30
0.0
  0
LWPOLYLINE
  5
1b3
100
AcDbEntity
  8
Layer_1
 62
7
100
AcDbPolyline
 90
2
 70
0
 10
168.081549
 20
101.266882
 30
0.0
 10
173.098555
 20
88.196526
 30
0.0
  0
LWPOLYLINE
  5
1b4
100
AcDbEntity
  8
Layer_1
 62
7
100
AcDbPolyline
 90
2
 70
0
 10
181.151641
 20
106.284153
 30
0.0
 10
168.081549
 20
101.266882
 30
0.0
  0
LWPOLYLINE
  5
1b5
100
AcDbEntity
  8
Layer_1
 62
7
100
AcDbPolyline
 90
1
 70
1
 10
158.842342
 20
16.304273
 30
0.0
  0
SPLINE
  5
1b6
100
AcDbEntity
  8
Layer_1
 62
7
100
AcDbSpline
 70
8
 71
3
 72
8
 73
4
 74
0
 40
0
 40
0
 40
0
 40
0
 40
1
 40
1
 40
1
 40
1
 10
5.155533
 20
52.125808
 30
0.0
 10
4.940137
 20
49.889110
 30
0.0
 10
6.243032
 20
47.783645
 30
0.0
 10
8.340615
 20
46.977860
 30
0.0
  0
LWPOLYLINE
  5
1b7
100
AcDbEntity
  8
Layer_1
 62
7
100
AcDbPolyline
 90
2
 70
0
 10
10.447228
 20
107.082132
 30
0.0
 10
5.155533
 20
52.125808
 30
0.0
  0
SPLINE
  5
1b8
100
AcDbEntity
  8
Layer_1
 62
7
100
AcDbSpline
 70
8
 71
3
 72
8
 73
4
 74
0
 40
0
 40
0
 40
0
 40
0
 40
1
 40
1
 40
1
 40
1
 10
102.312964
 20
6.086747
 30
0.0
 10
103.167192
 20
5.466778
 30
0.0
 10
104.195979
 20
5.132505
 30
0.0
 10
105.251869
 20
5.133060
 30
0.0
  0
LWPOLYLINE
  5
1b9
100
AcDbEntity
  8
Layer_1
 62
7
100
AcDbPolyline
 90
7
 70
0
 10
8.340615
 20
46.977860
 30
0.0
 10
22.344163
 20
41.603615
 30
0.0
 10
29.892162
 20
46.503676
 30
0.0
 10
34.560184
 20
44.712455
 30
0.0
 10
36.889565
 20
36.018286
 30
0.0
 10
88.251833
 20
16.304273
 30
0.0
 10
102.312964
 20
6.086747
 30
0.0
  0
SPLINE
  5
1ba
100
AcDbEntity
  8
Layer_1
 62
7
100
AcDbSpline
 70
8
 71
3
 72
8
 73
4
 74
0
 40
0
 40
0
 40
0
 40
0
 40
1
 40
1
 40
1
 40
1
 10
141.842305
 20
5.133060
 30
0.0
 10
142.898195
 20
5.133060
 30
0.0
 10
143.926982
 20
5.466778
 30
0.0
 10
144.781211
 20
6.086747
 30
0.0
  0
LWPOLYLINE
  5
1bb
100
AcDbEntity
  8
Layer_1
 62
7
100
AcDbPolyline
 90
10
 70
0
 10
105.251869
 20
5.133060
 30
0.0
 10
106.251857
 20
5.133060
 30
0.0
 10
111.541912
 20
12.414360
 30
0.0
 10
116.541879
 20
12.414360
 30
0.0
 10
121.831928
 20
5.133060
 30
0.0
 10
125.262246
 20
5.133060
 30
0.0
 10
130.552296
 20
12.414360
 30
0.0
 10
135.552263
 20
12.414360
 30
0.0
 10
140.842317
 20
5.133060
 30
0.0
 10
141.842305
 20
5.133060
 30
0.0
  0
SPLINE
  5
1bc
100
AcDbEntity
  8
Layer_1
 62
7
100
AcDbSpline
 70
8
 71
3
 72
8
 73
4
 74
0
 40
0
 40
0
 40
0
 40
0
 40
1
 40
1
 40
1
 40
1
 10
238.753557
 20
46.977860
 30
0.0
 10
240.851143
 20
47.783645
 30
0.0
 10
242.154038
 20
49.889110
 30
0.0
 10
241.938641
 20
52.125808
 30
0.0
  0
LWPOLYLINE
  5
1bd
100
AcDbEntity
  8
Layer_1
 62
7
100
AcDbPolyline
 90
7
 70
0
 10
144.781211
 20
6.086747
 30
0.0
 10
158.842342
 20
16.304273
 30
0.0
 10
210.204609
 20
36.018286
 30
0.0
 10
212.533990
 20
44.712455
 30
0.0
 10
217.202013
 20
46.503676
 30
0.0
 10
224.750011
 20
41.603615
 30
0.0
 10
238.753557
 20
46.977860
 30
0.0
  0
SPLINE
  5
1be
100
AcDbEntity
  8
Layer_1
 62
7
100
AcDbSpline
 70
8
 71
3
 72
8
 73
4
 74
0
 40
0
 40
0
 40
0
 40
0
 40
1
 40
1
 40
1
 40
1
 10
236.646959
 20
107.082180
 30
0.0
 10
236.400091
 20
109.646153
 30
0.0
 10
234.245797
 20
111.602978
 30
0.0
 10
231.669953
 20
111.603013
 30
0.0
  0
LWPOLYLINE
  5
1bf
100
AcDbEntity
  8
Layer_1
 62
7
100
AcDbPolyline
 90
2
 70
0
 10
241.938641
 20
52.125808
 30
0.0
 10
236.646959
 20
107.082180
 30
0.0
  0
SPLINE
  5
1c0
100
AcDbEntity
  8
Layer_1
 62
7
100
AcDbSpline
 70
8
 71
3
 72
8
 73
4
 74
0
 40
0
 40
0
 40
0
 40
0
 40
1
 40
1
 40
1
 40
1
 10
15.424222
 20
111.603013
 30
0.0
 10
12.848377
 20
111.602978
 30
0.0
 10
10.694084
 20
109.646153
 30
0.0
 10
10.447205
 20
107.082228
 30
0.0
  0
LWPOLYLINE
  5
1c1
100
AcDbEntity
  8
Layer_1
 62
7
100
AcDbPolyline
 90
18
 70
0
 10
231.669953
 20
111.603013
 30
0.0
 10
221.670011
 20
111.603047
 30
0.0
 10
216.379956
 20
104.321747
 30
0.0
 10
211.380148
 20
104.321747
 30
0.0
 10
206.090093
 20
111.603047
 30
0.0
 10
170.745362
 20
111.603047
 30
0.0
 10
158.466900
 20
102.682132
 30
0.0
 10
135.992501
 20
102.682132
 30
0.0
 10
131.047064
 20
104.482084
 30
0.0
 10
116.047110
 20
104.482084
 30
0.0
 10
111.101674
 20
102.682132
 30
0.0
 10
88.627275
 20
102.682132
 30
0.0
 10
76.348813
 20
111.603047
 30
0.0
 10
41.004082
 20
111.603047
 30
0.0
 10
35.714027
 20
104.321747
 30
0.0
 10
30.714219
 20
104.321747
 30
0.0
 10
25.424164
 20
111.603047
 30
0.0
 10
15.424222
 20
111.603013
 30
0.0
  0
LWPOLYLINE
  5
1c2
100
AcDbEntity
  8
Layer_1
 62
7
100
AcDbPolyline
 90
4
 70
1
 10
104.318185
 20
9.533617
 30
0.0
 10
92.992086
 20
17.762120
 30
0.0
 10
101.220960
 20
29.088881
 30
0.0
 10
112.547139
 20
20.857731
 30
0.0
  0
SPLINE
  5
1c3
100
AcDbEntity
  8
Layer_1
 62
7
100
AcDbSpline
 70
8
 71
3
 72
8
 73
4
 74
0
 40
0
 40
0
 40
0
 40
0
 40
1
 40
1
 40
1
 40
1
 10
103.041947
 20
37.181337
 30
0.0
 10
103.041947
 20
37.574327
 30
0.0
 10
102.832289
 20
37.937465
 30
0.0
 10
102.491950
 20
38.133960
 30
0.0
  0
SPLINE
  5
1c4
100
AcDbEntity
  8
Layer_1
 62
7
100
AcDbSpline
 70
8
 71
3
 72
8
 73
4
 74
0
 40
0
 40
0
 40
0
 40
0
 40
1
 40
1
 40
1
 40
1
 10
102.491950
 20
38.133960
 30
0.0
 10
102.151610
 20
38.330455
 30
0.0
 10
101.732294
 20
38.330455
 30
0.0
 10
101.391955
 20
38.133960
 30
0.0
  0
SPLINE
  5
1c5
100
AcDbEntity
  8
Layer_1
 62
7
100
AcDbSpline
 70
8
 71
3
 72
8
 73
4
 74
0
 40
0
 40
0
 40
0
 40
0
 40
1
 40
1
 40
1
 40
1
 10
101.391955
 20
38.133960
 30
0.0
 10
101.051615
 20
37.937465
 30
0.0
 10
100.841957
 20
37.574327
 30
0.0
 10
100.841957
 20
37.181337
 30
0.0
  0
SPLINE
  5
1c6
100
AcDbEntity
  8
Layer_1
 62
7
100
AcDbSpline
 70
8
 71
3
 72
8
 73
4
 74
0
 40
0
 40
0
 40
0
 40
0
 40
1
 40
1
 40
1
 40
1
 10
100.841957
 20
37.181337
 30
0.0
 10
100.841957
 20
36.788346
 30
0.0
 10
101.051615
 20
36.425208
 30
0.0
 10
101.391955
 20
36.228713
 30
0.0
  0
SPLINE
  5
1c7
100
AcDbEntity
  8
Layer_1
 62
7
100
AcDbSpline
 70
8
 71
3
 72
8
 73
4
 74
0
 40
0
 40
0
 40
0
 40
0
 40
1
 40
1
 40
1
 40
1
 10
101.391955
 20
36.228713
 30
0.0
 10
101.732294
 20
36.032218
 30
0.0
 10
102.151610
 20
36.032218
 30
0.0
 10
102.491950
 20
36.228713
 30
0.0
  0
SPLINE
  5
1c8
100
AcDbEntity
  8
Layer_1
 62
7
100
AcDbSpline
 70
8
 71
3
 72
8
 73
4
 74
0
 40
0
 40
0
 40
0
 40
0
 40
1
 40
1
 40
1
 40
1
 10
102.491950
 20
36.228713
 30
0.0
 10
102.832289
 20
36.425208
 30
0.0
 10
103.041947
 20
36.788346
 30
0.0
 10
103.041947
 20
37.181337
 30
0.0
  0
LWPOLYLINE
  5
1c9
100
AcDbEntity
  8
Layer_1
 62
7
100
AcDbPolyline
 90
4
 70
1
 10
82.691904
 20
22.685994
 30
0.0
 10
69.621812
 20
27.702471
 30
0.0
 10
74.638819
 20
40.772827
 30
0.0
 10
87.708910
 20
35.756350
 30
0.0
  0
SPLINE
  5
1ca
100
AcDbEntity
  8
Layer_1
 62
7
100
AcDbSpline
 70
8
 71
3
 72
8
 73
4
 74
0
 40
0
 40
0
 40
0
 40
0
 40
1
 40
1
 40
1
 40
1
 10
139.547014
 20
43.908072
 30
0.0
 10
139.547014
 20
49.624295
 30
0.0
 10
136.497445
 20
54.906303
 30
0.0
 10
131.547050
 20
57.764415
 30
0.0
  0
SPLINE
  5
1cb
100
AcDbEntity
  8
Layer_1
 62
7
100
AcDbSpline
 70
8
 71
3
 72
8
 73
4
 74
0
 40
0
 40
0
 40
0
 40
0
 40
1
 40
1
 40
1
 40
1
 10
131.547050
 20
57.764415
 30
0.0
 10
126.596656
 20
60.622527
 30
0.0
 10
120.497518
 20
60.622527
 30
0.0
 10
115.547124
 20
57.764415
 30
0.0
  0
SPLINE
  5
1cc
100
AcDbEntity
  8
Layer_1
 62
7
100
AcDbSpline
 70
8
 71
3
 72
8
 73
4
 74
0
 40
0
 40
0
 40
0
 40
0
 40
1
 40
1
 40
1
 40
1
 10
115.547124
 20
57.764415
 30
0.0
 10
110.596730
 20
54.906303
 30
0.0
 10
107.547161
 20
49.624295
 30
0.0
 10
107.547161
 20
43.908072
 30
0.0
  0
SPLINE
  5
1cd
100
AcDbEntity
  8
Layer_1
 62
7
100
AcDbSpline
 70
8
 71
3
 72
8
 73
4
 74
0
 40
0
 40
0
 40
0
 40
0
 40
1
 40
1
 40
1
 40
1
 10
107.547161
 20
43.908072
 30
0.0
 10
107.547161
 20
38.191849
 30
0.0
 10
110.596730
 20
32.909841
 30
0.0
 10
115.547124
 20
30.051730
 30
0.0
  0
SPLINE
  5
1ce
100
AcDbEntity
  8
Layer_1
 62
7
100
AcDbSpline
 70
8
 71
3
 72
8
 73
4
 74
0
 40
0
 40
0
 40
0
 40
0
 40
1
 40
1
 40
1
 40
1
 10
115.547124
 20
30.051730
 30
0.0
 10
120.497518
 20
27.193618
 30
0.0
 10
126.596656
 20
27.193618
 30
0.0
 10
131.547050
 20
30.051730
 30
0.0
  0
SPLINE
  5
1cf
100
AcDbEntity
  8
Layer_1
 62
7
100
AcDbSpline
 70
8
 71
3
 72
8
 73
4
 74
0
 40
0
 40
0
 40
0
 40
0
 40
1
 40
1
 40
1
 40
1
 10
131.547050
 20
30.051730
 30
0.0
 10
136.497445
 20
32.909841
 30
0.0
 10
139.547014
 20
38.191849
 30
0.0
 10
139.547014
 20
43.908072
 30
0.0
  0
LWPOLYLINE
  5
1d0
100
AcDbEntity
  8
Layer_1
 62
7
100
AcDbPolyline
 90
1
 70
1
 10
103.041947
 20
37.181337
 30
0.0
  0
LWPOLYLINE
  5
1d1
100
AcDbEntity
  8
Layer_1
 62
7
100
AcDbPolyline
 90
1
 70
1
 10
139.547014
 20
43.908072
 30
0.0
  0
LWPOLYLINE
  5
1d2
100
AcDbEntity
  8
Layer_1
 62
7
100
AcDbPolyline
 90
4
 70
1
 10
93.986386
 20
39.820331
 30
0.0
 10
80.916294
 20
44.836808
 30
0.0
 10
85.933300
 20
57.907165
 30
0.0
 10
99.003445
 20
52.890688
 30
0.0
  0
LWPOLYLINE
  5
1d3
100
AcDbEntity
  8
Layer_1
 62
7
100
AcDbPolyline
 90
2
 70
0
 10
154.102088
 20
17.762120
 30
0.0
 10
145.873214
 20
29.088881
 30
0.0
  0
LWPOLYLINE
  5
1d4
100
AcDbEntity
  8
Layer_1
 62
7
100
AcDbPolyline
 90
2
 70
0
 10
142.775989
 20
9.533617
 30
0.0
 10
154.102088
 20
17.762120
 30
0.0
  0
LWPOLYLINE
  5
1d5
100
AcDbEntity
  8
Layer_1
 62
7
100
AcDbPolyline
 90
2
 70
0
 10
134.547036
 20
20.857731
 30
0.0
 10
142.775989
 20
9.533617
 30
0.0
  0
LWPOLYLINE
  5
1d6
100
AcDbEntity
  8
Layer_1
 62
7
100
AcDbPolyline
 90
2
 70
0
 10
145.873214
 20
29.088881
 30
0.0
 10
134.547036
 20
20.857731
 30
0.0
  0
LWPOLYLINE
  5
1d7
100
AcDbEntity
  8
Layer_1
 62
7
100
AcDbPolyline
 90
2
 70
0
 10
177.472362
 20
27.702471
 30
0.0
 10
172.455356
 20
40.772827
 30
0.0
  0
LWPOLYLINE
  5
1d8
100
AcDbEntity
  8
Layer_1
 62
7
100
AcDbPolyline
 90
2
 70
0
 10
164.402270
 20
22.685994
 30
0.0
 10
177.472362
 20
27.702471
 30
0.0
  0
LWPOLYLINE
  5
1d9
100
AcDbEntity
  8
Layer_1
 62
7
100
AcDbPolyline
 90
2
 70
0
 10
159.385264
 20
35.756350
 30
0.0
 10
164.402270
 20
22.685994
 30
0.0
  0
SPLINE
  5
1da
100
AcDbEntity
  8
Layer_1
 62
7
100
AcDbSpline
 70
8
 71
3
 72
8
 73
4
 74
0
 40
0
 40
0
 40
0
 40
0
 40
1
 40
1
 40
1
 40
1
 10
146.252217
 20
37.181337
 30
0.0
 10
146.252217
 20
37.574327
 30
0.0
 10
146.042559
 20
37.937465
 30
0.0
 10
145.702220
 20
38.133960
 30
0.0
  0
SPLINE
  5
1db
100
AcDbEntity
  8
Layer_1
 62
7
100
AcDbSpline
 70
8
 71
3
 72
8
 73
4
 74
0
 40
0
 40
0
 40
0
 40
0
 40
1
 40
1
 40
1
 40
1
 10
145.702220
 20
38.133960
 30
0.0
 10
145.361880
 20
38.330455
 30
0.0
 10
144.942564
 20
38.330455
 30
0.0
 10
144.602225
 20
38.133960
 30
0.0
  0
SPLINE
  5
1dc
100
AcDbEntity
  8
Layer_1
 62
7
100
AcDbSpline
 70
8
 71
3
 72
8
 73
4
 74
0
 40
0
 40
0
 40
0
 40
0
 40
1
 40
1
 40
1
 40
1
 10
144.602225
 20
38.133960
 30
0.0
 10
144.261885
 20
37.937465
 30
0.0
 10
144.052227
 20
37.574327
 30
0.0
 10
144.052227
 20
37.181337
 30
0.0
  0
SPLINE
  5
1dd
100
AcDbEntity
  8
Layer_1
 62
7
100
AcDbSpline
 70
8
 71
3
 72
8
 73
4
 74
0
 40
0
 40
0
 40
0
 40
0
 40
1
 40
1
 40
1
 40
1
 10
144.052227
 20
37.181337
 30
0.0
 10
144.052227
 20
36.788346
 30
0.0
 10
144.261885
 20
36.425208
 30
0.0
 10
144.602225
 20
36.228713
 30
0.0
  0
SPLINE
  5
1de
100
AcDbEntity
  8
Layer_1
 62
7
100
AcDbSpline
 70
8
 71
3
 72
8
 73
4
 74
0
 40
0
 40
0
 40
0
 40
0
 40
1
 40
1
 40
1
 40
1
 10
144.602225
 20
36.228713
 30
0.0
 10
144.942564
 20
36.032218
 30
0.0
 10
145.361880
 20
36.032218
 30
0.0
 10
145.702220
 20
36.228713
 30
0.0
  0
SPLINE
  5
1df
100
AcDbEntity
  8
Layer_1
 62
7
100
AcDbSpline
 70
8
 71
3
 72
8
 73
4
 74
0
 40
0
 40
0
 40
0
 40
0
 40
1
 40
1
 40
1
 40
1
 10
145.702220
 20
36.228713
 30
0.0
 10
146.042559
 20
36.425208
 30
0.0
 10
146.252217
 20
36.788346
 30
0.0
 10
146.252217
 20
37.181337
 30
0.0
  0
LWPOLYLINE
  5
1e0
100
AcDbEntity
  8
Layer_1
 62
7
100
AcDbPolyline
 90
2
 70
0
 10
172.455356
 20
40.772827
 30
0.0
 10
159.385264
 20
35.756350
 30
0.0
  0
LWPOLYLINE
  5
1e1
100
AcDbEntity
  8
Layer_1
 62
7
100
AcDbPolyline
 90
1
 70
1
 10
146.252217
 20
37.181337
 30
0.0
  0
LWPOLYLINE
  5
1e2
100
AcDbEntity
  8
Layer_1
 62
7
100
AcDbPolyline
 90
2
 70
0
 10
166.177881
 20
44.836808
 30
0.0
 10
161.160875
 20
57.907165
 30
0.0
  0
LWPOLYLINE
  5
1e3
100
AcDbEntity
  8
Layer_1
 62
7
100
AcDbPolyline
 90
2
 70
0
 10
153.107789
 20
39.820331
 30
0.0
 10
166.177881
 20
44.836808
 30
0.0
  0
LWPOLYLINE
  5
1e4
100
AcDbEntity
  8
Layer_1
 62
7
100
AcDbPolyline
 90
2
 70
0
 10
148.090730
 20
52.890688
 30
0.0
 10
153.107789
 20
39.820331
 30
0.0
  0
LWPOLYLINE
  5
1e5
100
AcDbEntity
  8
Layer_1
 62
7
100
AcDbPolyline
 90
2
 70
0
 10
161.160875
 20
57.907165
 30
0.0
 10
148.090730
 20
52.890688
 30
0.0
  0
LWPOLYLINE
  5
1e6
100
AcDbEntity
  8
Layer_1
 62
7
100
AcDbPolyline
 90
2
 70
0
 10
182.982285
 20
51.287320
 30
0.0
 10
177.965279
 20
64.357677
 30
0.0
  0
LWPOLYLINE
  5
1e7
100
AcDbEntity
  8
Layer_1
 62
7
100
AcDbPolyline
 90
2
 70
0
 10
169.912193
 20
46.270843
 30
0.0
 10
182.982285
 20
51.287320
 30
0.0
  0
LWPOLYLINE
  5
1e8
100
AcDbEntity
  8
Layer_1
 62
7
100
AcDbPolyline
 90
2
 70
0
 10
164.895187
 20
59.341200
 30
0.0
 10
169.912193
 20
46.270843
 30
0.0
  0
SPLINE
  5
1e9
100
AcDbEntity
  8
Layer_1
 62
7
100
AcDbSpline
 70
8
 71
3
 72
8
 73
4
 74
0
 40
0
 40
0
 40
0
 40
0
 40
1
 40
1
 40
1
 40
1
 10
213.773076
 20
51.603814
 30
0.0
 10
213.773269
 20
51.996932
 30
0.0
 10
213.563653
 20
52.360272
 30
0.0
 10
213.223234
 20
52.556887
 30
0.0
  0
SPLINE
  5
1ea
100
AcDbEntity
  8
Layer_1
 62
7
100
AcDbSpline
 70
8
 71
3
 72
8
 73
4
 74
0
 40
0
 40
0
 40
0
 40
0
 40
1
 40
1
 40
1
 40
1
 10
213.223234
 20
52.556887
 30
0.0
 10
212.882816
 20
52.753502
 30
0.0
 10
212.463347
 20
52.753502
 30
0.0
 10
212.122928
 20
52.556887
 30
0.0
  0
SPLINE
  5
1eb
100
AcDbEntity
  8
Layer_1
 62
7
100
AcDbSpline
 70
8
 71
3
 72
8
 73
4
 74
0
 40
0
 40
0
 40
0
 40
0
 40
1
 40
1
 40
1
 40
1
 10
212.122928
 20
52.556887
 30
0.0
 10
211.782509
 20
52.360272
 30
0.0
 10
211.572894
 20
51.996932
 30
0.0
 10
211.573086
 20
51.603814
 30
0.0
  0
SPLINE
  5
1ec
100
AcDbEntity
  8
Layer_1
 62
7
100
AcDbSpline
 70
8
 71
3
 72
8
 73
4
 74
0
 40
0
 40
0
 40
0
 40
0
 40
1
 40
1
 40
1
 40
1
 10
211.573086
 20
51.603814
 30
0.0
 10
211.572894
 20
51.210695
 30
0.0
 10
211.782509
 20
50.847355
 30
0.0
 10
212.122928
 20
50.650740
 30
0.0
  0
SPLINE
  5
1ed
100
AcDbEntity
  8
Layer_1
 62
7
100
AcDbSpline
 70
8
 71
3
 72
8
 73
4
 74
0
 40
0
 40
0
 40
0
 40
0
 40
1
 40
1
 40
1
 40
1
 10
212.122928
 20
50.650740
 30
0.0
 10
212.463347
 20
50.454125
 30
0.0
 10
212.882816
 20
50.454125
 30
0.0
 10
213.223234
 20
50.650740
 30
0.0
  0
SPLINE
  5
1ee
100
AcDbEntity
  8
Layer_1
 62
7
100
AcDbSpline
 70
8
 71
3
 72
8
 73
4
 74
0
 40
0
 40
0
 40
0
 40
0
 40
1
 40
1
 40
1
 40
1
 10
213.223234
 20
50.650740
 30
0.0
 10
213.563653
 20
50.847355
 30
0.0
 10
213.773269
 20
51.210695
 30
0.0
 10
213.773076
 20
51.603814
 30
0.0
  0
LWPOLYLINE
  5
1ef
100
AcDbEntity
  8
Layer_1
 62
7
100
AcDbPolyline
 90
2
 70
0
 10
177.965279
 20
64.357677
 30
0.0
 10
164.895187
 20
59.341200
 30
0.0
  0
LWPOLYLINE
  5
1f0
100
AcDbEntity
  8
Layer_1
 62
7
100
AcDbPolyline
 90
1
 70
1
 10
213.773076
 20
51.603814
 30
0.0
  0
LWPOLYLINE
  5
1f1
100
AcDbEntity
  8
Layer_1
 62
7
100
AcDbPolyline
 90
2
 70
0
 10
235.911408
 20
53.271686
 30
0.0
 10
234.569447
 20
67.207226
 30
0.0
  0
LWPOLYLINE
  5
1f2
100
AcDbEntity
  8
Layer_1
 62
7
100
AcDbPolyline
 90
2
 70
0
 10
221.975868
 20
51.930255
 30
0.0
 10
235.911408
 20
53.271686
 30
0.0
  0
LWPOLYLINE
  5
1f3
100
AcDbEntity
  8
Layer_1
 62
7
100
AcDbPolyline
 90
2
 70
0
 10
220.634172
 20
65.865795
 30
0.0
 10
221.975868
 20
51.930255
 30
0.0
  0
LWPOLYLINE
  5
1f4
100
AcDbEntity
  8
Layer_1
 62
7
100
AcDbPolyline
 90
2
 70
0
 10
234.569447
 20
67.207226
 30
0.0
 10
220.634172
 20
65.865795
 30
0.0
  0
LWPOLYLINE
  5
1f5
100
AcDbEntity
  8
Layer_1
 62
7
100
AcDbPolyline
 90
2
 70
0
 10
217.004899
 20
61.701272
 30
0.0
 10
212.911549
 20
75.089128
 30
0.0
  0
LWPOLYLINE
  5
1f6
100
AcDbEntity
  8
Layer_1
 62
7
100
AcDbPolyline
 90
2
 70
0
 10
203.616779
 20
57.608187
 30
0.0
 10
217.004899
 20
61.701272
 30
0.0
  0
LWPOLYLINE
  5
1f7
100
AcDbEntity
  8
Layer_1
 62
7
100
AcDbPolyline
 90
2
 70
0
 10
199.523429
 20
70.996042
 30
0.0
 10
203.616779
 20
57.608187
 30
0.0
  0
LWPOLYLINE
  5
1f8
100
AcDbEntity
  8
Layer_1
 62
7
100
AcDbPolyline
 90
2
 70
0
 10
212.911549
 20
75.089128
 30
0.0
 10
199.523429
 20
70.996042
 30
0.0
  0
LWPOLYLINE
  5
1f9
100
AcDbEntity
  8
Layer_1
 62
7
100
AcDbPolyline
 90
2
 70
0
 10
234.282111
 20
70.194358
 30
0.0
 10
232.940151
 20
84.129898
 30
0.0
  0
LWPOLYLINE
  5
1fa
100
AcDbEntity
  8
Layer_1
 62
7
100
AcDbPolyline
 90
2
 70
0
 10
220.346571
 20
68.850281
 30
0.0
 10
234.282111
 20
70.194358
 30
0.0
  0
LWPOLYLINE
  5
1fb
100
AcDbEntity
  8
Layer_1
 62
7
100
AcDbPolyline
 90
2
 70
0
 10
219.004611
 20
82.785821
 30
0.0
 10
220.346571
 20
68.850281
 30
0.0
  0
LWPOLYLINE
  5
1fc
100
AcDbEntity
  8
Layer_1
 62
7
100
AcDbPolyline
 90
2
 70
0
 10
232.940151
 20
84.129898
 30
0.0
 10
219.004611
 20
82.785821
 30
0.0
  0
LWPOLYLINE
  5
1fd
100
AcDbEntity
  8
Layer_1
 62
7
100
AcDbPolyline
 90
2
 70
0
 10
160.085613
 20
60.709090
 30
0.0
 10
155.068607
 20
73.776800
 30
0.0
  0
LWPOLYLINE
  5
1fe
100
AcDbEntity
  8
Layer_1
 62
7
100
AcDbPolyline
 90
2
 70
0
 10
147.015627
 20
55.689967
 30
0.0
 10
160.085613
 20
60.709090
 30
0.0
  0
LWPOLYLINE
  5
1ff
100
AcDbEntity
  8
Layer_1
 62
7
100
AcDbPolyline
 90
2
 70
0
 10
141.998488
 20
68.760323
 30
0.0
 10
147.015627
 20
55.689967
 30
0.0
  0
LWPOLYLINE
  5
200
100
AcDbEntity
  8
Layer_1
 62
7
100
AcDbPolyline
 90
2
 70
0
 10
155.068607
 20
73.776800
 30
0.0
 10
141.998488
 20
68.760323
 30
0.0
  0
LWPOLYLINE
  5
201
100
AcDbEntity
  8
Layer_1
 62
7
100
AcDbPolyline
 90
2
 70
0
 10
176.890017
 20
67.159602
 30
0.0
 10
171.873011
 20
80.227312
 30
0.0
  0
LWPOLYLINE
  5
202
100
AcDbEntity
  8
Layer_1
 62
7
100
AcDbPolyline
 90
2
 70
0
 10
163.819925
 20
62.140479
 30
0.0
 10
176.890017
 20
67.159602
 30
0.0
  0
LWPOLYLINE
  5
203
100
AcDbEntity
  8
Layer_1
 62
7
100
AcDbPolyline
 90
2
 70
0
 10
158.802919
 20
75.210835
 30
0.0
 10
163.819925
 20
62.140479
 30
0.0
  0
LWPOLYLINE
  5
204
100
AcDbEntity
  8
Layer_1
 62
7
100
AcDbPolyline
 90
2
 70
0
 10
171.873011
 20
80.227312
 30
0.0
 10
158.802919
 20
75.210835
 30
0.0
  0
LWPOLYLINE
  5
205
100
AcDbEntity
  8
Layer_1
 62
7
100
AcDbPolyline
 90
2
 70
0
 10
198.353183
 20
61.473732
 30
0.0
 10
193.336177
 20
74.541443
 30
0.0
  0
LWPOLYLINE
  5
206
100
AcDbEntity
  8
Layer_1
 62
7
100
AcDbPolyline
 90
2
 70
0
 10
185.283091
 20
56.454609
 30
0.0
 10
198.353183
 20
61.473732
 30
0.0
  0
LWPOLYLINE
  5
207
100
AcDbEntity
  8
Layer_1
 62
7
100
AcDbPolyline
 90
2
 70
0
 10
180.266085
 20
69.524966
 30
0.0
 10
185.283091
 20
56.454609
 30
0.0
  0
LWPOLYLINE
  5
208
100
AcDbEntity
  8
Layer_1
 62
7
100
AcDbPolyline
 90
2
 70
0
 10
193.336177
 20
74.541443
 30
0.0
 10
180.266085
 20
69.524966
 30
0.0
  0
LWPOLYLINE
  5
209
100
AcDbEntity
  8
Layer_1
 62
7
100
AcDbPolyline
 90
2
 70
0
 10
212.034459
 20
77.957198
 30
0.0
 10
207.941374
 20
91.345053
 30
0.0
  0
LWPOLYLINE
  5
20a
100
AcDbEntity
  8
Layer_1
 62
7
100
AcDbPolyline
 90
2
 70
0
 10
198.646340
 20
73.864112
 30
0.0
 10
212.034459
 20
77.957198
 30
0.0
  0
LWPOLYLINE
  5
20b
100
AcDbEntity
  8
Layer_1
 62
7
100
AcDbPolyline
 90
2
 70
0
 10
194.553254
 20
87.251967
 30
0.0
 10
198.646340
 20
73.864112
 30
0.0
  0
LWPOLYLINE
  5
20c
100
AcDbEntity
  8
Layer_1
 62
7
100
AcDbPolyline
 90
2
 70
0
 10
207.941374
 20
91.345053
 30
0.0
 10
194.553254
 20
87.251967
 30
0.0
  0
LWPOLYLINE
  5
20d
100
AcDbEntity
  8
Layer_1
 62
7
100
AcDbPolyline
 90
2
 70
0
 10
232.652550
 20
87.114385
 30
0.0
 10
231.310854
 20
101.050189
 30
0.0
  0
LWPOLYLINE
  5
20e
100
AcDbEntity
  8
Layer_1
 62
7
100
AcDbPolyline
 90
2
 70
0
 10
218.717274
 20
85.772953
 30
0.0
 10
232.652550
 20
87.114385
 30
0.0
  0
LWPOLYLINE
  5
20f
100
AcDbEntity
  8
Layer_1
 62
7
100
AcDbPolyline
 90
2
 70
0
 10
217.375314
 20
99.708493
 30
0.0
 10
218.717274
 20
85.772953
 30
0.0
  0
LWPOLYLINE
  5
210
100
AcDbEntity
  8
Layer_1
 62
7
100
AcDbPolyline
 90
2
 70
0
 10
231.310854
 20
101.050189
 30
0.0
 10
217.375314
 20
99.708493
 30
0.0
  0
LWPOLYLINE
  5
211
100
AcDbEntity
  8
Layer_1
 62
7
100
AcDbPolyline
 90
2
 70
0
 10
192.260915
 20
77.343367
 30
0.0
 10
187.243909
 20
90.413724
 30
0.0
  0
LWPOLYLINE
  5
212
100
AcDbEntity
  8
Layer_1
 62
7
100
AcDbPolyline
 90
2
 70
0
 10
179.190823
 20
72.326890
 30
0.0
 10
192.260915
 20
77.343367
 30
0.0
  0
LWPOLYLINE
  5
213
100
AcDbEntity
  8
Layer_1
 62
7
100
AcDbPolyline
 90
2
 70
0
 10
174.173817
 20
85.397247
 30
0.0
 10
179.190823
 20
72.326890
 30
0.0
  0
LWPOLYLINE
  5
214
100
AcDbEntity
  8
Layer_1
 62
7
100
AcDbPolyline
 90
2
 70
0
 10
187.243909
 20
90.413724
 30
0.0
 10
174.173817
 20
85.397247
 30
0.0
  0
LWPOLYLINE
  5
215
100
AcDbEntity
  8
Layer_1
 62
7
100
AcDbPolyline
 90
2
 70
0
 10
207.064284
 20
94.215769
 30
0.0
 10
202.971199
 20
107.603095
 30
0.0
  0
LWPOLYLINE
  5
216
100
AcDbEntity
  8
Layer_1
 62
7
100
AcDbPolyline
 90
2
 70
0
 10
193.676165
 20
90.122683
 30
0.0
 10
207.064284
 20
94.215769
 30
0.0
  0
LWPOLYLINE
  5
217
100
AcDbEntity
  8
Layer_1
 62
7
100
AcDbPolyline
 90
2
 70
0
 10
189.582815
 20
103.509745
 30
0.0
 10
193.676165
 20
90.122683
 30
0.0
  0
SPLINE
  5
218
100
AcDbEntity
  8
Layer_1
 62
7
100
AcDbSpline
 70
8
 71
3
 72
8
 73
4
 74
0
 40
0
 40
0
 40
0
 40
0
 40
1
 40
1
 40
1
 40
1
 10
212.980031
 20
99.254060
 30
0.0
 10
212.980224
 20
99.647179
 30
0.0
 10
212.770608
 20
100.010519
 30
0.0
 10
212.430189
 20
100.207134
 30
0.0
  0
SPLINE
  5
219
100
AcDbEntity
  8
Layer_1
 62
7
100
AcDbSpline
 70
8
 71
3
 72
8
 73
4
 74
0
 40
0
 40
0
 40
0
 40
0
 40
1
 40
1
 40
1
 40
1
 10
212.430189
 20
100.207134
 30
0.0
 10
212.089770
 20
100.403749
 30
0.0
 10
211.670302
 20
100.403749
 30
0.0
 10
211.329883
 20
100.207134
 30
0.0
  0
SPLINE
  5
21a
100
AcDbEntity
  8
Layer_1
 62
7
100
AcDbSpline
 70
8
 71
3
 72
8
 73
4
 74
0
 40
0
 40
0
 40
0
 40
0
 40
1
 40
1
 40
1
 40
1
 10
211.329883
 20
100.207134
 30
0.0
 10
210.989464
 20
100.010519
 30
0.0
 10
210.779848
 20
99.647179
 30
0.0
 10
210.780041
 20
99.254060
 30
0.0
  0
SPLINE
  5
21b
100
AcDbEntity
  8
Layer_1
 62
7
100
AcDbSpline
 70
8
 71
3
 72
8
 73
4
 74
0
 40
0
 40
0
 40
0
 40
0
 40
1
 40
1
 40
1
 40
1
 10
210.780041
 20
99.254060
 30
0.0
 10
210.779848
 20
98.860942
 30
0.0
 10
210.989464
 20
98.497602
 30
0.0
 10
211.329883
 20
98.300987
 30
0.0
  0
SPLINE
  5
21c
100
AcDbEntity
  8
Layer_1
 62
7
100
AcDbSpline
 70
8
 71
3
 72
8
 73
4
 74
0
 40
0
 40
0
 40
0
 40
0
 40
1
 40
1
 40
1
 40
1
 10
211.329883
 20
98.300987
 30
0.0
 10
211.670302
 20
98.104372
 30
0.0
 10
212.089770
 20
98.104372
 30
0.0
 10
212.430189
 20
98.300987
 30
0.0
  0
SPLINE
  5
21d
100
AcDbEntity
  8
Layer_1
 62
7
100
AcDbSpline
 70
8
 71
3
 72
8
 73
4
 74
0
 40
0
 40
0
 40
0
 40
0
 40
1
 40
1
 40
1
 40
1
 10
212.430189
 20
98.300987
 30
0.0
 10
212.770608
 20
98.497602
 30
0.0
 10
212.980224
 20
98.860942
 30
0.0
 10
212.980031
 20
99.254060
 30
0.0
  0
LWPOLYLINE
  5
21e
100
AcDbEntity
  8
Layer_1
 62
7
100
AcDbPolyline
 90
2
 70
0
 10
202.971199
 20
107.603095
 30
0.0
 10
189.582815
 20
103.509745
 30
0.0
  0
SPLINE
  5
21f
100
AcDbEntity
  8
Layer_1
 62
7
100
AcDbSpline
 70
8
 71
3
 72
8
 73
4
 74
0
 40
0
 40
0
 40
0
 40
0
 40
1
 40
1
 40
1
 40
1
 10
35.521088
 20
51.603814
 30
0.0
 10
35.521281
 20
51.996932
 30
0.0
 10
35.311665
 20
52.360272
 30
0.0
 10
34.971247
 20
52.556887
 30
0.0
  0
SPLINE
  5
220
100
AcDbEntity
  8
Layer_1
 62
7
100
AcDbSpline
 70
8
 71
3
 72
8
 73
4
 74
0
 40
0
 40
0
 40
0
 40
0
 40
1
 40
1
 40
1
 40
1
 10
34.971247
 20
52.556887
 30
0.0
 10
34.630828
 20
52.753502
 30
0.0
 10
34.211359
 20
52.753502
 30
0.0
 10
33.870940
 20
52.556887
 30
0.0
  0
SPLINE
  5
221
100
AcDbEntity
  8
Layer_1
 62
7
100
AcDbSpline
 70
8
 71
3
 72
8
 73
4
 74
0
 40
0
 40
0
 40
0
 40
0
 40
1
 40
1
 40
1
 40
1
 10
33.870940
 20
52.556887
 30
0.0
 10
33.530521
 20
52.360272
 30
0.0
 10
33.320906
 20
51.996932
 30
0.0
 10
33.321098
 20
51.603814
 30
0.0
  0
SPLINE
  5
222
100
AcDbEntity
  8
Layer_1
 62
7
100
AcDbSpline
 70
8
 71
3
 72
8
 73
4
 74
0
 40
0
 40
0
 40
0
 40
0
 40
1
 40
1
 40
1
 40
1
 10
33.321098
 20
51.603814
 30
0.0
 10
33.320906
 20
51.210695
 30
0.0
 10
33.530521
 20
50.847355
 30
0.0
 10
33.870940
 20
50.650740
 30
0.0
  0
SPLINE
  5
223
100
AcDbEntity
  8
Layer_1
 62
7
100
AcDbSpline
 70
8
 71
3
 72
8
 73
4
 74
0
 40
0
 40
0
 40
0
 40
0
 40
1
 40
1
 40
1
 40
1
 10
33.870940
 20
50.650740
 30
0.0
 10
34.211359
 20
50.454125
 30
0.0
 10
34.630828
 20
50.454125
 30
0.0
 10
34.971247
 20
50.650740
 30
0.0
  0
SPLINE
  5
224
100
AcDbEntity
  8
Layer_1
 62
7
100
AcDbSpline
 70
8
 71
3
 72
8
 73
4
 74
0
 40
0
 40
0
 40
0
 40
0
 40
1
 40
1
 40
1
 40
1
 10
34.971247
 20
50.650740
 30
0.0
 10
35.311665
 20
50.847355
 30
0.0
 10
35.521281
 20
51.210695
 30
0.0
 10
35.521088
 20
51.603814
 30
0.0
  0
LWPOLYLINE
  5
225
100
AcDbEntity
  8
Layer_1
 62
7
100
AcDbPolyline
 90
1
 70
1
 10
212.980031
 20
99.254060
 30
0.0
  0
LWPOLYLINE
  5
226
100
AcDbEntity
  8
Layer_1
 62
7
100
AcDbPolyline
 90
1
 70
1
 10
35.521088
 20
51.603814
 30
0.0
  0
LWPOLYLINE
  5
227
100
AcDbEntity
  8
Layer_1
 62
7
100
AcDbPolyline
 90
4
 70
1
 10
25.118307
 20
51.930255
 30
0.0
 10
11.182767
 20
53.271686
 30
0.0
 10
12.524727
 20
67.207226
 30
0.0
 10
26.460003
 20
65.865795
 30
0.0
  0
LWPOLYLINE
  5
228
100
AcDbEntity
  8
Layer_1
 62
7
100
AcDbPolyline
 90
4
 70
1
 10
61.811084
 20
56.454609
 30
0.0
 10
48.740992
 20
61.473732
 30
0.0
 10
53.757998
 20
74.541443
 30
0.0
 10
66.828090
 20
69.524966
 30
0.0
  0
LWPOLYLINE
  5
229
100
AcDbEntity
  8
Layer_1
 62
7
100
AcDbPolyline
 90
4
 70
1
 10
43.477395
 20
57.608187
 30
0.0
 10
30.089276
 20
61.701272
 30
0.0
 10
34.182625
 20
75.089128
 30
0.0
 10
47.570745
 20
70.996042
 30
0.0
  0
LWPOLYLINE
  5
22a
100
AcDbEntity
  8
Layer_1
 62
7
100
AcDbPolyline
 90
4
 70
1
 10
77.181982
 20
46.270843
 30
0.0
 10
64.111890
 20
51.287320
 30
0.0
 10
69.128896
 20
64.357677
 30
0.0
 10
82.198988
 20
59.341200
 30
0.0
  0
LWPOLYLINE
  5
22b
100
AcDbEntity
  8
Layer_1
 62
7
100
AcDbPolyline
 90
4
 70
1
 10
100.078548
 20
55.689967
 30
0.0
 10
87.008562
 20
60.709090
 30
0.0
 10
92.025568
 20
73.776800
 30
0.0
 10
105.095686
 20
68.760323
 30
0.0
  0
LWPOLYLINE
  5
22c
100
AcDbEntity
  8
Layer_1
 62
7
100
AcDbPolyline
 90
4
 70
1
 10
83.274250
 20
62.140479
 30
0.0
 10
70.204158
 20
67.159602
 30
0.0
 10
75.221164
 20
80.227312
 30
0.0
 10
88.291256
 20
75.210835
 30
0.0
  0
LWPOLYLINE
  5
22d
100
AcDbEntity
  8
Layer_1
 62
7
100
AcDbPolyline
 90
4
 70
1
 10
106.170763
 20
71.562248
 30
0.0
 10
93.100829
 20
76.578725
 30
0.0
 10
98.117835
 20
89.649081
 30
0.0
 10
111.187901
 20
84.632604
 30
0.0
  0
LWPOLYLINE
  5
22e
100
AcDbEntity
  8
Layer_1
 62
7
100
AcDbPolyline
 90
4
 70
1
 10
67.903352
 20
72.326890
 30
0.0
 10
54.833260
 20
77.343367
 30
0.0
 10
59.850266
 20
90.413724
 30
0.0
 10
72.920358
 20
85.397247
 30
0.0
  0
SPLINE
  5
22f
100
AcDbEntity
  8
Layer_1
 62
7
100
AcDbSpline
 70
8
 71
3
 72
8
 73
4
 74
0
 40
0
 40
0
 40
0
 40
0
 40
1
 40
1
 40
1
 40
1
 10
102.228349
 20
96.627414
 30
0.0
 10
102.228349
 20
97.020404
 30
0.0
 10
102.018691
 20
97.383542
 30
0.0
 10
101.678351
 20
97.580037
 30
0.0
  0
SPLINE
  5
230
100
AcDbEntity
  8
Layer_1
 62
7
100
AcDbSpline
 70
8
 71
3
 72
8
 73
4
 74
0
 40
0
 40
0
 40
0
 40
0
 40
1
 40
1
 40
1
 40
1
 10
101.678351
 20
97.580037
 30
0.0
 10
101.338012
 20
97.776532
 30
0.0
 10
100.918696
 20
97.776532
 30
0.0
 10
100.578356
 20
97.580037
 30
0.0
  0
SPLINE
  5
231
100
AcDbEntity
  8
Layer_1
 62
7
100
AcDbSpline
 70
8
 71
3
 72
8
 73
4
 74
0
 40
0
 40
0
 40
0
 40
0
 40
1
 40
1
 40
1
 40
1
 10
100.578356
 20
97.580037
 30
0.0
 10
100.238017
 20
97.383542
 30
0.0
 10
100.028359
 20
97.020404
 30
0.0
 10
100.028359
 20
96.627414
 30
0.0
  0
SPLINE
  5
232
100
AcDbEntity
  8
Layer_1
 62
7
100
AcDbSpline
 70
8
 71
3
 72
8
 73
4
 74
0
 40
0
 40
0
 40
0
 40
0
 40
1
 40
1
 40
1
 40
1
 10
100.028359
 20
96.627414
 30
0.0
 10
100.028359
 20
96.234423
 30
0.0
 10
100.238017
 20
95.871285
 30
0.0
 10
100.578356
 20
95.674790
 30
0.0
  0
SPLINE
  5
233
100
AcDbEntity
  8
Layer_1
 62
7
100
AcDbSpline
 70
8
 71
3
 72
8
 73
4
 74
0
 40
0
 40
0
 40
0
 40
0
 40
1
 40
1
 40
1
 40
1
 10
100.578356
 20
95.674790
 30
0.0
 10
100.918696
 20
95.478295
 30
0.0
 10
101.338012
 20
95.478295
 30
0.0
 10
101.678351
 20
95.674790
 30
0.0
  0
SPLINE
  5
234
100
AcDbEntity
  8
Layer_1
 62
7
100
AcDbSpline
 70
8
 71
3
 72
8
 73
4
 74
0
 40
0
 40
0
 40
0
 40
0
 40
1
 40
1
 40
1
 40
1
 10
101.678351
 20
95.674790
 30
0.0
 10
102.018691
 20
95.871285
 30
0.0
 10
102.228349
 20
96.234423
 30
0.0
 10
102.228349
 20
96.627414
 30
0.0
  0
LWPOLYLINE
  5
235
100
AcDbEntity
  8
Layer_1
 62
7
100
AcDbPolyline
 90
4
 70
1
 10
89.366517
 20
78.012760
 30
0.0
 10
76.296425
 20
83.029237
 30
0.0
 10
81.313432
 20
96.099593
 30
0.0
 10
94.383524
 20
91.083116
 30
0.0
  0
LWPOLYLINE
  5
236
100
AcDbEntity
  8
Layer_1
 62
7
100
AcDbPolyline
 90
1
 70
1
 10
102.228349
 20
96.627414
 30
0.0
  0
LWPOLYLINE
  5
237
100
AcDbEntity
  8
Layer_1
 62
7
100
AcDbPolyline
 90
4
 70
1
 10
26.747603
 20
68.850281
 30
0.0
 10
12.812063
 20
70.194358
 30
0.0
 10
14.154024
 20
84.129898
 30
0.0
 10
28.089564
 20
82.785821
 30
0.0
  0
LWPOLYLINE
  5
238
100
AcDbEntity
  8
Layer_1
 62
7
100
AcDbPolyline
 90
4
 70
1
 10
48.447835
 20
73.864112
 30
0.0
 10
35.059715
 20
77.957198
 30
0.0
 10
39.152801
 20
91.345053
 30
0.0
 10
52.540920
 20
87.251967
 30
0.0
  0
SPLINE
  5
239
100
AcDbEntity
  8
Layer_1
 62
7
100
AcDbSpline
 70
8
 71
3
 72
8
 73
4
 74
0
 40
0
 40
0
 40
0
 40
0
 40
1
 40
1
 40
1
 40
1
 10
36.314133
 20
99.254060
 30
0.0
 10
36.314326
 20
99.647179
 30
0.0
 10
36.104711
 20
100.010519
 30
0.0
 10
35.764292
 20
100.207134
 30
0.0
  0
SPLINE
  5
23a
100
AcDbEntity
  8
Layer_1
 62
7
100
AcDbSpline
 70
8
 71
3
 72
8
 73
4
 74
0
 40
0
 40
0
 40
0
 40
0
 40
1
 40
1
 40
1
 40
1
 10
35.764292
 20
100.207134
 30
0.0
 10
35.423873
 20
100.403749
 30
0.0
 10
35.004404
 20
100.403749
 30
0.0
 10
34.663985
 20
100.207134
 30
0.0
  0
SPLINE
  5
23b
100
AcDbEntity
  8
Layer_1
 62
7
100
AcDbSpline
 70
8
 71
3
 72
8
 73
4
 74
0
 40
0
 40
0
 40
0
 40
0
 40
1
 40
1
 40
1
 40
1
 10
34.663985
 20
100.207134
 30
0.0
 10
34.323567
 20
100.010519
 30
0.0
 10
34.113951
 20
99.647179
 30
0.0
 10
34.114144
 20
99.254060
 30
0.0
  0
SPLINE
  5
23c
100
AcDbEntity
  8
Layer_1
 62
7
100
AcDbSpline
 70
8
 71
3
 72
8
 73
4
 74
0
 40
0
 40
0
 40
0
 40
0
 40
1
 40
1
 40
1
 40
1
 10
34.114144
 20
99.254060
 30
0.0
 10
34.113951
 20
98.860942
 30
0.0
 10
34.323567
 20
98.497602
 30
0.0
 10
34.663985
 20
98.300987
 30
0.0
  0
SPLINE
  5
23d
100
AcDbEntity
  8
Layer_1
 62
7
100
AcDbSpline
 70
8
 71
3
 72
8
 73
4
 74
0
 40
0
 40
0
 40
0
 40
0
 40
1
 40
1
 40
1
 40
1
 10
34.663985
 20
98.300987
 30
0.0
 10
35.004404
 20
98.104372
 30
0.0
 10
35.423873
 20
98.104372
 30
0.0
 10
35.764292
 20
98.300987
 30
0.0
  0
SPLINE
  5
23e
100
AcDbEntity
  8
Layer_1
 62
7
100
AcDbSpline
 70
8
 71
3
 72
8
 73
4
 74
0
 40
0
 40
0
 40
0
 40
0
 40
1
 40
1
 40
1
 40
1
 10
35.764292
 20
98.300987
 30
0.0
 10
36.104711
 20
98.497602
 30
0.0
 10
36.314326
 20
98.860942
 30
0.0
 10
36.314133
 20
99.254060
 30
0.0
  0
LWPOLYLINE
  5
23f
100
AcDbEntity
  8
Layer_1
 62
7
100
AcDbPolyline
 90
4
 70
1
 10
28.376900
 20
85.772953
 30
0.0
 10
14.441625
 20
87.114385
 30
0.0
 10
15.783321
 20
101.050189
 30
0.0
 10
29.718861
 20
99.708493
 30
0.0
  0
LWPOLYLINE
  5
240
100
AcDbEntity
  8
Layer_1
 62
7
100
AcDbPolyline
 90
1
 70
1
 10
36.314133
 20
99.254060
 30
0.0
  0
LWPOLYLINE
  5
241
100
AcDbEntity
  8
Layer_1
 62
7
100
AcDbPolyline
 90
4
 70
1
 10
53.418010
 20
90.122683
 30
0.0
 10
40.029890
 20
94.215769
 30
0.0
 10
44.122976
 20
107.603095
 30
0.0
 10
57.511360
 20
103.509745
 30
0.0
  0
LWPOLYLINE
  5
242
100
AcDbEntity
  8
Layer_1
 62
7
100
AcDbPolyline
 90
4
 70
1
 10
65.942534
 20
106.284153
 30
0.0
 10
79.012625
 20
101.266882
 30
0.0
 10
73.995619
 20
88.196526
 30
0.0
 10
60.925527
 20
93.213003
 30
0.0
  0
LWPOLYLINE
  5
243
100
AcDbEntity
  8
Layer_1
 62
7
100
AcDbPolyline
 90
2
 70
0
 10
153.993345
 20
76.578725
 30
0.0
 10
148.976339
 20
89.649081
 30
0.0
  0
LWPOLYLINE
  5
244
100
AcDbEntity
  8
Layer_1
 62
7
100
AcDbPolyline
 90
2
 70
0
 10
140.923412
 20
71.562248
 30
0.0
 10
153.993345
 20
76.578725
 30
0.0
  0
LWPOLYLINE
  5
245
100
AcDbEntity
  8
Layer_1
 62
7
100
AcDbPolyline
 90
2
 70
0
 10
135.906274
 20
84.632604
 30
0.0
 10
140.923412
 20
71.562248
 30
0.0
  0
LWPOLYLINE
  5
246
100
AcDbEntity
  8
Layer_1
 62
7
100
AcDbPolyline
 90
2
 70
0
 10
148.976339
 20
89.649081
 30
0.0
 10
135.906274
 20
84.632604
 30
0.0
  0
LWPOLYLINE
  5
247
100
AcDbEntity
  8
Layer_1
 62
7
100
AcDbPolyline
 90
2
 70
0
 10
170.797749
 20
83.029237
 30
0.0
 10
165.780743
 20
96.099593
 30
0.0
  0
LWPOLYLINE
  5
248
100
AcDbEntity
  8
Layer_1
 62
7
100
AcDbPolyline
 90
2
 70
0
 10
157.727657
 20
78.012760
 30
0.0
 10
170.797749
 20
83.029237
 30
0.0
  0
LWPOLYLINE
  5
249
100
AcDbEntity
  8
Layer_1
 62
7
100
AcDbPolyline
 90
2
 70
0
 10
152.710651
 20
91.083116
 30
0.0
 10
157.727657
 20
78.012760
 30
0.0
  0
SPLINE
  5
24a
100
AcDbEntity
  8
Layer_1
 62
7
100
AcDbSpline
 70
8
 71
3
 72
8
 73
4
 74
0
 40
0
 40
0
 40
0
 40
0
 40
1
 40
1
 40
1
 40
1
 10
147.065816
 20
96.627414
 30
0.0
 10
147.065816
 20
97.020404
 30
0.0
 10
146.856158
 20
97.383542
 30
0.0
 10
146.515818
 20
97.580037
 30
0.0
  0
SPLINE
  5
24b
100
AcDbEntity
  8
Layer_1
 62
7
100
AcDbSpline
 70
8
 71
3
 72
8
 73
4
 74
0
 40
0
 40
0
 40
0
 40
0
 40
1
 40
1
 40
1
 40
1
 10
146.515818
 20
97.580037
 30
0.0
 10
146.175478
 20
97.776532
 30
0.0
 10
145.756163
 20
97.776532
 30
0.0
 10
145.415823
 20
97.580037
 30
0.0
  0
SPLINE
  5
24c
100
AcDbEntity
  8
Layer_1
 62
7
100
AcDbSpline
 70
8
 71
3
 72
8
 73
4
 74
0
 40
0
 40
0
 40
0
 40
0
 40
1
 40
1
 40
1
 40
1
 10
145.415823
 20
97.580037
 30
0.0
 10
145.075484
 20
97.383542
 30
0.0
 10
144.865826
 20
97.020404
 30
0.0
 10
144.865826
 20
96.627414
 30
0.0
  0
SPLINE
  5
24d
100
AcDbEntity
  8
Layer_1
 62
7
100
AcDbSpline
 70
8
 71
3
 72
8
 73
4
 74
0
 40
0
 40
0
 40
0
 40
0
 40
1
 40
1
 40
1
 40
1
 10
144.865826
 20
96.627414
 30
0.0
 10
144.865826
 20
96.234423
 30
0.0
 10
145.075484
 20
95.871285
 30
0.0
 10
145.415823
 20
95.674790
 30
0.0
  0
SPLINE
  5
24e
100
AcDbEntity
  8
Layer_1
 62
7
100
AcDbSpline
 70
8
 71
3
 72
8
 73
4
 74
0
 40
0
 40
0
 40
0
 40
0
 40
1
 40
1
 40
1
 40
1
 10
145.415823
 20
95.674790
 30
0.0
 10
145.756163
 20
95.478295
 30
0.0
 10
146.175478
 20
95.478295
 30
0.0
 10
146.515818
 20
95.674790
 30
0.0
  0
SPLINE
  5
24f
100
AcDbEntity
  8
Layer_1
 62
7
100
AcDbSpline
 70
8
 71
3
 72
8
 73
4
 74
0
 40
0
 40
0
 40
0
 40
0
 40
1
 40
1
 40
1
 40
1
 10
146.515818
 20
95.674790
 30
0.0
 10
146.856158
 20
95.871285
 30
0.0
 10
147.065816
 20
96.234423
 30
0.0
 10
147.065816
 20
96.627414
 30
0.0
  0
LWPOLYLINE
  5
250
100
AcDbEntity
  8
Layer_1
 62
7
100
AcDbPolyline
 90
2
 70
0
 10
165.780743
 20
96.099593
 30
0.0
 10
152.710651
 20
91.083116
 30
0.0
  0
LWPOLYLINE
  5
251
100
AcDbEntity
  8
Layer_1
 62
7
100
AcDbPolyline
 90
1
 70
1
 10
147.065816
 20
96.627414
 30
0.0
  0
LWPOLYLINE
  5
252
100
AcDbEntity
  8
Layer_1
 62
7
100
AcDbPolyline
 90
2
 70
0
 10
186.168647
 20
93.213003
 30
0.0
 10
181.151641
 20
106.284153
 30
0.0
  0
LWPOLYLINE
  5
253
100
AcDbEntity
  8
Layer_1
 62
7
100
AcDbPolyline
 90
2
 70
0
 10
173.098555
 20
88.196526
 30
0.0
 10
186.168647
 20
93.213003
 30
0.0
  0
LWPOLYLINE
  5
254
100
AcDbEntity
  8
Layer_1
 62
7
100
AcDbPolyline
 90
2
 70
0
 10
168.081549
 20
101.266882
 30
0.0
 10
173.098555
 20
88.196526
 30
0.0
  0
LWPOLYLINE
  5
255
100
AcDbEntity
  8
Layer_1
 62
7
100
AcDbPolyline
 90
2
 70
0
 10
181.151641
 20
106.284153
 30
0.0
 10
168.081549
 20
101.266882
 30
0.0
  0
LWPOLYLINE
  5
256
100
AcDbEntity
  8
Layer_1
 62
7
100
AcDbPolyline
 90
1
 70
1
 10
135.552263
 20
12.414916
 30
0.0
  0
LWPOLYLINE
  5
257
100
AcDbEntity
  8
Layer_1
 62
7
100
AcDbPolyline
 90
1
 70
1
 10
130.552296
 20
12.414916
 30
0.0
  0
LWPOLYLINE
  5
258
100
AcDbEntity
  8
Layer_1
 62
7
100
AcDbPolyline
 90
1
 70
1
 10
125.262246
 20
5.133616
 30
0.0
  0
LWPOLYLINE
  5
259
100
AcDbEntity
  8
Layer_1
 62
7
100
AcDbPolyline
 90
1
 70
1
 10
121.831928
 20
5.133616
 30
0.0
  0
LWPOLYLINE
  5
25a
100
AcDbEntity
  8
Layer_1
 62
7
100
AcDbPolyline
 90
1
 70
1
 10
116.541879
 20
12.414916
 30
0.0
  0
LWPOLYLINE
  5
25b
100
AcDbEntity
  8
Layer_1
 62
7
100
AcDbPolyline
 90
1
 70
1
 10
111.541912
 20
12.414916
 30
0.0
  0
LWPOLYLINE
  5
25c
100
AcDbEntity
  8
Layer_1
 62
7
100
AcDbPolyline
 90
1
 70
1
 10
106.251857
 20
5.133616
 30
0.0
  0
LWPOLYLINE
  5
25d
100
AcDbEntity
  8
Layer_1
 62
7
100
AcDbPolyline
 90
1
 70
1
 10
105.251869
 20
5.133616
 30
0.0
  0
LWPOLYLINE
  5
25e
100
AcDbEntity
  8
Layer_1
 62
7
100
AcDbPolyline
 90
1
 70
1
 10
102.312970
 20
6.086112
 30
0.0
  0
LWPOLYLINE
  5
25f
100
AcDbEntity
  8
Layer_1
 62
7
100
AcDbPolyline
 90
1
 70
1
 10
88.251833
 20
16.304273
 30
0.0
  0
LWPOLYLINE
  5
260
100
AcDbEntity
  8
Layer_1
 62
7
100
AcDbPolyline
 90
1
 70
1
 10
36.889565
 20
36.018286
 30
0.0
  0
LWPOLYLINE
  5
261
100
AcDbEntity
  8
Layer_1
 62
7
100
AcDbPolyline
 90
1
 70
1
 10
34.560184
 20
44.712455
 30
0.0
  0
LWPOLYLINE
  5
262
100
AcDbEntity
  8
Layer_1
 62
7
100
AcDbPolyline
 90
1
 70
1
 10
29.892162
 20
46.503676
 30
0.0
  0
LWPOLYLINE
  5
263
100
AcDbEntity
  8
Layer_1
 62
7
100
AcDbPolyline
 90
1
 70
1
 10
22.344163
 20
41.603615
 30
0.0
  0
LWPOLYLINE
  5
264
100
AcDbEntity
  8
Layer_1
 62
7
100
AcDbPolyline
 90
1
 70
1
 10
8.340626
 20
46.977278
 30
0.0
  0
LWPOLYLINE
  5
265
100
AcDbEntity
  8
Layer_1
 62
7
100
AcDbPolyline
 90
1
 70
1
 10
5.155586
 20
52.126046
 30
0.0
  0
LWPOLYLINE
  5
266
100
AcDbEntity
  8
Layer_1
 62
7
100
AcDbPolyline
 90
1
 70
1
 10
10.447228
 20
107.082132
 30
0.0
  0
LWPOLYLINE
  5
267
100
AcDbEntity
  8
Layer_1
 62
7
100
AcDbPolyline
 90
1
 70
1
 10
15.424283
 20
111.603047
 30
0.0
  0
LWPOLYLINE
  5
268
100
AcDbEntity
  8
Layer_1
 62
7
100
AcDbPolyline
 90
1
 70
1
 10
25.424164
 20
111.603047
 30
0.0
  0
LWPOLYLINE
  5
269
100
AcDbEntity
  8
Layer_1
 62
7
100
AcDbPolyline
 90
1
 70
1
 10
30.714219
 20
104.321747
 30
0.0
  0
LWPOLYLINE
  5
26a
100
AcDbEntity
  8
Layer_1
 62
7
100
AcDbPolyline
 90
1
 70
1
 10
35.714027
 20
104.321747
 30
0.0
  0
LWPOLYLINE
  5
26b
100
AcDbEntity
  8
Layer_1
 62
7
100
AcDbPolyline
 90
1
 70
1
 10
41.004082
 20
111.603047
 30
0.0
  0
LWPOLYLINE
  5
26c
100
AcDbEntity
  8
Layer_1
 62
7
100
AcDbPolyline
 90
1
 70
1
 10
76.348813
 20
111.603047
 30
0.0
  0
LWPOLYLINE
  5
26d
100
AcDbEntity
  8
Layer_1
 62
7
100
AcDbPolyline
 90
1
 70
1
 10
88.627275
 20
102.682132
 30
0.0
  0
LWPOLYLINE
  5
26e
100
AcDbEntity
  8
Layer_1
 62
7
100
AcDbPolyline
 90
1
 70
1
 10
111.101674
 20
102.682132
 30
0.0
  0
LWPOLYLINE
  5
26f
100
AcDbEntity
  8
Layer_1
 62
7
100
AcDbPolyline
 90
1
 70
1
 10
158.466900
 20
102.682132
 30
0.0
  0
LWPOLYLINE
  5
270
100
AcDbEntity
  8
Layer_1
 62
7
100
AcDbPolyline
 90
1
 70
1
 10
135.992501
 20
102.682132
 30
0.0
  0
LWPOLYLINE
  5
271
100
AcDbEntity
  8
Layer_1
 62
7
100
AcDbPolyline
 90
1
 70
1
 10
170.745362
 20
111.603047
 30
0.0
  0
LWPOLYLINE
  5
272
100
AcDbEntity
  8
Layer_1
 62
7
100
AcDbPolyline
 90
1
 70
1
 10
206.090093
 20
111.603047
 30
0.0
  0
LWPOLYLINE
  5
273
100
AcDbEntity
  8
Layer_1
 62
7
100
AcDbPolyline
 90
1
 70
1
 10
211.380148
 20
104.321747
 30
0.0
  0
LWPOLYLINE
  5
274
100
AcDbEntity
  8
Layer_1
 62
7
100
AcDbPolyline
 90
1
 70
1
 10
216.379956
 20
104.321747
 30
0.0
  0
LWPOLYLINE
  5
275
100
AcDbEntity
  8
Layer_1
 62
7
100
AcDbPolyline
 90
1
 70
1
 10
221.670011
 20
111.603047
 30
0.0
  0
LWPOLYLINE
  5
276
100
AcDbEntity
  8
Layer_1
 62
7
100
AcDbPolyline
 90
1
 70
1
 10
231.669892
 20
111.603047
 30
0.0
  0
LWPOLYLINE
  5
277
100
AcDbEntity
  8
Layer_1
 62
7
100
AcDbPolyline
 90
1
 70
1
 10
236.646946
 20
107.082132
 30
0.0
  0
LWPOLYLINE
  5
278
100
AcDbEntity
  8
Layer_1
 62
7
100
AcDbPolyline
 90
1
 70
1
 10
241.938588
 20
52.126046
 30
0.0
  0
LWPOLYLINE
  5
279
100
AcDbEntity
  8
Layer_1
 62
7
100
AcDbPolyline
 90
1
 70
1
 10
238.753549
 20
46.977278
 30
0.0
  0
LWPOLYLINE
  5
27a
100
AcDbEntity
  8
Layer_1
 62
7
100
AcDbPolyline
 90
1
 70
1
 10
224.750011
 20
41.603615
 30
0.0
  0
LWPOLYLINE
  5
27b
100
AcDbEntity
  8
Layer_1
 62
7
100
AcDbPolyline
 90
1
 70
1
 10
217.202013
 20
46.503676
 30
0.0
  0
LWPOLYLINE
  5
27c
100
AcDbEntity
  8
Layer_1
 62
7
100
AcDbPolyline
 90
1
 70
1
 10
212.533990
 20
44.712455
 30
0.0
  0
LWPOLYLINE
  5
27d
100
AcDbEntity
  8
Layer_1
 62
7
100
AcDbPolyline
 90
1
 70
1
 10
210.204609
 20
36.018286
 30
0.0
  0
LWPOLYLINE
  5
27e
100
AcDbEntity
  8
Layer_1
 62
7
100
AcDbPolyline
 90
1
 70
1
 10
104.318185
 20
9.533617
 30
0.0
  0
LWPOLYLINE
  5
27f
100
AcDbEntity
  8
Layer_1
 62
7
100
AcDbPolyline
 90
1
 70
1
 10
92.992086
 20
17.762120
 30
0.0
  0
LWPOLYLINE
  5
280
100
AcDbEntity
  8
Layer_1
 62
7
100
AcDbPolyline
 90
1
 70
1
 10
112.547139
 20
20.857731
 30
0.0
  0
LWPOLYLINE
  5
281
100
AcDbEntity
  8
Layer_1
 62
7
100
AcDbPolyline
 90
1
 70
1
 10
101.220960
 20
29.088881
 30
0.0
  0
LWPOLYLINE
  5
282
100
AcDbEntity
  8
Layer_1
 62
7
100
AcDbPolyline
 90
1
 70
1
 10
82.691904
 20
22.685994
 30
0.0
  0
LWPOLYLINE
  5
283
100
AcDbEntity
  8
Layer_1
 62
7
100
AcDbPolyline
 90
1
 70
1
 10
69.621812
 20
27.702471
 30
0.0
  0
LWPOLYLINE
  5
284
100
AcDbEntity
  8
Layer_1
 62
7
100
AcDbPolyline
 90
1
 70
1
 10
87.708910
 20
35.756350
 30
0.0
  0
LWPOLYLINE
  5
285
100
AcDbEntity
  8
Layer_1
 62
7
100
AcDbPolyline
 90
1
 70
1
 10
74.638819
 20
40.772827
 30
0.0
  0
LWPOLYLINE
  5
286
100
AcDbEntity
  8
Layer_1
 62
7
100
AcDbPolyline
 90
1
 70
1
 10
100.841946
 20
37.182448
 30
0.0
  0
LWPOLYLINE
  5
287
100
AcDbEntity
  8
Layer_1
 62
7
100
AcDbPolyline
 90
1
 70
1
 10
107.547172
 20
43.908125
 30
0.0
  0
LWPOLYLINE
  5
288
100
AcDbEntity
  8
Layer_1
 62
7
100
AcDbPolyline
 90
1
 70
1
 10
93.986386
 20
39.820331
 30
0.0
  0
LWPOLYLINE
  5
289
100
AcDbEntity
  8
Layer_1
 62
7
100
AcDbPolyline
 90
1
 70
1
 10
80.916294
 20
44.836808
 30
0.0
  0
LWPOLYLINE
  5
28a
100
AcDbEntity
  8
Layer_1
 62
7
100
AcDbPolyline
 90
1
 70
1
 10
99.003445
 20
52.890688
 30
0.0
  0
LWPOLYLINE
  5
28b
100
AcDbEntity
  8
Layer_1
 62
7
100
AcDbPolyline
 90
1
 70
1
 10
85.933300
 20
57.907165
 30
0.0
  0
LWPOLYLINE
  5
28c
100
AcDbEntity
  8
Layer_1
 62
7
100
AcDbPolyline
 90
1
 70
1
 10
154.102088
 20
17.762120
 30
0.0
  0
LWPOLYLINE
  5
28d
100
AcDbEntity
  8
Layer_1
 62
7
100
AcDbPolyline
 90
1
 70
1
 10
145.873214
 20
29.088881
 30
0.0
  0
LWPOLYLINE
  5
28e
100
AcDbEntity
  8
Layer_1
 62
7
100
AcDbPolyline
 90
1
 70
1
 10
142.775989
 20
9.533617
 30
0.0
  0
LWPOLYLINE
  5
28f
100
AcDbEntity
  8
Layer_1
 62
7
100
AcDbPolyline
 90
1
 70
1
 10
134.547036
 20
20.857731
 30
0.0
  0
LWPOLYLINE
  5
290
100
AcDbEntity
  8
Layer_1
 62
7
100
AcDbPolyline
 90
1
 70
1
 10
177.472362
 20
27.702471
 30
0.0
  0
LWPOLYLINE
  5
291
100
AcDbEntity
  8
Layer_1
 62
7
100
AcDbPolyline
 90
1
 70
1
 10
172.455356
 20
40.772827
 30
0.0
  0
LWPOLYLINE
  5
292
100
AcDbEntity
  8
Layer_1
 62
7
100
AcDbPolyline
 90
1
 70
1
 10
164.402270
 20
22.685994
 30
0.0
  0
LWPOLYLINE
  5
293
100
AcDbEntity
  8
Layer_1
 62
7
100
AcDbPolyline
 90
1
 70
1
 10
159.385264
 20
35.756350
 30
0.0
  0
LWPOLYLINE
  5
294
100
AcDbEntity
  8
Layer_1
 62
7
100
AcDbPolyline
 90
1
 70
1
 10
146.252228
 20
37.182448
 30
0.0
  0
LWPOLYLINE
  5
295
100
AcDbEntity
  8
Layer_1
 62
7
100
AcDbPolyline
 90
1
 70
1
 10
166.177881
 20
44.836808
 30
0.0
  0
LWPOLYLINE
  5
296
100
AcDbEntity
  8
Layer_1
 62
7
100
AcDbPolyline
 90
1
 70
1
 10
161.160875
 20
57.907165
 30
0.0
  0
LWPOLYLINE
  5
297
100
AcDbEntity
  8
Layer_1
 62
7
100
AcDbPolyline
 90
1
 70
1
 10
153.107789
 20
39.820331
 30
0.0
  0
LWPOLYLINE
  5
298
100
AcDbEntity
  8
Layer_1
 62
7
100
AcDbPolyline
 90
1
 70
1
 10
148.090730
 20
52.890688
 30
0.0
  0
LWPOLYLINE
  5
299
100
AcDbEntity
  8
Layer_1
 62
7
100
AcDbPolyline
 90
1
 70
1
 10
182.982285
 20
51.287320
 30
0.0
  0
LWPOLYLINE
  5
29a
100
AcDbEntity
  8
Layer_1
 62
7
100
AcDbPolyline
 90
1
 70
1
 10
177.965279
 20
64.357677
 30
0.0
  0
LWPOLYLINE
  5
29b
100
AcDbEntity
  8
Layer_1
 62
7
100
AcDbPolyline
 90
1
 70
1
 10
169.912193
 20
46.270843
 30
0.0
  0
LWPOLYLINE
  5
29c
100
AcDbEntity
  8
Layer_1
 62
7
100
AcDbPolyline
 90
1
 70
1
 10
164.895187
 20
59.341200
 30
0.0
  0
LWPOLYLINE
  5
29d
100
AcDbEntity
  8
Layer_1
 62
7
100
AcDbPolyline
 90
1
 70
1
 10
213.773028
 20
51.604819
 30
0.0
  0
LWPOLYLINE
  5
29e
100
AcDbEntity
  8
Layer_1
 62
7
100
AcDbPolyline
 90
1
 70
1
 10
235.911408
 20
53.271686
 30
0.0
  0
LWPOLYLINE
  5
29f
100
AcDbEntity
  8
Layer_1
 62
7
100
AcDbPolyline
 90
1
 70
1
 10
234.569447
 20
67.207226
 30
0.0
  0
LWPOLYLINE
  5
2a0
100
AcDbEntity
  8
Layer_1
 62
7
100
AcDbPolyline
 90
1
 70
1
 10
221.975868
 20
51.930255
 30
0.0
  0
LWPOLYLINE
  5
2a1
100
AcDbEntity
  8
Layer_1
 62
7
100
AcDbPolyline
 90
1
 70
1
 10
220.634172
 20
65.865795
 30
0.0
  0
LWPOLYLINE
  5
2a2
100
AcDbEntity
  8
Layer_1
 62
7
100
AcDbPolyline
 90
1
 70
1
 10
217.004899
 20
61.701272
 30
0.0
  0
LWPOLYLINE
  5
2a3
100
AcDbEntity
  8
Layer_1
 62
7
100
AcDbPolyline
 90
1
 70
1
 10
212.911549
 20
75.089128
 30
0.0
  0
LWPOLYLINE
  5
2a4
100
AcDbEntity
  8
Layer_1
 62
7
100
AcDbPolyline
 90
1
 70
1
 10
203.616779
 20
57.608187
 30
0.0
  0
LWPOLYLINE
  5
2a5
100
AcDbEntity
  8
Layer_1
 62
7
100
AcDbPolyline
 90
1
 70
1
 10
199.523429
 20
70.996042
 30
0.0
  0
LWPOLYLINE
  5
2a6
100
AcDbEntity
  8
Layer_1
 62
7
100
AcDbPolyline
 90
1
 70
1
 10
234.282111
 20
70.194358
 30
0.0
  0
LWPOLYLINE
  5
2a7
100
AcDbEntity
  8
Layer_1
 62
7
100
AcDbPolyline
 90
1
 70
1
 10
232.940151
 20
84.129898
 30
0.0
  0
LWPOLYLINE
  5
2a8
100
AcDbEntity
  8
Layer_1
 62
7
100
AcDbPolyline
 90
1
 70
1
 10
220.346571
 20
68.850281
 30
0.0
  0
LWPOLYLINE
  5
2a9
100
AcDbEntity
  8
Layer_1
 62
7
100
AcDbPolyline
 90
1
 70
1
 10
219.004611
 20
82.785821
 30
0.0
  0
LWPOLYLINE
  5
2aa
100
AcDbEntity
  8
Layer_1
 62
7
100
AcDbPolyline
 90
1
 70
1
 10
160.085613
 20
60.709090
 30
0.0
  0
LWPOLYLINE
  5
2ab
100
AcDbEntity
  8
Layer_1
 62
7
100
AcDbPolyline
 90
1
 70
1
 10
155.068607
 20
73.776800
 30
0.0
  0
LWPOLYLINE
  5
2ac
100
AcDbEntity
  8
Layer_1
 62
7
100
AcDbPolyline
 90
1
 70
1
 10
147.015627
 20
55.689967
 30
0.0
  0
LWPOLYLINE
  5
2ad
100
AcDbEntity
  8
Layer_1
 62
7
100
AcDbPolyline
 90
1
 70
1
 10
141.998488
 20
68.760323
 30
0.0
  0
LWPOLYLINE
  5
2ae
100
AcDbEntity
  8
Layer_1
 62
7
100
AcDbPolyline
 90
1
 70
1
 10
176.890017
 20
67.159602
 30
0.0
  0
LWPOLYLINE
  5
2af
100
AcDbEntity
  8
Layer_1
 62
7
100
AcDbPolyline
 90
1
 70
1
 10
171.873011
 20
80.227312
 30
0.0
  0
LWPOLYLINE
  5
2b0
100
AcDbEntity
  8
Layer_1
 62
7
100
AcDbPolyline
 90
1
 70
1
 10
163.819925
 20
62.140479
 30
0.0
  0
LWPOLYLINE
  5
2b1
100
AcDbEntity
  8
Layer_1
 62
7
100
AcDbPolyline
 90
1
 70
1
 10
158.802919
 20
75.210835
 30
0.0
  0
LWPOLYLINE
  5
2b2
100
AcDbEntity
  8
Layer_1
 62
7
100
AcDbPolyline
 90
1
 70
1
 10
198.353183
 20
61.473732
 30
0.0
  0
LWPOLYLINE
  5
2b3
100
AcDbEntity
  8
Layer_1
 62
7
100
AcDbPolyline
 90
1
 70
1
 10
193.336177
 20
74.541443
 30
0.0
  0
LWPOLYLINE
  5
2b4
100
AcDbEntity
  8
Layer_1
 62
7
100
AcDbPolyline
 90
1
 70
1
 10
185.283091
 20
56.454609
 30
0.0
  0
LWPOLYLINE
  5
2b5
100
AcDbEntity
  8
Layer_1
 62
7
100
AcDbPolyline
 90
1
 70
1
 10
180.266085
 20
69.524966
 30
0.0
  0
LWPOLYLINE
  5
2b6
100
AcDbEntity
  8
Layer_1
 62
7
100
AcDbPolyline
 90
1
 70
1
 10
212.034459
 20
77.957198
 30
0.0
  0
LWPOLYLINE
  5
2b7
100
AcDbEntity
  8
Layer_1
 62
7
100
AcDbPolyline
 90
1
 70
1
 10
207.941374
 20
91.345053
 30
0.0
  0
LWPOLYLINE
  5
2b8
100
AcDbEntity
  8
Layer_1
 62
7
100
AcDbPolyline
 90
1
 70
1
 10
198.646340
 20
73.864112
 30
0.0
  0
LWPOLYLINE
  5
2b9
100
AcDbEntity
  8
Layer_1
 62
7
100
AcDbPolyline
 90
1
 70
1
 10
194.553254
 20
87.251967
 30
0.0
  0
LWPOLYLINE
  5
2ba
100
AcDbEntity
  8
Layer_1
 62
7
100
AcDbPolyline
 90
1
 70
1
 10
232.652550
 20
87.114385
 30
0.0
  0
LWPOLYLINE
  5
2bb
100
AcDbEntity
  8
Layer_1
 62
7
100
AcDbPolyline
 90
1
 70
1
 10
231.310854
 20
101.050189
 30
0.0
  0
LWPOLYLINE
  5
2bc
100
AcDbEntity
  8
Layer_1
 62
7
100
AcDbPolyline
 90
1
 70
1
 10
218.717274
 20
85.772953
 30
0.0
  0
LWPOLYLINE
  5
2bd
100
AcDbEntity
  8
Layer_1
 62
7
100
AcDbPolyline
 90
1
 70
1
 10
217.375314
 20
99.708493
 30
0.0
  0
LWPOLYLINE
  5
2be
100
AcDbEntity
  8
Layer_1
 62
7
100
AcDbPolyline
 90
1
 70
1
 10
192.260915
 20
77.343367
 30
0.0
  0
LWPOLYLINE
  5
2bf
100
AcDbEntity
  8
Layer_1
 62
7
100
AcDbPolyline
 90
1
 70
1
 10
187.243909
 20
90.413724
 30
0.0
  0
LWPOLYLINE
  5
2c0
100
AcDbEntity
  8
Layer_1
 62
7
100
AcDbPolyline
 90
1
 70
1
 10
179.190823
 20
72.326890
 30
0.0
  0
LWPOLYLINE
  5
2c1
100
AcDbEntity
  8
Layer_1
 62
7
100
AcDbPolyline
 90
1
 70
1
 10
174.173817
 20
85.397247
 30
0.0
  0
LWPOLYLINE
  5
2c2
100
AcDbEntity
  8
Layer_1
 62
7
100
AcDbPolyline
 90
1
 70
1
 10
207.064284
 20
94.215769
 30
0.0
  0
LWPOLYLINE
  5
2c3
100
AcDbEntity
  8
Layer_1
 62
7
100
AcDbPolyline
 90
1
 70
1
 10
202.971199
 20
107.603095
 30
0.0
  0
LWPOLYLINE
  5
2c4
100
AcDbEntity
  8
Layer_1
 62
7
100
AcDbPolyline
 90
1
 70
1
 10
193.676165
 20
90.122683
 30
0.0
  0
LWPOLYLINE
  5
2c5
100
AcDbEntity
  8
Layer_1
 62
7
100
AcDbPolyline
 90
1
 70
1
 10
189.582815
 20
103.509745
 30
0.0
  0
LWPOLYLINE
  5
2c6
100
AcDbEntity
  8
Layer_1
 62
7
100
AcDbPolyline
 90
1
 70
1
 10
212.980076
 20
99.253941
 30
0.0
  0
LWPOLYLINE
  5
2c7
100
AcDbEntity
  8
Layer_1
 62
7
100
AcDbPolyline
 90
1
 70
1
 10
33.321146
 20
51.604819
 30
0.0
  0
LWPOLYLINE
  5
2c8
100
AcDbEntity
  8
Layer_1
 62
7
100
AcDbPolyline
 90
1
 70
1
 10
25.118307
 20
51.930255
 30
0.0
  0
LWPOLYLINE
  5
2c9
100
AcDbEntity
  8
Layer_1
 62
7
100
AcDbPolyline
 90
1
 70
1
 10
11.182767
 20
53.271686
 30
0.0
  0
LWPOLYLINE
  5
2ca
100
AcDbEntity
  8
Layer_1
 62
7
100
AcDbPolyline
 90
1
 70
1
 10
26.460003
 20
65.865795
 30
0.0
  0
LWPOLYLINE
  5
2cb
100
AcDbEntity
  8
Layer_1
 62
7
100
AcDbPolyline
 90
1
 70
1
 10
12.524727
 20
67.207226
 30
0.0
  0
LWPOLYLINE
  5
2cc
100
AcDbEntity
  8
Layer_1
 62
7
100
AcDbPolyline
 90
1
 70
1
 10
61.811084
 20
56.454609
 30
0.0
  0
LWPOLYLINE
  5
2cd
100
AcDbEntity
  8
Layer_1
 62
7
100
AcDbPolyline
 90
1
 70
1
 10
48.740992
 20
61.473732
 30
0.0
  0
LWPOLYLINE
  5
2ce
100
AcDbEntity
  8
Layer_1
 62
7
100
AcDbPolyline
 90
1
 70
1
 10
66.828090
 20
69.524966
 30
0.0
  0
LWPOLYLINE
  5
2cf
100
AcDbEntity
  8
Layer_1
 62
7
100
AcDbPolyline
 90
1
 70
1
 10
53.757998
 20
74.541443
 30
0.0
  0
LWPOLYLINE
  5
2d0
100
AcDbEntity
  8
Layer_1
 62
7
100
AcDbPolyline
 90
1
 70
1
 10
43.477395
 20
57.608187
 30
0.0
  0
LWPOLYLINE
  5
2d1
100
AcDbEntity
  8
Layer_1
 62
7
100
AcDbPolyline
 90
1
 70
1
 10
30.089276
 20
61.701272
 30
0.0
  0
LWPOLYLINE
  5
2d2
100
AcDbEntity
  8
Layer_1
 62
7
100
AcDbPolyline
 90
1
 70
1
 10
47.570745
 20
70.996042
 30
0.0
  0
LWPOLYLINE
  5
2d3
100
AcDbEntity
  8
Layer_1
 62
7
100
AcDbPolyline
 90
1
 70
1
 10
34.182625
 20
75.089128
 30
0.0
  0
LWPOLYLINE
  5
2d4
100
AcDbEntity
  8
Layer_1
 62
7
100
AcDbPolyline
 90
1
 70
1
 10
77.181982
 20
46.270843
 30
0.0
  0
LWPOLYLINE
  5
2d5
100
AcDbEntity
  8
Layer_1
 62
7
100
AcDbPolyline
 90
1
 70
1
 10
64.111890
 20
51.287320
 30
0.0
  0
LWPOLYLINE
  5
2d6
100
AcDbEntity
  8
Layer_1
 62
7
100
AcDbPolyline
 90
1
 70
1
 10
82.198988
 20
59.341200
 30
0.0
  0
LWPOLYLINE
  5
2d7
100
AcDbEntity
  8
Layer_1
 62
7
100
AcDbPolyline
 90
1
 70
1
 10
69.128896
 20
64.357677
 30
0.0
  0
LWPOLYLINE
  5
2d8
100
AcDbEntity
  8
Layer_1
 62
7
100
AcDbPolyline
 90
1
 70
1
 10
100.078548
 20
55.689967
 30
0.0
  0
LWPOLYLINE
  5
2d9
100
AcDbEntity
  8
Layer_1
 62
7
100
AcDbPolyline
 90
1
 70
1
 10
87.008562
 20
60.709090
 30
0.0
  0
LWPOLYLINE
  5
2da
100
AcDbEntity
  8
Layer_1
 62
7
100
AcDbPolyline
 90
1
 70
1
 10
105.095686
 20
68.760323
 30
0.0
  0
LWPOLYLINE
  5
2db
100
AcDbEntity
  8
Layer_1
 62
7
100
AcDbPolyline
 90
1
 70
1
 10
92.025568
 20
73.776800
 30
0.0
  0
LWPOLYLINE
  5
2dc
100
AcDbEntity
  8
Layer_1
 62
7
100
AcDbPolyline
 90
1
 70
1
 10
83.274250
 20
62.140479
 30
0.0
  0
LWPOLYLINE
  5
2dd
100
AcDbEntity
  8
Layer_1
 62
7
100
AcDbPolyline
 90
1
 70
1
 10
70.204158
 20
67.159602
 30
0.0
  0
LWPOLYLINE
  5
2de
100
AcDbEntity
  8
Layer_1
 62
7
100
AcDbPolyline
 90
1
 70
1
 10
88.291256
 20
75.210835
 30
0.0
  0
LWPOLYLINE
  5
2df
100
AcDbEntity
  8
Layer_1
 62
7
100
AcDbPolyline
 90
1
 70
1
 10
75.221164
 20
80.227312
 30
0.0
  0
LWPOLYLINE
  5
2e0
100
AcDbEntity
  8
Layer_1
 62
7
100
AcDbPolyline
 90
1
 70
1
 10
106.170763
 20
71.562248
 30
0.0
  0
LWPOLYLINE
  5
2e1
100
AcDbEntity
  8
Layer_1
 62
7
100
AcDbPolyline
 90
1
 70
1
 10
93.100829
 20
76.578725
 30
0.0
  0
LWPOLYLINE
  5
2e2
100
AcDbEntity
  8
Layer_1
 62
7
100
AcDbPolyline
 90
1
 70
1
 10
111.187901
 20
84.632604
 30
0.0
  0
LWPOLYLINE
  5
2e3
100
AcDbEntity
  8
Layer_1
 62
7
100
AcDbPolyline
 90
1
 70
1
 10
98.117835
 20
89.649081
 30
0.0
  0
LWPOLYLINE
  5
2e4
100
AcDbEntity
  8
Layer_1
 62
7
100
AcDbPolyline
 90
1
 70
1
 10
67.903352
 20
72.326890
 30
0.0
  0
LWPOLYLINE
  5
2e5
100
AcDbEntity
  8
Layer_1
 62
7
100
AcDbPolyline
 90
1
 70
1
 10
54.833260
 20
77.343367
 30
0.0
  0
LWPOLYLINE
  5
2e6
100
AcDbEntity
  8
Layer_1
 62
7
100
AcDbPolyline
 90
1
 70
1
 10
72.920358
 20
85.397247
 30
0.0
  0
LWPOLYLINE
  5
2e7
100
AcDbEntity
  8
Layer_1
 62
7
100
AcDbPolyline
 90
1
 70
1
 10
59.850266
 20
90.413724
 30
0.0
  0
LWPOLYLINE
  5
2e8
100
AcDbEntity
  8
Layer_1
 62
7
100
AcDbPolyline
 90
1
 70
1
 10
89.366517
 20
78.012760
 30
0.0
  0
LWPOLYLINE
  5
2e9
100
AcDbEntity
  8
Layer_1
 62
7
100
AcDbPolyline
 90
1
 70
1
 10
76.296425
 20
83.029237
 30
0.0
  0
LWPOLYLINE
  5
2ea
100
AcDbEntity
  8
Layer_1
 62
7
100
AcDbPolyline
 90
1
 70
1
 10
94.383524
 20
91.083116
 30
0.0
  0
LWPOLYLINE
  5
2eb
100
AcDbEntity
  8
Layer_1
 62
7
100
AcDbPolyline
 90
1
 70
1
 10
81.313432
 20
96.099593
 30
0.0
  0
LWPOLYLINE
  5
2ec
100
AcDbEntity
  8
Layer_1
 62
7
100
AcDbPolyline
 90
1
 70
1
 10
100.028356
 20
96.627435
 30
0.0
  0
LWPOLYLINE
  5
2ed
100
AcDbEntity
  8
Layer_1
 62
7
100
AcDbPolyline
 90
1
 70
1
 10
26.747603
 20
68.850281
 30
0.0
  0
LWPOLYLINE
  5
2ee
100
AcDbEntity
  8
Layer_1
 62
7
100
AcDbPolyline
 90
1
 70
1
 10
12.812063
 20
70.194358
 30
0.0
  0
LWPOLYLINE
  5
2ef
100
AcDbEntity
  8
Layer_1
 62
7
100
AcDbPolyline
 90
1
 70
1
 10
28.089564
 20
82.785821
 30
0.0
  0
LWPOLYLINE
  5
2f0
100
AcDbEntity
  8
Layer_1
 62
7
100
AcDbPolyline
 90
1
 70
1
 10
14.154024
 20
84.129898
 30
0.0
  0
LWPOLYLINE
  5
2f1
100
AcDbEntity
  8
Layer_1
 62
7
100
AcDbPolyline
 90
1
 70
1
 10
48.447835
 20
73.864112
 30
0.0
  0
LWPOLYLINE
  5
2f2
100
AcDbEntity
  8
Layer_1
 62
7
100
AcDbPolyline
 90
1
 70
1
 10
35.059715
 20
77.957198
 30
0.0
  0
LWPOLYLINE
  5
2f3
100
AcDbEntity
  8
Layer_1
 62
7
100
AcDbPolyline
 90
1
 70
1
 10
52.540920
 20
87.251967
 30
0.0
  0
LWPOLYLINE
  5
2f4
100
AcDbEntity
  8
Layer_1
 62
7
100
AcDbPolyline
 90
1
 70
1
 10
39.152801
 20
91.345053
 30
0.0
  0
LWPOLYLINE
  5
2f5
100
AcDbEntity
  8
Layer_1
 62
7
100
AcDbPolyline
 90
1
 70
1
 10
28.376900
 20
85.772953
 30
0.0
  0
LWPOLYLINE
  5
2f6
100
AcDbEntity
  8
Layer_1
 62
7
100
AcDbPolyline
 90
1
 70
1
 10
14.441625
 20
87.114385
 30
0.0
  0
LWPOLYLINE
  5
2f7
100
AcDbEntity
  8
Layer_1
 62
7
100
AcDbPolyline
 90
1
 70
1
 10
29.718861
 20
99.708493
 30
0.0
  0
LWPOLYLINE
  5
2f8
100
AcDbEntity
  8
Layer_1
 62
7
100
AcDbPolyline
 90
1
 70
1
 10
15.783321
 20
101.050189
 30
0.0
  0
LWPOLYLINE
  5
2f9
100
AcDbEntity
  8
Layer_1
 62
7
100
AcDbPolyline
 90
1
 70
1
 10
34.114099
 20
99.253941
 30
0.0
  0
LWPOLYLINE
  5
2fa
100
AcDbEntity
  8
Layer_1
 62
7
100
AcDbPolyline
 90
1
 70
1
 10
53.418010
 20
90.122683
 30
0.0
  0
LWPOLYLINE
  5
2fb
100
AcDbEntity
  8
Layer_1
 62
7
100
AcDbPolyline
 90
1
 70
1
 10
40.029890
 20
94.215769
 30
0.0
  0
LWPOLYLINE
  5
2fc
100
AcDbEntity
  8
Layer_1
 62
7
100
AcDbPolyline
 90
1
 70
1
 10
57.511360
 20
103.509745
 30
0.0
  0
LWPOLYLINE
  5
2fd
100
AcDbEntity
  8
Layer_1
 62
7
100
AcDbPolyline
 90
1
 70
1
 10
44.122976
 20
107.603095
 30
0.0
  0
LWPOLYLINE
  5
2fe
100
AcDbEntity
  8
Layer_1
 62
7
100
AcDbPolyline
 90
1
 70
1
 10
65.942534
 20
106.284153
 30
0.0
  0
LWPOLYLINE
  5
2ff
100
AcDbEntity
  8
Layer_1
 62
7
100
AcDbPolyline
 90
1
 70
1
 10
79.012625
 20
101.266882
 30
0.0
  0
LWPOLYLINE
  5
300
100
AcDbEntity
  8
Layer_1
 62
7
100
AcDbPolyline
 90
1
 70
1
 10
60.925527
 20
93.213003
 30
0.0
  0
LWPOLYLINE
  5
301
100
AcDbEntity
  8
Layer_1
 62
7
100
AcDbPolyline
 90
1
 70
1
 10
73.995619
 20
88.196526
 30
0.0
  0
LWPOLYLINE
  5
302
100
AcDbEntity
  8
Layer_1
 62
7
100
AcDbPolyline
 90
1
 70
1
 10
153.993345
 20
76.578725
 30
0.0
  0
LWPOLYLINE
  5
303
100
AcDbEntity
  8
Layer_1
 62
7
100
AcDbPolyline
 90
1
 70
1
 10
148.976339
 20
89.649081
 30
0.0
  0
LWPOLYLINE
  5
304
100
AcDbEntity
  8
Layer_1
 62
7
100
AcDbPolyline
 90
1
 70
1
 10
140.923412
 20
71.562248
 30
0.0
  0
LWPOLYLINE
  5
305
100
AcDbEntity
  8
Layer_1
 62
7
100
AcDbPolyline
 90
1
 70
1
 10
135.906274
 20
84.632604
 30
0.0
  0
LWPOLYLINE
  5
306
100
AcDbEntity
  8
Layer_1
 62
7
100
AcDbPolyline
 90
1
 70
1
 10
170.797749
 20
83.029237
 30
0.0
  0
LWPOLYLINE
  5
307
100
AcDbEntity
  8
Layer_1
 62
7
100
AcDbPolyline
 90
1
 70
1
 10
165.780743
 20
96.099593
 30
0.0
  0
LWPOLYLINE
  5
308
100
AcDbEntity
  8
Layer_1
 62
7
100
AcDbPolyline
 90
1
 70
1
 10
157.727657
 20
78.012760
 30
0.0
  0
LWPOLYLINE
  5
309
100
AcDbEntity
  8
Layer_1
 62
7
100
AcDbPolyline
 90
1
 70
1
 10
152.710651
 20
91.083116
 30
0.0
  0
LWPOLYLINE
  5
30a
100
AcDbEntity
  8
Layer_1
 62
7
100
AcDbPolyline
 90
1
 70
1
 10
147.065818
 20
96.627435
 30
0.0
  0
LWPOLYLINE
  5
30b
100
AcDbEntity
  8
Layer_1
 62
7
100
AcDbPolyline
 90
1
 70
1
 10
186.168647
 20
93.213003
 30
0.0
  0
LWPOLYLINE
  5
30c
100
AcDbEntity
  8
Layer_1
 62
7
100
AcDbPolyline
 90
1
 70
1
 10
181.151641
 20
106.284153
 30
0.0
  0
LWPOLYLINE
  5
30d
100
AcDbEntity
  8
Layer_1
 62
7
100
AcDbPolyline
 90
1
 70
1
 10
173.098555
 20
88.196526
 30
0.0
  0
LWPOLYLINE
  5
30e
100
AcDbEntity
  8
Layer_1
 62
7
100
AcDbPolyline
 90
1
 70
1
 10
168.081549
 20
101.266882
 30
0.0
  0
LWPOLYLINE
  5
30f
100
AcDbEntity
  8
Layer_1
 62
7
100
AcDbPolyline
 90
1
 70
1
 10
116.047110
 20
104.482084
 30
0.0
  0
LWPOLYLINE
  5
310
100
AcDbEntity
  8
Layer_1
 62
7
100
AcDbPolyline
 90
1
 70
1
 10
131.047064
 20
104.482084
 30
0.0
  0
ENDSEC
  0
SECTION
  2
OBJECTS
  0
DICTIONARY
  5
C
330
0
100
AcDbDictionary
  3
ACAD_GROUP
350
D
  3
ACAD_MLINESTYLE
350
17
  0
DICTIONARY
  5
D
330
C
100
AcDbDictionary
  0
DICTIONARY
  5
1A
330
C
100
AcDbDictionary
  0
DICTIONARY
  5
17
330
C
100
AcDbDictionary
  3
STANDARD
350
18
  0
DICTIONARY
  5
19
330
C
100
AcDbDictionary
  0
ENDSEC
  0
EOF
