  0
SECTION
  2
HEADER
  9
$ACADVER
  1
AC1027
  9
$ACADMAINTVER
 70
105
  9
$DWGCODEPAGE
  3
ANSI_1252
  9
$LASTSAVEDBY
  1
ezdxf
  9
$REQUIREDVERSIONS
160
0
  9
$INSBASE
 10
0.0
 20
0.0
 30
0.0
  9
$EXTMIN
 10
1e+20
 20
1e+20
 30
1e+20
  9
$EXTMAX
 10
-1e+20
 20
-1e+20
 30
-1e+20
  9
$LIMMIN
 10
0.0
 20
0.0
  9
$LIMMAX
 10
420.0
 20
297.0
  9
$ORTHOMODE
 70
0
  9
$REGENMODE
 70
1
  9
$FILLMODE
 70
1
  9
$QTEXTMODE
 70
0
  9
$MIRRTEXT
 70
1
  9
$LTSCALE
 40
1.0
  9
$ATTMODE
 70
1
  9
$TEXTSIZE
 40
2.5
  9
$TRACEWID
 40
1.0
  9
$TEXTSTYLE
  7
Standard
  9
$CLAYER
  8
0
  9
$CELTYPE
  6
ByLayer
  9
$CECOLOR
 62
256
  9
$CELTSCALE
 40
1.0
  9
$DISPSILH
 70
0
  9
$DIMSCALE
 40
1.0
  9
$DIMASZ
 40
2.5
  9
$DIMEXO
 40
0.625
  9
$DIMDLI
 40
3.75
  9
$DIMRND
 40
0.0
  9
$DIMDLE
 40
0.0
  9
$DIMEXE
 40
1.25
  9
$DIMTP
 40
0.0
  9
$DIMTM
 40
0.0
  9
$DIMTXT
 40
2.5
  9
$DIMCEN
 40
2.5
  9
$DIMTSZ
 40
0.0
  9
$DIMTOL
 70
0
  9
$DIMLIM
 70
0
  9
$DIMTIH
 70
0
  9
$DIMTOH
 70
0
  9
$DIMSE1
 70
0
  9
$DIMSE2
 70
0
  9
$DIMTAD
 70
1
  9
$DIMZIN
 70
8
  9
$DIMBLK
  1

  9
$DIMASO
 70
1
  9
$DIMSHO
 70
1
  9
$DIMPOST
  1

  9
$DIMAPOST
  1

  9
$DIMALT
 70
0
  9
$DIMALTD
 70
3
  9
$DIMALTF
 40
0.03937007874
  9
$DIMLFAC
 40
1.0
  9
$DIMTOFL
 70
1
  9
$DIMTVP
 40
0.0
  9
$DIMTIX
 70
0
  9
$DIMSOXD
 70
0
  9
$DIMSAH
 70
0
  9
$DIMBLK1
  1

  9
$DIMBLK2
  1

  9
$DIMSTYLE
  2
ISO-25
  9
$DIMCLRD
 70
0
  9
$DIMCLRE
 70
0
  9
$DIMCLRT
 70
0
  9
$DIMTFAC
 40
1.0
  9
$DIMGAP
 40
0.625
  9
$DIMJUST
 70
0
  9
$DIMSD1
 70
0
  9
$DIMSD2
 70
0
  9
$DIMTOLJ
 70
0
  9
$DIMTZIN
 70
8
  9
$DIMALTZ
 70
0
  9
$DIMALTTZ
 70
0
  9
$DIMUPT
 70
0
  9
$DIMDEC
 70
2
  9
$DIMTDEC
 70
2
  9
$DIMALTU
 70
2
  9
$DIMALTTD
 70
3
  9
$DIMTXSTY
  7
Standard
  9
$DIMAUNIT
 70
0
  9
$DIMADEC
 70
0
  9
$DIMALTRND
 40
0.0
  9
$DIMAZIN
 70
0
  9
$DIMDSEP
 70
44
  9
$DIMATFIT
 70
3
  9
$DIMFRAC
 70
0
  9
$DIMLDRBLK
  1

  9
$DIMLUNIT
 70
2
  9
$DIMLWD
 70
-2
  9
$DIMLWE
 70
-2
  9
$DIMTMOVE
 70
0
  9
$DIMFXL
 40
1.0
  9
$DIMFXLON
 70
0
  9
$DIMJOGANG
 40
0.785398163397
  9
$DIMTFILL
 70
0
  9
$DIMTFILLCLR
 70
0
  9
$DIMARCSYM
 70
0
  9
$DIMLTYPE
  6

  9
$DIMLTEX1
  6

  9
$DIMLTEX2
  6

  9
$DIMTXTDIRECTION
 70
0
  9
$LUNITS
 70
2
  9
$LUPREC
 70
4
  9
$SKETCHINC
 40
1.0
  9
$FILLETRAD
 40
10.0
  9
$AUNITS
 70
0
  9
$AUPREC
 70
2
  9
$MENU
  1
.
  9
$ELEVATION
 40
0.0
  9
$PELEVATION
 40
0.0
  9
$THICKNESS
 40
0.0
  9
$LIMCHECK
 70
0
  9
$CHAMFERA
 40
0.0
  9
$CHAMFERB
 40
0.0
  9
$CHAMFERC
 40
0.0
  9
$CHAMFERD
 40
0.0
  9
$SKPOLY
 70
0
  9
$TDCREATE
 40
2459454.0271643517
  9
$TDUCREATE
 40
2458532.153996898
  9
$TDUPDATE
 40
2459454.0271643517
  9
$TDUUPDATE
 40
2458532.1544311
  9
$TDINDWG
 40
0.0
  9
$TDUSRTIMER
 40
0.0
  9
$USRTIMER
 70
1
  9
$ANGBASE
 50
0.0
  9
$ANGDIR
 70
0
  9
$PDMODE
 70
0
  9
$PDSIZE
 40
0.0
  9
$PLINEWID
 40
0.0
  9
$SPLFRAME
 70
0
  9
$SPLINETYPE
 70
6
  9
$SPLINESEGS
 70
8
  9
$HANDSEED
  5
EC
  9
$SURFTAB1
 70
6
  9
$SURFTAB2
 70
6
  9
$SURFTYPE
 70
6
  9
$SURFU
 70
6
  9
$SURFV
 70
6
  9
$UCSBASE
  2

  9
$UCSNAME
  2

  9
$UCSORG
 10
0.0
 20
0.0
 30
0.0
  9
$UCSXDIR
 10
1.0
 20
0.0
 30
0.0
  9
$UCSYDIR
 10
0.0
 20
1.0
 30
0.0
  9
$UCSORTHOREF
  2

  9
$UCSORTHOVIEW
 70
0
  9
$UCSORGTOP
 10
0.0
 20
0.0
 30
0.0
  9
$UCSORGBOTTOM
 10
0.0
 20
0.0
 30
0.0
  9
$UCSORGLEFT
 10
0.0
 20
0.0
 30
0.0
  9
$UCSORGRIGHT
 10
0.0
 20
0.0
 30
0.0
  9
$UCSORGFRONT
 10
0.0
 20
0.0
 30
0.0
  9
$UCSORGBACK
 10
0.0
 20
0.0
 30
0.0
  9
$PUCSBASE
  2

  9
$PUCSNAME
  2

  9
$PUCSORG
 10
0.0
 20
0.0
 30
0.0
  9
$PUCSXDIR
 10
1.0
 20
0.0
 30
0.0
  9
$PUCSYDIR
 10
0.0
 20
1.0
 30
0.0
  9
$PUCSORTHOREF
  2

  9
$PUCSORTHOVIEW
 70
0
  9
$PUCSORGTOP
 10
0.0
 20
0.0
 30
0.0
  9
$PUCSORGBOTTOM
 10
0.0
 20
0.0
 30
0.0
  9
$PUCSORGLEFT
 10
0.0
 20
0.0
 30
0.0
  9
$PUCSORGRIGHT
 10
0.0
 20
0.0
 30
0.0
  9
$PUCSORGFRONT
 10
0.0
 20
0.0
 30
0.0
  9
$PUCSORGBACK
 10
0.0
 20
0.0
 30
0.0
  9
$USERI1
 70
0
  9
$USERI2
 70
0
  9
$USERI3
 70
0
  9
$USERI4
 70
0
  9
$USERI5
 70
0
  9
$USERR1
 40
0.0
  9
$USERR2
 40
0.0
  9
$USERR3
 40
0.0
  9
$USERR4
 40
0.0
  9
$USERR5
 40
0.0
  9
$WORLDVIEW
 70
1
  9
$SHADEDGE
 70
3
  9
$SHADEDIF
 70
70
  9
$TILEMODE
 70
1
  9
$MAXACTVP
 70
64
  9
$PINSBASE
 10
0.0
 20
0.0
 30
0.0
  9
$PLIMCHECK
 70
0
  9
$PEXTMIN
 10
1e+20
 20
1e+20
 30
1e+20
  9
$PEXTMAX
 10
-1e+20
 20
-1e+20
 30
-1e+20
  9
$PLIMMIN
 10
0.0
 20
0.0
  9
$PLIMMAX
 10
420.0
 20
297.0
  9
$UNITMODE
 70
0
  9
$VISRETAIN
 70
1
  9
$PLINEGEN
 70
0
  9
$PSLTSCALE
 70
1
  9
$TREEDEPTH
 70
3020
  9
$CMLSTYLE
  2
Standard
  9
$CMLJUST
 70
0
  9
$CMLSCALE
 40
20.0
  9
$PROXYGRAPHICS
 70
1
  9
$MEASUREMENT
 70
1
  9
$CELWEIGHT
370
-1
  9
$ENDCAPS
280
0
  9
$JOINSTYLE
280
0
  9
$LWDISPLAY
290
0
  9
$INSUNITS
 70
6
  9
$HYPERLINKBASE
  1

  9
$STYLESHEET
  1

  9
$XEDIT
290
1
  9
$CEPSNTYPE
380
0
  9
$PSTYLEMODE
290
1
  9
$FINGERPRINTGUID
  2
{A029B7EE-8BD7-467D-BCB3-4D7454D6354D}
  9
$VERSIONGUID
  2
{EE50CB1F-F804-4A24-8326-307C122FAA82}
  9
$EXTNAMES
290
1
  9
$PSVPSCALE
 40
0.0
  9
$OLESTARTUP
290
0
  9
$SORTENTS
280
127
  9
$INDEXCTL
280
0
  9
$HIDETEXT
280
1
  9
$XCLIPFRAME
280
0
  9
$HALOGAP
280
0
  9
$OBSCOLOR
 70
257
  9
$OBSLTYPE
280
0
  9
$INTERSECTIONDISPLAY
280
0
  9
$INTERSECTIONCOLOR
 70
257
  9
$DIMASSOC
280
2
  9
$PROJECTNAME
  1

  9
$CAMERADISPLAY
290
0
  9
$LENSLENGTH
 40
50.0
  9
$CAMERAHEIGHT
 40
0.0
  9
$STEPSPERSEC
 40
24.0
  9
$STEPSIZE
 40
100.0
  9
$3DDWFPREC
 40
2.0
  9
$PSOLWIDTH
 40
0.005
  9
$PSOLHEIGHT
 40
0.08
  9
$LOFTANG1
 40
1.570796326795
  9
$LOFTANG2
 40
1.570796326795
  9
$LOFTMAG1
 40
0.0
  9
$LOFTMAG2
 40
0.0
  9
$LOFTPARAM
 70
7
  9
$LOFTNORMALS
280
1
  9
$LATITUDE
 40
37.795
  9
$LONGITUDE
 40
-122.394
  9
$NORTHDIRECTION
 40
0.0
  9
$TIMEZONE
 70
-8000
  9
$LIGHTGLYPHDISPLAY
280
1
  9
$TILEMODELIGHTSYNCH
280
1
  9
$CMATERIAL
347
20
  9
$SOLIDHIST
280
0
  9
$SHOWHIST
280
1
  9
$DWFFRAME
280
2
  9
$DGNFRAME
280
2
  9
$REALWORLDSCALE
290
1
  9
$INTERFERECOLOR
 62
256
  9
$CSHADOW
280
0
  9
$SHADOWPLANELOCATION
 40
0.0
  0
ENDSEC
  0
SECTION
  2
CLASSES
  0
CLASS
  1
ACDBDICTIONARYWDFLT
  2
AcDbDictionaryWithDefault
  3
ObjectDBX Classes
 90
0
 91
0
280
0
281
0
  0
CLASS
  1
SUN
  2
AcDbSun
  3
SCENEOE
 90
1153
 91
0
280
0
281
0
  0
CLASS
  1
VISUALSTYLE
  2
AcDbVisualStyle
  3
ObjectDBX Classes
 90
4095
 91
0
280
0
281
0
  0
CLASS
  1
MATERIAL
  2
AcDbMaterial
  3
ObjectDBX Classes
 90
1153
 91
0
280
0
281
0
  0
CLASS
  1
SCALE
  2
AcDbScale
  3
ObjectDBX Classes
 90
1153
 91
0
280
0
281
0
  0
CLASS
  1
TABLESTYLE
  2
AcDbTableStyle
  3
ObjectDBX Classes
 90
4095
 91
0
280
0
281
0
  0
CLASS
  1
MLEADERSTYLE
  2
AcDbMLeaderStyle
  3
ACDB_MLEADERSTYLE_CLASS
 90
4095
 91
0
280
0
281
0
  0
CLASS
  1
DICTIONARYVAR
  2
AcDbDictionaryVar
  3
ObjectDBX Classes
 90
0
 91
0
280
0
281
0
  0
CLASS
  1
CELLSTYLEMAP
  2
AcDbCellStyleMap
  3
ObjectDBX Classes
 90
1152
 91
0
280
0
281
0
  0
CLASS
  1
MENTALRAYRENDERSETTINGS
  2
AcDbMentalRayRenderSettings
  3
SCENEOE
 90
1024
 91
0
280
0
281
0
  0
CLASS
  1
ACDBDETAILVIEWSTYLE
  2
AcDbDetailViewStyle
  3
ObjectDBX Classes
 90
1025
 91
0
280
0
281
0
  0
CLASS
  1
ACDBSECTIONVIEWSTYLE
  2
AcDbSectionViewStyle
  3
ObjectDBX Classes
 90
1025
 91
0
280
0
281
0
  0
CLASS
  1
RASTERVARIABLES
  2
AcDbRasterVariables
  3
ISM
 90
0
 91
0
280
0
281
0
  0
CLASS
  1
ACDBPLACEHOLDER
  2
AcDbPlaceHolder
  3
ObjectDBX Classes
 90
0
 91
0
280
0
281
0
  0
CLASS
  1
LAYOUT
  2
AcDbLayout
  3
ObjectDBX Classes
 90
0
 91
0
280
0
281
0
  0
ENDSEC
  0
SECTION
  2
TABLES
  0
TABLE
  2
VPORT
  5
8
330
0
100
AcDbSymbolTable
 70
1
  0
VPORT
  5
23
330
8
100
AcDbSymbolTableRecord
100
AcDbViewportTableRecord
  2
*Active
 70
0
 10
0.0
 20
0.0
 11
1.0
 21
1.0
 12
344.2
 22
148.5
 13
0.0
 23
0.0
 14
0.5
 24
0.5
 15
0.5
 25
0.5
 16
0.0
 26
0.0
 36
1.0
 17
0.0
 27
0.0
 37
0.0
 40
297.0
 41
1.34
 42
50.0
 43
0.0
 44
0.0
 50
0.0
 51
0.0
 71
0
 72
1000
 73
1
 74
3
 75
0
 76
0
 77
0
 78
0
281
0
 65
0
146
0.0
  0
ENDTAB
  0
TABLE
  2
LTYPE
  5
2
330
0
100
AcDbSymbolTable
 70
3
  0
LTYPE
  5
24
330
2
100
AcDbSymbolTableRecord
100
AcDbLinetypeTableRecord
  2
ByBlock
 70
0
  3

 72
65
 73
0
 40
0.0
  0
LTYPE
  5
25
330
2
100
AcDbSymbolTableRecord
100
AcDbLinetypeTableRecord
  2
ByLayer
 70
0
  3

 72
65
 73
0
 40
0.0
  0
LTYPE
  5
26
330
2
100
AcDbSymbolTableRecord
100
AcDbLinetypeTableRecord
  2
Continuous
 70
0
  3

 72
65
 73
0
 40
0.0
  0
ENDTAB
  0
TABLE
  2
LAYER
  5
1
330
0
100
AcDbSymbolTable
 70
2
  0
LAYER
  5
27
330
1
100
AcDbSymbolTableRecord
100
AcDbLayerTableRecord
  2
0
 70
0
 62
7
  6
Continuous
370
-3
390
13
347
21
  0
LAYER
  5
28
330
1
100
AcDbSymbolTableRecord
100
AcDbLayerTableRecord
  2
Defpoints
 70
0
 62
7
  6
Continuous
290
0
370
-3
390
13
347
21
  0
ENDTAB
  0
TABLE
  2
STYLE
  5
5
330
0
100
AcDbSymbolTable
 70
1
  0
STYLE
  5
29
330
5
100
AcDbSymbolTableRecord
100
AcDbTextStyleTableRecord
  2
Standard
 70
0
 40
0.0
 41
1.0
 50
0.0
 71
0
 42
2.5
  3
txt
  4

  0
ENDTAB
  0
TABLE
  2
VIEW
  5
7
330
0
100
AcDbSymbolTable
 70
0
  0
ENDTAB
  0
TABLE
  2
UCS
  5
6
330
0
100
AcDbSymbolTable
 70
0
  0
ENDTAB
  0
TABLE
  2
APPID
  5
3
330
0
100
AcDbSymbolTable
 70
3
  0
APPID
  5
2A
330
3
100
AcDbSymbolTableRecord
100
AcDbRegAppTableRecord
  2
ACAD
 70
0
  0
APPID
  5
E9
330
3
100
AcDbSymbolTableRecord
100
AcDbRegAppTableRecord
  2
HATCHBACKGROUNDCOLOR
 70
0
  0
APPID
  5
EA
330
3
100
AcDbSymbolTableRecord
100
AcDbRegAppTableRecord
  2
EZDXF
 70
0
  0
ENDTAB
  0
TABLE
  2
DIMSTYLE
  5
4
330
0
100
AcDbSymbolTable
 70
1
100
AcDbDimStyleTable
  0
DIMSTYLE
105
2B
330
4
100
AcDbSymbolTableRecord
100
AcDbDimStyleTableRecord
  2
Standard
 70
0
 40
1.0
 41
2.5
 42
0.625
 43
3.75
 44
1.25
 45
0.0
 46
0.0
 47
0.0
 48
0.0
 49
2.5
140
2.5
141
2.5
142
0.0
143
0.03937007874
144
1.0
145
0.0
146
1.0
147
0.625
148
0.0
 69
0
 70
0
 71
0
 72
0
 73
0
 74
0
 75
0
 76
0
 77
1
 78
8
 79
0
170
0
171
3
172
1
173
0
174
0
175
0
176
0
177
0
178
0
179
0
271
0
272
2
273
2
274
3
275
0
276
0
277
2
278
44
279
0
280
0
281
0
282
0
283
0
284
8
285
0
286
0
288
0
289
3
290
0
371
-2
372
-2
  0
ENDTAB
  0
TABLE
  2
BLOCK_RECORD
  5
9
330
0
100
AcDbSymbolTable
 70
2
  0
BLOCK_RECORD
  5
17
330
9
100
AcDbSymbolTableRecord
100
AcDbBlockTableRecord
  2
*Model_Space
340
1A
 70
0
280
1
281
0
  0
BLOCK_RECORD
  5
1B
330
9
100
AcDbSymbolTableRecord
100
AcDbBlockTableRecord
  2
*Paper_Space
340
1E
 70
0
280
1
281
0
  0
ENDTAB
  0
ENDSEC
  0
SECTION
  2
BLOCKS
  0
BLOCK
  5
18
330
17
100
AcDbEntity
  8
0
100
AcDbBlockBegin
  2
*Model_Space
 70
0
 10
0.0
 20
0.0
 30
0.0
  3
*Model_Space
  1

  0
ENDBLK
  5
19
330
17
100
AcDbEntity
  8
0
100
AcDbBlockEnd
  0
BLOCK
  5
1C
330
1B
100
AcDbEntity
  8
0
100
AcDbBlockBegin
  2
*Paper_Space
 70
0
 10
0.0
 20
0.0
 30
0.0
  3
*Paper_Space
  1

  0
ENDBLK
  5
1D
330
1B
100
AcDbEntity
  8
0
100
AcDbBlockEnd
  0
ENDSEC
  0
SECTION
  2
ENTITIES
  0
LINE
  5
2F
330
17
100
AcDbEntity
  8
0
100
AcDbLine
 10
18.295301582969707
 20
-58.77574012145296
 30
-2.199999999999977
 11
17.29530158296987
 21
-58.77574012145296
 31
-2.199999999999977
  0
ARC
  5
30
330
17
100
AcDbEntity
  8
0
100
AcDbCircle
 10
18.295301582969707
 20
-53.77574012145296
 30
-2.199999999999974
 40
5.0
100
AcDbArc
 50
270.0
 51
306.0
  0
LINE
  5
31
330
17
100
AcDbEntity
  8
0
100
AcDbLine
 10
35.29542597469463
 20
-47.60476665698249
 30
-2.199999999999955
 11
21.23422784443207
 21
-57.8208250933277
 31
-2.1999999999999735
  0
LINE
  5
32
330
17
100
AcDbEntity
  8
0
100
AcDbLine
 10
86.65799594826228
 20
-27.888523297139976
 30
-2.199999999999972
 11
35.29542597469462
 21
-47.60476665698249
 31
-2.199999999999955
  0
LINE
  5
33
330
17
100
AcDbEntity
  8
0
100
AcDbLine
 10
86.6579959482623
 20
-27.888523297140015
 30
-2.2
 11
88.98736735418498
 21
-19.195190860538403
 31
-2.2
  0
LINE
  5
34
330
17
100
AcDbEntity
  8
0
100
AcDbLine
 10
88.98736735418498
 20
-19.1951908605384
 30
-2.2
 11
93.65526948667099
 21
-17.403351112811897
 31
-2.2
  0
LINE
  5
35
330
17
100
AcDbEntity
  8
0
100
AcDbLine
 10
93.65526948667099
 20
-17.403351112811897
 30
-2.2
 11
101.20330459817981
 21
-22.30510242794714
 31
-2.2
  0
LINE
  5
36
330
17
100
AcDbEntity
  8
0
100
AcDbLine
 10
115.2070109956377
 20
-16.929583184767676
 30
-2.199999999999982
 11
101.20330459817981
 21
-22.305102427947112
 31
-2.199999999999977
  0
ARC
  5
37
330
17
100
AcDbEntity
  8
0
100
AcDbCircle
 10
113.4151712479112
 20
-12.261681052281666
 30
-2.199999999999983
 40
5.0
100
AcDbArc
 50
290.99999999999994
 51
365.49999999999994
  0
LINE
  5
38
330
17
100
AcDbEntity
  8
0
100
AcDbLine
 10
118.39215223974708
 20
-11.782452289680577
 30
-2.199999999999977
 11
113.10040377263438
 21
43.174456789497754
 31
-2.199999999999977
  0
ARC
  5
39
330
17
100
AcDbEntity
  8
0
100
AcDbCircle
 10
108.12342278079849
 20
42.69522802689669
 30
-2.1999999999999944
 40
5.0
100
AcDbArc
 50
365.49999999999994
 51
450.0
  0
LINE
  5
3A
330
17
100
AcDbEntity
  8
0
100
AcDbLine
 10
108.12342278079848
 20
47.69522802689669
 30
-2.2000000000000055
 11
98.12342278079859
 21
47.69522802689669
 31
-2.2000000000000055
  0
LINE
  5
3B
330
17
100
AcDbEntity
  8
0
100
AcDbLine
 10
98.12342278079863
 20
47.69522802689673
 30
-2.2
 11
92.83335551016637
 21
40.4140750775222
 31
-2.2
  0
LINE
  5
3C
330
17
100
AcDbEntity
  8
0
100
AcDbLine
 10
92.83335551016637
 20
40.4140750775222
 30
-2.2
 11
87.83335551016637
 21
40.4140750775222
 31
-2.2
  0
LINE
  5
3D
330
17
100
AcDbEntity
  8
0
100
AcDbLine
 10
87.83335551016637
 20
40.41407507752219
 30
-2.2
 11
82.5432882395341
 21
47.69522802689673
 31
-2.2
  0
LINE
  5
3E
330
17
100
AcDbEntity
  8
0
100
AcDbLine
 10
82.54328823953415
 20
47.69522802689669
 30
-2.2000000000000055
 11
47.19856665363466
 21
47.69522802689669
 31
-2.2000000000000055
  0
LINE
  5
3F
330
17
100
AcDbEntity
  8
0
100
AcDbLine
 10
47.19856665363464
 20
47.695228026896714
 30
-2.2
 11
34.91990006413438
 21
38.77425456242622
 31
-2.2
  0
LINE
  5
40
330
17
100
AcDbEntity
  8
0
100
AcDbLine
 10
34.91990006413438
 20
38.77425456242622
 30
-2.2
 11
-34.91990006413438
 21
38.77425456242622
 31
-2.2
  0
LINE
  5
41
330
17
100
AcDbEntity
  8
0
100
AcDbLine
 10
-34.91990006413438
 20
38.77425456242622
 30
-2.2
 11
-47.19856665363466
 21
47.695228026896714
 31
-2.2
  0
LINE
  5
42
330
17
100
AcDbEntity
  8
0
100
AcDbLine
 10
-82.54328823953415
 20
47.69522802689672
 30
-2.2000000000000055
 11
-47.19856665363466
 21
47.695228026896714
 31
-2.2000000000000055
  0
LINE
  5
43
330
17
100
AcDbEntity
  8
0
100
AcDbLine
 10
-82.54328823953409
 20
47.69522802689672
 30
-2.2
 11
-87.83335551016636
 21
40.41407507752219
 31
-2.2
  0
LINE
  5
44
330
17
100
AcDbEntity
  8
0
100
AcDbLine
 10
-87.83335551016637
 20
40.4140750775222
 30
-2.2
 11
-92.83335551016637
 21
40.4140750775222
 31
-2.2
  0
LINE
  5
45
330
17
100
AcDbEntity
  8
0
100
AcDbLine
 10
-92.83335551016637
 20
40.41407507752219
 30
-2.2
 11
-98.12342278079862
 21
47.69522802689672
 31
-2.2
  0
LINE
  5
46
330
17
100
AcDbEntity
  8
0
100
AcDbLine
 10
-108.12342278079859
 20
47.69522802689673
 30
-2.2000000000000055
 11
-98.12342278079859
 21
47.69522802689673
 31
-2.2000000000000055
  0
ARC
  5
47
330
17
100
AcDbEntity
  8
0
100
AcDbCircle
 10
-108.12342278079863
 20
42.69522802689673
 30
-2.1999999999999944
 40
5.0
100
AcDbArc
 50
90.0
 51
174.50000000000003
  0
LINE
  5
48
330
17
100
AcDbEntity
  8
0
100
AcDbLine
 10
-118.39215223974726
 20
-11.782452289680577
 30
-2.199999999999977
 11
-113.10040377263454
 21
43.17445678949787
 31
-2.199999999999977
  0
ARC
  5
49
330
17
100
AcDbEntity
  8
0
100
AcDbCircle
 10
-113.41517124791135
 20
-12.26168105228163
 30
-2.199999999999983
 40
5.0
100
AcDbArc
 50
174.50000000000003
 51
249.00000000000003
  0
LINE
  5
4A
330
17
100
AcDbEntity
  8
0
100
AcDbLine
 10
-101.20330459817981
 20
-22.305102427947137
 30
-2.1999999999999775
 11
-115.20701099563784
 21
-16.92958318476764
 31
-2.199999999999982
  0
LINE
  5
4B
330
17
100
AcDbEntity
  8
0
100
AcDbLine
 10
-101.20330459817981
 20
-22.30510242794714
 30
-2.2
 11
-93.65526948667099
 21
-17.403351112811897
 31
-2.2
  0
LINE
  5
4C
330
17
100
AcDbEntity
  8
0
100
AcDbLine
 10
-93.65526948667099
 20
-17.4033511128119
 30
-2.2
 11
-88.98736735418498
 21
-19.195190860538403
 31
-2.2
  0
LINE
  5
4D
330
17
100
AcDbEntity
  8
0
100
AcDbLine
 10
-88.98736735418498
 20
-19.195190860538403
 30
-2.2
 11
-86.6579959482623
 21
-27.88852329714002
 31
-2.2
  0
LINE
  5
4E
330
17
100
AcDbEntity
  8
0
100
AcDbLine
 10
-35.29542597469481
 20
-47.60476665698248
 30
-2.199999999999955
 11
-86.65799594826228
 21
-27.888523297140008
 31
-2.199999999999972
  0
LINE
  5
4F
330
17
100
AcDbEntity
  8
0
100
AcDbLine
 10
-21.234227844432233
 20
-57.8208250933277
 30
-2.199999999999973
 11
-35.29542597469481
 21
-47.60476665698248
 31
-2.1999999999999544
  0
ARC
  5
50
330
17
100
AcDbEntity
  8
0
100
AcDbCircle
 10
-18.29530158296987
 20
-53.77574012145296
 30
-2.199999999999974
 40
5.0
100
AcDbArc
 50
234.0
 51
270.0
  0
LINE
  5
51
330
17
100
AcDbEntity
  8
0
100
AcDbLine
 10
-17.29530158296987
 20
-58.775740121452955
 30
-2.199999999999977
 11
-18.29530158296987
 21
-58.775740121452955
 31
-2.199999999999977
  0
LINE
  5
52
330
17
100
AcDbEntity
  8
0
100
AcDbLine
 10
-17.295301582969877
 20
-58.77574012145296
 30
-2.2
 11
-12.005234312337619
 21
-51.49458717207843
 31
-2.2
  0
LINE
  5
53
330
17
100
AcDbEntity
  8
0
100
AcDbLine
 10
-12.00523431233761
 20
-51.49458717207843
 30
-2.2
 11
-7.00523431233761
 21
-51.49458717207843
 31
-2.2
  0
LINE
  5
54
330
17
100
AcDbEntity
  8
0
100
AcDbLine
 10
-7.005234312337615
 20
-51.49458717207843
 30
-2.2
 11
-1.7151670417053548
 21
-58.775740121452955
 31
-2.2
  0
LINE
  5
55
330
17
100
AcDbEntity
  8
0
100
AcDbLine
 10
1.715167041705353
 20
-58.77574012145296
 30
-2.199999999999977
 11
-1.715167041705353
 21
-58.775740121452955
 31
-2.199999999999977
  0
LINE
  5
56
330
17
100
AcDbEntity
  8
0
100
AcDbLine
 10
1.715167041705353
 20
-58.775740121452955
 30
-2.2
 11
7.005234312337613
 21
-51.49458717207844
 31
-2.2
  0
LINE
  5
57
330
17
100
AcDbEntity
  8
0
100
AcDbLine
 10
7.00523431233761
 20
-51.49458717207843
 30
-2.2
 11
12.005234312337612
 21
-51.49458717207843
 31
-2.2
  0
LINE
  5
58
330
17
100
AcDbEntity
  8
0
100
AcDbLine
 10
12.005234312337617
 20
-51.49458717207843
 30
-2.2
 11
17.295301582969877
 21
-58.77574012145296
 31
-2.2
  0
LINE
  5
59
330
17
100
AcDbEntity
  8
0
100
AcDbLine
 10
-19.228993532094773
 20
-54.37574012145297
 30
-2.2000000000000006
 11
-30.555231453344042
 21
-46.14674658935834
 31
-2.2000000000000006
  0
LINE
  5
5A
330
17
100
AcDbEntity
  8
0
100
AcDbLine
 10
-30.555231453344042
 20
-46.14674658935834
 30
-2.2000000000000006
 11
-22.32623792124941
 21
-34.82050866810907
 31
-2.2000000000000006
  0
LINE
  5
5B
330
17
100
AcDbEntity
  8
0
100
AcDbLine
 10
-22.326237921249415
 20
-34.82050866810907
 30
-2.2000000000000006
 11
-11.000000000000153
 21
-43.0495022002037
 31
-2.2000000000000006
  0
LINE
  5
5C
330
17
100
AcDbEntity
  8
0
100
AcDbLine
 10
-11.000000000000153
 20
-43.04950220020369
 30
-2.2000000000000006
 11
-19.228993532094783
 21
-54.37574012145296
 31
-2.2000000000000006
  0
LINE
  5
5D
330
17
100
AcDbEntity
  8
0
100
AcDbLine
 10
-40.85543434563396
 20
-41.22255460997228
 30
-2.2
 11
-53.92556031659478
 21
-36.205403316338064
 31
-2.2
  0
LINE
  5
5E
330
17
100
AcDbEntity
  8
0
100
AcDbLine
 10
-53.92556031659479
 20
-36.205403316338064
 30
-2.2
 11
-48.90840902296058
 21
-23.135277345377236
 31
-2.2
  0
LINE
  5
5F
330
17
100
AcDbEntity
  8
0
100
AcDbLine
 10
-48.90840902296058
 20
-23.135277345377236
 30
-2.2
 11
-35.83828305199975
 21
-28.152428639011447
 31
-2.2
  0
LINE
  5
60
330
17
100
AcDbEntity
  8
0
100
AcDbLine
 10
-35.83828305199976
 20
-28.15242863901144
 30
-2.2
 11
-40.85543434563397
 21
-41.22255460997226
 31
-2.2
  0
CIRCLE
  5
61
330
17
100
AcDbEntity
  8
0
100
AcDbCircle
 10
-21.60523431233762
 20
-26.69232178991195
 30
-2.1999999999999886
 40
1.0999999999999996
  0
LINE
  5
62
330
17
100
AcDbEntity
  8
0
100
AcDbLine
 10
-29.56090416597877
 20
-24.08821595539636
 30
-2.2
 11
-42.6310301369396
 21
-19.071064661762154
 31
-2.2
  0
LINE
  5
63
330
17
100
AcDbEntity
  8
0
100
AcDbLine
 10
-42.63103013693958
 20
-19.071064661762158
 30
-2.2
 11
-37.61387884330537
 21
-6.000938690801336
 31
-2.2
  0
LINE
  5
64
330
17
100
AcDbEntity
  8
0
100
AcDbLine
 10
-37.613878843305386
 20
-6.0009386908013305
 30
-2.2
 11
-24.54375287234456
 21
-11.018089984435539
 31
-2.2
  0
LINE
  5
65
330
17
100
AcDbEntity
  8
0
100
AcDbLine
 10
-24.54375287234456
 20
-11.018089984435539
 30
-2.2
 11
-29.560904165978766
 21
-24.088215955396365
 31
-2.2
  0
LINE
  5
66
330
17
100
AcDbEntity
  8
0
100
AcDbLine
 10
30.555231453343858
 20
-46.14674658935834
 30
-2.2
 11
22.32623792124923
 21
-34.82050866810907
 31
-2.2
  0
LINE
  5
67
330
17
100
AcDbEntity
  8
0
100
AcDbLine
 10
19.22899353209459
 20
-54.37574012145296
 30
-2.2
 11
30.555231453343858
 21
-46.14674658935833
 31
-2.2
  0
LINE
  5
68
330
17
100
AcDbEntity
  8
0
100
AcDbLine
 10
10.999999999999975
 20
-43.04950220020369
 30
-2.2
 11
19.2289935320946
 21
-54.37574012145296
 31
-2.2
  0
LINE
  5
69
330
17
100
AcDbEntity
  8
0
100
AcDbLine
 10
22.326237921249238
 20
-34.82050866810907
 30
-2.2
 11
10.999999999999972
 21
-43.0495022002037
 31
-2.2
  0
LINE
  5
6A
330
17
100
AcDbEntity
  8
0
100
AcDbLine
 10
53.92556031659461
 20
-36.20540331633807
 30
-2.2
 11
48.90840902296041
 21
-23.135277345377244
 31
-2.2
  0
LINE
  5
6B
330
17
100
AcDbEntity
  8
0
100
AcDbLine
 10
40.85543434563379
 20
-41.22255460997228
 30
-2.2
 11
53.92556031659461
 21
-36.20540331633807
 31
-2.2
  0
LINE
  5
6C
330
17
100
AcDbEntity
  8
0
100
AcDbLine
 10
35.838283051999575
 20
-28.15242863901145
 30
-2.2
 11
40.85543434563378
 21
-41.22255460997228
 31
-2.2
  0
LINE
  5
6D
330
17
100
AcDbEntity
  8
0
100
AcDbLine
 10
48.90840902296041
 20
-23.13527734537725
 30
-2.2
 11
35.83828305199958
 21
-28.152428639011458
 31
-2.2
  0
CIRCLE
  5
6E
330
17
100
AcDbEntity
  8
0
100
AcDbCircle
 10
21.60523431233761
 20
-26.692321789911947
 30
-2.1999999999999886
 40
1.100000000000004
  0
LINE
  5
6F
330
17
100
AcDbEntity
  8
0
100
AcDbLine
 10
42.63103013693942
 20
-19.071064661762165
 30
-2.2
 11
37.61387884330522
 21
-6.0009386908013385
 31
-2.2
  0
LINE
  5
70
330
17
100
AcDbEntity
  8
0
100
AcDbLine
 10
29.5609041659786
 20
-24.088215955396368
 30
-2.2
 11
42.63103013693942
 21
-19.071064661762165
 31
-2.2
  0
LINE
  5
71
330
17
100
AcDbEntity
  8
0
100
AcDbLine
 10
24.543752872344395
 20
-11.018089984435543
 30
-2.2
 11
29.5609041659786
 21
-24.08821595539637
 31
-2.2
  0
LINE
  5
72
330
17
100
AcDbEntity
  8
0
100
AcDbLine
 10
37.613878843305216
 20
-6.000938690801341
 30
-2.2
 11
24.543752872344392
 21
-11.018089984435546
 31
-2.2
  0
LINE
  5
73
330
17
100
AcDbEntity
  8
0
100
AcDbLine
 10
59.43547781388905
 20
-12.62044156994676
 30
-2.2
 11
54.41832652025485
 21
0.4496844010140659
 31
-2.2
  0
LINE
  5
74
330
17
100
AcDbEntity
  8
0
100
AcDbLine
 10
46.36535184292823
 20
-17.637592863580966
 30
-2.2
 11
59.43547781388905
 21
-12.620441569946763
 31
-2.2
  0
LINE
  5
75
330
17
100
AcDbEntity
  8
0
100
AcDbLine
 10
41.34820054929402
 20
-4.567466892620139
 30
-2.2
 11
46.36535184292822
 21
-17.63759286358097
 31
-2.2
  0
LINE
  5
76
330
17
100
AcDbEntity
  8
0
100
AcDbLine
 10
54.41832652025485
 20
0.44968440101406326
 30
-2.2
 11
41.34820054929402
 21
-4.567466892620142
 31
-2.2
  0
CIRCLE
  5
77
330
17
100
AcDbEntity
  8
0
100
AcDbCircle
 10
89.04067273788348
 20
-12.778342117412544
 30
-2.1999999999999886
 40
1.0999999999999925
  0
LINE
  5
78
330
17
100
AcDbEntity
  8
0
100
AcDbLine
 10
112.36481334023433
 20
-10.636578599176822
 30
-2.2000000000000006
 11
111.0229728049512
 21
3.298968177963685
 31
-2.2000000000000006
  0
LINE
  5
79
330
17
100
AcDbEntity
  8
0
100
AcDbLine
 10
98.42926656309379
 20
-11.97841913445996
 30
-2.2000000000000006
 11
112.36481334023432
 21
-10.636578599176822
 31
-2.2000000000000006
  0
LINE
  5
7A
330
17
100
AcDbEntity
  8
0
100
AcDbLine
 10
97.08742602781066
 20
1.9571276426805504
 30
-2.2000000000000006
 11
98.4292665630938
 21
-11.978419134459958
 31
-2.2000000000000006
  0
LINE
  5
7B
330
17
100
AcDbEntity
  8
0
100
AcDbLine
 10
111.0229728049512
 20
3.298968177963687
 30
-2.2000000000000006
 11
97.08742602781066
 21
1.9571276426805482
 31
-2.2000000000000006
  0
LINE
  5
7C
330
17
100
AcDbEntity
  8
0
100
AcDbLine
 10
93.45820565938182
 20
-2.207400259329134
 30
-2.2
 11
89.3650017932635
 21
11.180866324153364
 31
-2.2
  0
LINE
  5
7D
330
17
100
AcDbEntity
  8
0
100
AcDbLine
 10
80.06993907589933
 20
-6.300604125447452
 30
-2.2
 11
93.45820565938182
 21
-2.2074002593291375
 31
-2.2
  0
LINE
  5
7E
330
17
100
AcDbEntity
  8
0
100
AcDbLine
 10
75.97673520978101
 20
7.0876624580350605
 30
-2.2
 11
80.06993907589933
 21
-6.300604125447444
 31
-2.2
  0
LINE
  5
7F
330
17
100
AcDbEntity
  8
0
100
AcDbLine
 10
89.3650017932635
 20
11.180866324153367
 30
-2.2
 11
75.976735209781
 21
7.087662458035052
 31
-2.2
  0
LINE
  5
80
330
17
100
AcDbEntity
  8
0
100
AcDbLine
 10
110.73543554739052
 20
6.2851567730652205
 30
-2.2000000000000006
 11
109.39359501210738
 21
20.220703550205734
 31
-2.2000000000000006
  0
LINE
  5
81
330
17
100
AcDbEntity
  8
0
100
AcDbLine
 10
96.79988877024999
 20
4.9433162377820885
 30
-2.2000000000000006
 11
110.73543554739052
 21
6.2851567730652285
 31
-2.2000000000000006
  0
LINE
  5
82
330
17
100
AcDbEntity
  8
0
100
AcDbLine
 10
95.45804823496688
 20
18.878863014922597
 30
-2.2000000000000006
 11
96.79988877025002
 21
4.9433162377820885
 31
-2.2000000000000006
  0
LINE
  5
83
330
17
100
AcDbEntity
  8
0
100
AcDbLine
 10
109.39359501210738
 20
20.220703550205737
 30
-2.2000000000000006
 11
95.45804823496687
 21
18.8788630149226
 31
-2.2000000000000006
  0
LINE
  5
84
330
17
100
AcDbEntity
  8
0
100
AcDbLine
 10
36.53877499466932
 20
-3.200197411309734
 30
-2.2
 11
31.521623701035118
 21
9.86992855965109
 31
-2.2
  0
LINE
  5
85
330
17
100
AcDbEntity
  8
0
100
AcDbLine
 10
23.468649023708494
 20
-8.217348704943936
 30
-2.2
 11
36.53877499466932
 21
-3.2001974113097313
 31
-2.2
  0
LINE
  5
86
330
17
100
AcDbEntity
  8
0
100
AcDbLine
 10
18.45149773007429
 20
4.852777266016886
 30
-2.2
 11
23.468649023708494
 21
-8.217348704943939
 31
-2.2
  0
LINE
  5
87
330
17
100
AcDbEntity
  8
0
100
AcDbLine
 10
31.52162370103511
 20
9.869928559651086
 30
-2.2
 11
18.451497730074287
 21
4.852777266016883
 31
-2.2
  0
LINE
  5
88
330
17
100
AcDbEntity
  8
0
100
AcDbLine
 10
53.343222671618946
 20
3.250425680505674
 30
-2.2
 11
48.326071377984746
 21
16.3205516514665
 31
-2.2
  0
LINE
  5
89
330
17
100
AcDbEntity
  8
0
100
AcDbLine
 10
40.27309670065812
 20
-1.7667256131285343
 30
-2.2
 11
53.343222671618946
 21
3.25042568050567
 31
-2.2
  0
LINE
  5
8A
330
17
100
AcDbEntity
  8
0
100
AcDbLine
 10
35.255945407023916
 20
11.303400357832292
 30
-2.2
 11
40.27309670065812
 21
-1.7667256131285374
 31
-2.2
  0
LINE
  5
8B
330
17
100
AcDbEntity
  8
0
100
AcDbLine
 10
48.326071377984746
 20
16.32055165146649
 30
-2.2
 11
35.255945407023916
 21
11.303400357832286
 31
-2.2
  0
LINE
  5
8C
330
17
100
AcDbEntity
  8
0
100
AcDbLine
 10
74.80645369265747
 20
-2.4354967721425504
 30
-2.2
 11
69.78930239902327
 21
10.634629198818274
 31
-2.2
  0
LINE
  5
8D
330
17
100
AcDbEntity
  8
0
100
AcDbLine
 10
61.73632772169666
 20
-7.452648065776751
 30
-2.2
 11
74.80645369265748
 21
-2.435496772142548
 31
-2.2
  0
LINE
  5
8E
330
17
100
AcDbEntity
  8
0
100
AcDbLine
 10
56.719176428062454
 20
5.617477905184069
 30
-2.2
 11
61.736327721696654
 21
-7.452648065776755
 31
-2.2
  0
LINE
  5
8F
330
17
100
AcDbEntity
  8
0
100
AcDbLine
 10
69.78930239902328
 20
10.634629198818272
 30
-2.2
 11
56.719176428062454
 21
5.617477905184066
 31
-2.2
  0
LINE
  5
90
330
17
100
AcDbEntity
  8
0
100
AcDbLine
 10
88.48788667909531
 20
14.049780592042476
 30
-2.2
 11
84.394682812977
 21
27.438047175524975
 31
-2.2
  0
LINE
  5
91
330
17
100
AcDbEntity
  8
0
100
AcDbLine
 10
75.09962009561279
 20
9.956576725924162
 30
-2.2
 11
88.48788667909528
 21
14.049780592042474
 31
-2.2
  0
LINE
  5
92
330
17
100
AcDbEntity
  8
0
100
AcDbLine
 10
71.00641622949449
 20
23.344843309406656
 30
-2.2
 11
75.0996200956128
 21
9.956576725924162
 31
-2.2
  0
LINE
  5
93
330
17
100
AcDbEntity
  8
0
100
AcDbLine
 10
84.39468281297698
 20
27.43804717552498
 30
-2.2
 11
71.00641622949448
 21
23.344843309406663
 31
-2.2
  0
LINE
  5
94
330
17
100
AcDbEntity
  8
0
100
AcDbLine
 10
109.10605775454671
 20
23.206892145307275
 30
-2.2000000000000006
 11
107.76421721926357
 21
37.14243892244778
 31
-2.2000000000000006
  0
LINE
  5
95
330
17
100
AcDbEntity
  8
0
100
AcDbLine
 10
95.1705109774062
 20
21.865051610024132
 30
-2.2000000000000006
 11
109.10605775454673
 21
23.206892145307272
 31
-2.2000000000000006
  0
LINE
  5
96
330
17
100
AcDbEntity
  8
0
100
AcDbLine
 10
93.82867044212307
 20
35.80059838716464
 30
-2.2000000000000006
 11
95.17051097740621
 21
21.865051610024132
 31
-2.2000000000000006
  0
LINE
  5
97
330
17
100
AcDbEntity
  8
0
100
AcDbLine
 10
107.7642172192636
 20
37.14243892244779
 30
-2.2000000000000006
 11
93.82867044212307
 21
35.800598387164655
 31
-2.2000000000000006
  0
LINE
  5
98
330
17
100
AcDbEntity
  8
0
100
AcDbLine
 10
68.7141985503874
 20
13.435370478309885
 30
-2.2
 11
63.69704725675319
 21
26.505496449270712
 31
-2.2
  0
LINE
  5
99
330
17
100
AcDbEntity
  8
0
100
AcDbLine
 10
55.644072579426556
 20
8.418219184675676
 30
-2.2
 11
68.71419855038738
 21
13.435370478309881
 31
-2.2
  0
LINE
  5
9A
330
17
100
AcDbEntity
  8
0
100
AcDbLine
 10
50.62692128579236
 20
21.488345155636505
 30
-2.2
 11
55.64407257942656
 21
8.41821918467568
 31
-2.2
  0
LINE
  5
9B
330
17
100
AcDbEntity
  8
0
100
AcDbLine
 10
63.69704725675318
 20
26.50549644927071
 30
-2.2
 11
50.62692128579235
 21
21.488345155636505
 31
-2.2
  0
LINE
  5
9C
330
17
100
AcDbEntity
  8
0
100
AcDbLine
 10
83.51756769880876
 20
30.306961443414075
 30
-2.2
 11
79.42436383269046
 21
43.69522802689657
 31
-2.2
  0
LINE
  5
9D
330
17
100
AcDbEntity
  8
0
100
AcDbLine
 10
70.12930111532626
 20
26.213757577295766
 30
-2.2
 11
83.51756769880876
 21
30.30696144341408
 31
-2.2
  0
LINE
  5
9E
330
17
100
AcDbEntity
  8
0
100
AcDbLine
 10
66.03609724920796
 20
39.60202416077827
 30
-2.2
 11
70.12930111532627
 21
26.213757577295766
 31
-2.2
  0
LINE
  5
9F
330
17
100
AcDbEntity
  8
0
100
AcDbLine
 10
79.42436383269046
 20
43.69522802689659
 30
-2.2
 11
66.03609724920794
 21
39.60202416077827
 31
-2.2
  0
CIRCLE
  5
A0
330
17
100
AcDbEntity
  8
0
100
AcDbCircle
 10
87.83335551016627
 20
37.21180969535569
 30
-2.1999999999999886
 40
1.099999999999998
  0
CIRCLE
  5
A1
330
17
100
AcDbEntity
  8
0
100
AcDbCircle
 10
-89.04067273788348
 20
-12.778342117412526
 30
-2.1999999999999886
 40
1.0999999999999925
  0
LINE
  5
A2
330
17
100
AcDbEntity
  8
0
100
AcDbLine
 10
-98.42926656309398
 20
-11.978419134459937
 30
-2.2000000000000006
 11
-112.36481334023448
 21
-10.636578599176797
 31
-2.2000000000000006
  0
LINE
  5
A3
330
17
100
AcDbEntity
  8
0
100
AcDbLine
 10
-112.3648133402345
 20
-10.636578599176797
 30
-2.2000000000000006
 11
-111.02297280495137
 21
3.298968177963709
 31
-2.2000000000000006
  0
LINE
  5
A4
330
17
100
AcDbEntity
  8
0
100
AcDbLine
 10
-111.02297280495138
 20
3.2989681779637126
 30
-2.2000000000000006
 11
-97.08742602781085
 21
1.95712764268057
 31
-2.2000000000000006
  0
LINE
  5
A5
330
17
100
AcDbEntity
  8
0
100
AcDbLine
 10
-97.08742602781084
 20
1.9571276426805717
 30
-2.2000000000000006
 11
-98.42926656309398
 21
-11.978419134459937
 31
-2.2000000000000006
  0
LINE
  5
A6
330
17
100
AcDbEntity
  8
0
100
AcDbLine
 10
-61.736327721696824
 20
-7.4526480657767475
 30
-2.2
 11
-74.80645369265766
 21
-2.435496772142539
 31
-2.2
  0
LINE
  5
A7
330
17
100
AcDbEntity
  8
0
100
AcDbLine
 10
-74.80645369265764
 20
-2.4354967721425353
 30
-2.2
 11
-69.78930239902343
 21
10.634629198818287
 31
-2.2
  0
LINE
  5
A8
330
17
100
AcDbEntity
  8
0
100
AcDbLine
 10
-69.78930239902343
 20
10.634629198818288
 30
-2.2
 11
-56.71917642806261
 21
5.6174779051840815
 31
-2.2
  0
LINE
  5
A9
330
17
100
AcDbEntity
  8
0
100
AcDbLine
 10
-56.71917642806262
 20
5.617477905184084
 30
-2.2
 11
-61.736327721696824
 21
-7.452648065776737
 31
-2.2
  0
LINE
  5
AA
330
17
100
AcDbEntity
  8
0
100
AcDbLine
 10
-80.0699390758995
 20
-6.3006041254474265
 30
-2.2
 11
-93.45820565938199
 21
-2.207400259329109
 31
-2.2
  0
LINE
  5
AB
330
17
100
AcDbEntity
  8
0
100
AcDbLine
 10
-93.45820565938197
 20
-2.2074002593291127
 30
-2.2
 11
-89.36500179326366
 21
11.180866324153383
 31
-2.2
  0
LINE
  5
AC
330
17
100
AcDbEntity
  8
0
100
AcDbLine
 10
-89.36500179326367
 20
11.180866324153385
 30
-2.2
 11
-75.97673520978117
 21
7.087662458035069
 31
-2.2
  0
LINE
  5
AD
330
17
100
AcDbEntity
  8
0
100
AcDbLine
 10
-75.97673520978115
 20
7.087662458035066
 30
-2.2
 11
-80.06993907589947
 21
-6.300604125447438
 31
-2.2
  0
LINE
  5
AE
330
17
100
AcDbEntity
  8
0
100
AcDbLine
 10
-46.36535184292839
 20
-17.637592863580956
 30
-2.2
 11
-59.43547781388922
 21
-12.620441569946745
 31
-2.2
  0
LINE
  5
AF
330
17
100
AcDbEntity
  8
0
100
AcDbLine
 10
-59.43547781388923
 20
-12.620441569946745
 30
-2.2
 11
-54.41832652025502
 21
0.44968440101407836
 31
-2.2
  0
LINE
  5
B0
330
17
100
AcDbEntity
  8
0
100
AcDbLine
 10
-54.41832652025502
 20
0.4496844010140819
 30
-2.2
 11
-41.34820054929419
 21
-4.5674668926201285
 31
-2.2
  0
LINE
  5
B1
330
17
100
AcDbEntity
  8
0
100
AcDbLine
 10
-41.3482005492942
 20
-4.567466892620127
 30
-2.2
 11
-46.365351842928405
 21
-17.637592863580952
 31
-2.2
  0
LINE
  5
B2
330
17
100
AcDbEntity
  8
0
100
AcDbLine
 10
-23.468649023708664
 20
-8.21734870494393
 30
-2.2
 11
-36.538774994669495
 21
-3.2001974113097233
 31
-2.2
  0
LINE
  5
B3
330
17
100
AcDbEntity
  8
0
100
AcDbLine
 10
-36.53877499466949
 20
-3.200197411309725
 30
-2.2
 11
-31.521623701035285
 21
9.869928559651099
 31
-2.2
  0
LINE
  5
B4
330
17
100
AcDbEntity
  8
0
100
AcDbLine
 10
-31.521623701035278
 20
9.869928559651097
 30
-2.2
 11
-18.45149773007445
 21
4.852777266016887
 31
-2.2
  0
LINE
  5
B5
330
17
100
AcDbEntity
  8
0
100
AcDbLine
 10
-18.45149773007445
 20
4.852777266016888
 30
-2.2
 11
-23.468649023708657
 21
-8.217348704943937
 31
-2.2
  0
LINE
  5
B6
330
17
100
AcDbEntity
  8
0
100
AcDbLine
 10
-40.273096700658286
 20
-1.7667256131285267
 30
-2.2
 11
-53.34322267161912
 21
3.250425680505682
 31
-2.2
  0
LINE
  5
B7
330
17
100
AcDbEntity
  8
0
100
AcDbLine
 10
-53.3432226716191
 20
3.2504256805056784
 30
-2.2
 11
-48.326071377984896
 21
16.320551651466506
 31
-2.2
  0
LINE
  5
B8
330
17
100
AcDbEntity
  8
0
100
AcDbLine
 10
-48.32607137798492
 20
16.320551651466506
 30
-2.2
 11
-35.255945407024086
 21
11.303400357832299
 31
-2.2
  0
LINE
  5
B9
330
17
100
AcDbEntity
  8
0
100
AcDbLine
 10
-35.25594540702407
 20
11.30340035783229
 30
-2.2
 11
-40.27309670065828
 21
-1.7667256131285338
 31
-2.2
  0
LINE
  5
BA
330
17
100
AcDbEntity
  8
0
100
AcDbLine
 10
-17.376393881438556
 20
7.653518545508493
 30
-2.2
 11
-30.446519852399387
 21
12.6706698391427
 31
-2.2
  0
LINE
  5
BB
330
17
100
AcDbEntity
  8
0
100
AcDbLine
 10
-30.446519852399373
 20
12.6706698391427
 30
-2.2
 11
-25.429368558765166
 21
25.74079581010352
 31
-2.2
  0
LINE
  5
BC
330
17
100
AcDbEntity
  8
0
100
AcDbLine
 10
-25.42936855876517
 20
25.740795810103528
 30
-2.2
 11
-12.359242587804342
 21
20.723644516469317
 31
-2.2
  0
LINE
  5
BD
330
17
100
AcDbEntity
  8
0
100
AcDbLine
 10
-12.359242587804346
 20
20.72364451646931
 30
-2.2
 11
-17.376393881438553
 21
7.653518545508488
 31
-2.2
  0
LINE
  5
BE
330
17
100
AcDbEntity
  8
0
100
AcDbLine
 10
-55.64407257942672
 20
8.418219184675685
 30
-2.2
 11
-68.71419855038755
 21
13.435370478309892
 31
-2.2
  0
LINE
  5
BF
330
17
100
AcDbEntity
  8
0
100
AcDbLine
 10
-68.71419855038754
 20
13.435370478309894
 30
-2.2
 11
-63.69704725675333
 21
26.50549644927072
 31
-2.2
  0
LINE
  5
C0
330
17
100
AcDbEntity
  8
0
100
AcDbLine
 10
-63.697047256753336
 20
26.505496449270723
 30
-2.2
 11
-50.62692128579252
 21
21.488345155636516
 31
-2.2
  0
LINE
  5
C1
330
17
100
AcDbEntity
  8
0
100
AcDbLine
 10
-50.62692128579251
 20
21.488345155636512
 30
-2.2
 11
-55.64407257942672
 21
8.418219184675689
 31
-2.2
  0
LINE
  5
C2
330
17
100
AcDbEntity
  8
0
100
AcDbLine
 10
-34.18084155838818
 20
14.104141637323904
 30
-2.2
 11
-47.250967529349005
 21
19.121292930958113
 31
-2.2
  0
LINE
  5
C3
330
17
100
AcDbEntity
  8
0
100
AcDbLine
 10
-47.25096752934901
 20
19.12129293095811
 30
-2.2
 11
-42.233816235714805
 21
32.19141890191894
 31
-2.2
  0
LINE
  5
C4
330
17
100
AcDbEntity
  8
0
100
AcDbLine
 10
-42.23381623571481
 20
32.19141890191893
 30
-2.2
 11
-29.163690264753978
 21
27.174267608284723
 31
-2.2
  0
LINE
  5
C5
330
17
100
AcDbEntity
  8
0
100
AcDbLine
 10
-29.163690264753964
 20
27.17426760828472
 30
-2.2
 11
-34.180841558388174
 21
14.104141637323897
 31
-2.2
  0
CIRCLE
  5
C6
330
17
100
AcDbEntity
  8
0
100
AcDbCircle
 10
-22.90019700917813
 20
33.224475510135825
 30
-2.1999999999999886
 40
1.100000000000002
  0
LINE
  5
C7
330
17
100
AcDbEntity
  8
0
100
AcDbLine
 10
-96.79988877025018
 20
4.94331623778211
 30
-2.2000000000000006
 11
-110.73543554739071
 21
6.285156773065253
 31
-2.2000000000000006
  0
LINE
  5
C8
330
17
100
AcDbEntity
  8
0
100
AcDbLine
 10
-110.73543554739072
 20
6.285156773065252
 30
-2.2000000000000006
 11
-109.39359501210758
 21
20.220703550205762
 31
-2.2000000000000006
  0
LINE
  5
C9
330
17
100
AcDbEntity
  8
0
100
AcDbLine
 10
-109.39359501210755
 20
20.220703550205762
 30
-2.2000000000000006
 11
-95.45804823496705
 21
18.878863014922622
 31
-2.2000000000000006
  0
LINE
  5
CA
330
17
100
AcDbEntity
  8
0
100
AcDbLine
 10
-95.45804823496705
 20
18.878863014922615
 30
-2.2000000000000006
 11
-96.79988877025019
 21
4.94331623778211
 31
-2.2000000000000006
  0
LINE
  5
CB
330
17
100
AcDbEntity
  8
0
100
AcDbLine
 10
-75.09962009561295
 20
9.956576725924174
 30
-2.2
 11
-88.48788667909545
 21
14.049780592042493
 31
-2.2
  0
LINE
  5
CC
330
17
100
AcDbEntity
  8
0
100
AcDbLine
 10
-88.48788667909547
 20
14.049780592042497
 30
-2.2
 11
-84.39468281297715
 21
27.438047175524996
 31
-2.2
  0
LINE
  5
CD
330
17
100
AcDbEntity
  8
0
100
AcDbLine
 10
-84.39468281297715
 20
27.438047175525
 30
-2.2
 11
-71.00641622949465
 21
23.344843309406677
 31
-2.2
  0
LINE
  5
CE
330
17
100
AcDbEntity
  8
0
100
AcDbLine
 10
-71.00641622949463
 20
23.34484330940667
 30
-2.2
 11
-75.09962009561295
 21
9.956576725924176
 31
-2.2
  0
LINE
  5
CF
330
17
100
AcDbEntity
  8
0
100
AcDbLine
 10
-95.17051097740637
 20
21.865051610024157
 30
-2.2000000000000006
 11
-109.10605775454688
 21
23.2068921453073
 31
-2.2000000000000006
  0
LINE
  5
D0
330
17
100
AcDbEntity
  8
0
100
AcDbLine
 10
-109.10605775454691
 20
23.206892145307293
 30
-2.2000000000000006
 11
-107.76421721926377
 21
37.14243892244781
 31
-2.2000000000000006
  0
LINE
  5
D1
330
17
100
AcDbEntity
  8
0
100
AcDbLine
 10
-107.76421721926374
 20
37.14243892244781
 30
-2.2000000000000006
 11
-93.82867044212324
 21
35.80059838716467
 31
-2.2000000000000006
  0
LINE
  5
D2
330
17
100
AcDbEntity
  8
0
100
AcDbLine
 10
-93.82867044212323
 20
35.80059838716466
 30
-2.2000000000000006
 11
-95.17051097740637
 21
21.865051610024157
 31
-2.2000000000000006
  0
LINE
  5
D3
330
17
100
AcDbEntity
  8
0
100
AcDbLine
 10
-70.12930111532641
 20
26.21375757729578
 30
-2.2
 11
-83.51756769880893
 21
30.306961443414103
 31
-2.2
  0
LINE
  5
D4
330
17
100
AcDbEntity
  8
0
100
AcDbLine
 10
-83.51756769880893
 20
30.306961443414096
 30
-2.2
 11
-79.42436383269062
 21
43.695228026896594
 31
-2.2
  0
LINE
  5
D5
330
17
100
AcDbEntity
  8
0
100
AcDbLine
 10
-79.42436383269062
 20
43.69522802689661
 30
-2.2
 11
-66.0360972492081
 21
39.602024160778285
 31
-2.2
  0
LINE
  5
D6
330
17
100
AcDbEntity
  8
0
100
AcDbLine
 10
-66.0360972492081
 20
39.60202416077827
 30
-2.2
 11
-70.12930111532641
 21
26.21375757729577
 31
-2.2
  0
CIRCLE
  5
D7
330
17
100
AcDbEntity
  8
0
100
AcDbCircle
 10
-87.83335551016627
 20
37.21180969535569
 30
-2.1999999999999886
 40
1.099999999999998
  0
LINE
  5
D8
330
17
100
AcDbEntity
  8
0
100
AcDbLine
 10
-57.604792114483224
 20
42.37636369972315
 30
-2.2
 11
-44.5346661435224
 21
37.35921240608894
 31
-2.2
  0
LINE
  5
D9
330
17
100
AcDbEntity
  8
0
100
AcDbLine
 10
-44.534666143522415
 20
37.35921240608894
 30
-2.2
 11
-49.55181743715662
 21
24.289086435128112
 31
-2.2
  0
LINE
  5
DA
330
17
100
AcDbEntity
  8
0
100
AcDbLine
 10
-49.55181743715661
 20
24.289086435128112
 30
-2.2
 11
-62.62194340811743
 21
29.30623772876232
 31
-2.2
  0
LINE
  5
DB
330
17
100
AcDbEntity
  8
0
100
AcDbLine
 10
-62.62194340811743
 20
29.30623772876232
 30
-2.2
 11
-57.60479211448322
 21
42.37636369972316
 31
-2.2
  0
LINE
  5
DC
330
17
100
AcDbEntity
  8
0
100
AcDbLine
 10
30.446519852399216
 20
12.670669839142697
 30
-2.2
 11
25.429368558765013
 21
25.74079581010352
 31
-2.2
  0
LINE
  5
DD
330
17
100
AcDbEntity
  8
0
100
AcDbLine
 10
17.37639388143839
 20
7.6535185455084935
 30
-2.2
 11
30.446519852399213
 21
12.670669839142697
 31
-2.2
  0
LINE
  5
DE
330
17
100
AcDbEntity
  8
0
100
AcDbLine
 10
12.359242587804188
 20
20.723644516469314
 30
-2.2
 11
17.37639388143839
 21
7.653518545508488
 31
-2.2
  0
LINE
  5
DF
330
17
100
AcDbEntity
  8
0
100
AcDbLine
 10
25.429368558765006
 20
25.740795810103517
 30
-2.2
 11
12.359242587804182
 21
20.723644516469314
 31
-2.2
  0
LINE
  5
E0
330
17
100
AcDbEntity
  8
0
100
AcDbLine
 10
47.25096752934884
 20
19.121292930958102
 30
-2.2
 11
42.23381623571464
 21
32.19141890191892
 31
-2.2
  0
LINE
  5
E1
330
17
100
AcDbEntity
  8
0
100
AcDbLine
 10
34.18084155838802
 20
14.104141637323897
 30
-2.2
 11
47.25096752934884
 21
19.1212929309581
 31
-2.2
  0
LINE
  5
E2
330
17
100
AcDbEntity
  8
0
100
AcDbLine
 10
29.163690264753825
 20
27.174267608284715
 30
-2.2
 11
34.180841558388025
 21
14.104141637323895
 31
-2.2
  0
LINE
  5
E3
330
17
100
AcDbEntity
  8
0
100
AcDbLine
 10
42.23381623571464
 20
32.19141890191892
 30
-2.2
 11
29.163690264753814
 21
27.17426760828472
 31
-2.2
  0
CIRCLE
  5
E4
330
17
100
AcDbEntity
  8
0
100
AcDbCircle
 10
22.90019700917813
 20
33.224475510135825
 30
-2.1999999999999886
 40
1.100000000000002
  0
LINE
  5
E5
330
17
100
AcDbEntity
  8
0
100
AcDbLine
 10
62.62194340811728
 20
29.306237728762312
 30
-2.2
 11
57.604792114483075
 21
42.37636369972314
 31
-2.2
  0
LINE
  5
E6
330
17
100
AcDbEntity
  8
0
100
AcDbLine
 10
49.55181743715645
 20
24.289086435128105
 30
-2.2
 11
62.621943408117275
 21
29.30623772876231
 31
-2.2
  0
LINE
  5
E7
330
17
100
AcDbEntity
  8
0
100
AcDbLine
 10
44.534666143522244
 20
37.35921240608894
 30
-2.2
 11
49.55181743715646
 21
24.289086435128105
 31
-2.2
  0
LINE
  5
E8
330
17
100
AcDbEntity
  8
0
100
AcDbLine
 10
57.604792114483075
 20
42.37636369972313
 30
-2.2
 11
44.534666143522244
 21
37.35921240608892
 31
-2.2
  0
ENDSEC
  0
SECTION
  2
OBJECTS
  0
DICTIONARY
  5
A
330
0
100
AcDbDictionary
281
1
  3
ACAD_COLOR
350
B
  3
ACAD_GROUP
350
C
  3
ACAD_LAYOUT
350
D
  3
ACAD_MATERIAL
350
E
  3
ACAD_MLEADERSTYLE
350
F
  3
ACAD_MLINESTYLE
350
10
  3
ACAD_PLOTSETTINGS
350
11
  3
ACAD_PLOTSTYLENAME
350
12
  3
ACAD_SCALELIST
350
14
  3
ACAD_TABLESTYLE
350
15
  3
ACAD_VISUALSTYLE
350
16
  3
EZDXF_META
350
2D
  0
DICTIONARY
  5
B
330
A
100
AcDbDictionary
281
1
  0
DICTIONARY
  5
C
330
A
100
AcDbDictionary
281
1
  0
DICTIONARY
  5
D
330
A
100
AcDbDictionary
281
1
  3
Model
350
1A
  3
Layout1
350
1E
  0
DICTIONARY
  5
E
330
A
100
AcDbDictionary
281
1
  3
ByBlock
350
1F
  3
ByLayer
350
20
  3
Global
350
21
  0
DICTIONARY
  5
F
330
A
100
AcDbDictionary
281
1
  3
Standard
350
2C
  0
DICTIONARY
  5
10
330
A
100
AcDbDictionary
281
1
  3
Standard
350
22
  0
DICTIONARY
  5
11
330
A
100
AcDbDictionary
281
1
  0
ACDBDICTIONARYWDFLT
  5
12
330
A
100
AcDbDictionary
281
1
  3
Normal
350
13
100
AcDbDictionaryWithDefault
340
13
  0
ACDBPLACEHOLDER
  5
13
330
12
  0
DICTIONARY
  5
14
330
A
100
AcDbDictionary
281
1
  0
DICTIONARY
  5
15
330
A
100
AcDbDictionary
281
1
  0
DICTIONARY
  5
16
330
A
100
AcDbDictionary
281
1
  0
LAYOUT
  5
1A
330
D
100
AcDbPlotSettings
  1

  2
Adobe PDF
  4
A3
  6

 40
7.5
 41
20.0
 42
7.5
 43
20.0
 44
420.0
 45
297.0
 46
0.0
 47
0.0
 48
0.0
 49
0.0
140
0.0
141
0.0
142
1.0
143
1.0
 70
1024
 72
1
 73
1
 74
5
  7

 75
16
 76
0
 77
2
 78
300
147
1.0
148
0.0
149
0.0
100
AcDbLayout
  1
Model
 70
1
 71
0
 10
0.0
 20
0.0
 11
420.0
 21
297.0
 12
0.0
 22
0.0
 32
0.0
 14
1e+20
 24
1e+20
 34
1e+20
 15
-1e+20
 25
-1e+20
 35
-1e+20
146
0.0
 13
0.0
 23
0.0
 33
0.0
 16
1.0
 26
0.0
 36
0.0
 17
0.0
 27
1.0
 37
0.0
 76
1
330
17
  0
LAYOUT
  5
1E
330
D
100
AcDbPlotSettings
  1

  2
Adobe PDF
  4
A3
  6

 40
7.5
 41
20.0
 42
7.5
 43
20.0
 44
420.0
 45
297.0
 46
0.0
 47
0.0
 48
0.0
 49
0.0
140
0.0
141
0.0
142
1.0
143
1.0
 70
0
 72
1
 73
1
 74
5
  7

 75
16
 76
0
 77
2
 78
300
147
1.0
148
0.0
149
0.0
100
AcDbLayout
  1
Layout1
 70
1
 71
1
 10
0.0
 20
0.0
 11
420.0
 21
297.0
 12
0.0
 22
0.0
 32
0.0
 14
1e+20
 24
1e+20
 34
1e+20
 15
-1e+20
 25
-1e+20
 35
-1e+20
146
0.0
 13
0.0
 23
0.0
 33
0.0
 16
1.0
 26
0.0
 36
0.0
 17
0.0
 27
1.0
 37
0.0
 76
1
330
1B
  0
MATERIAL
  5
1F
102
{ACAD_REACTORS
330
E
102
}
330
E
100
AcDbMaterial
  1
ByBlock
  2

 70
0
 40
1.0
 71
1
 41
1.0
 91
-1023410177
 42
1.0
 72
1
  3

 73
1
 74
1
 75
1
 44
0.5
 73
0
 45
1.0
 46
1.0
 77
1
  4

 78
1
 79
1
170
1
 48
1.0
171
1
  6

172
1
173
1
174
1
140
1.0
141
1.0
175
1
  7

176
1
177
1
178
1
143
1.0
179
1
  8

270
1
271
1
272
1
145
1.0
146
1.0
273
1
  9

274
1
275
1
276
1
 42
1.0
 72
1
  3

 73
1
 74
1
 75
1
 94
63
  0
MATERIAL
  5
20
102
{ACAD_REACTORS
330
E
102
}
330
E
100
AcDbMaterial
  1
ByLayer
  2

 70
0
 40
1.0
 71
1
 41
1.0
 91
-1023410177
 42
1.0
 72
1
  3

 73
1
 74
1
 75
1
 44
0.5
 73
0
 45
1.0
 46
1.0
 77
1
  4

 78
1
 79
1
170
1
 48
1.0
171
1
  6

172
1
173
1
174
1
140
1.0
141
1.0
175
1
  7

176
1
177
1
178
1
143
1.0
179
1
  8

270
1
271
1
272
1
145
1.0
146
1.0
273
1
  9

274
1
275
1
276
1
 42
1.0
 72
1
  3

 73
1
 74
1
 75
1
 94
63
  0
MATERIAL
  5
21
102
{ACAD_REACTORS
330
E
102
}
330
E
100
AcDbMaterial
  1
Global
  2

 70
0
 40
1.0
 71
1
 41
1.0
 91
-1023410177
 42
1.0
 72
1
  3

 73
1
 74
1
 75
1
 44
0.5
 73
0
 45
1.0
 46
1.0
 77
1
  4

 78
1
 79
1
170
1
 48
1.0
171
1
  6

172
1
173
1
174
1
140
1.0
141
1.0
175
1
  7

176
1
177
1
178
1
143
1.0
179
1
  8

270
1
271
1
272
1
145
1.0
146
1.0
273
1
  9

274
1
275
1
276
1
 42
1.0
 72
1
  3

 73
1
 74
1
 75
1
 94
63
  0
MLINESTYLE
  5
22
102
{ACAD_REACTORS
330
10
102
}
330
10
100
AcDbMlineStyle
  2
Standard
 70
0
  3

 62
256
 51
90.0
 52
90.0
 71
2
 49
0.5
 62
256
  6
BYLAYER
 49
-0.5
 62
256
  6
BYLAYER
  0
MLEADERSTYLE
  5
2C
102
{ACAD_REACTORS
330
F
102
}
330
F
100
AcDbMLeaderStyle
179
2
170
2
171
1
172
0
 90
2
 40
0.0
 41
0.0
173
1
 91
-1056964608
 92
-2
290
1
 42
2.0
291
1
 43
8.0
  3
Standard
 44
4.0
300

342
29
174
1
175
1
176
0
178
1
 93
-1056964608
 45
4.0
292
0
297
0
 46
4.0
 94
-1056964608
 47
1.0
 49
1.0
140
1.0
294
1
141
0.0
177
0
142
1.0
295
0
296
0
143
3.75
271
0
272
9
273
9
  0
DICTIONARY
  5
2D
330
A
100
AcDbDictionary
281
1
  3
CREATED_BY_EZDXF
350
2E
  3
WRITTEN_BY_EZDXF
350
EB
  0
DICTIONARYVAR
  5
2E
330
2D
100
DictionaryVariables
280
0
  1
0.16.4 @ 2021-08-26T22:39:07.475717+00:00
  0
DICTIONARYVAR
  5
EB
330
2D
100
DictionaryVariables
280
0
  1
0.16.4 @ 2021-08-26T22:39:07.497355+00:00
  0
ENDSEC
  0
EOF
