  0
SECTION
  2
HEADER
  9
$ACADVER
  1
AC1014
  9
$HANDSEED
  5
FFFF
  9
$MEASUREMENT
 70
     1
  0
ENDSEC
  0
SECTION
  2
TABLES
  0
TABLE
  2
VPORT
  5
8
330
0
100
AcDbSymbolTable
 70
     4
  0
VPORT
  5
2E
330
8
100
AcDbSymbolTableRecord
100
AcDbViewportTableRecord
  2
*ACTIVE
 70
     0
 10
0.0
 20
0.0
 11
1.0
 21
1.0
 12
210.0
 22
148.5
 13
0.0
 23
0.0
 14
10.0
 24
10.0
 15
10.0
 25
10.0
 16
0.0
 26
0.0
 36
1.0
 17
0.0
 27
0.0
 37
0.0
 40
341.0
 41
1.24
 42
50.0
 43
0.0
 44
0.0
 50
0.0
 51
0.0
 71
     0
 72
   100
 73
     1
 74
     3
 75
     0
 76
     0
 77
     0
 78
     0
  0
ENDTAB
  0
TABLE
  2
LTYPE
  5
5
330
0
100
AcDbSymbolTable
 70
     1
  0
LTYPE
  5
14
330
5
100
AcDbSymbolTableRecord
100
AcDbLinetypeTableRecord
  2
BYBLOCK
 70
     0
  3

 72
    65
 73
     0
 40
0.0
  0
LTYPE
  5
15
330
5
100
AcDbSymbolTableRecord
100
AcDbLinetypeTableRecord
  2
BYLAYER
 70
     0
  3

 72
    65
 73
     0
 40
0.0
  0
LTYPE
  5
16
330
5
100
AcDbSymbolTableRecord
100
AcDbLinetypeTableRecord
  2
CONTINUOUS
 70
     0
  3
Solid line
 72
    65
 73
     0
 40
0.0
  0
ENDTAB
  0
TABLE
  2
LAYER
  5
2
100
AcDbSymbolTable
 70
2
  0
LAYER
  5
50
100
AcDbSymbolTableRecord
100
AcDbLayerTableRecord
  2
0
 70
0
  6
CONTINUOUS
  0
LAYER
  5
51
100
AcDbSymbolTableRecord
100
AcDbLayerTableRecord
  2
Layer_1
 70
0
  6
CONTINUOUS
  0
ENDTAB
  0
TABLE
  2
STYLE
  5
3
330
0
100
AcDbSymbolTable
 70
     1
  0
STYLE
  5
11
330
3
100
AcDbSymbolTableRecord
100
AcDbTextStyleTableRecord
  2
STANDARD
 70
     0
 40
0.0
 41
1.0
 50
0.0
 71
     0
 42
2.5
  3
txt
  4

  0
ENDTAB
  0
TABLE
  2
VIEW
  5
6
330
0
100
AcDbSymbolTable
 70
     0
  0
ENDTAB
  0
TABLE
  2
UCS
  5
7
330
0
100
AcDbSymbolTable
 70
     0
  0
ENDTAB
  0
TABLE
  2
APPID
  5
9
330
0
100
AcDbSymbolTable
 70
     2
  0
APPID
  5
12
330
9
100
AcDbSymbolTableRecord
100
AcDbRegAppTableRecord
  2
ACAD
 70
     0
  0
ENDTAB
  0
TABLE
  2
DIMSTYLE
  5
A
330
0
100
AcDbSymbolTable
 70
     1
  0
DIMSTYLE
105
27
330
A
100
AcDbSymbolTableRecord
100
AcDbDimStyleTableRecord
  2
ISO-25
 70
     0
  3

  4

  5

  6

  7

 40
1.0
 41
2.5
 42
0.625
 43
3.75
 44
1.25
 45
0.0
 46
0.0
 47
0.0
 48
0.0
140
2.5
141
2.5
142
0.0
143
0.03937007874016
144
1.0
145
0.0
146
1.0
147
0.625
 71
     0
 72
     0
 73
     0
 74
     0
 75
     0
 76
     0
 77
     1
 78
     8
170
     0
171
     3
172
     1
173
     0
174
     0
175
     0
176
     0
177
     0
178
     0
270
     2
271
     2
272
     2
273
     2
274
     3
340
11
275
     0
280
     0
281
     0
282
     0
283
     0
284
     8
285
     0
286
     0
287
     3
288
     0
  0
ENDTAB
  0
TABLE
  2
BLOCK_RECORD
  5
1
330
0
100
AcDbSymbolTable
 70
     1
  0
BLOCK_RECORD
  5
1F
330
1
100
AcDbSymbolTableRecord
100
AcDbBlockTableRecord
  2
*MODEL_SPACE
  0
BLOCK_RECORD
  5
1B
330
1
100
AcDbSymbolTableRecord
100
AcDbBlockTableRecord
  2
*PAPER_SPACE
  0
ENDTAB
  0
ENDSEC
  0
SECTION
  2
BLOCKS
  0
BLOCK
  5
20
330
1F
100
AcDbEntity
  8
0
100
AcDbBlockBegin
  2
*MODEL_SPACE
 70
     0
 10
0.0
 20
0.0
 30
0.0
  3
*MODEL_SPACE
  1

  0
ENDBLK
  5
21
330
1F
100
AcDbEntity
  8
0
100
AcDbBlockEnd
  0
BLOCK
  5
1C
330
1B
100
AcDbEntity
 67
     1
  8
0
100
AcDbBlockBegin
  2
*PAPER_SPACE
  1

  0
ENDBLK
  5
1D
330
1B
100
AcDbEntity
 67
     1
  8
0
100
AcDbBlockEnd
  0
ENDSEC
  0
SECTION
  2
ENTITIES
  0
SPLINE
  5
100
100
AcDbEntity
  8
Layer_1
 62
7
100
AcDbSpline
 70
8
 71
3
 72
8
 73
4
 74
0
 40
0
 40
0
 40
0
 40
0
 40
1
 40
1
 40
1
 40
1
 10
141.843558
 20
6.753935
 30
0.0
 10
142.899456
 20
6.753933
 30
0.0
 10
143.928250
 20
7.088206
 30
0.0
 10
144.782490
 20
7.708845
 30
0.0
  0
LWPOLYLINE
  5
101
100
AcDbEntity
  8
Layer_1
 62
7
100
AcDbPolyline
 90
2
 70
0
 10
141.843559
 20
6.755046
 30
0.0
 10
135.993715
 20
6.755046
 30
0.0
  0
LWPOLYLINE
  5
102
100
AcDbEntity
  8
Layer_1
 62
7
100
AcDbPolyline
 90
2
 70
0
 10
158.843709
 20
17.925778
 30
0.0
 10
144.782477
 20
7.707548
 30
0.0
  0
LWPOLYLINE
  5
103
100
AcDbEntity
  8
Layer_1
 62
7
100
AcDbPolyline
 90
2
 70
0
 10
210.206322
 20
37.639924
 30
0.0
 10
158.843709
 20
17.925778
 30
0.0
  0
LWPOLYLINE
  5
104
100
AcDbEntity
  8
Layer_1
 62
7
100
AcDbPolyline
 90
4
 70
0
 10
210.206322
 20
37.639924
 30
0.0
 10
212.535719
 20
46.334151
 30
0.0
 10
217.203772
 20
48.125384
 30
0.0
 10
224.751822
 20
43.225290
 30
0.0
  0
SPLINE
  5
105
100
AcDbEntity
  8
Layer_1
 62
7
100
AcDbSpline
 70
8
 71
3
 72
8
 73
4
 74
0
 40
0
 40
0
 40
0
 40
0
 40
1
 40
1
 40
1
 40
1
 10
238.755472
 20
48.600180
 30
0.0
 10
240.853061
 20
49.405369
 30
0.0
 10
242.155966
 20
51.510836
 30
0.0
 10
241.940620
 20
53.747315
 30
0.0
  0
LWPOLYLINE
  5
106
100
AcDbEntity
  8
Layer_1
 62
7
100
AcDbPolyline
 90
2
 70
0
 10
238.755453
 20
48.598989
 30
0.0
 10
224.751822
 20
43.225290
 30
0.0
  0
LWPOLYLINE
  5
107
100
AcDbEntity
  8
Layer_1
 62
7
100
AcDbPolyline
 90
9
 70
0
 10
241.940514
 20
53.747791
 30
0.0
 10
236.903895
 20
106.054969
 30
0.0
 10
229.713299
 20
105.362553
 30
0.0
 10
225.592669
 20
108.194659
 30
0.0
 10
225.108216
 20
113.225193
 30
0.0
 10
170.746809
 20
113.225193
 30
0.0
 10
158.468264
 20
104.304217
 30
0.0
 10
88.628171
 20
104.304217
 30
0.0
 10
76.349626
 20
113.225193
 30
0.0
  0
LWPOLYLINE
  5
108
100
AcDbEntity
  8
Layer_1
 62
7
100
AcDbPolyline
 90
2
 70
0
 10
21.988219
 20
113.225193
 30
0.0
 10
76.349626
 20
113.225193
 30
0.0
  0
LWPOLYLINE
  5
109
100
AcDbEntity
  8
Layer_1
 62
7
100
AcDbPolyline
 90
4
 70
0
 10
21.988219
 20
113.225193
 30
0.0
 10
21.503766
 20
108.194659
 30
0.0
 10
17.383136
 20
105.362553
 30
0.0
 10
10.192540
 20
106.054969
 30
0.0
  0
SPLINE
  5
10a
100
AcDbEntity
  8
Layer_1
 62
7
100
AcDbSpline
 70
8
 71
3
 72
8
 73
4
 74
0
 40
0
 40
0
 40
0
 40
0
 40
1
 40
1
 40
1
 40
1
 10
5.155815
 20
53.747315
 30
0.0
 10
4.940469
 20
51.510836
 30
0.0
 10
6.243374
 20
49.405369
 30
0.0
 10
8.340963
 20
48.600180
 30
0.0
  0
LWPOLYLINE
  5
10b
100
AcDbEntity
  8
Layer_1
 62
7
100
AcDbPolyline
 90
2
 70
0
 10
5.155921
 20
53.747791
 30
0.0
 10
10.192540
 20
106.054969
 30
0.0
  0
LWPOLYLINE
  5
10c
100
AcDbEntity
  8
Layer_1
 62
7
100
AcDbPolyline
 90
2
 70
0
 10
22.344613
 20
43.225290
 30
0.0
 10
8.340982
 20
48.598989
 30
0.0
  0
LWPOLYLINE
  5
10d
100
AcDbEntity
  8
Layer_1
 62
7
100
AcDbPolyline
 90
4
 70
0
 10
22.344613
 20
43.225290
 30
0.0
 10
29.892663
 20
48.125384
 30
0.0
 10
34.560716
 20
46.334151
 30
0.0
 10
36.890113
 20
37.639924
 30
0.0
  0
LWPOLYLINE
  5
10e
100
AcDbEntity
  8
Layer_1
 62
7
100
AcDbPolyline
 90
2
 70
0
 10
88.252726
 20
17.925778
 30
0.0
 10
36.890113
 20
37.639924
 30
0.0
  0
SPLINE
  5
10f
100
AcDbEntity
  8
Layer_1
 62
7
100
AcDbSpline
 70
8
 71
3
 72
8
 73
4
 74
0
 40
0
 40
0
 40
0
 40
0
 40
1
 40
1
 40
1
 40
1
 10
102.313945
 20
7.708845
 30
0.0
 10
103.168185
 20
7.088206
 30
0.0
 10
104.196979
 20
6.753933
 30
0.0
 10
105.252877
 20
6.753935
 30
0.0
  0
LWPOLYLINE
  5
110
100
AcDbEntity
  8
Layer_1
 62
7
100
AcDbPolyline
 90
2
 70
0
 10
102.313958
 20
7.707548
 30
0.0
 10
88.252726
 20
17.925778
 30
0.0
  0
LWPOLYLINE
  5
111
100
AcDbEntity
  8
Layer_1
 62
7
100
AcDbPolyline
 90
2
 70
0
 10
111.102720
 20
6.755046
 30
0.0
 10
105.252876
 20
6.755046
 30
0.0
  0
LWPOLYLINE
  5
112
100
AcDbEntity
  8
Layer_1
 62
7
100
AcDbPolyline
 90
3
 70
0
 10
111.102720
 20
6.755046
 30
0.0
 10
106.651255
 20
5.133147
 30
0.0
 10
140.445180
 20
5.133147
 30
0.0
  0
LWPOLYLINE
  5
113
100
AcDbEntity
  8
Layer_1
 62
7
100
AcDbPolyline
 90
2
 70
0
 10
135.993715
 20
6.755046
 30
0.0
 10
140.445180
 20
5.133147
 30
0.0
  0
LWPOLYLINE
  5
114
100
AcDbEntity
  8
Layer_1
 62
7
100
AcDbPolyline
 90
2
 70
0
 10
135.548235
 20
32.530809
 30
0.0
 10
135.548235
 20
30.530555
 30
0.0
  0
LWPOLYLINE
  5
115
100
AcDbEntity
  8
Layer_1
 62
7
100
AcDbPolyline
 90
2
 70
0
 10
139.048256
 20
32.530809
 30
0.0
 10
135.548235
 20
32.530809
 30
0.0
  0
LWPOLYLINE
  5
116
100
AcDbEntity
  8
Layer_1
 62
7
100
AcDbPolyline
 90
2
 70
0
 10
139.048256
 20
36.528672
 30
0.0
 10
139.048256
 20
32.530809
 30
0.0
  0
LWPOLYLINE
  5
117
100
AcDbEntity
  8
Layer_1
 62
7
100
AcDbPolyline
 90
2
 70
0
 10
141.048246
 20
36.528672
 30
0.0
 10
139.048256
 20
36.528672
 30
0.0
  0
LWPOLYLINE
  5
118
100
AcDbEntity
  8
Layer_1
 62
7
100
AcDbPolyline
 90
3
 70
0
 10
141.048246
 20
36.528672
 30
0.0
 10
141.048246
 20
30.530555
 30
0.0
 10
135.548235
 20
30.530555
 30
0.0
  0
LWPOLYLINE
  5
119
100
AcDbEntity
  8
Layer_1
 62
7
100
AcDbPolyline
 90
2
 70
0
 10
108.048179
 20
36.528672
 30
0.0
 10
106.048189
 20
36.528672
 30
0.0
  0
LWPOLYLINE
  5
11a
100
AcDbEntity
  8
Layer_1
 62
7
100
AcDbPolyline
 90
2
 70
0
 10
108.048179
 20
32.530809
 30
0.0
 10
108.048179
 20
36.528672
 30
0.0
  0
LWPOLYLINE
  5
11b
100
AcDbEntity
  8
Layer_1
 62
7
100
AcDbPolyline
 90
2
 70
0
 10
111.548200
 20
32.530809
 30
0.0
 10
108.048179
 20
32.530809
 30
0.0
  0
LWPOLYLINE
  5
11c
100
AcDbEntity
  8
Layer_1
 62
7
100
AcDbPolyline
 90
2
 70
0
 10
111.548200
 20
30.530555
 30
0.0
 10
111.548200
 20
32.530809
 30
0.0
  0
SPLINE
  5
11d
100
AcDbEntity
  8
Layer_1
 62
7
100
AcDbSpline
 70
8
 71
3
 72
8
 73
4
 74
0
 40
0
 40
0
 40
0
 40
0
 40
1
 40
1
 40
1
 40
1
 10
101.752870
 20
36.503986
 30
0.0
 10
101.752870
 20
37.754418
 30
0.0
 10
101.085772
 20
38.909865
 30
0.0
 10
100.002866
 20
39.535082
 30
0.0
  0
SPLINE
  5
11e
100
AcDbEntity
  8
Layer_1
 62
7
100
AcDbSpline
 70
8
 71
3
 72
8
 73
4
 74
0
 40
0
 40
0
 40
0
 40
0
 40
1
 40
1
 40
1
 40
1
 10
100.002866
 20
39.535082
 30
0.0
 10
98.919960
 20
40.160298
 30
0.0
 10
97.585764
 20
40.160298
 30
0.0
 10
96.502858
 20
39.535082
 30
0.0
  0
SPLINE
  5
11f
100
AcDbEntity
  8
Layer_1
 62
7
100
AcDbSpline
 70
8
 71
3
 72
8
 73
4
 74
0
 40
0
 40
0
 40
0
 40
0
 40
1
 40
1
 40
1
 40
1
 10
96.502858
 20
39.535082
 30
0.0
 10
95.419952
 20
38.909865
 30
0.0
 10
94.752854
 20
37.754418
 30
0.0
 10
94.752854
 20
36.503986
 30
0.0
  0
SPLINE
  5
120
100
AcDbEntity
  8
Layer_1
 62
7
100
AcDbSpline
 70
8
 71
3
 72
8
 73
4
 74
0
 40
0
 40
0
 40
0
 40
0
 40
1
 40
1
 40
1
 40
1
 10
94.752854
 20
36.503986
 30
0.0
 10
94.752854
 20
35.253554
 30
0.0
 10
95.419952
 20
34.098106
 30
0.0
 10
96.502858
 20
33.472890
 30
0.0
  0
SPLINE
  5
121
100
AcDbEntity
  8
Layer_1
 62
7
100
AcDbSpline
 70
8
 71
3
 72
8
 73
4
 74
0
 40
0
 40
0
 40
0
 40
0
 40
1
 40
1
 40
1
 40
1
 10
96.502858
 20
33.472890
 30
0.0
 10
97.585764
 20
32.847674
 30
0.0
 10
98.919960
 20
32.847674
 30
0.0
 10
100.002866
 20
33.472890
 30
0.0
  0
SPLINE
  5
122
100
AcDbEntity
  8
Layer_1
 62
7
100
AcDbSpline
 70
8
 71
3
 72
8
 73
4
 74
0
 40
0
 40
0
 40
0
 40
0
 40
1
 40
1
 40
1
 40
1
 10
100.002866
 20
33.472890
 30
0.0
 10
101.085772
 20
34.098106
 30
0.0
 10
101.752870
 20
35.253554
 30
0.0
 10
101.752870
 20
36.503986
 30
0.0
  0
LWPOLYLINE
  5
123
100
AcDbEntity
  8
Layer_1
 62
7
100
AcDbPolyline
 90
3
 70
0
 10
111.548200
 20
30.530555
 30
0.0
 10
106.048189
 20
30.530555
 30
0.0
 10
106.048189
 20
36.528672
 30
0.0
  0
LWPOLYLINE
  5
124
100
AcDbEntity
  8
Layer_1
 62
7
100
AcDbPolyline
 90
1
 70
1
 10
101.752870
 20
36.503986
 30
0.0
  0
LWPOLYLINE
  5
125
100
AcDbEntity
  8
Layer_1
 62
7
100
AcDbPolyline
 90
2
 70
0
 10
108.048179
 20
63.029395
 30
0.0
 10
106.048189
 20
63.029395
 30
0.0
  0
LWPOLYLINE
  5
126
100
AcDbEntity
  8
Layer_1
 62
7
100
AcDbPolyline
 90
2
 70
0
 10
108.048179
 20
58.028759
 30
0.0
 10
108.048179
 20
63.029395
 30
0.0
  0
LWPOLYLINE
  5
127
100
AcDbEntity
  8
Layer_1
 62
7
100
AcDbPolyline
 90
2
 70
0
 10
108.048179
 20
58.028759
 30
0.0
 10
106.048189
 20
58.028759
 30
0.0
  0
SPLINE
  5
128
100
AcDbEntity
  8
Layer_1
 62
7
100
AcDbSpline
 70
8
 71
3
 72
8
 73
4
 74
0
 40
0
 40
0
 40
0
 40
0
 40
1
 40
1
 40
1
 40
1
 10
152.343581
 20
36.503986
 30
0.0
 10
152.343581
 20
37.754418
 30
0.0
 10
151.676483
 20
38.909865
 30
0.0
 10
150.593577
 20
39.535082
 30
0.0
  0
SPLINE
  5
129
100
AcDbEntity
  8
Layer_1
 62
7
100
AcDbSpline
 70
8
 71
3
 72
8
 73
4
 74
0
 40
0
 40
0
 40
0
 40
0
 40
1
 40
1
 40
1
 40
1
 10
150.593577
 20
39.535082
 30
0.0
 10
149.510671
 20
40.160298
 30
0.0
 10
148.176476
 20
40.160298
 30
0.0
 10
147.093569
 20
39.535082
 30
0.0
  0
SPLINE
  5
12a
100
AcDbEntity
  8
Layer_1
 62
7
100
AcDbSpline
 70
8
 71
3
 72
8
 73
4
 74
0
 40
0
 40
0
 40
0
 40
0
 40
1
 40
1
 40
1
 40
1
 10
147.093569
 20
39.535082
 30
0.0
 10
146.010663
 20
38.909865
 30
0.0
 10
145.343565
 20
37.754418
 30
0.0
 10
145.343565
 20
36.503986
 30
0.0
  0
SPLINE
  5
12b
100
AcDbEntity
  8
Layer_1
 62
7
100
AcDbSpline
 70
8
 71
3
 72
8
 73
4
 74
0
 40
0
 40
0
 40
0
 40
0
 40
1
 40
1
 40
1
 40
1
 10
145.343565
 20
36.503986
 30
0.0
 10
145.343566
 20
35.253554
 30
0.0
 10
146.010663
 20
34.098106
 30
0.0
 10
147.093569
 20
33.472890
 30
0.0
  0
SPLINE
  5
12c
100
AcDbEntity
  8
Layer_1
 62
7
100
AcDbSpline
 70
8
 71
3
 72
8
 73
4
 74
0
 40
0
 40
0
 40
0
 40
0
 40
1
 40
1
 40
1
 40
1
 10
147.093569
 20
33.472890
 30
0.0
 10
148.176476
 20
32.847674
 30
0.0
 10
149.510671
 20
32.847674
 30
0.0
 10
150.593577
 20
33.472890
 30
0.0
  0
SPLINE
  5
12d
100
AcDbEntity
  8
Layer_1
 62
7
100
AcDbSpline
 70
8
 71
3
 72
8
 73
4
 74
0
 40
0
 40
0
 40
0
 40
0
 40
1
 40
1
 40
1
 40
1
 10
150.593577
 20
33.472890
 30
0.0
 10
151.676483
 20
34.098106
 30
0.0
 10
152.343581
 20
35.253554
 30
0.0
 10
152.343581
 20
36.503986
 30
0.0
  0
LWPOLYLINE
  5
12e
100
AcDbEntity
  8
Layer_1
 62
7
100
AcDbPolyline
 90
2
 70
0
 10
106.048189
 20
63.029395
 30
0.0
 10
106.048189
 20
58.028759
 30
0.0
  0
LWPOLYLINE
  5
12f
100
AcDbEntity
  8
Layer_1
 62
7
100
AcDbPolyline
 90
1
 70
1
 10
152.343581
 20
36.503986
 30
0.0
  0
LWPOLYLINE
  5
130
100
AcDbEntity
  8
Layer_1
 62
7
100
AcDbPolyline
 90
2
 70
0
 10
141.048246
 20
58.028759
 30
0.0
 10
141.048246
 20
63.029395
 30
0.0
  0
LWPOLYLINE
  5
131
100
AcDbEntity
  8
Layer_1
 62
7
100
AcDbPolyline
 90
2
 70
0
 10
141.048246
 20
58.028759
 30
0.0
 10
139.048256
 20
58.028759
 30
0.0
  0
LWPOLYLINE
  5
132
100
AcDbEntity
  8
Layer_1
 62
7
100
AcDbPolyline
 90
2
 70
0
 10
139.048256
 20
63.029395
 30
0.0
 10
139.048256
 20
58.028759
 30
0.0
  0
LWPOLYLINE
  5
133
100
AcDbEntity
  8
Layer_1
 62
7
100
AcDbPolyline
 90
2
 70
0
 10
141.048246
 20
63.029395
 30
0.0
 10
139.048256
 20
63.029395
 30
0.0
  0
LWPOLYLINE
  5
134
100
AcDbEntity
  8
Layer_1
 62
7
100
AcDbPolyline
 90
2
 70
0
 10
126.548228
 20
73.530729
 30
0.0
 10
126.548228
 20
75.530984
 30
0.0
  0
LWPOLYLINE
  5
135
100
AcDbEntity
  8
Layer_1
 62
7
100
AcDbPolyline
 90
2
 70
0
 10
120.548207
 20
73.530729
 30
0.0
 10
126.548228
 20
73.530729
 30
0.0
  0
LWPOLYLINE
  5
136
100
AcDbEntity
  8
Layer_1
 62
7
100
AcDbPolyline
 90
2
 70
0
 10
120.548207
 20
75.530984
 30
0.0
 10
120.548207
 20
73.530729
 30
0.0
  0
LWPOLYLINE
  5
137
100
AcDbEntity
  8
Layer_1
 62
7
100
AcDbPolyline
 90
2
 70
0
 10
126.548228
 20
75.530984
 30
0.0
 10
120.548207
 20
75.530984
 30
0.0
  0
LWPOLYLINE
  5
138
100
AcDbEntity
  8
Layer_1
 62
7
100
AcDbPolyline
 90
4
 70
1
 10
104.319186
 20
11.155076
 30
0.0
 10
92.993011
 20
19.383635
 30
0.0
 10
101.221941
 20
30.710472
 30
0.0
 10
112.548195
 20
22.479267
 30
0.0
  0
SPLINE
  5
139
100
AcDbEntity
  8
Layer_1
 62
7
100
AcDbSpline
 70
8
 71
3
 72
8
 73
4
 74
0
 40
0
 40
0
 40
0
 40
0
 40
1
 40
1
 40
1
 40
1
 10
103.102873
 20
44.504024
 30
0.0
 10
103.102873
 20
44.897017
 30
0.0
 10
102.893213
 20
45.260157
 30
0.0
 10
102.552871
 20
45.456654
 30
0.0
  0
SPLINE
  5
13a
100
AcDbEntity
  8
Layer_1
 62
7
100
AcDbSpline
 70
8
 71
3
 72
8
 73
4
 74
0
 40
0
 40
0
 40
0
 40
0
 40
1
 40
1
 40
1
 40
1
 10
102.552871
 20
45.456654
 30
0.0
 10
102.212530
 20
45.653150
 30
0.0
 10
101.793211
 20
45.653150
 30
0.0
 10
101.452869
 20
45.456654
 30
0.0
  0
SPLINE
  5
13b
100
AcDbEntity
  8
Layer_1
 62
7
100
AcDbSpline
 70
8
 71
3
 72
8
 73
4
 74
0
 40
0
 40
0
 40
0
 40
0
 40
1
 40
1
 40
1
 40
1
 10
101.452869
 20
45.456654
 30
0.0
 10
101.112527
 20
45.260157
 30
0.0
 10
100.902868
 20
44.897017
 30
0.0
 10
100.902868
 20
44.504024
 30
0.0
  0
SPLINE
  5
13c
100
AcDbEntity
  8
Layer_1
 62
7
100
AcDbSpline
 70
8
 71
3
 72
8
 73
4
 74
0
 40
0
 40
0
 40
0
 40
0
 40
1
 40
1
 40
1
 40
1
 10
100.902868
 20
44.504024
 30
0.0
 10
100.902868
 20
44.111031
 30
0.0
 10
101.112527
 20
43.747891
 30
0.0
 10
101.452869
 20
43.551394
 30
0.0
  0
SPLINE
  5
13d
100
AcDbEntity
  8
Layer_1
 62
7
100
AcDbSpline
 70
8
 71
3
 72
8
 73
4
 74
0
 40
0
 40
0
 40
0
 40
0
 40
1
 40
1
 40
1
 40
1
 10
101.452869
 20
43.551394
 30
0.0
 10
101.793211
 20
43.354898
 30
0.0
 10
102.212530
 20
43.354898
 30
0.0
 10
102.552871
 20
43.551394
 30
0.0
  0
SPLINE
  5
13e
100
AcDbEntity
  8
Layer_1
 62
7
100
AcDbSpline
 70
8
 71
3
 72
8
 73
4
 74
0
 40
0
 40
0
 40
0
 40
0
 40
1
 40
1
 40
1
 40
1
 10
102.552871
 20
43.551394
 30
0.0
 10
102.893213
 20
43.747891
 30
0.0
 10
103.102873
 20
44.111031
 30
0.0
 10
103.102873
 20
44.504024
 30
0.0
  0
LWPOLYLINE
  5
13f
100
AcDbEntity
  8
Layer_1
 62
7
100
AcDbPolyline
 90
4
 70
1
 10
82.692760
 20
24.307542
 30
0.0
 10
69.622580
 20
29.324052
 30
0.0
 10
74.639620
 20
42.394497
 30
0.0
 10
87.709800
 20
37.377986
 30
0.0
  0
SPLINE
  5
140
100
AcDbEntity
  8
Layer_1
 62
7
100
AcDbSpline
 70
8
 71
3
 72
8
 73
4
 74
0
 40
0
 40
0
 40
0
 40
0
 40
1
 40
1
 40
1
 40
1
 10
139.548251
 20
45.529763
 30
0.0
 10
139.548251
 20
51.246024
 30
0.0
 10
136.498662
 20
56.528068
 30
0.0
 10
131.548235
 20
59.386199
 30
0.0
  0
SPLINE
  5
141
100
AcDbEntity
  8
Layer_1
 62
7
100
AcDbSpline
 70
8
 71
3
 72
8
 73
4
 74
0
 40
0
 40
0
 40
0
 40
0
 40
1
 40
1
 40
1
 40
1
 10
131.548235
 20
59.386199
 30
0.0
 10
126.597807
 20
62.244329
 30
0.0
 10
120.498628
 20
62.244329
 30
0.0
 10
115.548201
 20
59.386199
 30
0.0
  0
SPLINE
  5
142
100
AcDbEntity
  8
Layer_1
 62
7
100
AcDbSpline
 70
8
 71
3
 72
8
 73
4
 74
0
 40
0
 40
0
 40
0
 40
0
 40
1
 40
1
 40
1
 40
1
 10
115.548201
 20
59.386199
 30
0.0
 10
110.597773
 20
56.528068
 30
0.0
 10
107.548184
 20
51.246024
 30
0.0
 10
107.548184
 20
45.529763
 30
0.0
  0
SPLINE
  5
143
100
AcDbEntity
  8
Layer_1
 62
7
100
AcDbSpline
 70
8
 71
3
 72
8
 73
4
 74
0
 40
0
 40
0
 40
0
 40
0
 40
1
 40
1
 40
1
 40
1
 10
107.548184
 20
45.529763
 30
0.0
 10
107.548184
 20
39.813501
 30
0.0
 10
110.597773
 20
34.531458
 30
0.0
 10
115.548201
 20
31.673327
 30
0.0
  0
SPLINE
  5
144
100
AcDbEntity
  8
Layer_1
 62
7
100
AcDbSpline
 70
8
 71
3
 72
8
 73
4
 74
0
 40
0
 40
0
 40
0
 40
0
 40
1
 40
1
 40
1
 40
1
 10
115.548201
 20
31.673327
 30
0.0
 10
120.498628
 20
28.815196
 30
0.0
 10
126.597807
 20
28.815196
 30
0.0
 10
131.548235
 20
31.673327
 30
0.0
  0
SPLINE
  5
145
100
AcDbEntity
  8
Layer_1
 62
7
100
AcDbSpline
 70
8
 71
3
 72
8
 73
4
 74
0
 40
0
 40
0
 40
0
 40
0
 40
1
 40
1
 40
1
 40
1
 10
131.548235
 20
31.673327
 30
0.0
 10
136.498662
 20
34.531458
 30
0.0
 10
139.548251
 20
39.813501
 30
0.0
 10
139.548251
 20
45.529763
 30
0.0
  0
LWPOLYLINE
  5
146
100
AcDbEntity
  8
Layer_1
 62
7
100
AcDbPolyline
 90
1
 70
1
 10
103.102873
 20
44.504024
 30
0.0
  0
LWPOLYLINE
  5
147
100
AcDbEntity
  8
Layer_1
 62
7
100
AcDbPolyline
 90
1
 70
1
 10
139.548251
 20
45.529763
 30
0.0
  0
LWPOLYLINE
  5
148
100
AcDbEntity
  8
Layer_1
 62
7
100
AcDbPolyline
 90
2
 70
0
 10
154.103424
 20
19.383635
 30
0.0
 10
145.874494
 20
30.710472
 30
0.0
  0
LWPOLYLINE
  5
149
100
AcDbEntity
  8
Layer_1
 62
7
100
AcDbPolyline
 90
2
 70
0
 10
142.777249
 20
11.155076
 30
0.0
 10
154.103424
 20
19.383635
 30
0.0
  0
LWPOLYLINE
  5
14a
100
AcDbEntity
  8
Layer_1
 62
7
100
AcDbPolyline
 90
2
 70
0
 10
134.548240
 20
22.479267
 30
0.0
 10
142.777249
 20
11.155076
 30
0.0
  0
LWPOLYLINE
  5
14b
100
AcDbEntity
  8
Layer_1
 62
7
100
AcDbPolyline
 90
2
 70
0
 10
145.874494
 20
30.710472
 30
0.0
 10
134.548240
 20
22.479267
 30
0.0
  0
LWPOLYLINE
  5
14c
100
AcDbEntity
  8
Layer_1
 62
7
100
AcDbPolyline
 90
2
 70
0
 10
177.473855
 20
29.324052
 30
0.0
 10
172.456815
 20
42.394497
 30
0.0
  0
LWPOLYLINE
  5
14d
100
AcDbEntity
  8
Layer_1
 62
7
100
AcDbPolyline
 90
2
 70
0
 10
164.403675
 20
24.307542
 30
0.0
 10
177.473855
 20
29.324052
 30
0.0
  0
LWPOLYLINE
  5
14e
100
AcDbEntity
  8
Layer_1
 62
7
100
AcDbPolyline
 90
2
 70
0
 10
159.386635
 20
37.377986
 30
0.0
 10
164.403675
 20
24.307542
 30
0.0
  0
SPLINE
  5
14f
100
AcDbEntity
  8
Layer_1
 62
7
100
AcDbSpline
 70
8
 71
3
 72
8
 73
4
 74
0
 40
0
 40
0
 40
0
 40
0
 40
1
 40
1
 40
1
 40
1
 10
146.193567
 20
44.504024
 30
0.0
 10
146.193567
 20
44.897017
 30
0.0
 10
145.983908
 20
45.260157
 30
0.0
 10
145.643566
 20
45.456654
 30
0.0
  0
SPLINE
  5
150
100
AcDbEntity
  8
Layer_1
 62
7
100
AcDbSpline
 70
8
 71
3
 72
8
 73
4
 74
0
 40
0
 40
0
 40
0
 40
0
 40
1
 40
1
 40
1
 40
1
 10
145.643566
 20
45.456654
 30
0.0
 10
145.303224
 20
45.653150
 30
0.0
 10
144.883906
 20
45.653150
 30
0.0
 10
144.543564
 20
45.456654
 30
0.0
  0
SPLINE
  5
151
100
AcDbEntity
  8
Layer_1
 62
7
100
AcDbSpline
 70
8
 71
3
 72
8
 73
4
 74
0
 40
0
 40
0
 40
0
 40
0
 40
1
 40
1
 40
1
 40
1
 10
144.543564
 20
45.456654
 30
0.0
 10
144.203222
 20
45.260157
 30
0.0
 10
143.993563
 20
44.897017
 30
0.0
 10
143.993563
 20
44.504024
 30
0.0
  0
SPLINE
  5
152
100
AcDbEntity
  8
Layer_1
 62
7
100
AcDbSpline
 70
8
 71
3
 72
8
 73
4
 74
0
 40
0
 40
0
 40
0
 40
0
 40
1
 40
1
 40
1
 40
1
 10
143.993563
 20
44.504024
 30
0.0
 10
143.993563
 20
44.111031
 30
0.0
 10
144.203222
 20
43.747891
 30
0.0
 10
144.543564
 20
43.551394
 30
0.0
  0
SPLINE
  5
153
100
AcDbEntity
  8
Layer_1
 62
7
100
AcDbSpline
 70
8
 71
3
 72
8
 73
4
 74
0
 40
0
 40
0
 40
0
 40
0
 40
1
 40
1
 40
1
 40
1
 10
144.543564
 20
43.551394
 30
0.0
 10
144.883906
 20
43.354898
 30
0.0
 10
145.303224
 20
43.354898
 30
0.0
 10
145.643566
 20
43.551394
 30
0.0
  0
SPLINE
  5
154
100
AcDbEntity
  8
Layer_1
 62
7
100
AcDbSpline
 70
8
 71
3
 72
8
 73
4
 74
0
 40
0
 40
0
 40
0
 40
0
 40
1
 40
1
 40
1
 40
1
 10
145.643566
 20
43.551394
 30
0.0
 10
145.983908
 20
43.747891
 30
0.0
 10
146.193567
 20
44.111031
 30
0.0
 10
146.193567
 20
44.504024
 30
0.0
  0
LWPOLYLINE
  5
155
100
AcDbEntity
  8
Layer_1
 62
7
100
AcDbPolyline
 90
2
 70
0
 10
172.456815
 20
42.394497
 30
0.0
 10
159.386635
 20
37.377986
 30
0.0
  0
SPLINE
  5
156
100
AcDbEntity
  8
Layer_1
 62
7
100
AcDbSpline
 70
8
 71
3
 72
8
 73
4
 74
0
 40
0
 40
0
 40
0
 40
0
 40
1
 40
1
 40
1
 40
1
 10
226.774841
 20
47.225534
 30
0.0
 10
226.775033
 20
47.618655
 30
0.0
 10
226.565416
 20
47.981997
 30
0.0
 10
226.224995
 20
48.178613
 30
0.0
  0
SPLINE
  5
157
100
AcDbEntity
  8
Layer_1
 62
7
100
AcDbSpline
 70
8
 71
3
 72
8
 73
4
 74
0
 40
0
 40
0
 40
0
 40
0
 40
1
 40
1
 40
1
 40
1
 10
226.224995
 20
48.178613
 30
0.0
 10
225.884574
 20
48.375230
 30
0.0
 10
225.465103
 20
48.375230
 30
0.0
 10
225.124682
 20
48.178613
 30
0.0
  0
SPLINE
  5
158
100
AcDbEntity
  8
Layer_1
 62
7
100
AcDbSpline
 70
8
 71
3
 72
8
 73
4
 74
0
 40
0
 40
0
 40
0
 40
0
 40
1
 40
1
 40
1
 40
1
 10
225.124682
 20
48.178613
 30
0.0
 10
224.784260
 20
47.981997
 30
0.0
 10
224.574643
 20
47.618655
 30
0.0
 10
224.574836
 20
47.225534
 30
0.0
  0
SPLINE
  5
159
100
AcDbEntity
  8
Layer_1
 62
7
100
AcDbSpline
 70
8
 71
3
 72
8
 73
4
 74
0
 40
0
 40
0
 40
0
 40
0
 40
1
 40
1
 40
1
 40
1
 10
224.574836
 20
47.225534
 30
0.0
 10
224.574643
 20
46.832412
 30
0.0
 10
224.784260
 20
46.469071
 30
0.0
 10
225.124682
 20
46.272454
 30
0.0
  0
SPLINE
  5
15a
100
AcDbEntity
  8
Layer_1
 62
7
100
AcDbSpline
 70
8
 71
3
 72
8
 73
4
 74
0
 40
0
 40
0
 40
0
 40
0
 40
1
 40
1
 40
1
 40
1
 10
225.124682
 20
46.272454
 30
0.0
 10
225.465103
 20
46.075838
 30
0.0
 10
225.884574
 20
46.075838
 30
0.0
 10
226.224995
 20
46.272454
 30
0.0
  0
SPLINE
  5
15b
100
AcDbEntity
  8
Layer_1
 62
7
100
AcDbSpline
 70
8
 71
3
 72
8
 73
4
 74
0
 40
0
 40
0
 40
0
 40
0
 40
1
 40
1
 40
1
 40
1
 10
226.224995
 20
46.272454
 30
0.0
 10
226.565416
 20
46.469071
 30
0.0
 10
226.775033
 20
46.832412
 30
0.0
 10
226.774841
 20
47.225534
 30
0.0
  0
LWPOLYLINE
  5
15c
100
AcDbEntity
  8
Layer_1
 62
7
100
AcDbPolyline
 90
1
 70
1
 10
146.193567
 20
44.504024
 30
0.0
  0
LWPOLYLINE
  5
15d
100
AcDbEntity
  8
Layer_1
 62
7
100
AcDbPolyline
 90
1
 70
1
 10
226.774841
 20
47.225534
 30
0.0
  0
LWPOLYLINE
  5
15e
100
AcDbEntity
  8
Layer_1
 62
7
100
AcDbPolyline
 90
2
 70
0
 10
153.994680
 20
78.200635
 30
0.0
 10
148.977640
 20
91.271079
 30
0.0
  0
LWPOLYLINE
  5
15f
100
AcDbEntity
  8
Layer_1
 62
7
100
AcDbPolyline
 90
2
 70
0
 10
140.924659
 20
73.184124
 30
0.0
 10
153.994680
 20
78.200635
 30
0.0
  0
LWPOLYLINE
  5
160
100
AcDbEntity
  8
Layer_1
 62
7
100
AcDbPolyline
 90
2
 70
0
 10
135.907487
 20
86.254569
 30
0.0
 10
140.924659
 20
73.184124
 30
0.0
  0
LWPOLYLINE
  5
161
100
AcDbEntity
  8
Layer_1
 62
7
100
AcDbPolyline
 90
2
 70
0
 10
148.977640
 20
91.271079
 30
0.0
 10
135.907487
 20
86.254569
 30
0.0
  0
LWPOLYLINE
  5
162
100
AcDbEntity
  8
Layer_1
 62
7
100
AcDbPolyline
 90
2
 70
0
 10
170.799197
 20
84.651190
 30
0.0
 10
165.782157
 20
97.721635
 30
0.0
  0
LWPOLYLINE
  5
163
100
AcDbEntity
  8
Layer_1
 62
7
100
AcDbPolyline
 90
2
 70
0
 10
157.729017
 20
79.634680
 30
0.0
 10
170.799197
 20
84.651190
 30
0.0
  0
LWPOLYLINE
  5
164
100
AcDbEntity
  8
Layer_1
 62
7
100
AcDbPolyline
 90
2
 70
0
 10
152.711977
 20
92.705124
 30
0.0
 10
157.729017
 20
79.634680
 30
0.0
  0
LWPOLYLINE
  5
165
100
AcDbEntity
  8
Layer_1
 62
7
100
AcDbPolyline
 90
2
 70
0
 10
165.782157
 20
97.721635
 30
0.0
 10
152.711977
 20
92.705124
 30
0.0
  0
LWPOLYLINE
  5
166
100
AcDbEntity
  8
Layer_1
 62
7
100
AcDbPolyline
 90
2
 70
0
 10
198.354816
 20
63.095540
 30
0.0
 10
193.337776
 20
76.163339
 30
0.0
  0
LWPOLYLINE
  5
167
100
AcDbEntity
  8
Layer_1
 62
7
100
AcDbPolyline
 90
2
 70
0
 10
185.284636
 20
58.076384
 30
0.0
 10
198.354816
 20
63.095540
 30
0.0
  0
LWPOLYLINE
  5
168
100
AcDbEntity
  8
Layer_1
 62
7
100
AcDbPolyline
 90
2
 70
0
 10
180.267596
 20
71.146828
 30
0.0
 10
185.284636
 20
58.076384
 30
0.0
  0
LWPOLYLINE
  5
169
100
AcDbEntity
  8
Layer_1
 62
7
100
AcDbPolyline
 90
2
 70
0
 10
193.337776
 20
76.163339
 30
0.0
 10
180.267596
 20
71.146828
 30
0.0
  0
LWPOLYLINE
  5
16a
100
AcDbEntity
  8
Layer_1
 62
7
100
AcDbPolyline
 90
2
 70
0
 10
212.036184
 20
79.579117
 30
0.0
 10
207.943071
 20
92.967062
 30
0.0
  0
LWPOLYLINE
  5
16b
100
AcDbEntity
  8
Layer_1
 62
7
100
AcDbPolyline
 90
2
 70
0
 10
198.647975
 20
75.486004
 30
0.0
 10
212.036184
 20
79.579117
 30
0.0
  0
LWPOLYLINE
  5
16c
100
AcDbEntity
  8
Layer_1
 62
7
100
AcDbPolyline
 90
2
 70
0
 10
194.554862
 20
88.873949
 30
0.0
 10
198.647975
 20
75.486004
 30
0.0
  0
LWPOLYLINE
  5
16d
100
AcDbEntity
  8
Layer_1
 62
7
100
AcDbPolyline
 90
2
 70
0
 10
207.943071
 20
92.967062
 30
0.0
 10
194.554862
 20
88.873949
 30
0.0
  0
LWPOLYLINE
  5
16e
100
AcDbEntity
  8
Layer_1
 62
7
100
AcDbPolyline
 90
2
 70
0
 10
234.283986
 20
71.816226
 30
0.0
 10
232.942016
 20
85.751859
 30
0.0
  0
LWPOLYLINE
  5
16f
100
AcDbEntity
  8
Layer_1
 62
7
100
AcDbPolyline
 90
2
 70
0
 10
220.348352
 20
70.472139
 30
0.0
 10
234.283986
 20
71.816226
 30
0.0
  0
LWPOLYLINE
  5
170
100
AcDbEntity
  8
Layer_1
 62
7
100
AcDbPolyline
 90
2
 70
0
 10
219.006382
 20
84.407773
 30
0.0
 10
220.348352
 20
70.472139
 30
0.0
  0
LWPOLYLINE
  5
171
100
AcDbEntity
  8
Layer_1
 62
7
100
AcDbPolyline
 90
2
 70
0
 10
232.942016
 20
85.751859
 30
0.0
 10
219.006382
 20
84.407773
 30
0.0
  0
LWPOLYLINE
  5
172
100
AcDbEntity
  8
Layer_1
 62
7
100
AcDbPolyline
 90
2
 70
0
 10
232.654413
 20
88.736366
 30
0.0
 10
231.312708
 20
102.672264
 30
0.0
  0
LWPOLYLINE
  5
173
100
AcDbEntity
  8
Layer_1
 62
7
100
AcDbPolyline
 90
2
 70
0
 10
218.719044
 20
87.394925
 30
0.0
 10
232.654413
 20
88.736366
 30
0.0
  0
LWPOLYLINE
  5
174
100
AcDbEntity
  8
Layer_1
 62
7
100
AcDbPolyline
 90
2
 70
0
 10
217.377075
 20
101.330559
 30
0.0
 10
218.719044
 20
87.394925
 30
0.0
  0
LWPOLYLINE
  5
175
100
AcDbEntity
  8
Layer_1
 62
7
100
AcDbPolyline
 90
2
 70
0
 10
231.312708
 20
102.672264
 30
0.0
 10
217.377075
 20
101.330559
 30
0.0
  0
LWPOLYLINE
  5
176
100
AcDbEntity
  8
Layer_1
 62
7
100
AcDbPolyline
 90
2
 70
0
 10
192.262507
 20
78.965282
 30
0.0
 10
187.245467
 20
92.035727
 30
0.0
  0
LWPOLYLINE
  5
177
100
AcDbEntity
  8
Layer_1
 62
7
100
AcDbPolyline
 90
2
 70
0
 10
179.192327
 20
73.948772
 30
0.0
 10
192.262507
 20
78.965282
 30
0.0
  0
LWPOLYLINE
  5
178
100
AcDbEntity
  8
Layer_1
 62
7
100
AcDbPolyline
 90
2
 70
0
 10
174.175287
 20
87.019216
 30
0.0
 10
179.192327
 20
73.948772
 30
0.0
  0
LWPOLYLINE
  5
179
100
AcDbEntity
  8
Layer_1
 62
7
100
AcDbPolyline
 90
2
 70
0
 10
187.245467
 20
92.035727
 30
0.0
 10
174.175287
 20
87.019216
 30
0.0
  0
LWPOLYLINE
  5
17a
100
AcDbEntity
  8
Layer_1
 62
7
100
AcDbPolyline
 90
2
 70
0
 10
207.065976
 20
95.837797
 30
0.0
 10
202.972863
 20
109.225213
 30
0.0
  0
LWPOLYLINE
  5
17b
100
AcDbEntity
  8
Layer_1
 62
7
100
AcDbPolyline
 90
2
 70
0
 10
193.677766
 20
91.744685
 30
0.0
 10
207.065976
 20
95.837797
 30
0.0
  0
LWPOLYLINE
  5
17c
100
AcDbEntity
  8
Layer_1
 62
7
100
AcDbPolyline
 90
2
 70
0
 10
189.584389
 20
105.131836
 30
0.0
 10
193.677766
 20
91.744685
 30
0.0
  0
LWPOLYLINE
  5
17d
100
AcDbEntity
  8
Layer_1
 62
7
100
AcDbPolyline
 90
2
 70
0
 10
202.972863
 20
109.225213
 30
0.0
 10
189.584389
 20
105.131836
 30
0.0
  0
LWPOLYLINE
  5
17e
100
AcDbEntity
  8
Layer_1
 62
7
100
AcDbPolyline
 90
2
 70
0
 10
186.170198
 20
94.835024
 30
0.0
 10
181.153158
 20
107.906263
 30
0.0
  0
LWPOLYLINE
  5
17f
100
AcDbEntity
  8
Layer_1
 62
7
100
AcDbPolyline
 90
2
 70
0
 10
173.100018
 20
89.818514
 30
0.0
 10
186.170198
 20
94.835024
 30
0.0
  0
LWPOLYLINE
  5
180
100
AcDbEntity
  8
Layer_1
 62
7
100
AcDbPolyline
 90
2
 70
0
 10
168.082979
 20
102.888958
 30
0.0
 10
173.100018
 20
89.818514
 30
0.0
  0
LWPOLYLINE
  5
181
100
AcDbEntity
  8
Layer_1
 62
7
100
AcDbPolyline
 90
2
 70
0
 10
181.153158
 20
107.906263
 30
0.0
 10
168.082979
 20
102.888958
 30
0.0
  0
LWPOLYLINE
  5
182
100
AcDbEntity
  8
Layer_1
 62
7
100
AcDbPolyline
 90
2
 70
0
 10
166.179297
 20
46.458505
 30
0.0
 10
161.162258
 20
59.528950
 30
0.0
  0
LWPOLYLINE
  5
183
100
AcDbEntity
  8
Layer_1
 62
7
100
AcDbPolyline
 90
2
 70
0
 10
153.109118
 20
41.441995
 30
0.0
 10
166.179297
 20
46.458505
 30
0.0
  0
LWPOLYLINE
  5
184
100
AcDbEntity
  8
Layer_1
 62
7
100
AcDbPolyline
 90
2
 70
0
 10
148.092025
 20
54.512439
 30
0.0
 10
153.109118
 20
41.441995
 30
0.0
  0
LWPOLYLINE
  5
185
100
AcDbEntity
  8
Layer_1
 62
7
100
AcDbPolyline
 90
2
 70
0
 10
161.162258
 20
59.528950
 30
0.0
 10
148.092025
 20
54.512439
 30
0.0
  0
LWPOLYLINE
  5
186
100
AcDbEntity
  8
Layer_1
 62
7
100
AcDbPolyline
 90
2
 70
0
 10
182.983814
 20
52.909061
 30
0.0
 10
177.966775
 20
65.979505
 30
0.0
  0
LWPOLYLINE
  5
187
100
AcDbEntity
  8
Layer_1
 62
7
100
AcDbPolyline
 90
2
 70
0
 10
169.913635
 20
47.892550
 30
0.0
 10
182.983814
 20
52.909061
 30
0.0
  0
LWPOLYLINE
  5
188
100
AcDbEntity
  8
Layer_1
 62
7
100
AcDbPolyline
 90
2
 70
0
 10
164.896595
 20
60.962994
 30
0.0
 10
169.913635
 20
47.892550
 30
0.0
  0
LWPOLYLINE
  5
189
100
AcDbEntity
  8
Layer_1
 62
7
100
AcDbPolyline
 90
2
 70
0
 10
177.966775
 20
65.979505
 30
0.0
 10
164.896595
 20
60.962994
 30
0.0
  0
LWPOLYLINE
  5
18a
100
AcDbEntity
  8
Layer_1
 62
7
100
AcDbPolyline
 90
2
 70
0
 10
217.006657
 20
63.323083
 30
0.0
 10
212.913280
 20
76.711028
 30
0.0
  0
LWPOLYLINE
  5
18b
100
AcDbEntity
  8
Layer_1
 62
7
100
AcDbPolyline
 90
2
 70
0
 10
203.618448
 20
59.229970
 30
0.0
 10
217.006657
 20
63.323083
 30
0.0
  0
LWPOLYLINE
  5
18c
100
AcDbEntity
  8
Layer_1
 62
7
100
AcDbPolyline
 90
2
 70
0
 10
199.525070
 20
72.617915
 30
0.0
 10
203.618448
 20
59.229970
 30
0.0
  0
LWPOLYLINE
  5
18d
100
AcDbEntity
  8
Layer_1
 62
7
100
AcDbPolyline
 90
2
 70
0
 10
212.913280
 20
76.711028
 30
0.0
 10
199.525070
 20
72.617915
 30
0.0
  0
LWPOLYLINE
  5
18e
100
AcDbEntity
  8
Layer_1
 62
7
100
AcDbPolyline
 90
2
 70
0
 10
235.913293
 20
54.893440
 30
0.0
 10
234.571324
 20
68.829073
 30
0.0
  0
LWPOLYLINE
  5
18f
100
AcDbEntity
  8
Layer_1
 62
7
100
AcDbPolyline
 90
2
 70
0
 10
221.977660
 20
53.551999
 30
0.0
 10
235.913293
 20
54.893440
 30
0.0
  0
LWPOLYLINE
  5
190
100
AcDbEntity
  8
Layer_1
 62
7
100
AcDbPolyline
 90
2
 70
0
 10
220.635955
 20
67.487633
 30
0.0
 10
221.977660
 20
53.551999
 30
0.0
  0
LWPOLYLINE
  5
191
100
AcDbEntity
  8
Layer_1
 62
7
100
AcDbPolyline
 90
2
 70
0
 10
234.571324
 20
68.829073
 30
0.0
 10
220.635955
 20
67.487633
 30
0.0
  0
LWPOLYLINE
  5
192
100
AcDbEntity
  8
Layer_1
 62
7
100
AcDbPolyline
 90
2
 70
0
 10
160.086989
 20
62.330893
 30
0.0
 10
155.069949
 20
75.398692
 30
0.0
  0
LWPOLYLINE
  5
193
100
AcDbEntity
  8
Layer_1
 62
7
100
AcDbPolyline
 90
2
 70
0
 10
147.016915
 20
57.311737
 30
0.0
 10
160.086989
 20
62.330893
 30
0.0
  0
LWPOLYLINE
  5
194
100
AcDbEntity
  8
Layer_1
 62
7
100
AcDbPolyline
 90
2
 70
0
 10
141.999743
 20
70.382181
 30
0.0
 10
147.016915
 20
57.311737
 30
0.0
  0
LWPOLYLINE
  5
195
100
AcDbEntity
  8
Layer_1
 62
7
100
AcDbPolyline
 90
2
 70
0
 10
155.069949
 20
75.398692
 30
0.0
 10
141.999743
 20
70.382181
 30
0.0
  0
LWPOLYLINE
  5
196
100
AcDbEntity
  8
Layer_1
 62
7
100
AcDbPolyline
 90
2
 70
0
 10
176.891506
 20
68.781448
 30
0.0
 10
171.874466
 20
81.849247
 30
0.0
  0
LWPOLYLINE
  5
197
100
AcDbEntity
  8
Layer_1
 62
7
100
AcDbPolyline
 90
2
 70
0
 10
163.821326
 20
63.762292
 30
0.0
 10
176.891506
 20
68.781448
 30
0.0
  0
LWPOLYLINE
  5
198
100
AcDbEntity
  8
Layer_1
 62
7
100
AcDbPolyline
 90
2
 70
0
 10
158.804286
 20
76.832736
 30
0.0
 10
163.821326
 20
63.762292
 30
0.0
  0
SPLINE
  5
199
100
AcDbEntity
  8
Layer_1
 62
7
100
AcDbSpline
 70
8
 71
3
 72
8
 73
4
 74
0
 40
0
 40
0
 40
0
 40
0
 40
1
 40
1
 40
1
 40
1
 10
223.015458
 20
109.309153
 30
0.0
 10
223.015458
 20
109.702145
 30
0.0
 10
222.805799
 20
110.065286
 30
0.0
 10
222.465457
 20
110.261782
 30
0.0
  0
SPLINE
  5
19a
100
AcDbEntity
  8
Layer_1
 62
7
100
AcDbSpline
 70
8
 71
3
 72
8
 73
4
 74
0
 40
0
 40
0
 40
0
 40
0
 40
1
 40
1
 40
1
 40
1
 10
222.465457
 20
110.261782
 30
0.0
 10
222.125115
 20
110.458279
 30
0.0
 10
221.705797
 20
110.458279
 30
0.0
 10
221.365455
 20
110.261782
 30
0.0
  0
SPLINE
  5
19b
100
AcDbEntity
  8
Layer_1
 62
7
100
AcDbSpline
 70
8
 71
3
 72
8
 73
4
 74
0
 40
0
 40
0
 40
0
 40
0
 40
1
 40
1
 40
1
 40
1
 10
221.365455
 20
110.261782
 30
0.0
 10
221.025113
 20
110.065286
 30
0.0
 10
220.815454
 20
109.702145
 30
0.0
 10
220.815454
 20
109.309153
 30
0.0
  0
SPLINE
  5
19c
100
AcDbEntity
  8
Layer_1
 62
7
100
AcDbSpline
 70
8
 71
3
 72
8
 73
4
 74
0
 40
0
 40
0
 40
0
 40
0
 40
1
 40
1
 40
1
 40
1
 10
220.815454
 20
109.309153
 30
0.0
 10
220.815454
 20
108.916160
 30
0.0
 10
221.025113
 20
108.553019
 30
0.0
 10
221.365455
 20
108.356523
 30
0.0
  0
SPLINE
  5
19d
100
AcDbEntity
  8
Layer_1
 62
7
100
AcDbSpline
 70
8
 71
3
 72
8
 73
4
 74
0
 40
0
 40
0
 40
0
 40
0
 40
1
 40
1
 40
1
 40
1
 10
221.365455
 20
108.356523
 30
0.0
 10
221.705797
 20
108.160026
 30
0.0
 10
222.125115
 20
108.160026
 30
0.0
 10
222.465457
 20
108.356523
 30
0.0
  0
SPLINE
  5
19e
100
AcDbEntity
  8
Layer_1
 62
7
100
AcDbSpline
 70
8
 71
3
 72
8
 73
4
 74
0
 40
0
 40
0
 40
0
 40
0
 40
1
 40
1
 40
1
 40
1
 10
222.465457
 20
108.356523
 30
0.0
 10
222.805799
 20
108.553019
 30
0.0
 10
223.015458
 20
108.916160
 30
0.0
 10
223.015458
 20
109.309153
 30
0.0
  0
LWPOLYLINE
  5
19f
100
AcDbEntity
  8
Layer_1
 62
7
100
AcDbPolyline
 90
2
 70
0
 10
171.874466
 20
81.849247
 30
0.0
 10
158.804286
 20
76.832736
 30
0.0
  0
SPLINE
  5
1a0
100
AcDbEntity
  8
Layer_1
 62
7
100
AcDbSpline
 70
8
 71
3
 72
8
 73
4
 74
0
 40
0
 40
0
 40
0
 40
0
 40
1
 40
1
 40
1
 40
1
 10
22.521599
 20
47.225534
 30
0.0
 10
22.521792
 20
47.618655
 30
0.0
 10
22.312175
 20
47.981997
 30
0.0
 10
21.971754
 20
48.178613
 30
0.0
  0
SPLINE
  5
1a1
100
AcDbEntity
  8
Layer_1
 62
7
100
AcDbSpline
 70
8
 71
3
 72
8
 73
4
 74
0
 40
0
 40
0
 40
0
 40
0
 40
1
 40
1
 40
1
 40
1
 10
21.971754
 20
48.178613
 30
0.0
 10
21.631332
 20
48.375230
 30
0.0
 10
21.211861
 20
48.375230
 30
0.0
 10
20.871440
 20
48.178613
 30
0.0
  0
SPLINE
  5
1a2
100
AcDbEntity
  8
Layer_1
 62
7
100
AcDbSpline
 70
8
 71
3
 72
8
 73
4
 74
0
 40
0
 40
0
 40
0
 40
0
 40
1
 40
1
 40
1
 40
1
 10
20.871440
 20
48.178613
 30
0.0
 10
20.531019
 20
47.981997
 30
0.0
 10
20.321402
 20
47.618655
 30
0.0
 10
20.321594
 20
47.225534
 30
0.0
  0
SPLINE
  5
1a3
100
AcDbEntity
  8
Layer_1
 62
7
100
AcDbSpline
 70
8
 71
3
 72
8
 73
4
 74
0
 40
0
 40
0
 40
0
 40
0
 40
1
 40
1
 40
1
 40
1
 10
20.321594
 20
47.225534
 30
0.0
 10
20.321402
 20
46.832412
 30
0.0
 10
20.531019
 20
46.469071
 30
0.0
 10
20.871440
 20
46.272454
 30
0.0
  0
SPLINE
  5
1a4
100
AcDbEntity
  8
Layer_1
 62
7
100
AcDbSpline
 70
8
 71
3
 72
8
 73
4
 74
0
 40
0
 40
0
 40
0
 40
0
 40
1
 40
1
 40
1
 40
1
 10
20.871440
 20
46.272454
 30
0.0
 10
21.211861
 20
46.075838
 30
0.0
 10
21.631332
 20
46.075838
 30
0.0
 10
21.971754
 20
46.272454
 30
0.0
  0
SPLINE
  5
1a5
100
AcDbEntity
  8
Layer_1
 62
7
100
AcDbSpline
 70
8
 71
3
 72
8
 73
4
 74
0
 40
0
 40
0
 40
0
 40
0
 40
1
 40
1
 40
1
 40
1
 10
21.971754
 20
46.272454
 30
0.0
 10
22.312175
 20
46.469071
 30
0.0
 10
22.521792
 20
46.832412
 30
0.0
 10
22.521599
 20
47.225534
 30
0.0
  0
LWPOLYLINE
  5
1a6
100
AcDbEntity
  8
Layer_1
 62
7
100
AcDbPolyline
 90
1
 70
1
 10
223.015458
 20
109.309153
 30
0.0
  0
LWPOLYLINE
  5
1a7
100
AcDbEntity
  8
Layer_1
 62
7
100
AcDbPolyline
 90
1
 70
1
 10
22.521599
 20
47.225534
 30
0.0
  0
LWPOLYLINE
  5
1a8
100
AcDbEntity
  8
Layer_1
 62
7
100
AcDbPolyline
 90
4
 70
1
 10
100.079520
 20
57.311737
 30
0.0
 10
87.009446
 20
62.330893
 30
0.0
 10
92.026486
 20
75.398692
 30
0.0
 10
105.096692
 20
70.382181
 30
0.0
  0
LWPOLYLINE
  5
1a9
100
AcDbEntity
  8
Layer_1
 62
7
100
AcDbPolyline
 90
4
 70
1
 10
106.171776
 20
73.184124
 30
0.0
 10
93.101755
 20
78.200635
 30
0.0
 10
98.118795
 20
91.271079
 30
0.0
 10
111.188948
 20
86.254569
 30
0.0
  0
LWPOLYLINE
  5
1aa
100
AcDbEntity
  8
Layer_1
 62
7
100
AcDbPolyline
 90
4
 70
1
 10
67.904108
 20
73.948772
 30
0.0
 10
54.833928
 20
78.965282
 30
0.0
 10
59.850968
 20
92.035727
 30
0.0
 10
72.921148
 20
87.019216
 30
0.0
  0
LWPOLYLINE
  5
1ab
100
AcDbEntity
  8
Layer_1
 62
7
100
AcDbPolyline
 90
4
 70
1
 10
89.367418
 20
79.634680
 30
0.0
 10
76.297238
 20
84.651190
 30
0.0
 10
81.314278
 20
97.721635
 30
0.0
 10
94.384458
 20
92.705124
 30
0.0
  0
LWPOLYLINE
  5
1ac
100
AcDbEntity
  8
Layer_1
 62
7
100
AcDbPolyline
 90
4
 70
1
 10
26.748083
 20
70.472139
 30
0.0
 10
12.812449
 20
71.816226
 30
0.0
 10
14.154419
 20
85.751859
 30
0.0
 10
28.090053
 20
84.407773
 30
0.0
  0
LWPOLYLINE
  5
1ad
100
AcDbEntity
  8
Layer_1
 62
7
100
AcDbPolyline
 90
4
 70
1
 10
48.448460
 20
75.486004
 30
0.0
 10
35.060251
 20
79.579117
 30
0.0
 10
39.153364
 20
92.967062
 30
0.0
 10
52.541573
 20
88.873949
 30
0.0
  0
LWPOLYLINE
  5
1ae
100
AcDbEntity
  8
Layer_1
 62
7
100
AcDbPolyline
 90
4
 70
1
 10
53.418669
 20
91.744685
 30
0.0
 10
40.030459
 20
95.837797
 30
0.0
 10
44.123572
 20
109.225213
 30
0.0
 10
57.512046
 20
105.131836
 30
0.0
  0
LWPOLYLINE
  5
1af
100
AcDbEntity
  8
Layer_1
 62
7
100
AcDbPolyline
 90
4
 70
1
 10
28.377391
 20
87.394925
 30
0.0
 10
14.442022
 20
88.736366
 30
0.0
 10
15.783727
 20
102.672264
 30
0.0
 10
29.719360
 20
101.330559
 30
0.0
  0
LWPOLYLINE
  5
1b0
100
AcDbEntity
  8
Layer_1
 62
7
100
AcDbPolyline
 90
4
 70
1
 10
65.943277
 20
107.906263
 30
0.0
 10
79.013456
 20
102.888958
 30
0.0
 10
73.996417
 20
89.818514
 30
0.0
 10
60.926237
 20
94.835024
 30
0.0
  0
LWPOLYLINE
  5
1b1
100
AcDbEntity
  8
Layer_1
 62
7
100
AcDbPolyline
 90
4
 70
1
 10
93.987317
 20
41.441995
 30
0.0
 10
80.917138
 20
46.458505
 30
0.0
 10
85.934177
 20
59.528950
 30
0.0
 10
99.004410
 20
54.512439
 30
0.0
  0
LWPOLYLINE
  5
1b2
100
AcDbEntity
  8
Layer_1
 62
7
100
AcDbPolyline
 90
4
 70
1
 10
61.811799
 20
58.076384
 30
0.0
 10
48.741619
 20
63.095540
 30
0.0
 10
53.758659
 20
76.163339
 30
0.0
 10
66.828839
 20
71.146828
 30
0.0
  0
LWPOLYLINE
  5
1b3
100
AcDbEntity
  8
Layer_1
 62
7
100
AcDbPolyline
 90
4
 70
1
 10
25.118776
 20
53.551999
 30
0.0
 10
11.183142
 20
54.893440
 30
0.0
 10
12.525111
 20
68.829073
 30
0.0
 10
26.460480
 20
67.487633
 30
0.0
  0
LWPOLYLINE
  5
1b4
100
AcDbEntity
  8
Layer_1
 62
7
100
AcDbPolyline
 90
4
 70
1
 10
43.477987
 20
59.229970
 30
0.0
 10
30.089778
 20
63.323083
 30
0.0
 10
34.183155
 20
76.711028
 30
0.0
 10
47.571365
 20
72.617915
 30
0.0
  0
LWPOLYLINE
  5
1b5
100
AcDbEntity
  8
Layer_1
 62
7
100
AcDbPolyline
 90
4
 70
1
 10
77.182801
 20
47.892550
 30
0.0
 10
64.112621
 20
52.909061
 30
0.0
 10
69.129661
 20
65.979505
 30
0.0
 10
82.199840
 20
60.962994
 30
0.0
  0
SPLINE
  5
1b6
100
AcDbEntity
  8
Layer_1
 62
7
100
AcDbSpline
 70
8
 71
3
 72
8
 73
4
 74
0
 40
0
 40
0
 40
0
 40
0
 40
1
 40
1
 40
1
 40
1
 10
102.229336
 20
98.249458
 30
0.0
 10
102.229336
 20
98.642451
 30
0.0
 10
102.019677
 20
99.005592
 30
0.0
 10
101.679335
 20
99.202088
 30
0.0
  0
SPLINE
  5
1b7
100
AcDbEntity
  8
Layer_1
 62
7
100
AcDbSpline
 70
8
 71
3
 72
8
 73
4
 74
0
 40
0
 40
0
 40
0
 40
0
 40
1
 40
1
 40
1
 40
1
 10
101.679335
 20
99.202088
 30
0.0
 10
101.338993
 20
99.398585
 30
0.0
 10
100.919674
 20
99.398585
 30
0.0
 10
100.579332
 20
99.202088
 30
0.0
  0
SPLINE
  5
1b8
100
AcDbEntity
  8
Layer_1
 62
7
100
AcDbSpline
 70
8
 71
3
 72
8
 73
4
 74
0
 40
0
 40
0
 40
0
 40
0
 40
1
 40
1
 40
1
 40
1
 10
100.579332
 20
99.202088
 30
0.0
 10
100.238990
 20
99.005592
 30
0.0
 10
100.029331
 20
98.642451
 30
0.0
 10
100.029331
 20
98.249458
 30
0.0
  0
SPLINE
  5
1b9
100
AcDbEntity
  8
Layer_1
 62
7
100
AcDbSpline
 70
8
 71
3
 72
8
 73
4
 74
0
 40
0
 40
0
 40
0
 40
0
 40
1
 40
1
 40
1
 40
1
 10
100.029331
 20
98.249458
 30
0.0
 10
100.029331
 20
97.856465
 30
0.0
 10
100.238990
 20
97.493325
 30
0.0
 10
100.579332
 20
97.296828
 30
0.0
  0
SPLINE
  5
1ba
100
AcDbEntity
  8
Layer_1
 62
7
100
AcDbSpline
 70
8
 71
3
 72
8
 73
4
 74
0
 40
0
 40
0
 40
0
 40
0
 40
1
 40
1
 40
1
 40
1
 10
100.579332
 20
97.296828
 30
0.0
 10
100.919674
 20
97.100332
 30
0.0
 10
101.338993
 20
97.100332
 30
0.0
 10
101.679335
 20
97.296828
 30
0.0
  0
SPLINE
  5
1bb
100
AcDbEntity
  8
Layer_1
 62
7
100
AcDbSpline
 70
8
 71
3
 72
8
 73
4
 74
0
 40
0
 40
0
 40
0
 40
0
 40
1
 40
1
 40
1
 40
1
 10
101.679335
 20
97.296828
 30
0.0
 10
102.019677
 20
97.493325
 30
0.0
 10
102.229336
 20
97.856465
 30
0.0
 10
102.229336
 20
98.249458
 30
0.0
  0
LWPOLYLINE
  5
1bc
100
AcDbEntity
  8
Layer_1
 62
7
100
AcDbPolyline
 90
4
 70
1
 10
83.275109
 20
63.762292
 30
0.0
 10
70.204929
 20
68.781448
 30
0.0
 10
75.221969
 20
81.849247
 30
0.0
 10
88.292149
 20
76.832736
 30
0.0
  0
SPLINE
  5
1bd
100
AcDbEntity
  8
Layer_1
 62
7
100
AcDbSpline
 70
8
 71
3
 72
8
 73
4
 74
0
 40
0
 40
0
 40
0
 40
0
 40
1
 40
1
 40
1
 40
1
 10
26.280981
 20
109.309153
 30
0.0
 10
26.280981
 20
109.702145
 30
0.0
 10
26.071322
 20
110.065286
 30
0.0
 10
25.730980
 20
110.261782
 30
0.0
  0
SPLINE
  5
1be
100
AcDbEntity
  8
Layer_1
 62
7
100
AcDbSpline
 70
8
 71
3
 72
8
 73
4
 74
0
 40
0
 40
0
 40
0
 40
0
 40
1
 40
1
 40
1
 40
1
 10
25.730980
 20
110.261782
 30
0.0
 10
25.390638
 20
110.458279
 30
0.0
 10
24.971320
 20
110.458279
 30
0.0
 10
24.630978
 20
110.261782
 30
0.0
  0
SPLINE
  5
1bf
100
AcDbEntity
  8
Layer_1
 62
7
100
AcDbSpline
 70
8
 71
3
 72
8
 73
4
 74
0
 40
0
 40
0
 40
0
 40
0
 40
1
 40
1
 40
1
 40
1
 10
24.630978
 20
110.261782
 30
0.0
 10
24.290636
 20
110.065286
 30
0.0
 10
24.080977
 20
109.702145
 30
0.0
 10
24.080977
 20
109.309153
 30
0.0
  0
SPLINE
  5
1c0
100
AcDbEntity
  8
Layer_1
 62
7
100
AcDbSpline
 70
8
 71
3
 72
8
 73
4
 74
0
 40
0
 40
0
 40
0
 40
0
 40
1
 40
1
 40
1
 40
1
 10
24.080977
 20
109.309153
 30
0.0
 10
24.080977
 20
108.916160
 30
0.0
 10
24.290636
 20
108.553019
 30
0.0
 10
24.630978
 20
108.356523
 30
0.0
  0
SPLINE
  5
1c1
100
AcDbEntity
  8
Layer_1
 62
7
100
AcDbSpline
 70
8
 71
3
 72
8
 73
4
 74
0
 40
0
 40
0
 40
0
 40
0
 40
1
 40
1
 40
1
 40
1
 10
24.630978
 20
108.356523
 30
0.0
 10
24.971320
 20
108.160026
 30
0.0
 10
25.390638
 20
108.160026
 30
0.0
 10
25.730980
 20
108.356523
 30
0.0
  0
SPLINE
  5
1c2
100
AcDbEntity
  8
Layer_1
 62
7
100
AcDbSpline
 70
8
 71
3
 72
8
 73
4
 74
0
 40
0
 40
0
 40
0
 40
0
 40
1
 40
1
 40
1
 40
1
 10
25.730980
 20
108.356523
 30
0.0
 10
26.071322
 20
108.553019
 30
0.0
 10
26.280981
 20
108.916160
 30
0.0
 10
26.280981
 20
109.309153
 30
0.0
  0
LWPOLYLINE
  5
1c3
100
AcDbEntity
  8
Layer_1
 62
7
100
AcDbPolyline
 90
1
 70
1
 10
102.229336
 20
98.249458
 30
0.0
  0
SPLINE
  5
1c4
100
AcDbEntity
  8
Layer_1
 62
7
100
AcDbSpline
 70
8
 71
3
 72
8
 73
4
 74
0
 40
0
 40
0
 40
0
 40
0
 40
1
 40
1
 40
1
 40
1
 10
147.067104
 20
98.249458
 30
0.0
 10
147.067104
 20
98.642451
 30
0.0
 10
146.857445
 20
99.005592
 30
0.0
 10
146.517103
 20
99.202088
 30
0.0
  0
SPLINE
  5
1c5
100
AcDbEntity
  8
Layer_1
 62
7
100
AcDbSpline
 70
8
 71
3
 72
8
 73
4
 74
0
 40
0
 40
0
 40
0
 40
0
 40
1
 40
1
 40
1
 40
1
 10
146.517103
 20
99.202088
 30
0.0
 10
146.176761
 20
99.398585
 30
0.0
 10
145.757442
 20
99.398585
 30
0.0
 10
145.417100
 20
99.202088
 30
0.0
  0
SPLINE
  5
1c6
100
AcDbEntity
  8
Layer_1
 62
7
100
AcDbSpline
 70
8
 71
3
 72
8
 73
4
 74
0
 40
0
 40
0
 40
0
 40
0
 40
1
 40
1
 40
1
 40
1
 10
145.417100
 20
99.202088
 30
0.0
 10
145.076758
 20
99.005592
 30
0.0
 10
144.867099
 20
98.642451
 30
0.0
 10
144.867099
 20
98.249458
 30
0.0
  0
SPLINE
  5
1c7
100
AcDbEntity
  8
Layer_1
 62
7
100
AcDbSpline
 70
8
 71
3
 72
8
 73
4
 74
0
 40
0
 40
0
 40
0
 40
0
 40
1
 40
1
 40
1
 40
1
 10
144.867099
 20
98.249458
 30
0.0
 10
144.867099
 20
97.856465
 30
0.0
 10
145.076758
 20
97.493325
 30
0.0
 10
145.417100
 20
97.296828
 30
0.0
  0
SPLINE
  5
1c8
100
AcDbEntity
  8
Layer_1
 62
7
100
AcDbSpline
 70
8
 71
3
 72
8
 73
4
 74
0
 40
0
 40
0
 40
0
 40
0
 40
1
 40
1
 40
1
 40
1
 10
145.417100
 20
97.296828
 30
0.0
 10
145.757442
 20
97.100332
 30
0.0
 10
146.176761
 20
97.100332
 30
0.0
 10
146.517103
 20
97.296828
 30
0.0
  0
SPLINE
  5
1c9
100
AcDbEntity
  8
Layer_1
 62
7
100
AcDbSpline
 70
8
 71
3
 72
8
 73
4
 74
0
 40
0
 40
0
 40
0
 40
0
 40
1
 40
1
 40
1
 40
1
 10
146.517103
 20
97.296828
 30
0.0
 10
146.857445
 20
97.493325
 30
0.0
 10
147.067104
 20
97.856465
 30
0.0
 10
147.067104
 20
98.249458
 30
0.0
  0
LWPOLYLINE
  5
1ca
100
AcDbEntity
  8
Layer_1
 62
7
100
AcDbPolyline
 90
1
 70
1
 10
26.280981
 20
109.309153
 30
0.0
  0
LWPOLYLINE
  5
1cb
100
AcDbEntity
  8
Layer_1
 62
7
100
AcDbPolyline
 90
1
 70
1
 10
147.067104
 20
98.249458
 30
0.0
  0
ENDSEC
  0
SECTION
  2
OBJECTS
  0
DICTIONARY
  5
C
330
0
100
AcDbDictionary
  3
ACAD_GROUP
350
D
  3
ACAD_MLINESTYLE
350
17
  0
DICTIONARY
  5
D
330
C
100
AcDbDictionary
  0
DICTIONARY
  5
1A
330
C
100
AcDbDictionary
  0
DICTIONARY
  5
17
330
C
100
AcDbDictionary
  3
STANDARD
350
18
  0
DICTIONARY
  5
19
330
C
100
AcDbDictionary
  0
ENDSEC
  0
EOF
