  0
SECTION
  2
HEADER
  9
$ACADVER
  1
AC1014
  9
$HANDSEED
  5
FFFF
  9
$MEASUREMENT
 70
     1
  0
ENDSEC
  0
SECTION
  2
TABLES
  0
TABLE
  2
VPORT
  5
8
330
0
100
AcDbSymbolTable
 70
     4
  0
VPORT
  5
2E
330
8
100
AcDbSymbolTableRecord
100
AcDbViewportTableRecord
  2
*ACTIVE
 70
     0
 10
0.0
 20
0.0
 11
1.0
 21
1.0
 12
210.0
 22
148.5
 13
0.0
 23
0.0
 14
10.0
 24
10.0
 15
10.0
 25
10.0
 16
0.0
 26
0.0
 36
1.0
 17
0.0
 27
0.0
 37
0.0
 40
341.0
 41
1.24
 42
50.0
 43
0.0
 44
0.0
 50
0.0
 51
0.0
 71
     0
 72
   100
 73
     1
 74
     3
 75
     0
 76
     0
 77
     0
 78
     0
  0
ENDTAB
  0
TABLE
  2
LTYPE
  5
5
330
0
100
AcDbSymbolTable
 70
     1
  0
LTYPE
  5
14
330
5
100
AcDbSymbolTableRecord
100
AcDbLinetypeTableRecord
  2
BYBLOCK
 70
     0
  3

 72
    65
 73
     0
 40
0.0
  0
LTYPE
  5
15
330
5
100
AcDbSymbolTableRecord
100
AcDbLinetypeTableRecord
  2
BYLAYER
 70
     0
  3

 72
    65
 73
     0
 40
0.0
  0
LTYPE
  5
16
330
5
100
AcDbSymbolTableRecord
100
AcDbLinetypeTableRecord
  2
CONTINUOUS
 70
     0
  3
Solid line
 72
    65
 73
     0
 40
0.0
  0
ENDTAB
  0
TABLE
  2
LAYER
  5
2
100
AcDbSymbolTable
 70
2
  0
LAYER
  5
50
100
AcDbSymbolTableRecord
100
AcDbLayerTableRecord
  2
0
 70
0
  6
CONTINUOUS
  0
LAYER
  5
51
100
AcDbSymbolTableRecord
100
AcDbLayerTableRecord
  2
Layer_1
 70
0
  6
CONTINUOUS
  0
ENDTAB
  0
TABLE
  2
STYLE
  5
3
330
0
100
AcDbSymbolTable
 70
     1
  0
STYLE
  5
11
330
3
100
AcDbSymbolTableRecord
100
AcDbTextStyleTableRecord
  2
STANDARD
 70
     0
 40
0.0
 41
1.0
 50
0.0
 71
     0
 42
2.5
  3
txt
  4

  0
ENDTAB
  0
TABLE
  2
VIEW
  5
6
330
0
100
AcDbSymbolTable
 70
     0
  0
ENDTAB
  0
TABLE
  2
UCS
  5
7
330
0
100
AcDbSymbolTable
 70
     0
  0
ENDTAB
  0
TABLE
  2
APPID
  5
9
330
0
100
AcDbSymbolTable
 70
     2
  0
APPID
  5
12
330
9
100
AcDbSymbolTableRecord
100
AcDbRegAppTableRecord
  2
ACAD
 70
     0
  0
ENDTAB
  0
TABLE
  2
DIMSTYLE
  5
A
330
0
100
AcDbSymbolTable
 70
     1
  0
DIMSTYLE
105
27
330
A
100
AcDbSymbolTableRecord
100
AcDbDimStyleTableRecord
  2
ISO-25
 70
     0
  3

  4

  5

  6

  7

 40
1.0
 41
2.5
 42
0.625
 43
3.75
 44
1.25
 45
0.0
 46
0.0
 47
0.0
 48
0.0
140
2.5
141
2.5
142
0.0
143
0.03937007874016
144
1.0
145
0.0
146
1.0
147
0.625
 71
     0
 72
     0
 73
     0
 74
     0
 75
     0
 76
     0
 77
     1
 78
     8
170
     0
171
     3
172
     1
173
     0
174
     0
175
     0
176
     0
177
     0
178
     0
270
     2
271
     2
272
     2
273
     2
274
     3
340
11
275
     0
280
     0
281
     0
282
     0
283
     0
284
     8
285
     0
286
     0
287
     3
288
     0
  0
ENDTAB
  0
TABLE
  2
BLOCK_RECORD
  5
1
330
0
100
AcDbSymbolTable
 70
     1
  0
BLOCK_RECORD
  5
1F
330
1
100
AcDbSymbolTableRecord
100
AcDbBlockTableRecord
  2
*MODEL_SPACE
  0
BLOCK_RECORD
  5
1B
330
1
100
AcDbSymbolTableRecord
100
AcDbBlockTableRecord
  2
*PAPER_SPACE
  0
ENDTAB
  0
ENDSEC
  0
SECTION
  2
BLOCKS
  0
BLOCK
  5
20
330
1F
100
AcDbEntity
  8
0
100
AcDbBlockBegin
  2
*MODEL_SPACE
 70
     0
 10
0.0
 20
0.0
 30
0.0
  3
*MODEL_SPACE
  1

  0
ENDBLK
  5
21
330
1F
100
AcDbEntity
  8
0
100
AcDbBlockEnd
  0
BLOCK
  5
1C
330
1B
100
AcDbEntity
 67
     1
  8
0
100
AcDbBlockBegin
  2
*PAPER_SPACE
  1

  0
ENDBLK
  5
1D
330
1B
100
AcDbEntity
 67
     1
  8
0
100
AcDbBlockEnd
  0
ENDSEC
  0
SECTION
  2
ENTITIES
  0
SPLINE
  5
100
100
AcDbEntity
  8
Layer_1
 62
7
100
AcDbSpline
 70
8
 71
3
 72
8
 73
4
 74
0
 40
0
 40
0
 40
0
 40
0
 40
1
 40
1
 40
1
 40
1
 10
8.340725
 20
46.978147
 30
0.0
 10
6.243142
 20
47.783932
 30
0.0
 10
4.940247
 20
49.889397
 30
0.0
 10
5.155643
 20
52.126095
 30
0.0
  0
LWPOLYLINE
  5
101
100
AcDbEntity
  8
Layer_1
 62
7
100
AcDbPolyline
 90
2
 70
0
 10
22.344274
 20
41.603902
 30
0.0
 10
8.340725
 20
46.978147
 30
0.0
  0
SPLINE
  5
102
100
AcDbEntity
  8
Layer_1
 62
7
100
AcDbSpline
 70
8
 71
3
 72
8
 73
4
 74
0
 40
0
 40
0
 40
0
 40
0
 40
1
 40
1
 40
1
 40
1
 10
10.447328
 20
107.082465
 30
0.0
 10
10.694194
 20
109.646437
 30
0.0
 10
12.848488
 20
111.603263
 30
0.0
 10
15.424332
 20
111.603297
 30
0.0
  0
LWPOLYLINE
  5
103
100
AcDbEntity
  8
Layer_1
 62
7
100
AcDbPolyline
 90
2
 70
0
 10
5.155643
 20
52.126095
 30
0.0
 10
10.447328
 20
107.082465
 30
0.0
  0
SPLINE
  5
104
100
AcDbEntity
  8
Layer_1
 62
7
100
AcDbSpline
 70
8
 71
3
 72
8
 73
4
 74
0
 40
0
 40
0
 40
0
 40
0
 40
1
 40
1
 40
1
 40
1
 10
231.670063
 20
111.603297
 30
0.0
 10
234.245907
 20
111.603263
 30
0.0
 10
236.400201
 20
109.646437
 30
0.0
 10
236.647067
 20
107.082465
 30
0.0
  0
LWPOLYLINE
  5
105
100
AcDbEntity
  8
Layer_1
 62
7
100
AcDbPolyline
 90
14
 70
0
 10
15.424332
 20
111.603297
 30
0.0
 10
25.424274
 20
111.603332
 30
0.0
 10
30.714329
 20
104.322032
 30
0.0
 10
35.714137
 20
104.322032
 30
0.0
 10
41.004192
 20
111.603332
 30
0.0
 10
76.348923
 20
111.603332
 30
0.0
 10
88.627385
 20
102.682417
 30
0.0
 10
158.467010
 20
102.682417
 30
0.0
 10
170.745472
 20
111.603332
 30
0.0
 10
206.090203
 20
111.603332
 30
0.0
 10
211.380258
 20
104.322032
 30
0.0
 10
216.380066
 20
104.322032
 30
0.0
 10
221.670121
 20
111.603332
 30
0.0
 10
231.670063
 20
111.603297
 30
0.0
  0
SPLINE
  5
106
100
AcDbEntity
  8
Layer_1
 62
7
100
AcDbSpline
 70
8
 71
3
 72
8
 73
4
 74
0
 40
0
 40
0
 40
0
 40
0
 40
1
 40
1
 40
1
 40
1
 10
241.938752
 20
52.126095
 30
0.0
 10
242.154148
 20
49.889397
 30
0.0
 10
240.851253
 20
47.783932
 30
0.0
 10
238.753670
 20
46.978174
 30
0.0
  0
LWPOLYLINE
  5
107
100
AcDbEntity
  8
Layer_1
 62
7
100
AcDbPolyline
 90
2
 70
0
 10
236.647067
 20
107.082465
 30
0.0
 10
241.938752
 20
52.126095
 30
0.0
  0
SPLINE
  5
108
100
AcDbEntity
  8
Layer_1
 62
7
100
AcDbSpline
 70
8
 71
3
 72
8
 73
4
 74
0
 40
0
 40
0
 40
0
 40
0
 40
1
 40
1
 40
1
 40
1
 10
144.781321
 20
6.087034
 30
0.0
 10
143.927092
 20
5.467065
 30
0.0
 10
142.898305
 20
5.132792
 30
0.0
 10
141.842415
 20
5.133348
 30
0.0
  0
LWPOLYLINE
  5
109
100
AcDbEntity
  8
Layer_1
 62
7
100
AcDbPolyline
 90
7
 70
0
 10
238.753670
 20
46.978174
 30
0.0
 10
224.750121
 20
41.603902
 30
0.0
 10
217.202123
 20
46.503963
 30
0.0
 10
212.534101
 20
44.712742
 30
0.0
 10
210.204720
 20
36.018574
 30
0.0
 10
158.842452
 20
16.304560
 30
0.0
 10
144.781321
 20
6.087034
 30
0.0
  0
SPLINE
  5
10a
100
AcDbEntity
  8
Layer_1
 62
7
100
AcDbSpline
 70
8
 71
3
 72
8
 73
4
 74
0
 40
0
 40
0
 40
0
 40
0
 40
1
 40
1
 40
1
 40
1
 10
105.251979
 20
5.133348
 30
0.0
 10
104.196089
 20
5.133348
 30
0.0
 10
103.167302
 20
5.467065
 30
0.0
 10
102.313074
 20
6.087034
 30
0.0
  0
LWPOLYLINE
  5
10b
100
AcDbEntity
  8
Layer_1
 62
7
100
AcDbPolyline
 90
10
 70
0
 10
141.842415
 20
5.133348
 30
0.0
 10
140.842427
 20
5.133348
 30
0.0
 10
135.552372
 20
12.414648
 30
0.0
 10
130.552405
 20
12.414648
 30
0.0
 10
125.262356
 20
5.133348
 30
0.0
 10
121.832038
 20
5.133348
 30
0.0
 10
116.541989
 20
12.414648
 30
0.0
 10
111.542022
 20
12.414648
 30
0.0
 10
106.251967
 20
5.133348
 30
0.0
 10
105.251979
 20
5.133348
 30
0.0
  0
LWPOLYLINE
  5
10c
100
AcDbEntity
  8
Layer_1
 62
7
100
AcDbPolyline
 90
6
 70
0
 10
102.313074
 20
6.087034
 30
0.0
 10
88.251943
 20
16.304560
 30
0.0
 10
36.889675
 20
36.018574
 30
0.0
 10
34.560294
 20
44.712742
 30
0.0
 10
29.892272
 20
46.503963
 30
0.0
 10
22.344274
 20
41.603902
 30
0.0
  0
LWPOLYLINE
  5
10d
100
AcDbEntity
  8
Layer_1
 62
7
100
AcDbPolyline
 90
4
 70
1
 10
104.318295
 20
9.533904
 30
0.0
 10
92.992196
 20
17.762408
 30
0.0
 10
101.221070
 20
29.089168
 30
0.0
 10
112.547248
 20
20.858019
 30
0.0
  0
SPLINE
  5
10e
100
AcDbEntity
  8
Layer_1
 62
7
100
AcDbSpline
 70
8
 71
3
 72
8
 73
4
 74
0
 40
0
 40
0
 40
0
 40
0
 40
1
 40
1
 40
1
 40
1
 10
103.042057
 20
37.216046
 30
0.0
 10
103.042250
 20
37.609165
 30
0.0
 10
102.832634
 20
37.972504
 30
0.0
 10
102.492215
 20
38.169119
 30
0.0
  0
SPLINE
  5
10f
100
AcDbEntity
  8
Layer_1
 62
7
100
AcDbSpline
 70
8
 71
3
 72
8
 73
4
 74
0
 40
0
 40
0
 40
0
 40
0
 40
1
 40
1
 40
1
 40
1
 10
102.492215
 20
38.169119
 30
0.0
 10
102.151797
 20
38.365734
 30
0.0
 10
101.732328
 20
38.365734
 30
0.0
 10
101.391909
 20
38.169119
 30
0.0
  0
SPLINE
  5
110
100
AcDbEntity
  8
Layer_1
 62
7
100
AcDbSpline
 70
8
 71
3
 72
8
 73
4
 74
0
 40
0
 40
0
 40
0
 40
0
 40
1
 40
1
 40
1
 40
1
 10
101.391909
 20
38.169119
 30
0.0
 10
101.051490
 20
37.972504
 30
0.0
 10
100.841875
 20
37.609165
 30
0.0
 10
100.842067
 20
37.216046
 30
0.0
  0
SPLINE
  5
111
100
AcDbEntity
  8
Layer_1
 62
7
100
AcDbSpline
 70
8
 71
3
 72
8
 73
4
 74
0
 40
0
 40
0
 40
0
 40
0
 40
1
 40
1
 40
1
 40
1
 10
100.842067
 20
37.216046
 30
0.0
 10
100.841875
 20
36.822927
 30
0.0
 10
101.051490
 20
36.459588
 30
0.0
 10
101.391909
 20
36.262973
 30
0.0
  0
SPLINE
  5
112
100
AcDbEntity
  8
Layer_1
 62
7
100
AcDbSpline
 70
8
 71
3
 72
8
 73
4
 74
0
 40
0
 40
0
 40
0
 40
0
 40
1
 40
1
 40
1
 40
1
 10
101.391909
 20
36.262973
 30
0.0
 10
101.732328
 20
36.066358
 30
0.0
 10
102.151797
 20
36.066358
 30
0.0
 10
102.492215
 20
36.262973
 30
0.0
  0
SPLINE
  5
113
100
AcDbEntity
  8
Layer_1
 62
7
100
AcDbSpline
 70
8
 71
3
 72
8
 73
4
 74
0
 40
0
 40
0
 40
0
 40
0
 40
1
 40
1
 40
1
 40
1
 10
102.492215
 20
36.262973
 30
0.0
 10
102.832634
 20
36.459588
 30
0.0
 10
103.042250
 20
36.822927
 30
0.0
 10
103.042057
 20
37.216046
 30
0.0
  0
LWPOLYLINE
  5
114
100
AcDbEntity
  8
Layer_1
 62
7
100
AcDbPolyline
 90
4
 70
1
 10
82.692015
 20
22.686281
 30
0.0
 10
69.621923
 20
27.702758
 30
0.0
 10
74.638929
 20
40.773114
 30
0.0
 10
87.709021
 20
35.756637
 30
0.0
  0
LWPOLYLINE
  5
115
100
AcDbEntity
  8
Layer_1
 62
7
100
AcDbPolyline
 90
1
 70
1
 10
103.042057
 20
37.216046
 30
0.0
  0
LWPOLYLINE
  5
116
100
AcDbEntity
  8
Layer_1
 62
7
100
AcDbPolyline
 90
4
 70
1
 10
93.986496
 20
39.820619
 30
0.0
 10
80.916404
 20
44.837096
 30
0.0
 10
85.933410
 20
57.907452
 30
0.0
 10
99.003555
 20
52.890975
 30
0.0
  0
LWPOLYLINE
  5
117
100
AcDbEntity
  8
Layer_1
 62
7
100
AcDbPolyline
 90
2
 70
0
 10
154.102199
 20
17.762408
 30
0.0
 10
145.873324
 20
29.089168
 30
0.0
  0
LWPOLYLINE
  5
118
100
AcDbEntity
  8
Layer_1
 62
7
100
AcDbPolyline
 90
2
 70
0
 10
142.776099
 20
9.533904
 30
0.0
 10
154.102199
 20
17.762408
 30
0.0
  0
LWPOLYLINE
  5
119
100
AcDbEntity
  8
Layer_1
 62
7
100
AcDbPolyline
 90
2
 70
0
 10
134.547146
 20
20.858019
 30
0.0
 10
142.776099
 20
9.533904
 30
0.0
  0
LWPOLYLINE
  5
11a
100
AcDbEntity
  8
Layer_1
 62
7
100
AcDbPolyline
 90
2
 70
0
 10
145.873324
 20
29.089168
 30
0.0
 10
134.547146
 20
20.858019
 30
0.0
  0
LWPOLYLINE
  5
11b
100
AcDbEntity
  8
Layer_1
 62
7
100
AcDbPolyline
 90
2
 70
0
 10
177.472472
 20
27.702758
 30
0.0
 10
172.455466
 20
40.773114
 30
0.0
  0
LWPOLYLINE
  5
11c
100
AcDbEntity
  8
Layer_1
 62
7
100
AcDbPolyline
 90
2
 70
0
 10
164.402380
 20
22.686281
 30
0.0
 10
177.472472
 20
27.702758
 30
0.0
  0
LWPOLYLINE
  5
11d
100
AcDbEntity
  8
Layer_1
 62
7
100
AcDbPolyline
 90
2
 70
0
 10
159.385374
 20
35.756637
 30
0.0
 10
164.402380
 20
22.686281
 30
0.0
  0
SPLINE
  5
11e
100
AcDbEntity
  8
Layer_1
 62
7
100
AcDbSpline
 70
8
 71
3
 72
8
 73
4
 74
0
 40
0
 40
0
 40
0
 40
0
 40
1
 40
1
 40
1
 40
1
 10
146.252327
 20
37.216046
 30
0.0
 10
146.252327
 20
37.609036
 30
0.0
 10
146.042669
 20
37.972174
 30
0.0
 10
145.702329
 20
38.168670
 30
0.0
  0
SPLINE
  5
11f
100
AcDbEntity
  8
Layer_1
 62
7
100
AcDbSpline
 70
8
 71
3
 72
8
 73
4
 74
0
 40
0
 40
0
 40
0
 40
0
 40
1
 40
1
 40
1
 40
1
 10
145.702329
 20
38.168670
 30
0.0
 10
145.361990
 20
38.365165
 30
0.0
 10
144.942674
 20
38.365165
 30
0.0
 10
144.602334
 20
38.168670
 30
0.0
  0
SPLINE
  5
120
100
AcDbEntity
  8
Layer_1
 62
7
100
AcDbSpline
 70
8
 71
3
 72
8
 73
4
 74
0
 40
0
 40
0
 40
0
 40
0
 40
1
 40
1
 40
1
 40
1
 10
144.602334
 20
38.168670
 30
0.0
 10
144.261995
 20
37.972174
 30
0.0
 10
144.052337
 20
37.609036
 30
0.0
 10
144.052337
 20
37.216046
 30
0.0
  0
SPLINE
  5
121
100
AcDbEntity
  8
Layer_1
 62
7
100
AcDbSpline
 70
8
 71
3
 72
8
 73
4
 74
0
 40
0
 40
0
 40
0
 40
0
 40
1
 40
1
 40
1
 40
1
 10
144.052337
 20
37.216046
 30
0.0
 10
144.052337
 20
36.823056
 30
0.0
 10
144.261995
 20
36.459918
 30
0.0
 10
144.602334
 20
36.263422
 30
0.0
  0
SPLINE
  5
122
100
AcDbEntity
  8
Layer_1
 62
7
100
AcDbSpline
 70
8
 71
3
 72
8
 73
4
 74
0
 40
0
 40
0
 40
0
 40
0
 40
1
 40
1
 40
1
 40
1
 10
144.602334
 20
36.263422
 30
0.0
 10
144.942674
 20
36.066927
 30
0.0
 10
145.361990
 20
36.066927
 30
0.0
 10
145.702329
 20
36.263422
 30
0.0
  0
SPLINE
  5
123
100
AcDbEntity
  8
Layer_1
 62
7
100
AcDbSpline
 70
8
 71
3
 72
8
 73
4
 74
0
 40
0
 40
0
 40
0
 40
0
 40
1
 40
1
 40
1
 40
1
 10
145.702329
 20
36.263422
 30
0.0
 10
146.042669
 20
36.459918
 30
0.0
 10
146.252327
 20
36.823056
 30
0.0
 10
146.252327
 20
37.216046
 30
0.0
  0
LWPOLYLINE
  5
124
100
AcDbEntity
  8
Layer_1
 62
7
100
AcDbPolyline
 90
2
 70
0
 10
172.455466
 20
40.773114
 30
0.0
 10
159.385374
 20
35.756637
 30
0.0
  0
LWPOLYLINE
  5
125
100
AcDbEntity
  8
Layer_1
 62
7
100
AcDbPolyline
 90
1
 70
1
 10
146.252327
 20
37.216046
 30
0.0
  0
LWPOLYLINE
  5
126
100
AcDbEntity
  8
Layer_1
 62
7
100
AcDbPolyline
 90
2
 70
0
 10
166.177991
 20
44.837096
 30
0.0
 10
161.160985
 20
57.907452
 30
0.0
  0
LWPOLYLINE
  5
127
100
AcDbEntity
  8
Layer_1
 62
7
100
AcDbPolyline
 90
2
 70
0
 10
153.107898
 20
39.820619
 30
0.0
 10
166.177991
 20
44.837096
 30
0.0
  0
LWPOLYLINE
  5
128
100
AcDbEntity
  8
Layer_1
 62
7
100
AcDbPolyline
 90
2
 70
0
 10
148.090839
 20
52.890975
 30
0.0
 10
153.107898
 20
39.820619
 30
0.0
  0
LWPOLYLINE
  5
129
100
AcDbEntity
  8
Layer_1
 62
7
100
AcDbPolyline
 90
2
 70
0
 10
161.160985
 20
57.907452
 30
0.0
 10
148.090839
 20
52.890975
 30
0.0
  0
LWPOLYLINE
  5
12a
100
AcDbEntity
  8
Layer_1
 62
7
100
AcDbPolyline
 90
2
 70
0
 10
182.982395
 20
51.287608
 30
0.0
 10
177.965389
 20
64.357964
 30
0.0
  0
LWPOLYLINE
  5
12b
100
AcDbEntity
  8
Layer_1
 62
7
100
AcDbPolyline
 90
2
 70
0
 10
169.912303
 20
46.271131
 30
0.0
 10
182.982395
 20
51.287608
 30
0.0
  0
LWPOLYLINE
  5
12c
100
AcDbEntity
  8
Layer_1
 62
7
100
AcDbPolyline
 90
2
 70
0
 10
164.895297
 20
59.341487
 30
0.0
 10
169.912303
 20
46.271131
 30
0.0
  0
SPLINE
  5
12d
100
AcDbEntity
  8
Layer_1
 62
7
100
AcDbSpline
 70
8
 71
3
 72
8
 73
4
 74
0
 40
0
 40
0
 40
0
 40
0
 40
1
 40
1
 40
1
 40
1
 10
213.687456
 20
51.129970
 30
0.0
 10
213.687649
 20
51.523088
 30
0.0
 10
213.478034
 20
51.886428
 30
0.0
 10
213.137615
 20
52.083043
 30
0.0
  0
SPLINE
  5
12e
100
AcDbEntity
  8
Layer_1
 62
7
100
AcDbSpline
 70
8
 71
3
 72
8
 73
4
 74
0
 40
0
 40
0
 40
0
 40
0
 40
1
 40
1
 40
1
 40
1
 10
213.137615
 20
52.083043
 30
0.0
 10
212.797196
 20
52.279658
 30
0.0
 10
212.377727
 20
52.279658
 30
0.0
 10
212.037308
 20
52.083043
 30
0.0
  0
SPLINE
  5
12f
100
AcDbEntity
  8
Layer_1
 62
7
100
AcDbSpline
 70
8
 71
3
 72
8
 73
4
 74
0
 40
0
 40
0
 40
0
 40
0
 40
1
 40
1
 40
1
 40
1
 10
212.037308
 20
52.083043
 30
0.0
 10
211.696890
 20
51.886428
 30
0.0
 10
211.487274
 20
51.523088
 30
0.0
 10
211.487467
 20
51.129970
 30
0.0
  0
SPLINE
  5
130
100
AcDbEntity
  8
Layer_1
 62
7
100
AcDbSpline
 70
8
 71
3
 72
8
 73
4
 74
0
 40
0
 40
0
 40
0
 40
0
 40
1
 40
1
 40
1
 40
1
 10
211.487467
 20
51.129970
 30
0.0
 10
211.487274
 20
50.736851
 30
0.0
 10
211.696890
 20
50.373512
 30
0.0
 10
212.037308
 20
50.176897
 30
0.0
  0
SPLINE
  5
131
100
AcDbEntity
  8
Layer_1
 62
7
100
AcDbSpline
 70
8
 71
3
 72
8
 73
4
 74
0
 40
0
 40
0
 40
0
 40
0
 40
1
 40
1
 40
1
 40
1
 10
212.037308
 20
50.176897
 30
0.0
 10
212.377727
 20
49.980281
 30
0.0
 10
212.797196
 20
49.980281
 30
0.0
 10
213.137615
 20
50.176897
 30
0.0
  0
SPLINE
  5
132
100
AcDbEntity
  8
Layer_1
 62
7
100
AcDbSpline
 70
8
 71
3
 72
8
 73
4
 74
0
 40
0
 40
0
 40
0
 40
0
 40
1
 40
1
 40
1
 40
1
 10
213.137615
 20
50.176897
 30
0.0
 10
213.478034
 20
50.373512
 30
0.0
 10
213.687649
 20
50.736851
 30
0.0
 10
213.687456
 20
51.129970
 30
0.0
  0
LWPOLYLINE
  5
133
100
AcDbEntity
  8
Layer_1
 62
7
100
AcDbPolyline
 90
2
 70
0
 10
177.965389
 20
64.357964
 30
0.0
 10
164.895297
 20
59.341487
 30
0.0
  0
LWPOLYLINE
  5
134
100
AcDbEntity
  8
Layer_1
 62
7
100
AcDbPolyline
 90
1
 70
1
 10
213.687456
 20
51.129970
 30
0.0
  0
LWPOLYLINE
  5
135
100
AcDbEntity
  8
Layer_1
 62
7
100
AcDbPolyline
 90
2
 70
0
 10
235.911518
 20
53.271974
 30
0.0
 10
234.569558
 20
67.207514
 30
0.0
  0
LWPOLYLINE
  5
136
100
AcDbEntity
  8
Layer_1
 62
7
100
AcDbPolyline
 90
2
 70
0
 10
221.975978
 20
51.930542
 30
0.0
 10
235.911518
 20
53.271974
 30
0.0
  0
LWPOLYLINE
  5
137
100
AcDbEntity
  8
Layer_1
 62
7
100
AcDbPolyline
 90
2
 70
0
 10
220.634282
 20
65.866082
 30
0.0
 10
221.975978
 20
51.930542
 30
0.0
  0
LWPOLYLINE
  5
138
100
AcDbEntity
  8
Layer_1
 62
7
100
AcDbPolyline
 90
2
 70
0
 10
234.569558
 20
67.207514
 30
0.0
 10
220.634282
 20
65.866082
 30
0.0
  0
LWPOLYLINE
  5
139
100
AcDbEntity
  8
Layer_1
 62
7
100
AcDbPolyline
 90
2
 70
0
 10
217.005009
 20
61.701560
 30
0.0
 10
212.911659
 20
75.089415
 30
0.0
  0
LWPOLYLINE
  5
13a
100
AcDbEntity
  8
Layer_1
 62
7
100
AcDbPolyline
 90
2
 70
0
 10
203.616890
 20
57.608474
 30
0.0
 10
217.005009
 20
61.701560
 30
0.0
  0
LWPOLYLINE
  5
13b
100
AcDbEntity
  8
Layer_1
 62
7
100
AcDbPolyline
 90
2
 70
0
 10
199.523540
 20
70.996330
 30
0.0
 10
203.616890
 20
57.608474
 30
0.0
  0
LWPOLYLINE
  5
13c
100
AcDbEntity
  8
Layer_1
 62
7
100
AcDbPolyline
 90
2
 70
0
 10
212.911659
 20
75.089415
 30
0.0
 10
199.523540
 20
70.996330
 30
0.0
  0
LWPOLYLINE
  5
13d
100
AcDbEntity
  8
Layer_1
 62
7
100
AcDbPolyline
 90
2
 70
0
 10
234.282221
 20
70.194646
 30
0.0
 10
232.940261
 20
84.130186
 30
0.0
  0
LWPOLYLINE
  5
13e
100
AcDbEntity
  8
Layer_1
 62
7
100
AcDbPolyline
 90
2
 70
0
 10
220.346681
 20
68.850569
 30
0.0
 10
234.282221
 20
70.194646
 30
0.0
  0
LWPOLYLINE
  5
13f
100
AcDbEntity
  8
Layer_1
 62
7
100
AcDbPolyline
 90
2
 70
0
 10
219.004721
 20
82.786109
 30
0.0
 10
220.346681
 20
68.850569
 30
0.0
  0
LWPOLYLINE
  5
140
100
AcDbEntity
  8
Layer_1
 62
7
100
AcDbPolyline
 90
2
 70
0
 10
232.940261
 20
84.130186
 30
0.0
 10
219.004721
 20
82.786109
 30
0.0
  0
LWPOLYLINE
  5
141
100
AcDbEntity
  8
Layer_1
 62
7
100
AcDbPolyline
 90
2
 70
0
 10
160.085723
 20
60.709377
 30
0.0
 10
155.068717
 20
73.777088
 30
0.0
  0
LWPOLYLINE
  5
142
100
AcDbEntity
  8
Layer_1
 62
7
100
AcDbPolyline
 90
2
 70
0
 10
147.015736
 20
55.690254
 30
0.0
 10
160.085723
 20
60.709377
 30
0.0
  0
LWPOLYLINE
  5
143
100
AcDbEntity
  8
Layer_1
 62
7
100
AcDbPolyline
 90
2
 70
0
 10
141.998598
 20
68.760611
 30
0.0
 10
147.015736
 20
55.690254
 30
0.0
  0
LWPOLYLINE
  5
144
100
AcDbEntity
  8
Layer_1
 62
7
100
AcDbPolyline
 90
2
 70
0
 10
155.068717
 20
73.777088
 30
0.0
 10
141.998598
 20
68.760611
 30
0.0
  0
LWPOLYLINE
  5
145
100
AcDbEntity
  8
Layer_1
 62
7
100
AcDbPolyline
 90
2
 70
0
 10
176.890127
 20
67.159889
 30
0.0
 10
171.873121
 20
80.227600
 30
0.0
  0
LWPOLYLINE
  5
146
100
AcDbEntity
  8
Layer_1
 62
7
100
AcDbPolyline
 90
2
 70
0
 10
163.820035
 20
62.140766
 30
0.0
 10
176.890127
 20
67.159889
 30
0.0
  0
LWPOLYLINE
  5
147
100
AcDbEntity
  8
Layer_1
 62
7
100
AcDbPolyline
 90
2
 70
0
 10
158.803029
 20
75.211123
 30
0.0
 10
163.820035
 20
62.140766
 30
0.0
  0
LWPOLYLINE
  5
148
100
AcDbEntity
  8
Layer_1
 62
7
100
AcDbPolyline
 90
2
 70
0
 10
171.873121
 20
80.227600
 30
0.0
 10
158.803029
 20
75.211123
 30
0.0
  0
LWPOLYLINE
  5
149
100
AcDbEntity
  8
Layer_1
 62
7
100
AcDbPolyline
 90
2
 70
0
 10
198.353293
 20
61.474019
 30
0.0
 10
193.336287
 20
74.541730
 30
0.0
  0
LWPOLYLINE
  5
14a
100
AcDbEntity
  8
Layer_1
 62
7
100
AcDbPolyline
 90
2
 70
0
 10
185.283201
 20
56.454896
 30
0.0
 10
198.353293
 20
61.474019
 30
0.0
  0
LWPOLYLINE
  5
14b
100
AcDbEntity
  8
Layer_1
 62
7
100
AcDbPolyline
 90
2
 70
0
 10
180.266195
 20
69.525253
 30
0.0
 10
185.283201
 20
56.454896
 30
0.0
  0
LWPOLYLINE
  5
14c
100
AcDbEntity
  8
Layer_1
 62
7
100
AcDbPolyline
 90
2
 70
0
 10
193.336287
 20
74.541730
 30
0.0
 10
180.266195
 20
69.525253
 30
0.0
  0
LWPOLYLINE
  5
14d
100
AcDbEntity
  8
Layer_1
 62
7
100
AcDbPolyline
 90
2
 70
0
 10
212.034570
 20
77.957485
 30
0.0
 10
207.941484
 20
91.345340
 30
0.0
  0
LWPOLYLINE
  5
14e
100
AcDbEntity
  8
Layer_1
 62
7
100
AcDbPolyline
 90
2
 70
0
 10
198.646450
 20
73.864400
 30
0.0
 10
212.034570
 20
77.957485
 30
0.0
  0
LWPOLYLINE
  5
14f
100
AcDbEntity
  8
Layer_1
 62
7
100
AcDbPolyline
 90
2
 70
0
 10
194.553365
 20
87.252255
 30
0.0
 10
198.646450
 20
73.864400
 30
0.0
  0
LWPOLYLINE
  5
150
100
AcDbEntity
  8
Layer_1
 62
7
100
AcDbPolyline
 90
2
 70
0
 10
207.941484
 20
91.345340
 30
0.0
 10
194.553365
 20
87.252255
 30
0.0
  0
LWPOLYLINE
  5
151
100
AcDbEntity
  8
Layer_1
 62
7
100
AcDbPolyline
 90
2
 70
0
 10
232.652660
 20
87.114672
 30
0.0
 10
231.310964
 20
101.050474
 30
0.0
  0
LWPOLYLINE
  5
152
100
AcDbEntity
  8
Layer_1
 62
7
100
AcDbPolyline
 90
2
 70
0
 10
218.717385
 20
85.773241
 30
0.0
 10
232.652660
 20
87.114672
 30
0.0
  0
LWPOLYLINE
  5
153
100
AcDbEntity
  8
Layer_1
 62
7
100
AcDbPolyline
 90
2
 70
0
 10
217.375424
 20
99.708778
 30
0.0
 10
218.717385
 20
85.773241
 30
0.0
  0
LWPOLYLINE
  5
154
100
AcDbEntity
  8
Layer_1
 62
7
100
AcDbPolyline
 90
2
 70
0
 10
231.310964
 20
101.050474
 30
0.0
 10
217.375424
 20
99.708778
 30
0.0
  0
LWPOLYLINE
  5
155
100
AcDbEntity
  8
Layer_1
 62
7
100
AcDbPolyline
 90
2
 70
0
 10
192.261025
 20
77.343654
 30
0.0
 10
187.244019
 20
90.414011
 30
0.0
  0
LWPOLYLINE
  5
156
100
AcDbEntity
  8
Layer_1
 62
7
100
AcDbPolyline
 90
2
 70
0
 10
179.190933
 20
72.327178
 30
0.0
 10
192.261025
 20
77.343654
 30
0.0
  0
LWPOLYLINE
  5
157
100
AcDbEntity
  8
Layer_1
 62
7
100
AcDbPolyline
 90
2
 70
0
 10
174.173927
 20
85.397534
 30
0.0
 10
179.190933
 20
72.327178
 30
0.0
  0
LWPOLYLINE
  5
158
100
AcDbEntity
  8
Layer_1
 62
7
100
AcDbPolyline
 90
2
 70
0
 10
187.244019
 20
90.414011
 30
0.0
 10
174.173927
 20
85.397534
 30
0.0
  0
LWPOLYLINE
  5
159
100
AcDbEntity
  8
Layer_1
 62
7
100
AcDbPolyline
 90
2
 70
0
 10
207.064394
 20
94.216056
 30
0.0
 10
202.971309
 20
107.603379
 30
0.0
  0
LWPOLYLINE
  5
15a
100
AcDbEntity
  8
Layer_1
 62
7
100
AcDbPolyline
 90
2
 70
0
 10
193.676275
 20
90.122971
 30
0.0
 10
207.064394
 20
94.216056
 30
0.0
  0
LWPOLYLINE
  5
15b
100
AcDbEntity
  8
Layer_1
 62
7
100
AcDbPolyline
 90
2
 70
0
 10
189.582925
 20
103.510029
 30
0.0
 10
193.676275
 20
90.122971
 30
0.0
  0
SPLINE
  5
15c
100
AcDbEntity
  8
Layer_1
 62
7
100
AcDbSpline
 70
8
 71
3
 72
8
 73
4
 74
0
 40
0
 40
0
 40
0
 40
0
 40
1
 40
1
 40
1
 40
1
 10
212.480144
 20
101.119895
 30
0.0
 10
212.480337
 20
101.513014
 30
0.0
 10
212.270721
 20
101.876353
 30
0.0
 10
211.930303
 20
102.072968
 30
0.0
  0
SPLINE
  5
15d
100
AcDbEntity
  8
Layer_1
 62
7
100
AcDbSpline
 70
8
 71
3
 72
8
 73
4
 74
0
 40
0
 40
0
 40
0
 40
0
 40
1
 40
1
 40
1
 40
1
 10
211.930303
 20
102.072968
 30
0.0
 10
211.589884
 20
102.269583
 30
0.0
 10
211.170415
 20
102.269583
 30
0.0
 10
210.829996
 20
102.072968
 30
0.0
  0
SPLINE
  5
15e
100
AcDbEntity
  8
Layer_1
 62
7
100
AcDbSpline
 70
8
 71
3
 72
8
 73
4
 74
0
 40
0
 40
0
 40
0
 40
0
 40
1
 40
1
 40
1
 40
1
 10
210.829996
 20
102.072968
 30
0.0
 10
210.489578
 20
101.876353
 30
0.0
 10
210.279962
 20
101.513014
 30
0.0
 10
210.280155
 20
101.119895
 30
0.0
  0
SPLINE
  5
15f
100
AcDbEntity
  8
Layer_1
 62
7
100
AcDbSpline
 70
8
 71
3
 72
8
 73
4
 74
0
 40
0
 40
0
 40
0
 40
0
 40
1
 40
1
 40
1
 40
1
 10
210.280155
 20
101.119895
 30
0.0
 10
210.279962
 20
100.726776
 30
0.0
 10
210.489578
 20
100.363437
 30
0.0
 10
210.829996
 20
100.166822
 30
0.0
  0
SPLINE
  5
160
100
AcDbEntity
  8
Layer_1
 62
7
100
AcDbSpline
 70
8
 71
3
 72
8
 73
4
 74
0
 40
0
 40
0
 40
0
 40
0
 40
1
 40
1
 40
1
 40
1
 10
210.829996
 20
100.166822
 30
0.0
 10
211.170415
 20
99.970207
 30
0.0
 10
211.589884
 20
99.970207
 30
0.0
 10
211.930303
 20
100.166822
 30
0.0
  0
SPLINE
  5
161
100
AcDbEntity
  8
Layer_1
 62
7
100
AcDbSpline
 70
8
 71
3
 72
8
 73
4
 74
0
 40
0
 40
0
 40
0
 40
0
 40
1
 40
1
 40
1
 40
1
 10
211.930303
 20
100.166822
 30
0.0
 10
212.270721
 20
100.363437
 30
0.0
 10
212.480337
 20
100.726776
 30
0.0
 10
212.480144
 20
101.119895
 30
0.0
  0
LWPOLYLINE
  5
162
100
AcDbEntity
  8
Layer_1
 62
7
100
AcDbPolyline
 90
2
 70
0
 10
202.971309
 20
107.603379
 30
0.0
 10
189.582925
 20
103.510029
 30
0.0
  0
SPLINE
  5
163
100
AcDbEntity
  8
Layer_1
 62
7
100
AcDbSpline
 70
8
 71
3
 72
8
 73
4
 74
0
 40
0
 40
0
 40
0
 40
0
 40
1
 40
1
 40
1
 40
1
 10
35.606928
 20
51.129970
 30
0.0
 10
35.607121
 20
51.523088
 30
0.0
 10
35.397505
 20
51.886428
 30
0.0
 10
35.057087
 20
52.083043
 30
0.0
  0
SPLINE
  5
164
100
AcDbEntity
  8
Layer_1
 62
7
100
AcDbSpline
 70
8
 71
3
 72
8
 73
4
 74
0
 40
0
 40
0
 40
0
 40
0
 40
1
 40
1
 40
1
 40
1
 10
35.057087
 20
52.083043
 30
0.0
 10
34.716668
 20
52.279658
 30
0.0
 10
34.297199
 20
52.279658
 30
0.0
 10
33.956780
 20
52.083043
 30
0.0
  0
SPLINE
  5
165
100
AcDbEntity
  8
Layer_1
 62
7
100
AcDbSpline
 70
8
 71
3
 72
8
 73
4
 74
0
 40
0
 40
0
 40
0
 40
0
 40
1
 40
1
 40
1
 40
1
 10
33.956780
 20
52.083043
 30
0.0
 10
33.616361
 20
51.886428
 30
0.0
 10
33.406746
 20
51.523088
 30
0.0
 10
33.406939
 20
51.129970
 30
0.0
  0
SPLINE
  5
166
100
AcDbEntity
  8
Layer_1
 62
7
100
AcDbSpline
 70
8
 71
3
 72
8
 73
4
 74
0
 40
0
 40
0
 40
0
 40
0
 40
1
 40
1
 40
1
 40
1
 10
33.406939
 20
51.129970
 30
0.0
 10
33.406746
 20
50.736851
 30
0.0
 10
33.616361
 20
50.373512
 30
0.0
 10
33.956780
 20
50.176897
 30
0.0
  0
SPLINE
  5
167
100
AcDbEntity
  8
Layer_1
 62
7
100
AcDbSpline
 70
8
 71
3
 72
8
 73
4
 74
0
 40
0
 40
0
 40
0
 40
0
 40
1
 40
1
 40
1
 40
1
 10
33.956780
 20
50.176897
 30
0.0
 10
34.297199
 20
49.980281
 30
0.0
 10
34.716668
 20
49.980281
 30
0.0
 10
35.057087
 20
50.176897
 30
0.0
  0
SPLINE
  5
168
100
AcDbEntity
  8
Layer_1
 62
7
100
AcDbSpline
 70
8
 71
3
 72
8
 73
4
 74
0
 40
0
 40
0
 40
0
 40
0
 40
1
 40
1
 40
1
 40
1
 10
35.057087
 20
50.176897
 30
0.0
 10
35.397505
 20
50.373512
 30
0.0
 10
35.607121
 20
50.736851
 30
0.0
 10
35.606928
 20
51.129970
 30
0.0
  0
LWPOLYLINE
  5
169
100
AcDbEntity
  8
Layer_1
 62
7
100
AcDbPolyline
 90
1
 70
1
 10
212.480144
 20
101.119895
 30
0.0
  0
LWPOLYLINE
  5
16a
100
AcDbEntity
  8
Layer_1
 62
7
100
AcDbPolyline
 90
1
 70
1
 10
35.606928
 20
51.129970
 30
0.0
  0
LWPOLYLINE
  5
16b
100
AcDbEntity
  8
Layer_1
 62
7
100
AcDbPolyline
 90
4
 70
1
 10
25.118417
 20
51.930542
 30
0.0
 10
11.182877
 20
53.271974
 30
0.0
 10
12.524837
 20
67.207514
 30
0.0
 10
26.460113
 20
65.866082
 30
0.0
  0
LWPOLYLINE
  5
16c
100
AcDbEntity
  8
Layer_1
 62
7
100
AcDbPolyline
 90
4
 70
1
 10
61.811194
 20
56.454896
 30
0.0
 10
48.741102
 20
61.474019
 30
0.0
 10
53.758108
 20
74.541730
 30
0.0
 10
66.828200
 20
69.525253
 30
0.0
  0
LWPOLYLINE
  5
16d
100
AcDbEntity
  8
Layer_1
 62
7
100
AcDbPolyline
 90
4
 70
1
 10
43.477505
 20
57.608474
 30
0.0
 10
30.089386
 20
61.701560
 30
0.0
 10
34.182736
 20
75.089415
 30
0.0
 10
47.570855
 20
70.996330
 30
0.0
  0
LWPOLYLINE
  5
16e
100
AcDbEntity
  8
Layer_1
 62
7
100
AcDbPolyline
 90
4
 70
1
 10
77.182092
 20
46.271131
 30
0.0
 10
64.112000
 20
51.287608
 30
0.0
 10
69.129006
 20
64.357964
 30
0.0
 10
82.199098
 20
59.341487
 30
0.0
  0
LWPOLYLINE
  5
16f
100
AcDbEntity
  8
Layer_1
 62
7
100
AcDbPolyline
 90
4
 70
1
 10
100.078658
 20
55.690254
 30
0.0
 10
87.008672
 20
60.709377
 30
0.0
 10
92.025678
 20
73.777088
 30
0.0
 10
105.095796
 20
68.760611
 30
0.0
  0
LWPOLYLINE
  5
170
100
AcDbEntity
  8
Layer_1
 62
7
100
AcDbPolyline
 90
4
 70
1
 10
83.274360
 20
62.140766
 30
0.0
 10
70.204268
 20
67.159889
 30
0.0
 10
75.221274
 20
80.227600
 30
0.0
 10
88.291366
 20
75.211123
 30
0.0
  0
LWPOLYLINE
  5
171
100
AcDbEntity
  8
Layer_1
 62
7
100
AcDbPolyline
 90
4
 70
1
 10
106.170872
 20
71.562535
 30
0.0
 10
93.100940
 20
76.579012
 30
0.0
 10
98.117946
 20
89.649369
 30
0.0
 10
111.188011
 20
84.632892
 30
0.0
  0
LWPOLYLINE
  5
172
100
AcDbEntity
  8
Layer_1
 62
7
100
AcDbPolyline
 90
4
 70
1
 10
67.903462
 20
72.327178
 30
0.0
 10
54.833370
 20
77.343654
 30
0.0
 10
59.850376
 20
90.414011
 30
0.0
 10
72.920468
 20
85.397534
 30
0.0
  0
SPLINE
  5
173
100
AcDbEntity
  8
Layer_1
 62
7
100
AcDbSpline
 70
8
 71
3
 72
8
 73
4
 74
0
 40
0
 40
0
 40
0
 40
0
 40
1
 40
1
 40
1
 40
1
 10
101.747100
 20
97.132579
 30
0.0
 10
101.747100
 20
97.525570
 30
0.0
 10
101.537442
 20
97.888708
 30
0.0
 10
101.197103
 20
98.085203
 30
0.0
  0
SPLINE
  5
174
100
AcDbEntity
  8
Layer_1
 62
7
100
AcDbSpline
 70
8
 71
3
 72
8
 73
4
 74
0
 40
0
 40
0
 40
0
 40
0
 40
1
 40
1
 40
1
 40
1
 10
101.197103
 20
98.085203
 30
0.0
 10
100.856763
 20
98.281698
 30
0.0
 10
100.437447
 20
98.281698
 30
0.0
 10
100.097107
 20
98.085203
 30
0.0
  0
SPLINE
  5
175
100
AcDbEntity
  8
Layer_1
 62
7
100
AcDbSpline
 70
8
 71
3
 72
8
 73
4
 74
0
 40
0
 40
0
 40
0
 40
0
 40
1
 40
1
 40
1
 40
1
 10
100.097107
 20
98.085203
 30
0.0
 10
99.756768
 20
97.888708
 30
0.0
 10
99.547110
 20
97.525570
 30
0.0
 10
99.547110
 20
97.132579
 30
0.0
  0
SPLINE
  5
176
100
AcDbEntity
  8
Layer_1
 62
7
100
AcDbSpline
 70
8
 71
3
 72
8
 73
4
 74
0
 40
0
 40
0
 40
0
 40
0
 40
1
 40
1
 40
1
 40
1
 10
99.547110
 20
97.132579
 30
0.0
 10
99.547110
 20
96.739589
 30
0.0
 10
99.756768
 20
96.376450
 30
0.0
 10
100.097107
 20
96.179955
 30
0.0
  0
SPLINE
  5
177
100
AcDbEntity
  8
Layer_1
 62
7
100
AcDbSpline
 70
8
 71
3
 72
8
 73
4
 74
0
 40
0
 40
0
 40
0
 40
0
 40
1
 40
1
 40
1
 40
1
 10
100.097107
 20
96.179955
 30
0.0
 10
100.437447
 20
95.983460
 30
0.0
 10
100.856763
 20
95.983460
 30
0.0
 10
101.197103
 20
96.179955
 30
0.0
  0
SPLINE
  5
178
100
AcDbEntity
  8
Layer_1
 62
7
100
AcDbSpline
 70
8
 71
3
 72
8
 73
4
 74
0
 40
0
 40
0
 40
0
 40
0
 40
1
 40
1
 40
1
 40
1
 10
101.197103
 20
96.179955
 30
0.0
 10
101.537442
 20
96.376450
 30
0.0
 10
101.747100
 20
96.739589
 30
0.0
 10
101.747100
 20
97.132579
 30
0.0
  0
LWPOLYLINE
  5
179
100
AcDbEntity
  8
Layer_1
 62
7
100
AcDbPolyline
 90
4
 70
1
 10
89.366628
 20
78.013047
 30
0.0
 10
76.296536
 20
83.029524
 30
0.0
 10
81.313542
 20
96.099878
 30
0.0
 10
94.383634
 20
91.083404
 30
0.0
  0
LWPOLYLINE
  5
17a
100
AcDbEntity
  8
Layer_1
 62
7
100
AcDbPolyline
 90
1
 70
1
 10
101.747100
 20
97.132579
 30
0.0
  0
LWPOLYLINE
  5
17b
100
AcDbEntity
  8
Layer_1
 62
7
100
AcDbPolyline
 90
4
 70
1
 10
26.747714
 20
68.850569
 30
0.0
 10
12.812174
 20
70.194646
 30
0.0
 10
14.154134
 20
84.130186
 30
0.0
 10
28.089674
 20
82.786109
 30
0.0
  0
LWPOLYLINE
  5
17c
100
AcDbEntity
  8
Layer_1
 62
7
100
AcDbPolyline
 90
4
 70
1
 10
48.447945
 20
73.864400
 30
0.0
 10
35.059825
 20
77.957485
 30
0.0
 10
39.152911
 20
91.345340
 30
0.0
 10
52.541030
 20
87.252255
 30
0.0
  0
LWPOLYLINE
  5
17d
100
AcDbEntity
  8
Layer_1
 62
7
100
AcDbPolyline
 90
4
 70
1
 10
28.377010
 20
85.773241
 30
0.0
 10
14.441735
 20
87.114672
 30
0.0
 10
15.783431
 20
101.050474
 30
0.0
 10
29.718971
 20
99.708778
 30
0.0
  0
SPLINE
  5
17e
100
AcDbEntity
  8
Layer_1
 62
7
100
AcDbSpline
 70
8
 71
3
 72
8
 73
4
 74
0
 40
0
 40
0
 40
0
 40
0
 40
1
 40
1
 40
1
 40
1
 10
36.814240
 20
101.119895
 30
0.0
 10
36.814433
 20
101.513014
 30
0.0
 10
36.604817
 20
101.876353
 30
0.0
 10
36.264399
 20
102.072968
 30
0.0
  0
SPLINE
  5
17f
100
AcDbEntity
  8
Layer_1
 62
7
100
AcDbSpline
 70
8
 71
3
 72
8
 73
4
 74
0
 40
0
 40
0
 40
0
 40
0
 40
1
 40
1
 40
1
 40
1
 10
36.264399
 20
102.072968
 30
0.0
 10
35.923980
 20
102.269583
 30
0.0
 10
35.504511
 20
102.269583
 30
0.0
 10
35.164092
 20
102.072968
 30
0.0
  0
SPLINE
  5
180
100
AcDbEntity
  8
Layer_1
 62
7
100
AcDbSpline
 70
8
 71
3
 72
8
 73
4
 74
0
 40
0
 40
0
 40
0
 40
0
 40
1
 40
1
 40
1
 40
1
 10
35.164092
 20
102.072968
 30
0.0
 10
34.823673
 20
101.876353
 30
0.0
 10
34.614058
 20
101.513014
 30
0.0
 10
34.614251
 20
101.119895
 30
0.0
  0
SPLINE
  5
181
100
AcDbEntity
  8
Layer_1
 62
7
100
AcDbSpline
 70
8
 71
3
 72
8
 73
4
 74
0
 40
0
 40
0
 40
0
 40
0
 40
1
 40
1
 40
1
 40
1
 10
34.614251
 20
101.119895
 30
0.0
 10
34.614058
 20
100.726776
 30
0.0
 10
34.823673
 20
100.363437
 30
0.0
 10
35.164092
 20
100.166822
 30
0.0
  0
SPLINE
  5
182
100
AcDbEntity
  8
Layer_1
 62
7
100
AcDbSpline
 70
8
 71
3
 72
8
 73
4
 74
0
 40
0
 40
0
 40
0
 40
0
 40
1
 40
1
 40
1
 40
1
 10
35.164092
 20
100.166822
 30
0.0
 10
35.504511
 20
99.970207
 30
0.0
 10
35.923980
 20
99.970207
 30
0.0
 10
36.264399
 20
100.166822
 30
0.0
  0
SPLINE
  5
183
100
AcDbEntity
  8
Layer_1
 62
7
100
AcDbSpline
 70
8
 71
3
 72
8
 73
4
 74
0
 40
0
 40
0
 40
0
 40
0
 40
1
 40
1
 40
1
 40
1
 10
36.264399
 20
100.166822
 30
0.0
 10
36.604817
 20
100.363437
 30
0.0
 10
36.814433
 20
100.726776
 30
0.0
 10
36.814240
 20
101.119895
 30
0.0
  0
LWPOLYLINE
  5
184
100
AcDbEntity
  8
Layer_1
 62
7
100
AcDbPolyline
 90
4
 70
1
 10
53.418120
 20
90.122971
 30
0.0
 10
40.030000
 20
94.216056
 30
0.0
 10
44.123086
 20
107.603379
 30
0.0
 10
57.511470
 20
103.510029
 30
0.0
  0
LWPOLYLINE
  5
185
100
AcDbEntity
  8
Layer_1
 62
7
100
AcDbPolyline
 90
1
 70
1
 10
36.814240
 20
101.119895
 30
0.0
  0
LWPOLYLINE
  5
186
100
AcDbEntity
  8
Layer_1
 62
7
100
AcDbPolyline
 90
4
 70
1
 10
65.942644
 20
106.284437
 30
0.0
 10
79.012736
 20
101.267167
 30
0.0
 10
73.995730
 20
88.196813
 30
0.0
 10
60.925638
 20
93.213290
 30
0.0
  0
LWPOLYLINE
  5
187
100
AcDbEntity
  8
Layer_1
 62
7
100
AcDbPolyline
 90
2
 70
0
 10
153.993455
 20
76.579012
 30
0.0
 10
148.976449
 20
89.649369
 30
0.0
  0
LWPOLYLINE
  5
188
100
AcDbEntity
  8
Layer_1
 62
7
100
AcDbPolyline
 90
2
 70
0
 10
140.923522
 20
71.562535
 30
0.0
 10
153.993455
 20
76.579012
 30
0.0
  0
LWPOLYLINE
  5
189
100
AcDbEntity
  8
Layer_1
 62
7
100
AcDbPolyline
 90
2
 70
0
 10
135.906383
 20
84.632892
 30
0.0
 10
140.923522
 20
71.562535
 30
0.0
  0
LWPOLYLINE
  5
18a
100
AcDbEntity
  8
Layer_1
 62
7
100
AcDbPolyline
 90
2
 70
0
 10
148.976449
 20
89.649369
 30
0.0
 10
135.906383
 20
84.632892
 30
0.0
  0
LWPOLYLINE
  5
18b
100
AcDbEntity
  8
Layer_1
 62
7
100
AcDbPolyline
 90
2
 70
0
 10
170.797859
 20
83.029524
 30
0.0
 10
165.780853
 20
96.099878
 30
0.0
  0
LWPOLYLINE
  5
18c
100
AcDbEntity
  8
Layer_1
 62
7
100
AcDbPolyline
 90
2
 70
0
 10
157.727767
 20
78.013047
 30
0.0
 10
170.797859
 20
83.029524
 30
0.0
  0
LWPOLYLINE
  5
18d
100
AcDbEntity
  8
Layer_1
 62
7
100
AcDbPolyline
 90
2
 70
0
 10
152.710761
 20
91.083404
 30
0.0
 10
157.727767
 20
78.013047
 30
0.0
  0
SPLINE
  5
18e
100
AcDbEntity
  8
Layer_1
 62
7
100
AcDbSpline
 70
8
 71
3
 72
8
 73
4
 74
0
 40
0
 40
0
 40
0
 40
0
 40
1
 40
1
 40
1
 40
1
 10
147.547284
 20
97.132579
 30
0.0
 10
147.547284
 20
97.525569
 30
0.0
 10
147.337626
 20
97.888708
 30
0.0
 10
146.997286
 20
98.085203
 30
0.0
  0
SPLINE
  5
18f
100
AcDbEntity
  8
Layer_1
 62
7
100
AcDbSpline
 70
8
 71
3
 72
8
 73
4
 74
0
 40
0
 40
0
 40
0
 40
0
 40
1
 40
1
 40
1
 40
1
 10
146.997286
 20
98.085203
 30
0.0
 10
146.656946
 20
98.281698
 30
0.0
 10
146.237631
 20
98.281698
 30
0.0
 10
145.897291
 20
98.085203
 30
0.0
  0
SPLINE
  5
190
100
AcDbEntity
  8
Layer_1
 62
7
100
AcDbSpline
 70
8
 71
3
 72
8
 73
4
 74
0
 40
0
 40
0
 40
0
 40
0
 40
1
 40
1
 40
1
 40
1
 10
145.897291
 20
98.085203
 30
0.0
 10
145.556951
 20
97.888708
 30
0.0
 10
145.347294
 20
97.525569
 30
0.0
 10
145.347294
 20
97.132579
 30
0.0
  0
SPLINE
  5
191
100
AcDbEntity
  8
Layer_1
 62
7
100
AcDbSpline
 70
8
 71
3
 72
8
 73
4
 74
0
 40
0
 40
0
 40
0
 40
0
 40
1
 40
1
 40
1
 40
1
 10
145.347294
 20
97.132579
 30
0.0
 10
145.347294
 20
96.739589
 30
0.0
 10
145.556951
 20
96.376451
 30
0.0
 10
145.897291
 20
96.179955
 30
0.0
  0
SPLINE
  5
192
100
AcDbEntity
  8
Layer_1
 62
7
100
AcDbSpline
 70
8
 71
3
 72
8
 73
4
 74
0
 40
0
 40
0
 40
0
 40
0
 40
1
 40
1
 40
1
 40
1
 10
145.897291
 20
96.179955
 30
0.0
 10
146.237631
 20
95.983460
 30
0.0
 10
146.656946
 20
95.983460
 30
0.0
 10
146.997286
 20
96.179955
 30
0.0
  0
SPLINE
  5
193
100
AcDbEntity
  8
Layer_1
 62
7
100
AcDbSpline
 70
8
 71
3
 72
8
 73
4
 74
0
 40
0
 40
0
 40
0
 40
0
 40
1
 40
1
 40
1
 40
1
 10
146.997286
 20
96.179955
 30
0.0
 10
147.337626
 20
96.376451
 30
0.0
 10
147.547284
 20
96.739589
 30
0.0
 10
147.547284
 20
97.132579
 30
0.0
  0
LWPOLYLINE
  5
194
100
AcDbEntity
  8
Layer_1
 62
7
100
AcDbPolyline
 90
2
 70
0
 10
165.780853
 20
96.099878
 30
0.0
 10
152.710761
 20
91.083404
 30
0.0
  0
LWPOLYLINE
  5
195
100
AcDbEntity
  8
Layer_1
 62
7
100
AcDbPolyline
 90
1
 70
1
 10
147.547284
 20
97.132579
 30
0.0
  0
LWPOLYLINE
  5
196
100
AcDbEntity
  8
Layer_1
 62
7
100
AcDbPolyline
 90
2
 70
0
 10
186.168757
 20
93.213290
 30
0.0
 10
181.151751
 20
106.284437
 30
0.0
  0
LWPOLYLINE
  5
197
100
AcDbEntity
  8
Layer_1
 62
7
100
AcDbPolyline
 90
2
 70
0
 10
173.098665
 20
88.196813
 30
0.0
 10
186.168757
 20
93.213290
 30
0.0
  0
LWPOLYLINE
  5
198
100
AcDbEntity
  8
Layer_1
 62
7
100
AcDbPolyline
 90
2
 70
0
 10
168.081659
 20
101.267167
 30
0.0
 10
173.098665
 20
88.196813
 30
0.0
  0
LWPOLYLINE
  5
199
100
AcDbEntity
  8
Layer_1
 62
7
100
AcDbPolyline
 90
2
 70
0
 10
181.151751
 20
106.284437
 30
0.0
 10
168.081659
 20
101.267167
 30
0.0
  0
ENDSEC
  0
SECTION
  2
OBJECTS
  0
DICTIONARY
  5
C
330
0
100
AcDbDictionary
  3
ACAD_GROUP
350
D
  3
ACAD_MLINESTYLE
350
17
  0
DICTIONARY
  5
D
330
C
100
AcDbDictionary
  0
DICTIONARY
  5
1A
330
C
100
AcDbDictionary
  0
DICTIONARY
  5
17
330
C
100
AcDbDictionary
  3
STANDARD
350
18
  0
DICTIONARY
  5
19
330
C
100
AcDbDictionary
  0
ENDSEC
  0
EOF
