  0
SECTION
  2
HEADER
  9
$ACADVER
  1
AC1027
  9
$ACADMAINTVER
 70
105
  9
$DWGCODEPAGE
  3
ANSI_1252
  9
$LASTSAVEDBY
  1
ezdxf
  9
$REQUIREDVERSIONS
160
0
  9
$INSBASE
 10
0.0
 20
0.0
 30
0.0
  9
$EXTMIN
 10
1e+20
 20
1e+20
 30
1e+20
  9
$EXTMAX
 10
-1e+20
 20
-1e+20
 30
-1e+20
  9
$LIMMIN
 10
0.0
 20
0.0
  9
$LIMMAX
 10
420.0
 20
297.0
  9
$ORTHOMODE
 70
0
  9
$REGENMODE
 70
1
  9
$FILLMODE
 70
1
  9
$QTEXTMODE
 70
0
  9
$MIRRTEXT
 70
1
  9
$LTSCALE
 40
1.0
  9
$ATTMODE
 70
1
  9
$TEXTSIZE
 40
2.5
  9
$TRACEWID
 40
1.0
  9
$TEXTSTYLE
  7
Standard
  9
$CLAYER
  8
0
  9
$CELTYPE
  6
ByLayer
  9
$CECOLOR
 62
256
  9
$CELTSCALE
 40
1.0
  9
$DISPSILH
 70
0
  9
$DIMSCALE
 40
1.0
  9
$DIMASZ
 40
2.5
  9
$DIMEXO
 40
0.625
  9
$DIMDLI
 40
3.75
  9
$DIMRND
 40
0.0
  9
$DIMDLE
 40
0.0
  9
$DIMEXE
 40
1.25
  9
$DIMTP
 40
0.0
  9
$DIMTM
 40
0.0
  9
$DIMTXT
 40
2.5
  9
$DIMCEN
 40
2.5
  9
$DIMTSZ
 40
0.0
  9
$DIMTOL
 70
0
  9
$DIMLIM
 70
0
  9
$DIMTIH
 70
0
  9
$DIMTOH
 70
0
  9
$DIMSE1
 70
0
  9
$DIMSE2
 70
0
  9
$DIMTAD
 70
1
  9
$DIMZIN
 70
8
  9
$DIMBLK
  1

  9
$DIMASO
 70
1
  9
$DIMSHO
 70
1
  9
$DIMPOST
  1

  9
$DIMAPOST
  1

  9
$DIMALT
 70
0
  9
$DIMALTD
 70
3
  9
$DIMALTF
 40
0.03937007874
  9
$DIMLFAC
 40
1.0
  9
$DIMTOFL
 70
1
  9
$DIMTVP
 40
0.0
  9
$DIMTIX
 70
0
  9
$DIMSOXD
 70
0
  9
$DIMSAH
 70
0
  9
$DIMBLK1
  1

  9
$DIMBLK2
  1

  9
$DIMSTYLE
  2
ISO-25
  9
$DIMCLRD
 70
0
  9
$DIMCLRE
 70
0
  9
$DIMCLRT
 70
0
  9
$DIMTFAC
 40
1.0
  9
$DIMGAP
 40
0.625
  9
$DIMJUST
 70
0
  9
$DIMSD1
 70
0
  9
$DIMSD2
 70
0
  9
$DIMTOLJ
 70
0
  9
$DIMTZIN
 70
8
  9
$DIMALTZ
 70
0
  9
$DIMALTTZ
 70
0
  9
$DIMUPT
 70
0
  9
$DIMDEC
 70
2
  9
$DIMTDEC
 70
2
  9
$DIMALTU
 70
2
  9
$DIMALTTD
 70
3
  9
$DIMTXSTY
  7
Standard
  9
$DIMAUNIT
 70
0
  9
$DIMADEC
 70
0
  9
$DIMALTRND
 40
0.0
  9
$DIMAZIN
 70
0
  9
$DIMDSEP
 70
44
  9
$DIMATFIT
 70
3
  9
$DIMFRAC
 70
0
  9
$DIMLDRBLK
  1

  9
$DIMLUNIT
 70
2
  9
$DIMLWD
 70
-2
  9
$DIMLWE
 70
-2
  9
$DIMTMOVE
 70
0
  9
$DIMFXL
 40
1.0
  9
$DIMFXLON
 70
0
  9
$DIMJOGANG
 40
0.785398163397
  9
$DIMTFILL
 70
0
  9
$DIMTFILLCLR
 70
0
  9
$DIMARCSYM
 70
0
  9
$DIMLTYPE
  6

  9
$DIMLTEX1
  6

  9
$DIMLTEX2
  6

  9
$DIMTXTDIRECTION
 70
0
  9
$LUNITS
 70
2
  9
$LUPREC
 70
4
  9
$SKETCHINC
 40
1.0
  9
$FILLETRAD
 40
10.0
  9
$AUNITS
 70
0
  9
$AUPREC
 70
2
  9
$MENU
  1
.
  9
$ELEVATION
 40
0.0
  9
$PELEVATION
 40
0.0
  9
$THICKNESS
 40
0.0
  9
$LIMCHECK
 70
0
  9
$CHAMFERA
 40
0.0
  9
$CHAMFERB
 40
0.0
  9
$CHAMFERC
 40
0.0
  9
$CHAMFERD
 40
0.0
  9
$SKPOLY
 70
0
  9
$TDCREATE
 40
2459453.9762847223
  9
$TDUCREATE
 40
2458532.153996898
  9
$TDUPDATE
 40
2459453.9762847223
  9
$TDUUPDATE
 40
2458532.1544311
  9
$TDINDWG
 40
0.0
  9
$TDUSRTIMER
 40
0.0
  9
$USRTIMER
 70
1
  9
$ANGBASE
 50
0.0
  9
$ANGDIR
 70
0
  9
$PDMODE
 70
0
  9
$PDSIZE
 40
0.0
  9
$PLINEWID
 40
0.0
  9
$SPLFRAME
 70
0
  9
$SPLINETYPE
 70
6
  9
$SPLINESEGS
 70
8
  9
$HANDSEED
  5
C8
  9
$SURFTAB1
 70
6
  9
$SURFTAB2
 70
6
  9
$SURFTYPE
 70
6
  9
$SURFU
 70
6
  9
$SURFV
 70
6
  9
$UCSBASE
  2

  9
$UCSNAME
  2

  9
$UCSORG
 10
0.0
 20
0.0
 30
0.0
  9
$UCSXDIR
 10
1.0
 20
0.0
 30
0.0
  9
$UCSYDIR
 10
0.0
 20
1.0
 30
0.0
  9
$UCSORTHOREF
  2

  9
$UCSORTHOVIEW
 70
0
  9
$UCSORGTOP
 10
0.0
 20
0.0
 30
0.0
  9
$UCSORGBOTTOM
 10
0.0
 20
0.0
 30
0.0
  9
$UCSORGLEFT
 10
0.0
 20
0.0
 30
0.0
  9
$UCSORGRIGHT
 10
0.0
 20
0.0
 30
0.0
  9
$UCSORGFRONT
 10
0.0
 20
0.0
 30
0.0
  9
$UCSORGBACK
 10
0.0
 20
0.0
 30
0.0
  9
$PUCSBASE
  2

  9
$PUCSNAME
  2

  9
$PUCSORG
 10
0.0
 20
0.0
 30
0.0
  9
$PUCSXDIR
 10
1.0
 20
0.0
 30
0.0
  9
$PUCSYDIR
 10
0.0
 20
1.0
 30
0.0
  9
$PUCSORTHOREF
  2

  9
$PUCSORTHOVIEW
 70
0
  9
$PUCSORGTOP
 10
0.0
 20
0.0
 30
0.0
  9
$PUCSORGBOTTOM
 10
0.0
 20
0.0
 30
0.0
  9
$PUCSORGLEFT
 10
0.0
 20
0.0
 30
0.0
  9
$PUCSORGRIGHT
 10
0.0
 20
0.0
 30
0.0
  9
$PUCSORGFRONT
 10
0.0
 20
0.0
 30
0.0
  9
$PUCSORGBACK
 10
0.0
 20
0.0
 30
0.0
  9
$USERI1
 70
0
  9
$USERI2
 70
0
  9
$USERI3
 70
0
  9
$USERI4
 70
0
  9
$USERI5
 70
0
  9
$USERR1
 40
0.0
  9
$USERR2
 40
0.0
  9
$USERR3
 40
0.0
  9
$USERR4
 40
0.0
  9
$USERR5
 40
0.0
  9
$WORLDVIEW
 70
1
  9
$SHADEDGE
 70
3
  9
$SHADEDIF
 70
70
  9
$TILEMODE
 70
1
  9
$MAXACTVP
 70
64
  9
$PINSBASE
 10
0.0
 20
0.0
 30
0.0
  9
$PLIMCHECK
 70
0
  9
$PEXTMIN
 10
1e+20
 20
1e+20
 30
1e+20
  9
$PEXTMAX
 10
-1e+20
 20
-1e+20
 30
-1e+20
  9
$PLIMMIN
 10
0.0
 20
0.0
  9
$PLIMMAX
 10
420.0
 20
297.0
  9
$UNITMODE
 70
0
  9
$VISRETAIN
 70
1
  9
$PLINEGEN
 70
0
  9
$PSLTSCALE
 70
1
  9
$TREEDEPTH
 70
3020
  9
$CMLSTYLE
  2
Standard
  9
$CMLJUST
 70
0
  9
$CMLSCALE
 40
20.0
  9
$PROXYGRAPHICS
 70
1
  9
$MEASUREMENT
 70
1
  9
$CELWEIGHT
370
-1
  9
$ENDCAPS
280
0
  9
$JOINSTYLE
280
0
  9
$LWDISPLAY
290
0
  9
$INSUNITS
 70
6
  9
$HYPERLINKBASE
  1

  9
$STYLESHEET
  1

  9
$XEDIT
290
1
  9
$CEPSNTYPE
380
0
  9
$PSTYLEMODE
290
1
  9
$FINGERPRINTGUID
  2
{84CD6883-34A1-422A-8B51-C616F2FA873A}
  9
$VERSIONGUID
  2
{971C483D-A47B-49B3-AF4B-10F9D3D86090}
  9
$EXTNAMES
290
1
  9
$PSVPSCALE
 40
0.0
  9
$OLESTARTUP
290
0
  9
$SORTENTS
280
127
  9
$INDEXCTL
280
0
  9
$HIDETEXT
280
1
  9
$XCLIPFRAME
280
0
  9
$HALOGAP
280
0
  9
$OBSCOLOR
 70
257
  9
$OBSLTYPE
280
0
  9
$INTERSECTIONDISPLAY
280
0
  9
$INTERSECTIONCOLOR
 70
257
  9
$DIMASSOC
280
2
  9
$PROJECTNAME
  1

  9
$CAMERADISPLAY
290
0
  9
$LENSLENGTH
 40
50.0
  9
$CAMERAHEIGHT
 40
0.0
  9
$STEPSPERSEC
 40
24.0
  9
$STEPSIZE
 40
100.0
  9
$3DDWFPREC
 40
2.0
  9
$PSOLWIDTH
 40
0.005
  9
$PSOLHEIGHT
 40
0.08
  9
$LOFTANG1
 40
1.570796326795
  9
$LOFTANG2
 40
1.570796326795
  9
$LOFTMAG1
 40
0.0
  9
$LOFTMAG2
 40
0.0
  9
$LOFTPARAM
 70
7
  9
$LOFTNORMALS
280
1
  9
$LATITUDE
 40
37.795
  9
$LONGITUDE
 40
-122.394
  9
$NORTHDIRECTION
 40
0.0
  9
$TIMEZONE
 70
-8000
  9
$LIGHTGLYPHDISPLAY
280
1
  9
$TILEMODELIGHTSYNCH
280
1
  9
$CMATERIAL
347
20
  9
$SOLIDHIST
280
0
  9
$SHOWHIST
280
1
  9
$DWFFRAME
280
2
  9
$DGNFRAME
280
2
  9
$REALWORLDSCALE
290
1
  9
$INTERFERECOLOR
 62
256
  9
$CSHADOW
280
0
  9
$SHADOWPLANELOCATION
 40
0.0
  0
ENDSEC
  0
SECTION
  2
CLASSES
  0
CLASS
  1
ACDBDICTIONARYWDFLT
  2
AcDbDictionaryWithDefault
  3
ObjectDBX Classes
 90
0
 91
0
280
0
281
0
  0
CLASS
  1
SUN
  2
AcDbSun
  3
SCENEOE
 90
1153
 91
0
280
0
281
0
  0
CLASS
  1
VISUALSTYLE
  2
AcDbVisualStyle
  3
ObjectDBX Classes
 90
4095
 91
0
280
0
281
0
  0
CLASS
  1
MATERIAL
  2
AcDbMaterial
  3
ObjectDBX Classes
 90
1153
 91
0
280
0
281
0
  0
CLASS
  1
SCALE
  2
AcDbScale
  3
ObjectDBX Classes
 90
1153
 91
0
280
0
281
0
  0
CLASS
  1
TABLESTYLE
  2
AcDbTableStyle
  3
ObjectDBX Classes
 90
4095
 91
0
280
0
281
0
  0
CLASS
  1
MLEADERSTYLE
  2
AcDbMLeaderStyle
  3
ACDB_MLEADERSTYLE_CLASS
 90
4095
 91
0
280
0
281
0
  0
CLASS
  1
DICTIONARYVAR
  2
AcDbDictionaryVar
  3
ObjectDBX Classes
 90
0
 91
0
280
0
281
0
  0
CLASS
  1
CELLSTYLEMAP
  2
AcDbCellStyleMap
  3
ObjectDBX Classes
 90
1152
 91
0
280
0
281
0
  0
CLASS
  1
MENTALRAYRENDERSETTINGS
  2
AcDbMentalRayRenderSettings
  3
SCENEOE
 90
1024
 91
0
280
0
281
0
  0
CLASS
  1
ACDBDETAILVIEWSTYLE
  2
AcDbDetailViewStyle
  3
ObjectDBX Classes
 90
1025
 91
0
280
0
281
0
  0
CLASS
  1
ACDBSECTIONVIEWSTYLE
  2
AcDbSectionViewStyle
  3
ObjectDBX Classes
 90
1025
 91
0
280
0
281
0
  0
CLASS
  1
RASTERVARIABLES
  2
AcDbRasterVariables
  3
ISM
 90
0
 91
0
280
0
281
0
  0
CLASS
  1
ACDBPLACEHOLDER
  2
AcDbPlaceHolder
  3
ObjectDBX Classes
 90
0
 91
0
280
0
281
0
  0
CLASS
  1
LAYOUT
  2
AcDbLayout
  3
ObjectDBX Classes
 90
0
 91
0
280
0
281
0
  0
ENDSEC
  0
SECTION
  2
TABLES
  0
TABLE
  2
VPORT
  5
8
330
0
100
AcDbSymbolTable
 70
1
  0
VPORT
  5
23
330
8
100
AcDbSymbolTableRecord
100
AcDbViewportTableRecord
  2
*Active
 70
0
 10
0.0
 20
0.0
 11
1.0
 21
1.0
 12
344.2
 22
148.5
 13
0.0
 23
0.0
 14
0.5
 24
0.5
 15
0.5
 25
0.5
 16
0.0
 26
0.0
 36
1.0
 17
0.0
 27
0.0
 37
0.0
 40
297.0
 41
1.34
 42
50.0
 43
0.0
 44
0.0
 50
0.0
 51
0.0
 71
0
 72
1000
 73
1
 74
3
 75
0
 76
0
 77
0
 78
0
281
0
 65
0
146
0.0
  0
ENDTAB
  0
TABLE
  2
LTYPE
  5
2
330
0
100
AcDbSymbolTable
 70
3
  0
LTYPE
  5
24
330
2
100
AcDbSymbolTableRecord
100
AcDbLinetypeTableRecord
  2
ByBlock
 70
0
  3

 72
65
 73
0
 40
0.0
  0
LTYPE
  5
25
330
2
100
AcDbSymbolTableRecord
100
AcDbLinetypeTableRecord
  2
ByLayer
 70
0
  3

 72
65
 73
0
 40
0.0
  0
LTYPE
  5
26
330
2
100
AcDbSymbolTableRecord
100
AcDbLinetypeTableRecord
  2
Continuous
 70
0
  3

 72
65
 73
0
 40
0.0
  0
ENDTAB
  0
TABLE
  2
LAYER
  5
1
330
0
100
AcDbSymbolTable
 70
2
  0
LAYER
  5
27
330
1
100
AcDbSymbolTableRecord
100
AcDbLayerTableRecord
  2
0
 70
0
 62
7
  6
Continuous
370
-3
390
13
347
21
  0
LAYER
  5
28
330
1
100
AcDbSymbolTableRecord
100
AcDbLayerTableRecord
  2
Defpoints
 70
0
 62
7
  6
Continuous
290
0
370
-3
390
13
347
21
  0
ENDTAB
  0
TABLE
  2
STYLE
  5
5
330
0
100
AcDbSymbolTable
 70
1
  0
STYLE
  5
29
330
5
100
AcDbSymbolTableRecord
100
AcDbTextStyleTableRecord
  2
Standard
 70
0
 40
0.0
 41
1.0
 50
0.0
 71
0
 42
2.5
  3
txt
  4

  0
ENDTAB
  0
TABLE
  2
VIEW
  5
7
330
0
100
AcDbSymbolTable
 70
0
  0
ENDTAB
  0
TABLE
  2
UCS
  5
6
330
0
100
AcDbSymbolTable
 70
0
  0
ENDTAB
  0
TABLE
  2
APPID
  5
3
330
0
100
AcDbSymbolTable
 70
3
  0
APPID
  5
2A
330
3
100
AcDbSymbolTableRecord
100
AcDbRegAppTableRecord
  2
ACAD
 70
0
  0
APPID
  5
C5
330
3
100
AcDbSymbolTableRecord
100
AcDbRegAppTableRecord
  2
HATCHBACKGROUNDCOLOR
 70
0
  0
APPID
  5
C6
330
3
100
AcDbSymbolTableRecord
100
AcDbRegAppTableRecord
  2
EZDXF
 70
0
  0
ENDTAB
  0
TABLE
  2
DIMSTYLE
  5
4
330
0
100
AcDbSymbolTable
 70
1
100
AcDbDimStyleTable
  0
DIMSTYLE
105
2B
330
4
100
AcDbSymbolTableRecord
100
AcDbDimStyleTableRecord
  2
Standard
 70
0
 40
1.0
 41
2.5
 42
0.625
 43
3.75
 44
1.25
 45
0.0
 46
0.0
 47
0.0
 48
0.0
 49
2.5
140
2.5
141
2.5
142
0.0
143
0.03937007874
144
1.0
145
0.0
146
1.0
147
0.625
148
0.0
 69
0
 70
0
 71
0
 72
0
 73
0
 74
0
 75
0
 76
0
 77
1
 78
8
 79
0
170
0
171
3
172
1
173
0
174
0
175
0
176
0
177
0
178
0
179
0
271
0
272
2
273
2
274
3
275
0
276
0
277
2
278
44
279
0
280
0
281
0
282
0
283
0
284
8
285
0
286
0
288
0
289
3
290
0
371
-2
372
-2
  0
ENDTAB
  0
TABLE
  2
BLOCK_RECORD
  5
9
330
0
100
AcDbSymbolTable
 70
2
  0
BLOCK_RECORD
  5
17
330
9
100
AcDbSymbolTableRecord
100
AcDbBlockTableRecord
  2
*Model_Space
340
1A
 70
0
280
1
281
0
  0
BLOCK_RECORD
  5
1B
330
9
100
AcDbSymbolTableRecord
100
AcDbBlockTableRecord
  2
*Paper_Space
340
1E
 70
0
280
1
281
0
  0
ENDTAB
  0
ENDSEC
  0
SECTION
  2
BLOCKS
  0
BLOCK
  5
18
330
17
100
AcDbEntity
  8
0
100
AcDbBlockBegin
  2
*Model_Space
 70
0
 10
0.0
 20
0.0
 30
0.0
  3
*Model_Space
  1

  0
ENDBLK
  5
19
330
17
100
AcDbEntity
  8
0
100
AcDbBlockEnd
  0
BLOCK
  5
1C
330
1B
100
AcDbEntity
  8
0
100
AcDbBlockBegin
  2
*Paper_Space
 70
0
 10
0.0
 20
0.0
 30
0.0
  3
*Paper_Space
  1

  0
ENDBLK
  5
1D
330
1B
100
AcDbEntity
  8
0
100
AcDbBlockEnd
  0
ENDSEC
  0
SECTION
  2
ENTITIES
  0
LINE
  5
2F
330
17
100
AcDbEntity
  8
0
100
AcDbLine
 10
18.295301582969707
 20
58.77574012145296
 30
-1.6000000000000227
 11
17.29530158296987
 21
58.77574012145296
 31
-1.6000000000000227
  0
LINE
  5
30
330
17
100
AcDbEntity
  8
0
100
AcDbLine
 10
18.295301582969707
 20
58.77574012145296
 30
-2.6645352591003757e-14
 11
18.295301582969707
 21
58.77574012145296
 31
-1.6000000000000267
  0
LINE
  5
31
330
17
100
AcDbEntity
  8
0
100
AcDbLine
 10
18.295301582969707
 20
58.77574012145296
 30
-2.220446049250313e-14
 11
17.29530158296987
 21
58.77574012145296
 31
-2.220446049250313e-14
  0
LINE
  5
32
330
17
100
AcDbEntity
  8
0
100
AcDbLine
 10
17.29530158296987
 20
58.77574012145296
 30
-1.6000000000000254
 11
17.29530158296987
 21
58.77574012145296
 31
-2.531308496145357e-14
  0
ARC
  5
33
330
17
100
AcDbEntity
  8
0
100
AcDbCircle
 10
18.295301582969707
 20
53.77574012145296
 30
-1.6000000000000258
 40
5.0
100
AcDbArc
 50
54.00000000000003
 51
90.0
  0
LINE
  5
34
330
17
100
AcDbEntity
  8
0
100
AcDbLine
 10
35.29542597469463
 20
47.60476665698249
 30
-1.600000000000045
 11
21.23422784443207
 21
57.8208250933277
 31
-1.6000000000000263
  0
LINE
  5
35
330
17
100
AcDbEntity
  8
0
100
AcDbLine
 10
86.65799594826228
 20
27.888523297139976
 30
-1.6000000000000276
 11
35.29542597469462
 21
47.60476665698249
 31
-1.600000000000045
  0
LINE
  5
36
330
17
100
AcDbEntity
  8
0
100
AcDbLine
 10
86.6579959482623
 20
27.888523297140015
 30
-1.5999999999999996
 11
88.98736735418498
 21
19.195190860538403
 31
-1.5999999999999996
  0
LINE
  5
37
330
17
100
AcDbEntity
  8
0
100
AcDbLine
 10
88.98736735418498
 20
19.1951908605384
 30
-1.5999999999999996
 11
93.65526948667099
 21
17.403351112811897
 31
-1.5999999999999996
  0
LINE
  5
38
330
17
100
AcDbEntity
  8
0
100
AcDbLine
 10
93.65526948667099
 20
17.403351112811897
 30
-1.5999999999999996
 11
101.20330459817981
 21
22.30510242794714
 31
-1.5999999999999996
  0
LINE
  5
39
330
17
100
AcDbEntity
  8
0
100
AcDbLine
 10
115.2070109956377
 20
16.929583184767676
 30
-1.6000000000000179
 11
101.20330459817981
 21
22.305102427947112
 31
-1.6000000000000227
  0
ARC
  5
3A
330
17
100
AcDbEntity
  8
0
100
AcDbCircle
 10
113.4151712479112
 20
12.261681052281666
 30
-1.600000000000017
 40
5.0
100
AcDbArc
 50
-5.499999999999972
 51
69.00000000000003
  0
LINE
  5
3B
330
17
100
AcDbEntity
  8
0
100
AcDbLine
 10
118.39215223974708
 20
11.782452289680577
 30
-1.6000000000000227
 11
113.10040377263438
 21
-43.174456789497754
 31
-1.6000000000000227
  0
ARC
  5
3C
330
17
100
AcDbEntity
  8
0
100
AcDbCircle
 10
108.12342278079849
 20
-42.69522802689669
 30
-1.6000000000000054
 40
5.0
100
AcDbArc
 50
-90.0
 51
-5.499999999999972
  0
LINE
  5
3D
330
17
100
AcDbEntity
  8
0
100
AcDbLine
 10
108.12342278079848
 20
-47.69522802689669
 30
-1.5999999999999943
 11
98.12342278079859
 21
-47.69522802689669
 31
-1.5999999999999943
  0
LINE
  5
3E
330
17
100
AcDbEntity
  8
0
100
AcDbLine
 10
98.12342278079863
 20
-47.69522802689673
 30
-1.5999999999999996
 11
92.83335551016637
 21
-40.4140750775222
 31
-1.5999999999999996
  0
LINE
  5
3F
330
17
100
AcDbEntity
  8
0
100
AcDbLine
 10
92.83335551016637
 20
-40.4140750775222
 30
-1.5999999999999996
 11
87.83335551016637
 21
-40.4140750775222
 31
-1.5999999999999996
  0
LINE
  5
40
330
17
100
AcDbEntity
  8
0
100
AcDbLine
 10
87.83335551016637
 20
-40.41407507752219
 30
-1.5999999999999996
 11
82.5432882395341
 21
-47.69522802689673
 31
-1.5999999999999996
  0
LINE
  5
41
330
17
100
AcDbEntity
  8
0
100
AcDbLine
 10
82.54328823953415
 20
-47.69522802689669
 30
-1.5999999999999943
 11
47.19856665363466
 21
-47.69522802689669
 31
-1.5999999999999943
  0
LINE
  5
42
330
17
100
AcDbEntity
  8
0
100
AcDbLine
 10
47.19856665363464
 20
-47.695228026896714
 30
-1.5999999999999996
 11
34.91990006413438
 21
-38.77425456242622
 31
-1.5999999999999996
  0
LINE
  5
43
330
17
100
AcDbEntity
  8
0
100
AcDbLine
 10
-34.91990006413438
 20
-38.77425456242622
 30
-1.5999999999999996
 11
34.91990006413438
 21
-38.77425456242622
 31
-1.5999999999999996
  0
LINE
  5
44
330
17
100
AcDbEntity
  8
0
100
AcDbLine
 10
-34.91990006413438
 20
-38.77425456242622
 30
-1.5999999999999996
 11
-47.19856665363466
 21
-47.695228026896714
 31
-1.5999999999999996
  0
LINE
  5
45
330
17
100
AcDbEntity
  8
0
100
AcDbLine
 10
-82.54328823953415
 20
-47.69522802689672
 30
-1.5999999999999943
 11
-47.19856665363466
 21
-47.695228026896714
 31
-1.5999999999999943
  0
LINE
  5
46
330
17
100
AcDbEntity
  8
0
100
AcDbLine
 10
-82.54328823953409
 20
-47.69522802689672
 30
-1.5999999999999996
 11
-87.83335551016636
 21
-40.41407507752219
 31
-1.5999999999999996
  0
LINE
  5
47
330
17
100
AcDbEntity
  8
0
100
AcDbLine
 10
-87.83335551016637
 20
-40.4140750775222
 30
-1.5999999999999996
 11
-92.83335551016637
 21
-40.4140750775222
 31
-1.5999999999999996
  0
LINE
  5
48
330
17
100
AcDbEntity
  8
0
100
AcDbLine
 10
-92.83335551016637
 20
-40.41407507752219
 30
-1.5999999999999996
 11
-98.12342278079862
 21
-47.69522802689672
 31
-1.5999999999999996
  0
LINE
  5
49
330
17
100
AcDbEntity
  8
0
100
AcDbLine
 10
-108.12342278079859
 20
-47.69522802689673
 30
-1.5999999999999943
 11
-98.12342278079859
 21
-47.69522802689673
 31
-1.5999999999999943
  0
ARC
  5
4A
330
17
100
AcDbEntity
  8
0
100
AcDbCircle
 10
-108.12342278079863
 20
-42.69522802689673
 30
-1.6000000000000054
 40
5.0
100
AcDbArc
 50
185.49999999999997
 51
270.0
  0
LINE
  5
4B
330
17
100
AcDbEntity
  8
0
100
AcDbLine
 10
-118.39215223974726
 20
11.782452289680577
 30
-1.6000000000000227
 11
-113.10040377263454
 21
-43.17445678949787
 31
-1.6000000000000227
  0
ARC
  5
4C
330
17
100
AcDbEntity
  8
0
100
AcDbCircle
 10
-113.41517124791135
 20
12.26168105228163
 30
-1.600000000000017
 40
5.0
100
AcDbArc
 50
110.99999999999997
 51
185.49999999999997
  0
LINE
  5
4D
330
17
100
AcDbEntity
  8
0
100
AcDbLine
 10
-101.20330459817981
 20
22.305102427947137
 30
-1.6000000000000223
 11
-115.20701099563784
 21
16.92958318476764
 31
-1.6000000000000179
  0
LINE
  5
4E
330
17
100
AcDbEntity
  8
0
100
AcDbLine
 10
-101.20330459817981
 20
22.30510242794714
 30
-1.5999999999999996
 11
-93.65526948667099
 21
17.403351112811897
 31
-1.5999999999999996
  0
LINE
  5
4F
330
17
100
AcDbEntity
  8
0
100
AcDbLine
 10
-93.65526948667099
 20
17.4033511128119
 30
-1.5999999999999996
 11
-88.98736735418498
 21
19.195190860538403
 31
-1.5999999999999996
  0
LINE
  5
50
330
17
100
AcDbEntity
  8
0
100
AcDbLine
 10
-88.98736735418498
 20
19.195190860538403
 30
-1.5999999999999996
 11
-86.6579959482623
 21
27.88852329714002
 31
-1.5999999999999996
  0
LINE
  5
51
330
17
100
AcDbEntity
  8
0
100
AcDbLine
 10
-35.29542597469481
 20
47.60476665698248
 30
-1.600000000000045
 11
-86.65799594826228
 21
27.888523297140008
 31
-1.6000000000000276
  0
LINE
  5
52
330
17
100
AcDbEntity
  8
0
100
AcDbLine
 10
-21.234227844432233
 20
57.8208250933277
 30
-1.6000000000000267
 11
-35.29542597469481
 21
47.60476665698248
 31
-1.6000000000000454
  0
ARC
  5
53
330
17
100
AcDbEntity
  8
0
100
AcDbCircle
 10
-18.29530158296987
 20
53.77574012145296
 30
-1.6000000000000258
 40
5.0
100
AcDbArc
 50
90.0
 51
125.99999999999997
  0
LINE
  5
54
330
17
100
AcDbEntity
  8
0
100
AcDbLine
 10
-17.29530158296987
 20
58.775740121452955
 30
-1.6000000000000227
 11
-18.29530158296987
 21
58.775740121452955
 31
-1.6000000000000227
  0
LINE
  5
55
330
17
100
AcDbEntity
  8
0
100
AcDbLine
 10
-17.295301582969877
 20
58.77574012145296
 30
-1.5999999999999996
 11
-12.005234312337619
 21
51.49458717207843
 31
-1.5999999999999996
  0
LINE
  5
56
330
17
100
AcDbEntity
  8
0
100
AcDbLine
 10
-12.00523431233761
 20
51.49458717207843
 30
-1.5999999999999996
 11
-7.00523431233761
 21
51.49458717207843
 31
-1.5999999999999996
  0
LINE
  5
57
330
17
100
AcDbEntity
  8
0
100
AcDbLine
 10
-7.005234312337615
 20
51.49458717207843
 30
-1.5999999999999996
 11
-1.7151670417053548
 21
58.775740121452955
 31
-1.5999999999999996
  0
LINE
  5
58
330
17
100
AcDbEntity
  8
0
100
AcDbLine
 10
1.715167041705353
 20
58.77574012145296
 30
-1.6000000000000227
 11
-1.715167041705353
 21
58.775740121452955
 31
-1.6000000000000227
  0
LINE
  5
59
330
17
100
AcDbEntity
  8
0
100
AcDbLine
 10
1.715167041705353
 20
58.775740121452955
 30
-1.5999999999999996
 11
7.005234312337613
 21
51.49458717207844
 31
-1.5999999999999996
  0
LINE
  5
5A
330
17
100
AcDbEntity
  8
0
100
AcDbLine
 10
7.00523431233761
 20
51.49458717207843
 30
-1.5999999999999996
 11
12.005234312337612
 21
51.49458717207843
 31
-1.5999999999999996
  0
LINE
  5
5B
330
17
100
AcDbEntity
  8
0
100
AcDbLine
 10
12.005234312337617
 20
51.49458717207843
 30
-1.5999999999999996
 11
17.295301582969877
 21
58.77574012145296
 31
-1.5999999999999996
  0
CIRCLE
  5
5C
330
17
100
AcDbEntity
  8
0
100
AcDbCircle
 10
-21.60523431233762
 20
26.69232178991195
 30
-1.6000000000000112
 40
1.0999999999999996
  0
CIRCLE
  5
5D
330
17
100
AcDbEntity
  8
0
100
AcDbCircle
 10
21.60523431233761
 20
26.692321789911947
 30
-1.6000000000000112
 40
1.100000000000004
  0
CIRCLE
  5
5E
330
17
100
AcDbEntity
  8
0
100
AcDbCircle
 10
89.04067273788348
 20
12.778342117412544
 30
-1.6000000000000112
 40
1.0999999999999925
  0
CIRCLE
  5
5F
330
17
100
AcDbEntity
  8
0
100
AcDbCircle
 10
87.83335551016627
 20
-37.21180969535569
 30
-1.6000000000000112
 40
1.099999999999998
  0
CIRCLE
  5
60
330
17
100
AcDbEntity
  8
0
100
AcDbCircle
 10
-89.04067273788348
 20
12.778342117412526
 30
-1.6000000000000112
 40
1.0999999999999925
  0
CIRCLE
  5
61
330
17
100
AcDbEntity
  8
0
100
AcDbCircle
 10
-22.90019700917813
 20
-33.224475510135825
 30
-1.6000000000000112
 40
1.100000000000002
  0
CIRCLE
  5
62
330
17
100
AcDbEntity
  8
0
100
AcDbCircle
 10
-87.83335551016627
 20
-37.21180969535569
 30
-1.6000000000000112
 40
1.099999999999998
  0
CIRCLE
  5
63
330
17
100
AcDbEntity
  8
0
100
AcDbCircle
 10
22.90019700917813
 20
-33.224475510135825
 30
-1.6000000000000112
 40
1.100000000000002
  0
ARC
  5
64
330
17
100
AcDbEntity
  8
0
100
AcDbCircle
 10
18.295301582969707
 20
53.77574012145296
 30
-2.5757174171303632e-14
 40
5.0
100
AcDbArc
 50
54.00000000000003
 51
90.0
  0
LINE
  5
65
330
17
100
AcDbEntity
  8
0
100
AcDbLine
 10
21.23422784443207
 20
57.8208250933277
 30
-2.6645352591003757e-14
 11
21.23422784443207
 21
57.8208250933277
 31
-1.6000000000000267
  0
LINE
  5
66
330
17
100
AcDbEntity
  8
0
100
AcDbLine
 10
35.29542597469463
 20
47.60476665698249
 30
-4.529709940470639e-14
 11
21.23422784443207
 21
57.8208250933277
 31
-2.6645352591003757e-14
  0
LINE
  5
67
330
17
100
AcDbEntity
  8
0
100
AcDbLine
 10
86.65799594826228
 20
27.888523297139976
 30
-2.7533531010703882e-14
 11
35.29542597469462
 21
47.60476665698249
 31
-4.4853010194856324e-14
  0
LINE
  5
68
330
17
100
AcDbEntity
  8
0
100
AcDbLine
 10
86.6579959482623
 20
27.888523297140015
 30
4.440892098500626e-16
 11
88.98736735418498
 21
19.195190860538403
 31
4.440892098500626e-16
  0
LINE
  5
69
330
17
100
AcDbEntity
  8
0
100
AcDbLine
 10
88.98736735418498
 20
19.1951908605384
 30
4.440892098500626e-16
 11
93.65526948667099
 21
17.403351112811897
 31
4.440892098500626e-16
  0
LINE
  5
6A
330
17
100
AcDbEntity
  8
0
100
AcDbLine
 10
93.65526948667099
 20
17.403351112811897
 30
4.440892098500626e-16
 11
101.20330459817981
 21
22.30510242794714
 31
4.440892098500626e-16
  0
LINE
  5
6B
330
17
100
AcDbEntity
  8
0
100
AcDbLine
 10
115.2070109956377
 20
16.929583184767676
 30
-1.7763568394002505e-14
 11
101.20330459817981
 21
22.305102427947112
 31
-2.2648549702353193e-14
  0
ARC
  5
6C
330
17
100
AcDbEntity
  8
0
100
AcDbCircle
 10
113.4151712479112
 20
12.261681052281666
 30
-1.687538997430238e-14
 40
5.0
100
AcDbArc
 50
-5.499999999999972
 51
69.00000000000003
  0
LINE
  5
6D
330
17
100
AcDbEntity
  8
0
100
AcDbLine
 10
118.39215223974708
 20
11.782452289680577
 30
-2.220446049250313e-14
 11
113.10040377263438
 21
-43.174456789497754
 31
-2.220446049250313e-14
  0
ARC
  5
6E
330
17
100
AcDbEntity
  8
0
100
AcDbCircle
 10
108.12342278079849
 20
-42.69522802689669
 30
-5.329070518200751e-15
 40
5.0
100
AcDbArc
 50
-90.0
 51
-5.499999999999972
  0
LINE
  5
6F
330
17
100
AcDbEntity
  8
0
100
AcDbLine
 10
108.12342278079848
 20
-47.69522802689669
 30
6.217248937900877e-15
 11
98.12342278079859
 21
-47.69522802689669
 31
6.217248937900877e-15
  0
LINE
  5
70
330
17
100
AcDbEntity
  8
0
100
AcDbLine
 10
98.12342278079863
 20
-47.69522802689673
 30
4.440892098500626e-16
 11
92.83335551016637
 21
-40.4140750775222
 31
4.440892098500626e-16
  0
LINE
  5
71
330
17
100
AcDbEntity
  8
0
100
AcDbLine
 10
92.83335551016637
 20
-40.4140750775222
 30
4.440892098500626e-16
 11
87.83335551016637
 21
-40.4140750775222
 31
4.440892098500626e-16
  0
LINE
  5
72
330
17
100
AcDbEntity
  8
0
100
AcDbLine
 10
87.83335551016637
 20
-40.41407507752219
 30
4.440892098500626e-16
 11
82.5432882395341
 21
-47.69522802689673
 31
4.440892098500626e-16
  0
LINE
  5
73
330
17
100
AcDbEntity
  8
0
100
AcDbLine
 10
82.54328823953415
 20
-47.69522802689669
 30
6.217248937900877e-15
 11
47.19856665363466
 21
-47.69522802689669
 31
6.217248937900877e-15
  0
LINE
  5
74
330
17
100
AcDbEntity
  8
0
100
AcDbLine
 10
47.19856665363464
 20
-47.695228026896714
 30
4.440892098500626e-16
 11
34.91990006413438
 21
-38.77425456242622
 31
4.440892098500626e-16
  0
LINE
  5
75
330
17
100
AcDbEntity
  8
0
100
AcDbLine
 10
-34.91990006413438
 20
-38.77425456242622
 30
4.440892098500626e-16
 11
34.91990006413438
 21
-38.77425456242622
 31
4.440892098500626e-16
  0
LINE
  5
76
330
17
100
AcDbEntity
  8
0
100
AcDbLine
 10
-34.91990006413438
 20
-38.77425456242622
 30
4.440892098500626e-16
 11
-47.19856665363466
 21
-47.695228026896714
 31
4.440892098500626e-16
  0
LINE
  5
77
330
17
100
AcDbEntity
  8
0
100
AcDbLine
 10
-82.54328823953415
 20
-47.69522802689672
 30
6.217248937900877e-15
 11
-47.19856665363466
 21
-47.695228026896714
 31
6.217248937900877e-15
  0
LINE
  5
78
330
17
100
AcDbEntity
  8
0
100
AcDbLine
 10
-82.54328823953409
 20
-47.69522802689672
 30
4.440892098500626e-16
 11
-87.83335551016636
 21
-40.41407507752219
 31
4.440892098500626e-16
  0
LINE
  5
79
330
17
100
AcDbEntity
  8
0
100
AcDbLine
 10
-87.83335551016637
 20
-40.4140750775222
 30
4.440892098500626e-16
 11
-92.83335551016637
 21
-40.4140750775222
 31
4.440892098500626e-16
  0
LINE
  5
7A
330
17
100
AcDbEntity
  8
0
100
AcDbLine
 10
-92.83335551016637
 20
-40.41407507752219
 30
4.440892098500626e-16
 11
-98.12342278079862
 21
-47.69522802689672
 31
4.440892098500626e-16
  0
LINE
  5
7B
330
17
100
AcDbEntity
  8
0
100
AcDbLine
 10
-108.12342278079859
 20
-47.69522802689673
 30
6.217248937900877e-15
 11
-98.12342278079859
 21
-47.69522802689673
 31
6.217248937900877e-15
  0
ARC
  5
7C
330
17
100
AcDbEntity
  8
0
100
AcDbCircle
 10
-108.12342278079863
 20
-42.69522802689673
 30
-5.329070518200751e-15
 40
5.0
100
AcDbArc
 50
185.49999999999997
 51
270.0
  0
LINE
  5
7D
330
17
100
AcDbEntity
  8
0
100
AcDbLine
 10
-118.39215223974726
 20
11.782452289680577
 30
-2.220446049250313e-14
 11
-113.10040377263454
 21
-43.17445678949787
 31
-2.220446049250313e-14
  0
ARC
  5
7E
330
17
100
AcDbEntity
  8
0
100
AcDbCircle
 10
-113.41517124791135
 20
12.26168105228163
 30
-1.687538997430238e-14
 40
5.0
100
AcDbArc
 50
110.99999999999997
 51
185.49999999999997
  0
LINE
  5
7F
330
17
100
AcDbEntity
  8
0
100
AcDbLine
 10
-101.20330459817981
 20
22.305102427947137
 30
-2.2648549702353193e-14
 11
-115.20701099563784
 21
16.92958318476764
 31
-1.8207657603852567e-14
  0
LINE
  5
80
330
17
100
AcDbEntity
  8
0
100
AcDbLine
 10
-101.20330459817981
 20
22.30510242794714
 30
4.440892098500626e-16
 11
-93.65526948667099
 21
17.403351112811897
 31
4.440892098500626e-16
  0
LINE
  5
81
330
17
100
AcDbEntity
  8
0
100
AcDbLine
 10
-93.65526948667099
 20
17.4033511128119
 30
4.440892098500626e-16
 11
-88.98736735418498
 21
19.195190860538403
 31
4.440892098500626e-16
  0
LINE
  5
82
330
17
100
AcDbEntity
  8
0
100
AcDbLine
 10
-88.98736735418498
 20
19.195190860538403
 30
4.440892098500626e-16
 11
-86.6579959482623
 21
27.88852329714002
 31
4.440892098500626e-16
  0
LINE
  5
83
330
17
100
AcDbEntity
  8
0
100
AcDbLine
 10
-35.29542597469481
 20
47.60476665698248
 30
-4.529709940470639e-14
 11
-86.65799594826228
 21
27.888523297140008
 31
-2.7977620220553945e-14
  0
LINE
  5
84
330
17
100
AcDbEntity
  8
0
100
AcDbLine
 10
-21.234227844432233
 20
57.8208250933277
 30
-2.6645352591003757e-14
 11
-35.29542597469481
 21
47.60476665698248
 31
-4.529709940470639e-14
  0
ARC
  5
85
330
17
100
AcDbEntity
  8
0
100
AcDbCircle
 10
-18.29530158296987
 20
53.77574012145296
 30
-2.5757174171303632e-14
 40
5.0
100
AcDbArc
 50
90.0
 51
125.99999999999997
  0
LINE
  5
86
330
17
100
AcDbEntity
  8
0
100
AcDbLine
 10
-17.29530158296987
 20
58.775740121452955
 30
-2.220446049250313e-14
 11
-18.29530158296987
 21
58.775740121452955
 31
-2.220446049250313e-14
  0
LINE
  5
87
330
17
100
AcDbEntity
  8
0
100
AcDbLine
 10
-17.295301582969877
 20
58.77574012145296
 30
4.440892098500626e-16
 11
-12.005234312337619
 21
51.49458717207843
 31
4.440892098500626e-16
  0
LINE
  5
88
330
17
100
AcDbEntity
  8
0
100
AcDbLine
 10
-12.00523431233761
 20
51.49458717207843
 30
4.440892098500626e-16
 11
-7.00523431233761
 21
51.49458717207843
 31
4.440892098500626e-16
  0
LINE
  5
89
330
17
100
AcDbEntity
  8
0
100
AcDbLine
 10
-7.005234312337615
 20
51.49458717207843
 30
4.440892098500626e-16
 11
-1.7151670417053548
 21
58.775740121452955
 31
4.440892098500626e-16
  0
LINE
  5
8A
330
17
100
AcDbEntity
  8
0
100
AcDbLine
 10
1.715167041705353
 20
58.77574012145296
 30
-2.220446049250313e-14
 11
-1.715167041705353
 21
58.775740121452955
 31
-2.220446049250313e-14
  0
LINE
  5
8B
330
17
100
AcDbEntity
  8
0
100
AcDbLine
 10
1.715167041705353
 20
58.775740121452955
 30
4.440892098500626e-16
 11
7.005234312337613
 21
51.49458717207844
 31
4.440892098500626e-16
  0
LINE
  5
8C
330
17
100
AcDbEntity
  8
0
100
AcDbLine
 10
7.00523431233761
 20
51.49458717207843
 30
4.440892098500626e-16
 11
12.005234312337612
 21
51.49458717207843
 31
4.440892098500626e-16
  0
LINE
  5
8D
330
17
100
AcDbEntity
  8
0
100
AcDbLine
 10
12.005234312337617
 20
51.49458717207843
 30
4.440892098500626e-16
 11
17.295301582969877
 21
58.77574012145296
 31
4.440892098500626e-16
  0
CIRCLE
  5
8E
330
17
100
AcDbEntity
  8
0
100
AcDbCircle
 10
-21.605234312337615
 20
26.69232178991195
 30
1.1546319456101628e-14
 40
1.1
  0
CIRCLE
  5
8F
330
17
100
AcDbEntity
  8
0
100
AcDbCircle
 10
21.605234312337615
 20
26.69232178991195
 30
1.1546319456101628e-14
 40
1.1
  0
CIRCLE
  5
90
330
17
100
AcDbEntity
  8
0
100
AcDbCircle
 10
89.04067273788348
 20
12.778342117412535
 30
1.1546319456101628e-14
 40
1.1
  0
CIRCLE
  5
91
330
17
100
AcDbEntity
  8
0
100
AcDbCircle
 10
87.83335551016627
 20
-37.21180969535569
 30
1.1546319456101628e-14
 40
1.1
  0
CIRCLE
  5
92
330
17
100
AcDbEntity
  8
0
100
AcDbCircle
 10
-89.04067273788348
 20
12.778342117412535
 30
1.1546319456101628e-14
 40
1.1
  0
CIRCLE
  5
93
330
17
100
AcDbEntity
  8
0
100
AcDbCircle
 10
-22.90019700917813
 20
-33.224475510135825
 30
1.1546319456101628e-14
 40
1.1
  0
CIRCLE
  5
94
330
17
100
AcDbEntity
  8
0
100
AcDbCircle
 10
-87.83335551016627
 20
-37.21180969535569
 30
1.1546319456101628e-14
 40
1.1
  0
CIRCLE
  5
95
330
17
100
AcDbEntity
  8
0
100
AcDbCircle
 10
22.90019700917813
 20
-33.224475510135825
 30
1.1546319456101628e-14
 40
1.1
  0
LINE
  5
96
330
17
100
AcDbEntity
  8
0
100
AcDbLine
 10
12.005234312337612
 20
51.49458717207843
 30
-1.5999999999999996
 11
12.005234312337612
 21
51.49458717207843
 31
4.440892098500626e-16
  0
LINE
  5
97
330
17
100
AcDbEntity
  8
0
100
AcDbLine
 10
35.29542597469463
 20
47.60476665698249
 30
-1.600000000000045
 11
35.29542597469463
 21
47.60476665698249
 31
-4.4853010194856324e-14
  0
LINE
  5
98
330
17
100
AcDbEntity
  8
0
100
AcDbLine
 10
7.005234312337611
 20
51.49458717207843
 30
-1.5999999999999996
 11
7.0052343123376115
 21
51.49458717207843
 31
4.440892098500626e-16
  0
LINE
  5
99
330
17
100
AcDbEntity
  8
0
100
AcDbLine
 10
86.65799594826228
 20
27.888523297139997
 30
-1.6000000000000423
 11
86.65799594826228
 21
27.888523297139997
 31
-4.218847493575595e-14
  0
LINE
  5
9A
330
17
100
AcDbEntity
  8
0
100
AcDbLine
 10
1.715167041705353
 20
58.77574012145296
 30
-1.6000000000000254
 11
1.715167041705353
 21
58.775740121452955
 31
-2.531308496145357e-14
  0
LINE
  5
9B
330
17
100
AcDbEntity
  8
0
100
AcDbLine
 10
88.98736735418498
 20
19.195190860538403
 30
-1.5999999999999996
 11
88.98736735418498
 21
19.195190860538403
 31
4.440892098500626e-16
  0
LINE
  5
9C
330
17
100
AcDbEntity
  8
0
100
AcDbLine
 10
-1.715167041705353
 20
58.77574012145296
 30
-1.6000000000000254
 11
-1.715167041705353
 21
58.775740121452955
 31
-2.531308496145357e-14
  0
LINE
  5
9D
330
17
100
AcDbEntity
  8
0
100
AcDbLine
 10
93.65526948667099
 20
17.4033511128119
 30
-1.5999999999999996
 11
93.65526948667099
 21
17.4033511128119
 31
4.440892098500626e-16
  0
LINE
  5
9E
330
17
100
AcDbEntity
  8
0
100
AcDbLine
 10
-7.005234312337611
 20
51.49458717207843
 30
-1.5999999999999996
 11
-7.0052343123376115
 21
51.49458717207843
 31
4.440892098500626e-16
  0
LINE
  5
9F
330
17
100
AcDbEntity
  8
0
100
AcDbLine
 10
101.20330459817983
 20
22.30510242794713
 30
-1.6000000000000396
 11
101.20330459817981
 21
22.30510242794713
 31
-3.952393967665557e-14
  0
LINE
  5
A0
330
17
100
AcDbEntity
  8
0
100
AcDbLine
 10
-12.005234312337612
 20
51.49458717207843
 30
-1.5999999999999996
 11
-12.005234312337612
 21
51.49458717207843
 31
4.440892098500626e-16
  0
LINE
  5
A1
330
17
100
AcDbEntity
  8
0
100
AcDbLine
 10
115.2070109956377
 20
16.929583184767676
 30
-1.6000000000000179
 11
115.2070109956377
 21
16.929583184767676
 31
-1.7763568394002505e-14
  0
LINE
  5
A2
330
17
100
AcDbEntity
  8
0
100
AcDbLine
 10
-17.29530158296987
 20
58.77574012145296
 30
-1.6000000000000254
 11
-17.29530158296987
 21
58.775740121452955
 31
-2.531308496145357e-14
  0
LINE
  5
A3
330
17
100
AcDbEntity
  8
0
100
AcDbLine
 10
118.39215223974709
 20
11.782452289680554
 30
-1.600000000000017
 11
118.3921522397471
 21
11.782452289680553
 31
-1.687538997430238e-14
  0
LINE
  5
A4
330
17
100
AcDbEntity
  8
0
100
AcDbLine
 10
-18.29530158296987
 20
58.77574012145296
 30
-1.6000000000000267
 11
-18.29530158296987
 21
58.77574012145296
 31
-2.6645352591003757e-14
  0
LINE
  5
A5
330
17
100
AcDbEntity
  8
0
100
AcDbLine
 10
113.10040377263438
 20
-43.17445678949781
 30
-1.600000000000005
 11
113.1004037726344
 21
-43.17445678949781
 31
-4.884981308350689e-15
  0
LINE
  5
A6
330
17
100
AcDbEntity
  8
0
100
AcDbLine
 10
-21.234227844432233
 20
57.8208250933277
 30
-1.6000000000000267
 11
-21.234227844432233
 21
57.8208250933277
 31
-2.6645352591003757e-14
  0
LINE
  5
A7
330
17
100
AcDbEntity
  8
0
100
AcDbLine
 10
108.12342278079849
 20
-47.69522802689669
 30
-1.600000000000004
 11
108.12342278079849
 21
-47.69522802689669
 31
-3.9968028886505635e-15
  0
LINE
  5
A8
330
17
100
AcDbEntity
  8
0
100
AcDbLine
 10
-35.29542597469481
 20
47.604766656982484
 30
-1.600000000000045
 11
-35.29542597469481
 21
47.60476665698248
 31
-4.4853010194856324e-14
  0
LINE
  5
A9
330
17
100
AcDbEntity
  8
0
100
AcDbLine
 10
98.12342278079863
 20
-47.69522802689672
 30
-1.599999999999997
 11
98.12342278079862
 21
-47.695228026896714
 31
3.1086244689504383e-15
  0
LINE
  5
AA
330
17
100
AcDbEntity
  8
0
100
AcDbLine
 10
-86.65799594826228
 20
27.88852329714001
 30
-1.600000000000028
 11
-86.65799594826228
 21
27.88852329714001
 31
-2.7977620220553945e-14
  0
LINE
  5
AB
330
17
100
AcDbEntity
  8
0
100
AcDbLine
 10
92.83335551016637
 20
-40.4140750775222
 30
-1.5999999999999996
 11
92.83335551016637
 21
-40.4140750775222
 31
4.440892098500626e-16
  0
LINE
  5
AC
330
17
100
AcDbEntity
  8
0
100
AcDbLine
 10
-88.98736735418498
 20
19.195190860538403
 30
-1.5999999999999996
 11
-88.98736735418498
 21
19.195190860538403
 31
4.440892098500626e-16
  0
LINE
  5
AD
330
17
100
AcDbEntity
  8
0
100
AcDbLine
 10
87.83335551016637
 20
-40.4140750775222
 30
-1.5999999999999996
 11
87.83335551016637
 21
-40.4140750775222
 31
4.440892098500626e-16
  0
LINE
  5
AE
330
17
100
AcDbEntity
  8
0
100
AcDbLine
 10
-93.65526948667099
 20
17.4033511128119
 30
-1.5999999999999996
 11
-93.65526948667099
 21
17.4033511128119
 31
4.440892098500626e-16
  0
LINE
  5
AF
330
17
100
AcDbEntity
  8
0
100
AcDbLine
 10
82.54328823953412
 20
-47.69522802689672
 30
-1.599999999999997
 11
82.54328823953412
 21
-47.695228026896714
 31
3.1086244689504383e-15
  0
LINE
  5
B0
330
17
100
AcDbEntity
  8
0
100
AcDbLine
 10
-101.20330459817983
 20
22.305102427947144
 30
-1.6000000000000254
 11
-101.20330459817981
 21
22.30510242794714
 31
-2.531308496145357e-14
  0
LINE
  5
B1
330
17
100
AcDbEntity
  8
0
100
AcDbLine
 10
47.19856665363466
 20
-47.69522802689669
 30
-1.5999999999999943
 11
47.19856665363466
 21
-47.69522802689669
 31
5.773159728050814e-15
  0
LINE
  5
B2
330
17
100
AcDbEntity
  8
0
100
AcDbLine
 10
-115.20701099563784
 20
16.92958318476764
 30
-1.6000000000000179
 11
-115.20701099563784
 21
16.92958318476764
 31
-1.7763568394002505e-14
  0
LINE
  5
B3
330
17
100
AcDbEntity
  8
0
100
AcDbLine
 10
34.91990006413438
 20
-38.77425456242622
 30
-1.5999999999999996
 11
34.91990006413438
 21
-38.77425456242622
 31
4.440892098500626e-16
  0
LINE
  5
B4
330
17
100
AcDbEntity
  8
0
100
AcDbLine
 10
-118.39215223974725
 20
11.782452289680514
 30
-1.600000000000017
 11
-118.39215223974725
 21
11.782452289680514
 31
-1.687538997430238e-14
  0
LINE
  5
B5
330
17
100
AcDbEntity
  8
0
100
AcDbLine
 10
-34.91990006413438
 20
-38.77425456242622
 30
-1.5999999999999996
 11
-34.91990006413438
 21
-38.77425456242622
 31
4.440892098500626e-16
  0
LINE
  5
B6
330
17
100
AcDbEntity
  8
0
100
AcDbLine
 10
-113.10040377263454
 20
-43.174456789497846
 30
-1.600000000000005
 11
-113.10040377263454
 21
-43.174456789497846
 31
-4.884981308350689e-15
  0
LINE
  5
B7
330
17
100
AcDbEntity
  8
0
100
AcDbLine
 10
-47.19856665363466
 20
-47.69522802689672
 30
-1.5999999999999943
 11
-47.19856665363466
 21
-47.695228026896714
 31
5.773159728050814e-15
  0
LINE
  5
B8
330
17
100
AcDbEntity
  8
0
100
AcDbLine
 10
-108.12342278079863
 20
-47.69522802689673
 30
-1.600000000000004
 11
-108.12342278079863
 21
-47.69522802689673
 31
-3.9968028886505635e-15
  0
LINE
  5
B9
330
17
100
AcDbEntity
  8
0
100
AcDbLine
 10
-82.54328823953412
 20
-47.69522802689673
 30
-1.599999999999997
 11
-82.54328823953412
 21
-47.69522802689673
 31
3.1086244689504383e-15
  0
LINE
  5
BA
330
17
100
AcDbEntity
  8
0
100
AcDbLine
 10
-98.12342278079863
 20
-47.69522802689673
 30
-1.599999999999997
 11
-98.12342278079862
 21
-47.69522802689673
 31
3.1086244689504383e-15
  0
LINE
  5
BB
330
17
100
AcDbEntity
  8
0
100
AcDbLine
 10
-87.83335551016637
 20
-40.4140750775222
 30
-1.5999999999999996
 11
-87.83335551016637
 21
-40.4140750775222
 31
4.440892098500626e-16
  0
LINE
  5
BC
330
17
100
AcDbEntity
  8
0
100
AcDbLine
 10
-92.83335551016637
 20
-40.4140750775222
 30
-1.5999999999999996
 11
-92.83335551016637
 21
-40.4140750775222
 31
4.440892098500626e-16
  0
LINE
  5
BD
330
17
100
AcDbEntity
  8
0
100
AcDbLine
 10
-22.705234312337616
 20
26.69232178991195
 30
-1.6000000000000112
 11
-22.705234312337616
 21
26.69232178991195
 31
1.1546319456101628e-14
  0
LINE
  5
BE
330
17
100
AcDbEntity
  8
0
100
AcDbLine
 10
22.705234312337616
 20
26.69232178991195
 30
-1.6000000000000112
 11
22.705234312337616
 21
26.69232178991195
 31
1.1546319456101628e-14
  0
LINE
  5
BF
330
17
100
AcDbEntity
  8
0
100
AcDbLine
 10
90.14067273788348
 20
12.778342117412535
 30
-1.6000000000000112
 11
90.14067273788348
 21
12.778342117412535
 31
1.1546319456101628e-14
  0
LINE
  5
C0
330
17
100
AcDbEntity
  8
0
100
AcDbLine
 10
88.93335551016627
 20
-37.21180969535569
 30
-1.6000000000000112
 11
88.93335551016627
 21
-37.21180969535569
 31
1.1546319456101628e-14
  0
LINE
  5
C1
330
17
100
AcDbEntity
  8
0
100
AcDbLine
 10
-90.14067273788348
 20
12.778342117412535
 30
-1.6000000000000112
 11
-90.14067273788348
 21
12.778342117412535
 31
1.1546319456101628e-14
  0
LINE
  5
C2
330
17
100
AcDbEntity
  8
0
100
AcDbLine
 10
-24.00019700917813
 20
-33.224475510135825
 30
-1.6000000000000112
 11
-24.00019700917813
 21
-33.224475510135825
 31
1.1546319456101628e-14
  0
LINE
  5
C3
330
17
100
AcDbEntity
  8
0
100
AcDbLine
 10
-88.93335551016627
 20
-37.21180969535569
 30
-1.6000000000000112
 11
-88.93335551016627
 21
-37.21180969535569
 31
1.1546319456101628e-14
  0
LINE
  5
C4
330
17
100
AcDbEntity
  8
0
100
AcDbLine
 10
24.00019700917813
 20
-33.224475510135825
 30
-1.6000000000000112
 11
24.00019700917813
 21
-33.224475510135825
 31
1.1546319456101628e-14
  0
ENDSEC
  0
SECTION
  2
OBJECTS
  0
DICTIONARY
  5
A
330
0
100
AcDbDictionary
281
1
  3
ACAD_COLOR
350
B
  3
ACAD_GROUP
350
C
  3
ACAD_LAYOUT
350
D
  3
ACAD_MATERIAL
350
E
  3
ACAD_MLEADERSTYLE
350
F
  3
ACAD_MLINESTYLE
350
10
  3
ACAD_PLOTSETTINGS
350
11
  3
ACAD_PLOTSTYLENAME
350
12
  3
ACAD_SCALELIST
350
14
  3
ACAD_TABLESTYLE
350
15
  3
ACAD_VISUALSTYLE
350
16
  3
EZDXF_META
350
2D
  0
DICTIONARY
  5
B
330
A
100
AcDbDictionary
281
1
  0
DICTIONARY
  5
C
330
A
100
AcDbDictionary
281
1
  0
DICTIONARY
  5
D
330
A
100
AcDbDictionary
281
1
  3
Model
350
1A
  3
Layout1
350
1E
  0
DICTIONARY
  5
E
330
A
100
AcDbDictionary
281
1
  3
ByBlock
350
1F
  3
ByLayer
350
20
  3
Global
350
21
  0
DICTIONARY
  5
F
330
A
100
AcDbDictionary
281
1
  3
Standard
350
2C
  0
DICTIONARY
  5
10
330
A
100
AcDbDictionary
281
1
  3
Standard
350
22
  0
DICTIONARY
  5
11
330
A
100
AcDbDictionary
281
1
  0
ACDBDICTIONARYWDFLT
  5
12
330
A
100
AcDbDictionary
281
1
  3
Normal
350
13
100
AcDbDictionaryWithDefault
340
13
  0
ACDBPLACEHOLDER
  5
13
330
12
  0
DICTIONARY
  5
14
330
A
100
AcDbDictionary
281
1
  0
DICTIONARY
  5
15
330
A
100
AcDbDictionary
281
1
  0
DICTIONARY
  5
16
330
A
100
AcDbDictionary
281
1
  0
LAYOUT
  5
1A
330
D
100
AcDbPlotSettings
  1

  2
Adobe PDF
  4
A3
  6

 40
7.5
 41
20.0
 42
7.5
 43
20.0
 44
420.0
 45
297.0
 46
0.0
 47
0.0
 48
0.0
 49
0.0
140
0.0
141
0.0
142
1.0
143
1.0
 70
1024
 72
1
 73
1
 74
5
  7

 75
16
 76
0
 77
2
 78
300
147
1.0
148
0.0
149
0.0
100
AcDbLayout
  1
Model
 70
1
 71
0
 10
0.0
 20
0.0
 11
420.0
 21
297.0
 12
0.0
 22
0.0
 32
0.0
 14
1e+20
 24
1e+20
 34
1e+20
 15
-1e+20
 25
-1e+20
 35
-1e+20
146
0.0
 13
0.0
 23
0.0
 33
0.0
 16
1.0
 26
0.0
 36
0.0
 17
0.0
 27
1.0
 37
0.0
 76
1
330
17
  0
LAYOUT
  5
1E
330
D
100
AcDbPlotSettings
  1

  2
Adobe PDF
  4
A3
  6

 40
7.5
 41
20.0
 42
7.5
 43
20.0
 44
420.0
 45
297.0
 46
0.0
 47
0.0
 48
0.0
 49
0.0
140
0.0
141
0.0
142
1.0
143
1.0
 70
0
 72
1
 73
1
 74
5
  7

 75
16
 76
0
 77
2
 78
300
147
1.0
148
0.0
149
0.0
100
AcDbLayout
  1
Layout1
 70
1
 71
1
 10
0.0
 20
0.0
 11
420.0
 21
297.0
 12
0.0
 22
0.0
 32
0.0
 14
1e+20
 24
1e+20
 34
1e+20
 15
-1e+20
 25
-1e+20
 35
-1e+20
146
0.0
 13
0.0
 23
0.0
 33
0.0
 16
1.0
 26
0.0
 36
0.0
 17
0.0
 27
1.0
 37
0.0
 76
1
330
1B
  0
MATERIAL
  5
1F
102
{ACAD_REACTORS
330
E
102
}
330
E
100
AcDbMaterial
  1
ByBlock
  2

 70
0
 40
1.0
 71
1
 41
1.0
 91
-1023410177
 42
1.0
 72
1
  3

 73
1
 74
1
 75
1
 44
0.5
 73
0
 45
1.0
 46
1.0
 77
1
  4

 78
1
 79
1
170
1
 48
1.0
171
1
  6

172
1
173
1
174
1
140
1.0
141
1.0
175
1
  7

176
1
177
1
178
1
143
1.0
179
1
  8

270
1
271
1
272
1
145
1.0
146
1.0
273
1
  9

274
1
275
1
276
1
 42
1.0
 72
1
  3

 73
1
 74
1
 75
1
 94
63
  0
MATERIAL
  5
20
102
{ACAD_REACTORS
330
E
102
}
330
E
100
AcDbMaterial
  1
ByLayer
  2

 70
0
 40
1.0
 71
1
 41
1.0
 91
-1023410177
 42
1.0
 72
1
  3

 73
1
 74
1
 75
1
 44
0.5
 73
0
 45
1.0
 46
1.0
 77
1
  4

 78
1
 79
1
170
1
 48
1.0
171
1
  6

172
1
173
1
174
1
140
1.0
141
1.0
175
1
  7

176
1
177
1
178
1
143
1.0
179
1
  8

270
1
271
1
272
1
145
1.0
146
1.0
273
1
  9

274
1
275
1
276
1
 42
1.0
 72
1
  3

 73
1
 74
1
 75
1
 94
63
  0
MATERIAL
  5
21
102
{ACAD_REACTORS
330
E
102
}
330
E
100
AcDbMaterial
  1
Global
  2

 70
0
 40
1.0
 71
1
 41
1.0
 91
-1023410177
 42
1.0
 72
1
  3

 73
1
 74
1
 75
1
 44
0.5
 73
0
 45
1.0
 46
1.0
 77
1
  4

 78
1
 79
1
170
1
 48
1.0
171
1
  6

172
1
173
1
174
1
140
1.0
141
1.0
175
1
  7

176
1
177
1
178
1
143
1.0
179
1
  8

270
1
271
1
272
1
145
1.0
146
1.0
273
1
  9

274
1
275
1
276
1
 42
1.0
 72
1
  3

 73
1
 74
1
 75
1
 94
63
  0
MLINESTYLE
  5
22
102
{ACAD_REACTORS
330
10
102
}
330
10
100
AcDbMlineStyle
  2
Standard
 70
0
  3

 62
256
 51
90.0
 52
90.0
 71
2
 49
0.5
 62
256
  6
BYLAYER
 49
-0.5
 62
256
  6
BYLAYER
  0
MLEADERSTYLE
  5
2C
102
{ACAD_REACTORS
330
F
102
}
330
F
100
AcDbMLeaderStyle
179
2
170
2
171
1
172
0
 90
2
 40
0.0
 41
0.0
173
1
 91
-1056964608
 92
-2
290
1
 42
2.0
291
1
 43
8.0
  3
Standard
 44
4.0
300

342
29
174
1
175
1
176
0
178
1
 93
-1056964608
 45
4.0
292
0
297
0
 46
4.0
 94
-1056964608
 47
1.0
 49
1.0
140
1.0
294
1
141
0.0
177
0
142
1.0
295
0
296
0
143
3.75
271
0
272
9
273
9
  0
DICTIONARY
  5
2D
330
A
100
AcDbDictionary
281
1
  3
CREATED_BY_EZDXF
350
2E
  3
WRITTEN_BY_EZDXF
350
C7
  0
DICTIONARYVAR
  5
2E
330
2D
100
DictionaryVariables
280
0
  1
0.16.4 @ 2021-08-26T21:25:51.286603+00:00
  0
DICTIONARYVAR
  5
C7
330
2D
100
DictionaryVariables
280
0
  1
0.16.4 @ 2021-08-26T21:25:51.303182+00:00
  0
ENDSEC
  0
EOF
